# https://github.com/mikedh/trimesh
v 0.01000000 0.00000000 0.00000000
v 0.00000000 0.00000000 0.00000000
v 0.00980785 0.00195090 0.00000000
v 0.01000000 0.00000000 0.23999999
v 0.00980785 0.00195090 0.23999999
v 0.00000000 0.00000000 0.23999999
v 0.00923880 0.00382683 0.00000000
v 0.00923880 0.00382683 0.23999999
v 0.00831470 0.00555570 0.00000000
v 0.00831470 0.00555570 0.23999999
v 0.00707107 0.00707107 0.00000000
v 0.00707107 0.00707107 0.23999999
v 0.00555570 0.00831470 0.00000000
v 0.00555570 0.00831470 0.23999999
v 0.00382683 0.00923880 0.00000000
v 0.00382683 0.00923880 0.23999999
v 0.00195090 0.00980785 0.00000000
v 0.00195090 0.00980785 0.23999999
v 0.00000000 0.01000000 0.00000000
v 0.00000000 0.01000000 0.23999999
v -0.00195090 0.00980785 0.00000000
v -0.00195090 0.00980785 0.23999999
v -0.00382683 0.00923880 0.00000000
v -0.00382683 0.00923880 0.23999999
v -0.00555570 0.00831470 0.00000000
v -0.00555570 0.00831470 0.23999999
v -0.00707107 0.00707107 0.00000000
v -0.00707107 0.00707107 0.23999999
v -0.00831470 0.00555570 0.00000000
v -0.00831470 0.00555570 0.23999999
v -0.00923880 0.00382683 0.00000000
v -0.00923880 0.00382683 0.23999999
v -0.00980785 0.00195090 0.00000000
v -0.00980785 0.00195090 0.23999999
v -0.01000000 0.00000000 0.00000000
v -0.01000000 0.00000000 0.23999999
v -0.00980785 -0.00195090 0.00000000
v -0.00980785 -0.00195090 0.23999999
v -0.00923880 -0.00382683 0.00000000
v -0.00923880 -0.00382683 0.23999999
v -0.00831470 -0.00555570 0.00000000
v -0.00831470 -0.00555570 0.23999999
v -0.00707107 -0.00707107 0.00000000
v -0.00707107 -0.00707107 0.23999999
v -0.00555570 -0.00831470 0.00000000
v -0.00555570 -0.00831470 0.23999999
v -0.00382683 -0.00923880 0.00000000
v -0.00382683 -0.00923880 0.23999999
v -0.00195090 -0.00980785 0.00000000
v -0.00195090 -0.00980785 0.23999999
v -0.00000000 -0.01000000 0.00000000
v -0.00000000 -0.01000000 0.23999999
v 0.00195090 -0.00980785 0.00000000
v 0.00195090 -0.00980785 0.23999999
v 0.00382683 -0.00923880 0.00000000
v 0.00382683 -0.00923880 0.23999999
v 0.00555570 -0.00831470 0.00000000
v 0.00555570 -0.00831470 0.23999999
v 0.00707107 -0.00707107 0.00000000
v 0.00707107 -0.00707107 0.23999999
v 0.00831470 -0.00555570 0.00000000
v 0.00831470 -0.00555570 0.23999999
v 0.00923880 -0.00382683 0.00000000
v 0.00923880 -0.00382683 0.23999999
v 0.00980785 -0.00195090 0.00000000
v 0.00980785 -0.00195090 0.23999999
v 0.02600000 0.00000000 0.14600000
v 0.00000000 0.00000000 0.14600000
v 0.02550042 0.00507235 0.14600000
v 0.02600000 0.00000000 0.15400000
v 0.02550042 0.00507235 0.15400000
v 0.00000000 0.00000000 0.15400000
v 0.02402087 0.00994977 0.14600000
v 0.02402087 0.00994977 0.15400000
v 0.02161821 0.01444483 0.14600000
v 0.02161821 0.01444483 0.15400000
v 0.01838478 0.01838478 0.14600000
v 0.01838478 0.01838478 0.15400000
v 0.01444483 0.02161821 0.14600000
v 0.01444483 0.02161821 0.15400000
v 0.00994977 0.02402087 0.14600000
v 0.00994977 0.02402087 0.15400000
v 0.00507235 0.02550042 0.14600000
v 0.00507235 0.02550042 0.15400000
v 0.00000000 0.02600000 0.14600000
v 0.00000000 0.02600000 0.15400000
v -0.00507235 0.02550042 0.14600000
v -0.00507235 0.02550042 0.15400000
v -0.00994977 0.02402087 0.14600000
v -0.00994977 0.02402087 0.15400000
v -0.01444483 0.02161821 0.14600000
v -0.01444483 0.02161821 0.15400000
v -0.01838478 0.01838478 0.14600000
v -0.01838478 0.01838478 0.15400000
v -0.02161821 0.01444483 0.14600000
v -0.02161821 0.01444483 0.15400000
v -0.02402087 0.00994977 0.14600000
v -0.02402087 0.00994977 0.15400000
v -0.02550042 0.00507235 0.14600000
v -0.02550042 0.00507235 0.15400000
v -0.02600000 0.00000000 0.14600000
v -0.02600000 0.00000000 0.15400000
v -0.02550042 -0.00507235 0.14600000
v -0.02550042 -0.00507235 0.15400000
v -0.02402087 -0.00994977 0.14600000
v -0.02402087 -0.00994977 0.15400000
v -0.02161821 -0.01444483 0.14600000
v -0.02161821 -0.01444483 0.15400000
v -0.01838478 -0.01838478 0.14600000
v -0.01838478 -0.01838478 0.15400000
v -0.01444483 -0.02161821 0.14600000
v -0.01444483 -0.02161821 0.15400000
v -0.00994977 -0.02402087 0.14600000
v -0.00994977 -0.02402087 0.15400000
v -0.00507235 -0.02550042 0.14600000
v -0.00507235 -0.02550042 0.15400000
v -0.00000000 -0.02600000 0.14600000
v -0.00000000 -0.02600000 0.15400000
v 0.00507235 -0.02550042 0.14600000
v 0.00507235 -0.02550042 0.15400000
v 0.00994977 -0.02402087 0.14600000
v 0.00994977 -0.02402087 0.15400000
v 0.01444483 -0.02161821 0.14600000
v 0.01444483 -0.02161821 0.15400000
v 0.01838478 -0.01838478 0.14600000
v 0.01838478 -0.01838478 0.15400000
v 0.02161821 -0.01444483 0.14600000
v 0.02161821 -0.01444483 0.15400000
v 0.02402087 -0.00994977 0.14600000
v 0.02402087 -0.00994977 0.15400000
v 0.02550042 -0.00507235 0.14600000
v 0.02550042 -0.00507235 0.15400000
v 0.01800000 0.00000000 0.01250000
v 0.00000000 0.00000000 0.01250000
v 0.01765414 0.00351163 0.01250000
v 0.01800000 0.00000000 0.02750000
v 0.01765414 0.00351163 0.02750000
v 0.00000000 0.00000000 0.02750000
v 0.01662983 0.00688830 0.01250000
v 0.01662983 0.00688830 0.02750000
v 0.01496645 0.01000026 0.01250000
v 0.01496645 0.01000026 0.02750000
v 0.01272792 0.01272792 0.01250000
v 0.01272792 0.01272792 0.02750000
v 0.01000026 0.01496645 0.01250000
v 0.01000026 0.01496645 0.02750000
v 0.00688830 0.01662983 0.01250000
v 0.00688830 0.01662983 0.02750000
v 0.00351163 0.01765414 0.01250000
v 0.00351163 0.01765414 0.02750000
v 0.00000000 0.01800000 0.01250000
v 0.00000000 0.01800000 0.02750000
v -0.00351163 0.01765414 0.01250000
v -0.00351163 0.01765414 0.02750000
v -0.00688830 0.01662983 0.01250000
v -0.00688830 0.01662983 0.02750000
v -0.01000026 0.01496645 0.01250000
v -0.01000026 0.01496645 0.02750000
v -0.01272792 0.01272792 0.01250000
v -0.01272792 0.01272792 0.02750000
v -0.01496645 0.01000026 0.01250000
v -0.01496645 0.01000026 0.02750000
v -0.01662983 0.00688830 0.01250000
v -0.01662983 0.00688830 0.02750000
v -0.01765414 0.00351163 0.01250000
v -0.01765414 0.00351163 0.02750000
v -0.01800000 0.00000000 0.01250000
v -0.01800000 0.00000000 0.02750000
v -0.01765414 -0.00351163 0.01250000
v -0.01765414 -0.00351163 0.02750000
v -0.01662983 -0.00688830 0.01250000
v -0.01662983 -0.00688830 0.02750000
v -0.01496645 -0.01000026 0.01250000
v -0.01496645 -0.01000026 0.02750000
v -0.01272792 -0.01272792 0.01250000
v -0.01272792 -0.01272792 0.02750000
v -0.01000026 -0.01496645 0.01250000
v -0.01000026 -0.01496645 0.02750000
v -0.00688830 -0.01662983 0.01250000
v -0.00688830 -0.01662983 0.02750000
v -0.00351163 -0.01765414 0.01250000
v -0.00351163 -0.01765414 0.02750000
v -0.00000000 -0.01800000 0.01250000
v -0.00000000 -0.01800000 0.02750000
v 0.00351163 -0.01765414 0.01250000
v 0.00351163 -0.01765414 0.02750000
v 0.00688830 -0.01662983 0.01250000
v 0.00688830 -0.01662983 0.02750000
v 0.01000026 -0.01496645 0.01250000
v 0.01000026 -0.01496645 0.02750000
v 0.01272792 -0.01272792 0.01250000
v 0.01272792 -0.01272792 0.02750000
v 0.01496645 -0.01000026 0.01250000
v 0.01496645 -0.01000026 0.02750000
v 0.01662983 -0.00688830 0.01250000
v 0.01662983 -0.00688830 0.02750000
v 0.01765414 -0.00351163 0.01250000
v 0.01765414 -0.00351163 0.02750000
v 0.01400000 0.00000000 0.22000000
v 0.00000000 0.00000000 0.22000000
v 0.01373099 0.00273126 0.22000000
v 0.01400000 0.00000000 0.23999999
v 0.01373099 0.00273126 0.23999999
v 0.01293431 0.00535757 0.22000000
v 0.01293431 0.00535757 0.23999999
v 0.01164057 0.00777798 0.22000000
v 0.01164057 0.00777798 0.23999999
v 0.00989950 0.00989950 0.22000000
v 0.00989950 0.00989950 0.23999999
v 0.00777798 0.01164057 0.22000000
v 0.00777798 0.01164057 0.23999999
v 0.00535757 0.01293431 0.22000000
v 0.00535757 0.01293431 0.23999999
v 0.00273126 0.01373099 0.22000000
v 0.00273126 0.01373099 0.23999999
v 0.00000000 0.01400000 0.22000000
v 0.00000000 0.01400000 0.23999999
v -0.00273126 0.01373099 0.22000000
v -0.00273126 0.01373099 0.23999999
v -0.00535757 0.01293431 0.22000000
v -0.00535757 0.01293431 0.23999999
v -0.00777798 0.01164057 0.22000000
v -0.00777798 0.01164057 0.23999999
v -0.00989950 0.00989950 0.22000000
v -0.00989950 0.00989950 0.23999999
v -0.01164057 0.00777798 0.22000000
v -0.01164057 0.00777798 0.23999999
v -0.01293431 0.00535757 0.22000000
v -0.01293431 0.00535757 0.23999999
v -0.01373099 0.00273126 0.22000000
v -0.01373099 0.00273126 0.23999999
v -0.01400000 0.00000000 0.22000000
v -0.01400000 0.00000000 0.23999999
v -0.01373099 -0.00273126 0.22000000
v -0.01373099 -0.00273126 0.23999999
v -0.01293431 -0.00535757 0.22000000
v -0.01293431 -0.00535757 0.23999999
v -0.01164057 -0.00777798 0.22000000
v -0.01164057 -0.00777798 0.23999999
v -0.00989950 -0.00989950 0.22000000
v -0.00989950 -0.00989950 0.23999999
v -0.00777798 -0.01164057 0.22000000
v -0.00777798 -0.01164057 0.23999999
v -0.00535757 -0.01293431 0.22000000
v -0.00535757 -0.01293431 0.23999999
v -0.00273126 -0.01373099 0.22000000
v -0.00273126 -0.01373099 0.23999999
v -0.00000000 -0.01400000 0.22000000
v -0.00000000 -0.01400000 0.23999999
v 0.00273126 -0.01373099 0.22000000
v 0.00273126 -0.01373099 0.23999999
v 0.00535757 -0.01293431 0.22000000
v 0.00535757 -0.01293431 0.23999999
v 0.00777798 -0.01164057 0.22000000
v 0.00777798 -0.01164057 0.23999999
v 0.00989950 -0.00989950 0.22000000
v 0.00989950 -0.00989950 0.23999999
v 0.01164057 -0.00777798 0.22000000
v 0.01164057 -0.00777798 0.23999999
v 0.01293431 -0.00535757 0.22000000
v 0.01293431 -0.00535757 0.23999999
v 0.01373099 -0.00273126 0.22000000
v 0.01373099 -0.00273126 0.23999999
vn 0.72788756 0.00000000 -0.68569651
vn 0.00000000 0.00000000 -1.00000000
vn 0.71390149 0.14200383 -0.68569641
vn 0.72788756 -0.00000000 0.68569651
vn 0.71390149 0.14200383 0.68569641
vn 0.00000000 0.00000000 1.00000000
vn 0.67248047 0.27855052 -0.68569646
vn 0.67248047 0.27855052 0.68569646
vn 0.60521645 0.40439270 -0.68569643
vn 0.60521645 0.40439270 0.68569643
vn 0.51469423 0.51469423 -0.68569651
vn 0.51469423 0.51469423 0.68569651
vn 0.40439270 0.60521645 -0.68569643
vn 0.40439270 0.60521645 0.68569643
vn 0.27855052 0.67248047 -0.68569646
vn 0.27855052 0.67248047 0.68569646
vn 0.14200383 0.71390149 -0.68569641
vn 0.14200383 0.71390149 0.68569641
vn -0.00000000 0.72788756 -0.68569651
vn 0.00000000 0.72788756 0.68569651
vn -0.14200383 0.71390149 -0.68569641
vn -0.14200383 0.71390149 0.68569641
vn -0.27855052 0.67248047 -0.68569646
vn -0.27855052 0.67248047 0.68569646
vn -0.40439270 0.60521645 -0.68569643
vn -0.40439270 0.60521645 0.68569643
vn -0.51469423 0.51469423 -0.68569651
vn -0.51469423 0.51469423 0.68569651
vn -0.60521645 0.40439270 -0.68569643
vn -0.60521645 0.40439270 0.68569643
vn -0.67248047 0.27855052 -0.68569646
vn -0.67248047 0.27855052 0.68569646
vn -0.71390149 0.14200383 -0.68569641
vn -0.71390149 0.14200383 0.68569641
vn -0.72788756 -0.00000000 -0.68569651
vn -0.72788756 0.00000000 0.68569651
vn -0.71390149 -0.14200383 -0.68569641
vn -0.71390149 -0.14200383 0.68569641
vn -0.67248047 -0.27855052 -0.68569646
vn -0.67248047 -0.27855052 0.68569646
vn -0.60521645 -0.40439270 -0.68569643
vn -0.60521645 -0.40439270 0.68569643
vn -0.51469423 -0.51469423 -0.68569651
vn -0.51469423 -0.51469423 0.68569651
vn -0.40439270 -0.60521645 -0.68569643
vn -0.40439270 -0.60521645 0.68569643
vn -0.27855052 -0.67248047 -0.68569646
vn -0.27855052 -0.67248047 0.68569646
vn -0.14200383 -0.71390149 -0.68569641
vn -0.14200383 -0.71390149 0.68569641
vn 0.00000000 -0.72788756 -0.68569651
vn -0.00000000 -0.72788756 0.68569651
vn 0.14200383 -0.71390149 -0.68569641
vn 0.14200383 -0.71390149 0.68569641
vn 0.27855052 -0.67248047 -0.68569646
vn 0.27855052 -0.67248047 0.68569646
vn 0.40439270 -0.60521645 -0.68569643
vn 0.40439270 -0.60521645 0.68569643
vn 0.51469423 -0.51469423 -0.68569651
vn 0.51469423 -0.51469423 0.68569651
vn 0.60521645 -0.40439270 -0.68569643
vn 0.60521645 -0.40439270 0.68569643
vn 0.67248047 -0.27855052 -0.68569646
vn 0.67248047 -0.27855052 0.68569646
vn 0.71390149 -0.14200383 -0.68569641
vn 0.71390149 -0.14200383 0.68569641
vn 0.72788766 -0.00000000 -0.68569640
vn 0.00000000 0.00000000 -1.00000000
vn 0.71390143 0.14200382 -0.68569648
vn 0.72788766 0.00000000 0.68569640
vn 0.71390143 0.14200382 0.68569648
vn 0.00000000 0.00000000 1.00000000
vn 0.67248047 0.27855052 -0.68569646
vn 0.67248047 0.27855052 0.68569646
vn 0.60521642 0.40439268 -0.68569646
vn 0.60521642 0.40439268 0.68569646
vn 0.51469429 0.51469429 -0.68569641
vn 0.51469429 0.51469429 0.68569641
vn 0.40439268 0.60521642 -0.68569646
vn 0.40439268 0.60521642 0.68569646
vn 0.27855052 0.67248047 -0.68569646
vn 0.27855052 0.67248047 0.68569646
vn 0.14200382 0.71390143 -0.68569648
vn 0.14200382 0.71390143 0.68569648
vn 0.00000000 0.72788766 -0.68569640
vn 0.00000000 0.72788766 0.68569640
vn -0.14200382 0.71390143 -0.68569648
vn -0.14200382 0.71390143 0.68569648
vn -0.27855052 0.67248047 -0.68569646
vn -0.27855052 0.67248047 0.68569646
vn -0.40439268 0.60521642 -0.68569646
vn -0.40439268 0.60521642 0.68569646
vn -0.51469429 0.51469429 -0.68569641
vn -0.51469429 0.51469429 0.68569641
vn -0.60521642 0.40439268 -0.68569646
vn -0.60521642 0.40439268 0.68569646
vn -0.67248047 0.27855052 -0.68569646
vn -0.67248047 0.27855052 0.68569646
vn -0.71390143 0.14200382 -0.68569648
vn -0.71390143 0.14200382 0.68569648
vn -0.72788766 0.00000000 -0.68569640
vn -0.72788766 0.00000000 0.68569640
vn -0.71390143 -0.14200382 -0.68569648
vn -0.71390143 -0.14200382 0.68569648
vn -0.67248047 -0.27855052 -0.68569646
vn -0.67248047 -0.27855052 0.68569646
vn -0.60521642 -0.40439268 -0.68569646
vn -0.60521642 -0.40439268 0.68569646
vn -0.51469429 -0.51469429 -0.68569641
vn -0.51469429 -0.51469429 0.68569641
vn -0.40439268 -0.60521642 -0.68569646
vn -0.40439268 -0.60521642 0.68569646
vn -0.27855052 -0.67248047 -0.68569646
vn -0.27855052 -0.67248047 0.68569646
vn -0.14200382 -0.71390143 -0.68569648
vn -0.14200382 -0.71390143 0.68569648
vn 0.00000000 -0.72788766 -0.68569640
vn -0.00000000 -0.72788766 0.68569640
vn 0.14200382 -0.71390143 -0.68569648
vn 0.14200382 -0.71390143 0.68569648
vn 0.27855052 -0.67248047 -0.68569646
vn 0.27855052 -0.67248047 0.68569646
vn 0.40439268 -0.60521642 -0.68569646
vn 0.40439268 -0.60521642 0.68569646
vn 0.51469429 -0.51469429 -0.68569641
vn 0.51469429 -0.51469429 0.68569641
vn 0.60521642 -0.40439268 -0.68569646
vn 0.60521642 -0.40439268 0.68569646
vn 0.67248047 -0.27855052 -0.68569646
vn 0.67248047 -0.27855052 0.68569646
vn 0.71390143 -0.14200382 -0.68569648
vn 0.71390143 -0.14200382 0.68569648
vn 0.72788751 -0.00000000 -0.68569656
vn 0.00000000 0.00000000 -1.00000000
vn 0.71390153 0.14200384 -0.68569638
vn 0.72788751 0.00000000 0.68569656
vn 0.71390153 0.14200384 0.68569638
vn 0.00000000 0.00000000 1.00000000
vn 0.67248045 0.27855051 -0.68569647
vn 0.67248045 0.27855051 0.68569647
vn 0.60521646 0.40439271 -0.68569642
vn 0.60521646 0.40439271 0.68569642
vn 0.51469423 0.51469423 -0.68569651
vn 0.51469423 0.51469423 0.68569651
vn 0.40439271 0.60521646 -0.68569642
vn 0.40439271 0.60521646 0.68569642
vn 0.27855051 0.67248045 -0.68569647
vn 0.27855051 0.67248045 0.68569647
vn 0.14200384 0.71390153 -0.68569638
vn 0.14200384 0.71390153 0.68569638
vn 0.00000000 0.72788751 -0.68569656
vn -0.00000000 0.72788751 0.68569656
vn -0.14200384 0.71390153 -0.68569638
vn -0.14200384 0.71390153 0.68569638
vn -0.27855051 0.67248045 -0.68569647
vn -0.27855051 0.67248045 0.68569647
vn -0.40439271 0.60521646 -0.68569642
vn -0.40439271 0.60521646 0.68569642
vn -0.51469423 0.51469423 -0.68569651
vn -0.51469423 0.51469423 0.68569651
vn -0.60521646 0.40439271 -0.68569642
vn -0.60521646 0.40439271 0.68569642
vn -0.67248045 0.27855051 -0.68569647
vn -0.67248045 0.27855051 0.68569647
vn -0.71390153 0.14200384 -0.68569638
vn -0.71390153 0.14200384 0.68569638
vn -0.72788751 0.00000000 -0.68569656
vn -0.72788751 0.00000000 0.68569656
vn -0.71390153 -0.14200384 -0.68569638
vn -0.71390153 -0.14200384 0.68569638
vn -0.67248045 -0.27855051 -0.68569647
vn -0.67248045 -0.27855051 0.68569647
vn -0.60521646 -0.40439271 -0.68569642
vn -0.60521646 -0.40439271 0.68569642
vn -0.51469423 -0.51469423 -0.68569651
vn -0.51469423 -0.51469423 0.68569651
vn -0.40439271 -0.60521646 -0.68569642
vn -0.40439271 -0.60521646 0.68569642
vn -0.27855051 -0.67248045 -0.68569647
vn -0.27855051 -0.67248045 0.68569647
vn -0.14200384 -0.71390153 -0.68569638
vn -0.14200384 -0.71390153 0.68569638
vn -0.00000000 -0.72788751 -0.68569656
vn 0.00000000 -0.72788751 0.68569656
vn 0.14200384 -0.71390153 -0.68569638
vn 0.14200384 -0.71390153 0.68569638
vn 0.27855051 -0.67248045 -0.68569647
vn 0.27855051 -0.67248045 0.68569647
vn 0.40439271 -0.60521646 -0.68569642
vn 0.40439271 -0.60521646 0.68569642
vn 0.51469423 -0.51469423 -0.68569651
vn 0.51469423 -0.51469423 0.68569651
vn 0.60521646 -0.40439271 -0.68569642
vn 0.60521646 -0.40439271 0.68569642
vn 0.67248045 -0.27855051 -0.68569647
vn 0.67248045 -0.27855051 0.68569647
vn 0.71390153 -0.14200384 -0.68569638
vn 0.71390153 -0.14200384 0.68569638
vn 0.72788768 -0.00000000 -0.68569638
vn 0.00000000 0.00000000 -1.00000000
vn 0.71390142 0.14200382 -0.68569650
vn 0.72788768 0.00000000 0.68569638
vn 0.71390142 0.14200382 0.68569650
vn 0.67248046 0.27855052 -0.68569646
vn 0.67248046 0.27855052 0.68569646
vn 0.60521644 0.40439270 -0.68569644
vn 0.60521644 0.40439270 0.68569644
vn 0.51469427 0.51469427 -0.68569645
vn 0.51469427 0.51469427 0.68569645
vn 0.40439270 0.60521644 -0.68569644
vn 0.40439270 0.60521644 0.68569644
vn 0.27855052 0.67248046 -0.68569646
vn 0.27855052 0.67248046 0.68569646
vn 0.14200382 0.71390142 -0.68569650
vn 0.14200382 0.71390142 0.68569650
vn 0.00000000 0.72788768 -0.68569638
vn -0.00000000 0.72788768 0.68569638
vn -0.14200382 0.71390142 -0.68569650
vn -0.14200382 0.71390142 0.68569650
vn -0.27855052 0.67248046 -0.68569646
vn -0.27855052 0.67248046 0.68569646
vn -0.40439270 0.60521644 -0.68569644
vn -0.40439270 0.60521644 0.68569644
vn -0.51469427 0.51469427 -0.68569645
vn -0.51469427 0.51469427 0.68569645
vn -0.60521644 0.40439270 -0.68569644
vn -0.60521644 0.40439270 0.68569644
vn -0.67248046 0.27855052 -0.68569646
vn -0.67248046 0.27855052 0.68569646
vn -0.71390142 0.14200382 -0.68569650
vn -0.71390142 0.14200382 0.68569650
vn -0.72788768 0.00000000 -0.68569638
vn -0.72788768 -0.00000000 0.68569638
vn -0.71390142 -0.14200382 -0.68569650
vn -0.71390142 -0.14200382 0.68569650
vn -0.67248046 -0.27855052 -0.68569646
vn -0.67248046 -0.27855052 0.68569646
vn -0.60521644 -0.40439270 -0.68569644
vn -0.60521644 -0.40439270 0.68569644
vn -0.51469427 -0.51469427 -0.68569645
vn -0.51469427 -0.51469427 0.68569645
vn -0.40439270 -0.60521644 -0.68569644
vn -0.40439270 -0.60521644 0.68569644
vn -0.27855052 -0.67248046 -0.68569646
vn -0.27855052 -0.67248046 0.68569646
vn -0.14200382 -0.71390142 -0.68569650
vn -0.14200382 -0.71390142 0.68569650
vn -0.00000000 -0.72788768 -0.68569638
vn 0.00000000 -0.72788768 0.68569638
vn 0.14200382 -0.71390142 -0.68569650
vn 0.14200382 -0.71390142 0.68569650
vn 0.27855052 -0.67248046 -0.68569646
vn 0.27855052 -0.67248046 0.68569646
vn 0.40439270 -0.60521644 -0.68569644
vn 0.40439270 -0.60521644 0.68569644
vn 0.51469427 -0.51469427 -0.68569645
vn 0.51469427 -0.51469427 0.68569645
vn 0.60521644 -0.40439270 -0.68569644
vn 0.60521644 -0.40439270 0.68569644
vn 0.67248046 -0.27855052 -0.68569646
vn 0.67248046 -0.27855052 0.68569646
vn 0.71390142 -0.14200382 -0.68569650
vn 0.71390142 -0.14200382 0.68569650
f 1//1 2//2 3//3
f 1//1 3//3 4//4
f 4//4 3//3 5//5
f 4//4 5//5 6//6
f 3//3 2//2 7//7
f 3//3 7//7 5//5
f 5//5 7//7 8//8
f 5//5 8//8 6//6
f 7//7 2//2 9//9
f 7//7 9//9 8//8
f 8//8 9//9 10//10
f 8//8 10//10 6//6
f 9//9 2//2 11//11
f 9//9 11//11 10//10
f 10//10 11//11 12//12
f 10//10 12//12 6//6
f 11//11 2//2 13//13
f 11//11 13//13 12//12
f 12//12 13//13 14//14
f 12//12 14//14 6//6
f 13//13 2//2 15//15
f 13//13 15//15 14//14
f 14//14 15//15 16//16
f 14//14 16//16 6//6
f 15//15 2//2 17//17
f 15//15 17//17 16//16
f 16//16 17//17 18//18
f 16//16 18//18 6//6
f 17//17 2//2 19//19
f 17//17 19//19 18//18
f 18//18 19//19 20//20
f 18//18 20//20 6//6
f 19//19 2//2 21//21
f 19//19 21//21 20//20
f 20//20 21//21 22//22
f 20//20 22//22 6//6
f 21//21 2//2 23//23
f 21//21 23//23 22//22
f 22//22 23//23 24//24
f 22//22 24//24 6//6
f 23//23 2//2 25//25
f 23//23 25//25 24//24
f 24//24 25//25 26//26
f 24//24 26//26 6//6
f 25//25 2//2 27//27
f 25//25 27//27 26//26
f 26//26 27//27 28//28
f 26//26 28//28 6//6
f 27//27 2//2 29//29
f 27//27 29//29 28//28
f 28//28 29//29 30//30
f 28//28 30//30 6//6
f 29//29 2//2 31//31
f 29//29 31//31 30//30
f 30//30 31//31 32//32
f 30//30 32//32 6//6
f 31//31 2//2 33//33
f 31//31 33//33 32//32
f 32//32 33//33 34//34
f 32//32 34//34 6//6
f 33//33 2//2 35//35
f 33//33 35//35 34//34
f 34//34 35//35 36//36
f 34//34 36//36 6//6
f 35//35 2//2 37//37
f 35//35 37//37 36//36
f 36//36 37//37 38//38
f 36//36 38//38 6//6
f 37//37 2//2 39//39
f 37//37 39//39 38//38
f 38//38 39//39 40//40
f 38//38 40//40 6//6
f 39//39 2//2 41//41
f 39//39 41//41 40//40
f 40//40 41//41 42//42
f 40//40 42//42 6//6
f 41//41 2//2 43//43
f 41//41 43//43 42//42
f 42//42 43//43 44//44
f 42//42 44//44 6//6
f 43//43 2//2 45//45
f 43//43 45//45 44//44
f 44//44 45//45 46//46
f 44//44 46//46 6//6
f 45//45 2//2 47//47
f 45//45 47//47 46//46
f 46//46 47//47 48//48
f 46//46 48//48 6//6
f 47//47 2//2 49//49
f 47//47 49//49 48//48
f 48//48 49//49 50//50
f 48//48 50//50 6//6
f 49//49 2//2 51//51
f 49//49 51//51 50//50
f 50//50 51//51 52//52
f 50//50 52//52 6//6
f 51//51 2//2 53//53
f 51//51 53//53 52//52
f 52//52 53//53 54//54
f 52//52 54//54 6//6
f 53//53 2//2 55//55
f 53//53 55//55 54//54
f 54//54 55//55 56//56
f 54//54 56//56 6//6
f 55//55 2//2 57//57
f 55//55 57//57 56//56
f 56//56 57//57 58//58
f 56//56 58//58 6//6
f 57//57 2//2 59//59
f 57//57 59//59 58//58
f 58//58 59//59 60//60
f 58//58 60//60 6//6
f 59//59 2//2 61//61
f 59//59 61//61 60//60
f 60//60 61//61 62//62
f 60//60 62//62 6//6
f 61//61 2//2 63//63
f 61//61 63//63 62//62
f 62//62 63//63 64//64
f 62//62 64//64 6//6
f 63//63 2//2 65//65
f 63//63 65//65 64//64
f 64//64 65//65 66//66
f 64//64 66//66 6//6
f 65//65 2//2 1//1
f 65//65 1//1 66//66
f 66//66 1//1 4//4
f 66//66 4//4 6//6
f 67//67 68//68 69//69
f 67//67 69//69 70//70
f 70//70 69//69 71//71
f 70//70 71//71 72//72
f 69//69 68//68 73//73
f 69//69 73//73 71//71
f 71//71 73//73 74//74
f 71//71 74//74 72//72
f 73//73 68//68 75//75
f 73//73 75//75 74//74
f 74//74 75//75 76//76
f 74//74 76//76 72//72
f 75//75 68//68 77//77
f 75//75 77//77 76//76
f 76//76 77//77 78//78
f 76//76 78//78 72//72
f 77//77 68//68 79//79
f 77//77 79//79 78//78
f 78//78 79//79 80//80
f 78//78 80//80 72//72
f 79//79 68//68 81//81
f 79//79 81//81 80//80
f 80//80 81//81 82//82
f 80//80 82//82 72//72
f 81//81 68//68 83//83
f 81//81 83//83 82//82
f 82//82 83//83 84//84
f 82//82 84//84 72//72
f 83//83 68//68 85//85
f 83//83 85//85 84//84
f 84//84 85//85 86//86
f 84//84 86//86 72//72
f 85//85 68//68 87//87
f 85//85 87//87 86//86
f 86//86 87//87 88//88
f 86//86 88//88 72//72
f 87//87 68//68 89//89
f 87//87 89//89 88//88
f 88//88 89//89 90//90
f 88//88 90//90 72//72
f 89//89 68//68 91//91
f 89//89 91//91 90//90
f 90//90 91//91 92//92
f 90//90 92//92 72//72
f 91//91 68//68 93//93
f 91//91 93//93 92//92
f 92//92 93//93 94//94
f 92//92 94//94 72//72
f 93//93 68//68 95//95
f 93//93 95//95 94//94
f 94//94 95//95 96//96
f 94//94 96//96 72//72
f 95//95 68//68 97//97
f 95//95 97//97 96//96
f 96//96 97//97 98//98
f 96//96 98//98 72//72
f 97//97 68//68 99//99
f 97//97 99//99 98//98
f 98//98 99//99 100//100
f 98//98 100//100 72//72
f 99//99 68//68 101//101
f 99//99 101//101 100//100
f 100//100 101//101 102//102
f 100//100 102//102 72//72
f 101//101 68//68 103//103
f 101//101 103//103 102//102
f 102//102 103//103 104//104
f 102//102 104//104 72//72
f 103//103 68//68 105//105
f 103//103 105//105 104//104
f 104//104 105//105 106//106
f 104//104 106//106 72//72
f 105//105 68//68 107//107
f 105//105 107//107 106//106
f 106//106 107//107 108//108
f 106//106 108//108 72//72
f 107//107 68//68 109//109
f 107//107 109//109 108//108
f 108//108 109//109 110//110
f 108//108 110//110 72//72
f 109//109 68//68 111//111
f 109//109 111//111 110//110
f 110//110 111//111 112//112
f 110//110 112//112 72//72
f 111//111 68//68 113//113
f 111//111 113//113 112//112
f 112//112 113//113 114//114
f 112//112 114//114 72//72
f 113//113 68//68 115//115
f 113//113 115//115 114//114
f 114//114 115//115 116//116
f 114//114 116//116 72//72
f 115//115 68//68 117//117
f 115//115 117//117 116//116
f 116//116 117//117 118//118
f 116//116 118//118 72//72
f 117//117 68//68 119//119
f 117//117 119//119 118//118
f 118//118 119//119 120//120
f 118//118 120//120 72//72
f 119//119 68//68 121//121
f 119//119 121//121 120//120
f 120//120 121//121 122//122
f 120//120 122//122 72//72
f 121//121 68//68 123//123
f 121//121 123//123 122//122
f 122//122 123//123 124//124
f 122//122 124//124 72//72
f 123//123 68//68 125//125
f 123//123 125//125 124//124
f 124//124 125//125 126//126
f 124//124 126//126 72//72
f 125//125 68//68 127//127
f 125//125 127//127 126//126
f 126//126 127//127 128//128
f 126//126 128//128 72//72
f 127//127 68//68 129//129
f 127//127 129//129 128//128
f 128//128 129//129 130//130
f 128//128 130//130 72//72
f 129//129 68//68 131//131
f 129//129 131//131 130//130
f 130//130 131//131 132//132
f 130//130 132//132 72//72
f 131//131 68//68 67//67
f 131//131 67//67 132//132
f 132//132 67//67 70//70
f 132//132 70//70 72//72
f 133//133 134//134 135//135
f 133//133 135//135 136//136
f 136//136 135//135 137//137
f 136//136 137//137 138//138
f 135//135 134//134 139//139
f 135//135 139//139 137//137
f 137//137 139//139 140//140
f 137//137 140//140 138//138
f 139//139 134//134 141//141
f 139//139 141//141 140//140
f 140//140 141//141 142//142
f 140//140 142//142 138//138
f 141//141 134//134 143//143
f 141//141 143//143 142//142
f 142//142 143//143 144//144
f 142//142 144//144 138//138
f 143//143 134//134 145//145
f 143//143 145//145 144//144
f 144//144 145//145 146//146
f 144//144 146//146 138//138
f 145//145 134//134 147//147
f 145//145 147//147 146//146
f 146//146 147//147 148//148
f 146//146 148//148 138//138
f 147//147 134//134 149//149
f 147//147 149//149 148//148
f 148//148 149//149 150//150
f 148//148 150//150 138//138
f 149//149 134//134 151//151
f 149//149 151//151 150//150
f 150//150 151//151 152//152
f 150//150 152//152 138//138
f 151//151 134//134 153//153
f 151//151 153//153 152//152
f 152//152 153//153 154//154
f 152//152 154//154 138//138
f 153//153 134//134 155//155
f 153//153 155//155 154//154
f 154//154 155//155 156//156
f 154//154 156//156 138//138
f 155//155 134//134 157//157
f 155//155 157//157 156//156
f 156//156 157//157 158//158
f 156//156 158//158 138//138
f 157//157 134//134 159//159
f 157//157 159//159 158//158
f 158//158 159//159 160//160
f 158//158 160//160 138//138
f 159//159 134//134 161//161
f 159//159 161//161 160//160
f 160//160 161//161 162//162
f 160//160 162//162 138//138
f 161//161 134//134 163//163
f 161//161 163//163 162//162
f 162//162 163//163 164//164
f 162//162 164//164 138//138
f 163//163 134//134 165//165
f 163//163 165//165 164//164
f 164//164 165//165 166//166
f 164//164 166//166 138//138
f 165//165 134//134 167//167
f 165//165 167//167 166//166
f 166//166 167//167 168//168
f 166//166 168//168 138//138
f 167//167 134//134 169//169
f 167//167 169//169 168//168
f 168//168 169//169 170//170
f 168//168 170//170 138//138
f 169//169 134//134 171//171
f 169//169 171//171 170//170
f 170//170 171//171 172//172
f 170//170 172//172 138//138
f 171//171 134//134 173//173
f 171//171 173//173 172//172
f 172//172 173//173 174//174
f 172//172 174//174 138//138
f 173//173 134//134 175//175
f 173//173 175//175 174//174
f 174//174 175//175 176//176
f 174//174 176//176 138//138
f 175//175 134//134 177//177
f 175//175 177//177 176//176
f 176//176 177//177 178//178
f 176//176 178//178 138//138
f 177//177 134//134 179//179
f 177//177 179//179 178//178
f 178//178 179//179 180//180
f 178//178 180//180 138//138
f 179//179 134//134 181//181
f 179//179 181//181 180//180
f 180//180 181//181 182//182
f 180//180 182//182 138//138
f 181//181 134//134 183//183
f 181//181 183//183 182//182
f 182//182 183//183 184//184
f 182//182 184//184 138//138
f 183//183 134//134 185//185
f 183//183 185//185 184//184
f 184//184 185//185 186//186
f 184//184 186//186 138//138
f 185//185 134//134 187//187
f 185//185 187//187 186//186
f 186//186 187//187 188//188
f 186//186 188//188 138//138
f 187//187 134//134 189//189
f 187//187 189//189 188//188
f 188//188 189//189 190//190
f 188//188 190//190 138//138
f 189//189 134//134 191//191
f 189//189 191//191 190//190
f 190//190 191//191 192//192
f 190//190 192//192 138//138
f 191//191 134//134 193//193
f 191//191 193//193 192//192
f 192//192 193//193 194//194
f 192//192 194//194 138//138
f 193//193 134//134 195//195
f 193//193 195//195 194//194
f 194//194 195//195 196//196
f 194//194 196//196 138//138
f 195//195 134//134 197//197
f 195//195 197//197 196//196
f 196//196 197//197 198//198
f 196//196 198//198 138//138
f 197//197 134//134 133//133
f 197//197 133//133 198//198
f 198//198 133//133 136//136
f 198//198 136//136 138//138
f 199//199 200//200 201//201
f 199//199 201//201 202//202
f 202//202 201//201 203//203
f 202//202 203//203 6//6
f 201//201 200//200 204//204
f 201//201 204//204 203//203
f 203//203 204//204 205//205
f 203//203 205//205 6//6
f 204//204 200//200 206//206
f 204//204 206//206 205//205
f 205//205 206//206 207//207
f 205//205 207//207 6//6
f 206//206 200//200 208//208
f 206//206 208//208 207//207
f 207//207 208//208 209//209
f 207//207 209//209 6//6
f 208//208 200//200 210//210
f 208//208 210//210 209//209
f 209//209 210//210 211//211
f 209//209 211//211 6//6
f 210//210 200//200 212//212
f 210//210 212//212 211//211
f 211//211 212//212 213//213
f 211//211 213//213 6//6
f 212//212 200//200 214//214
f 212//212 214//214 213//213
f 213//213 214//214 215//215
f 213//213 215//215 6//6
f 214//214 200//200 216//216
f 214//214 216//216 215//215
f 215//215 216//216 217//217
f 215//215 217//217 6//6
f 216//216 200//200 218//218
f 216//216 218//218 217//217
f 217//217 218//218 219//219
f 217//217 219//219 6//6
f 218//218 200//200 220//220
f 218//218 220//220 219//219
f 219//219 220//220 221//221
f 219//219 221//221 6//6
f 220//220 200//200 222//222
f 220//220 222//222 221//221
f 221//221 222//222 223//223
f 221//221 223//223 6//6
f 222//222 200//200 224//224
f 222//222 224//224 223//223
f 223//223 224//224 225//225
f 223//223 225//225 6//6
f 224//224 200//200 226//226
f 224//224 226//226 225//225
f 225//225 226//226 227//227
f 225//225 227//227 6//6
f 226//226 200//200 228//228
f 226//226 228//228 227//227
f 227//227 228//228 229//229
f 227//227 229//229 6//6
f 228//228 200//200 230//230
f 228//228 230//230 229//229
f 229//229 230//230 231//231
f 229//229 231//231 6//6
f 230//230 200//200 232//232
f 230//230 232//232 231//231
f 231//231 232//232 233//233
f 231//231 233//233 6//6
f 232//232 200//200 234//234
f 232//232 234//234 233//233
f 233//233 234//234 235//235
f 233//233 235//235 6//6
f 234//234 200//200 236//236
f 234//234 236//236 235//235
f 235//235 236//236 237//237
f 235//235 237//237 6//6
f 236//236 200//200 238//238
f 236//236 238//238 237//237
f 237//237 238//238 239//239
f 237//237 239//239 6//6
f 238//238 200//200 240//240
f 238//238 240//240 239//239
f 239//239 240//240 241//241
f 239//239 241//241 6//6
f 240//240 200//200 242//242
f 240//240 242//242 241//241
f 241//241 242//242 243//243
f 241//241 243//243 6//6
f 242//242 200//200 244//244
f 242//242 244//244 243//243
f 243//243 244//244 245//245
f 243//243 245//245 6//6
f 244//244 200//200 246//246
f 244//244 246//246 245//245
f 245//245 246//246 247//247
f 245//245 247//247 6//6
f 246//246 200//200 248//248
f 246//246 248//248 247//247
f 247//247 248//248 249//249
f 247//247 249//249 6//6
f 248//248 200//200 250//250
f 248//248 250//250 249//249
f 249//249 250//250 251//251
f 249//249 251//251 6//6
f 250//250 200//200 252//252
f 250//250 252//252 251//251
f 251//251 252//252 253//253
f 251//251 253//253 6//6
f 252//252 200//200 254//254
f 252//252 254//254 253//253
f 253//253 254//254 255//255
f 253//253 255//255 6//6
f 254//254 200//200 256//256
f 254//254 256//256 255//255
f 255//255 256//256 257//257
f 255//255 257//257 6//6
f 256//256 200//200 258//258
f 256//256 258//258 257//257
f 257//257 258//258 259//259
f 257//257 259//259 6//6
f 258//258 200//200 260//260
f 258//258 260//260 259//259
f 259//259 260//260 261//261
f 259//259 261//261 6//6
f 260//260 200//200 262//262
f 260//260 262//262 261//261
f 261//261 262//262 263//263
f 261//261 263//263 6//6
f 262//262 200//200 199//199
f 262//262 199//199 263//263
f 263//263 199//199 202//202
f 263//263 202//202 6//6

