<COLLADA xmlns="http://www.collada.org/2005/11/COLLADASchema" version="1.4.1">
  <asset>
    <created>2026-09-03T21:36:14.803490</created>
    <modified>2026-09-03T21:36:14.803494</modified>
    <up_axis>Y_UP</up_axis>
  </asset>
  <library_effects>
    <effect id="ece2356e81cd4f60bd802871a85ae710" name="ece2356e81cd4f60bd802871a85ae710">
      <profile_COMMON>
        <technique sid="common">
          <phong>
            <emission>
              <color>0.0 0.0 0.0 1.0</color>
            </emission>
            <ambient>
              <color>0.0 0.0 0.0 1.0</color>
            </ambient>
            <diffuse>
              <color>0.0 0.0 0.0 1.0</color>
            </diffuse>
            <specular>
              <color>0.0 0.0 0.0 1.0</color>
            </specular>
            <shininess>
              <float>0.0</float>
            </shininess>
            <reflective>
              <color>0.0 0.0 0.0 1.0</color>
            </reflective>
            <reflectivity>
              <float>0.0</float>
            </reflectivity>
            <transparent>
              <color>0.0 0.0 0.0 1.0</color>
            </transparent>
            <transparency>
              <float>1.0</float>
            </transparency>
          </phong>
        </technique>
        <extra>
          <technique profile="GOOGLEEARTH">
            <double_sided>0</double_sided>
          </technique>
        </extra>
      </profile_COMMON>
    </effect>
  </library_effects>
  <library_geometries>
    <geometry id="4a837d0e07184f04a5fdcda1a45e4e8f" name="852f1a231cff43d999591f46ecafef1e">
      <mesh>
        <source id="verts-array">
          <float_array count="822" id="verts-array-array">-0.04 -0.04 0.006 -0.04 0.04 0.006 -0.04 -0.04 -0.006 0.04 -0.04 -0.006 -0.04 0.04 -0.006 0.04 0.04 0.006 0.04 -0.04 0.006 0.04 0.04 -0.006 0.02 0 0.006 0 0 0.006 0.01961571 0.003901806 0.006 0.02 0 0.076 0.01961571 0.003901806 0.076 0 0 0.076 0.01847759 0.007653669 0.006 0.01847759 0.007653669 0.076 0.01662939 0.0111114 0.006 0.01662939 0.0111114 0.076 0.01414214 0.01414214 0.006 0.01414214 0.01414214 0.076 0.0111114 0.01662939 0.006 0.0111114 0.01662939 0.076 0.007653669 0.01847759 0.006 0.007653669 0.01847759 0.076 0.003901806 0.01961571 0.006 0.003901806 0.01961571 0.076 1.224647e-18 0.02 0.006 1.224647e-18 0.02 0.076 -0.003901806 0.01961571 0.006 -0.003901806 0.01961571 0.076 -0.007653669 0.01847759 0.006 -0.007653669 0.01847759 0.076 -0.0111114 0.01662939 0.006 -0.0111114 0.01662939 0.076 -0.01414214 0.01414214 0.006 -0.01414214 0.01414214 0.076 -0.01662939 0.0111114 0.006 -0.01662939 0.0111114 0.076 -0.01847759 0.007653669 0.006 -0.01847759 0.007653669 0.076 -0.01961571 0.003901806 0.006 -0.01961571 0.003901806 0.076 -0.02 2.449294e-18 0.006 -0.02 2.449294e-18 0.076 -0.01961571 -0.003901806 0.006 -0.01961571 -0.003901806 0.076 -0.01847759 -0.007653669 0.006 -0.01847759 -0.007653669 0.076 -0.01662939 -0.0111114 0.006 -0.01662939 -0.0111114 0.076 -0.01414214 -0.01414214 0.006 -0.01414214 -0.01414214 0.076 -0.0111114 -0.01662939 0.006 -0.0111114 -0.01662939 0.076 -0.007653669 -0.01847759 0.006 -0.007653669 -0.01847759 0.076 -0.003901806 -0.01961571 0.006 -0.003901806 -0.01961571 0.076 -3.67394e-18 -0.02 0.006 -3.67394e-18 -0.02 0.076 0.003901806 -0.01961571 0.006 0.003901806 -0.01961571 0.076 0.007653669 -0.01847759 0.006 0.007653669 -0.01847759 0.076 0.0111114 -0.01662939 0.006 0.0111114 -0.01662939 0.076 0.01414214 -0.01414214 0.006 0.01414214 -0.01414214 0.076 0.01662939 -0.0111114 0.006 0.01662939 -0.0111114 0.076 0.01847759 -0.007653669 0.006 0.01847759 -0.007653669 0.076 0.01961571 -0.003901806 0.006 0.01961571 -0.003901806 0.076 0.033 0.025 0 0.025 0.025 0 0.03272741 0.02707055 0 0.033 0.025 0.05 0.03272741 0.02707055 0.05 0.025 0.025 0.05 0.0319282 0.029 0 0.0319282 0.029 0.05 0.03065685 0.03065685 0 0.03065685 0.03065685 0.05 0.029 0.0319282 0 0.029 0.0319282 0.05 0.02707055 0.03272741 0 0.02707055 0.03272741 0.05 0.025 0.033 0 0.025 0.033 0.05 0.02292945 0.03272741 0 0.02292945 0.03272741 0.05 0.021 0.0319282 0 0.021 0.0319282 0.05 0.01934315 0.03065685 0 0.01934315 0.03065685 0.05 0.0180718 0.029 0 0.0180718 0.029 0.05 0.01727259 0.02707055 0 0.01727259 0.02707055 0.05 0.017 0.025 0 0.017 0.025 0.05 0.01727259 0.02292945 0 0.01727259 0.02292945 0.05 0.0180718 0.021 0 0.0180718 0.021 0.05 0.01934315 0.01934315 0 0.01934315 0.01934315 0.05 0.021 0.0180718 0 0.021 0.0180718 0.05 0.02292945 0.01727259 0 0.02292945 0.01727259 0.05 0.025 0.017 0 0.025 0.017 0.05 0.02707055 0.01727259 0 0.02707055 0.01727259 0.05 0.029 0.0180718 0 0.029 0.0180718 0.05 0.03065685 0.01934315 0 0.03065685 0.01934315 0.05 0.0319282 0.021 0 0.0319282 0.021 0.05 0.03272741 0.02292945 0 0.03272741 0.02292945 0.05 -0.017 -0.025 0 -0.025 -0.025 0 -0.01727259 -0.02292945 0 -0.017 -0.025 0.05 -0.01727259 -0.02292945 0.05 -0.025 -0.025 0.05 -0.0180718 -0.021 0 -0.0180718 -0.021 0.05 -0.01934315 -0.01934315 0 -0.01934315 -0.01934315 0.05 -0.021 -0.0180718 0 -0.021 -0.0180718 0.05 -0.02292945 -0.01727259 0 -0.02292945 -0.01727259 0.05 -0.025 -0.017 0 -0.025 -0.017 0.05 -0.02707055 -0.01727259 0 -0.02707055 -0.01727259 0.05 -0.029 -0.0180718 0 -0.029 -0.0180718 0.05 -0.03065685 -0.01934315 0 -0.03065685 -0.01934315 0.05 -0.0319282 -0.021 0 -0.0319282 -0.021 0.05 -0.03272741 -0.02292945 0 -0.03272741 -0.02292945 0.05 -0.033 -0.025 0 -0.033 -0.025 0.05 -0.03272741 -0.02707055 0 -0.03272741 -0.02707055 0.05 -0.0319282 -0.029 0 -0.0319282 -0.029 0.05 -0.03065685 -0.03065685 0 -0.03065685 -0.03065685 0.05 -0.029 -0.0319282 0 -0.029 -0.0319282 0.05 -0.02707055 -0.03272741 0 -0.02707055 -0.03272741 0.05 -0.025 -0.033 0 -0.025 -0.033 0.05 -0.02292945 -0.03272741 0 -0.02292945 -0.03272741 0.05 -0.021 -0.0319282 0 -0.021 -0.0319282 0.05 -0.01934315 -0.03065685 0 -0.01934315 -0.03065685 0.05 -0.0180718 -0.029 0 -0.0180718 -0.029 0.05 -0.01727259 -0.02707055 0 -0.01727259 -0.02707055 0.05 0.034 0.025 0.048 0.025 0.025 0.048 0.03369333 0.02732937 0.048 0.034 0.025 0.056 0.03369333 0.02732937 0.056 0.025 0.025 0.056 0.03279423 0.0295 0.048 0.03279423 0.0295 0.056 0.03136396 0.03136396 0.048 0.03136396 0.03136396 0.056 0.0295 0.03279423 0.048 0.0295 0.03279423 0.056 0.02732937 0.03369333 0.048 0.02732937 0.03369333 0.056 0.025 0.034 0.048 0.025 0.034 0.056 0.02267063 0.03369333 0.048 0.02267063 0.03369333 0.056 0.0205 0.03279423 0.048 0.0205 0.03279423 0.056 0.01863604 0.03136396 0.048 0.01863604 0.03136396 0.056 0.01720577 0.0295 0.048 0.01720577 0.0295 0.056 0.01630667 0.02732937 0.048 0.01630667 0.02732937 0.056 0.016 0.025 0.048 0.016 0.025 0.056 0.01630667 0.02267063 0.048 0.01630667 0.02267063 0.056 0.01720577 0.0205 0.048 0.01720577 0.0205 0.056 0.01863604 0.01863604 0.048 0.01863604 0.01863604 0.056 0.0205 0.01720577 0.048 0.0205 0.01720577 0.056 0.02267063 0.01630667 0.048 0.02267063 0.01630667 0.056 0.025 0.016 0.048 0.025 0.016 0.056 0.02732937 0.01630667 0.048 0.02732937 0.01630667 0.056 0.0295 0.01720577 0.048 0.0295 0.01720577 0.056 0.03136396 0.01863604 0.048 0.03136396 0.01863604 0.056 0.03279423 0.0205 0.048 0.03279423 0.0205 0.056 0.03369333 0.02267063 0.048 0.03369333 0.02267063 0.056 -0.016 -0.025 0.048 -0.025 -0.025 0.048 -0.01630667 -0.02267063 0.048 -0.016 -0.025 0.056 -0.01630667 -0.02267063 0.056 -0.025 -0.025 0.056 -0.01720577 -0.0205 0.048 -0.01720577 -0.0205 0.056 -0.01863604 -0.01863604 0.048 -0.01863604 -0.01863604 0.056 -0.0205 -0.01720577 0.048 -0.0205 -0.01720577 0.056 -0.02267063 -0.01630667 0.048 -0.02267063 -0.01630667 0.056 -0.025 -0.016 0.048 -0.025 -0.016 0.056 -0.02732937 -0.01630667 0.048 -0.02732937 -0.01630667 0.056 -0.0295 -0.01720577 0.048 -0.0295 -0.01720577 0.056 -0.03136396 -0.01863604 0.048 -0.03136396 -0.01863604 0.056 -0.03279423 -0.0205 0.048 -0.03279423 -0.0205 0.056 -0.03369333 -0.02267063 0.048 -0.03369333 -0.02267063 0.056 -0.034 -0.025 0.048 -0.034 -0.025 0.056 -0.03369333 -0.02732937 0.048 -0.03369333 -0.02732937 0.056 -0.03279423 -0.0295 0.048 -0.03279423 -0.0295 0.056 -0.03136396 -0.03136396 0.048 -0.03136396 -0.03136396 0.056 -0.0295 -0.03279423 0.048 -0.0295 -0.03279423 0.056 -0.02732937 -0.03369333 0.048 -0.02732937 -0.03369333 0.056 -0.025 -0.034 0.048 -0.025 -0.034 0.056 -0.02267063 -0.03369333 0.048 -0.02267063 -0.03369333 0.056 -0.0205 -0.03279423 0.048 -0.0205 -0.03279423 0.056 -0.01863604 -0.03136396 0.048 -0.01863604 -0.03136396 0.056 -0.01720577 -0.0295 0.048 -0.01720577 -0.0295 0.056 -0.01630667 -0.02732937 0.048 -0.01630667 -0.02732937 0.056</float_array>
          <technique_common>
            <accessor count="274" source="#verts-array-array" stride="3">
              <param type="float" name="X" />
              <param type="float" name="Y" />
              <param type="float" name="Z" />
            </accessor>
          </technique_common>
        </source>
        <source id="normals-array">
          <float_array count="822" id="normals-array-array">-0.5773503 -0.5773503 0.5773503 -0.5773503 0.5773503 0.5773503 -0.5773503 -0.5773503 -0.5773503 0.5773503 -0.5773503 -0.5773503 -0.5773503 0.5773503 -0.5773503 0.5773503 0.5773503 0.5773503 0.5773503 -0.5773503 0.5773503 0.5773503 0.5773503 -0.5773503 0.7278876 2.322249e-17 -0.6856965 0 0 -1 0.7139015 0.1420038 -0.6856964 0.7278876 -2.584764e-17 0.6856965 0.7139015 0.1420038 0.6856964 0 0 1 0.6724805 0.2785505 -0.6856965 0.6724805 0.2785505 0.6856965 0.6052165 0.4043927 -0.6856964 0.6052165 0.4043927 0.6856964 0.5146942 0.5146942 -0.6856965 0.5146942 0.5146942 0.6856965 0.4043927 0.6052165 -0.6856964 0.4043927 0.6052165 0.6856964 0.2785505 0.6724805 -0.6856965 0.2785505 0.6724805 0.6856965 0.1420038 0.7139015 -0.6856964 0.1420038 0.7139015 0.6856964 -2.584764e-17 0.7278876 -0.6856965 2.584764e-17 0.7278876 0.6856965 -0.1420038 0.7139015 -0.6856964 -0.1420038 0.7139015 0.6856964 -0.2785505 0.6724805 -0.6856965 -0.2785505 0.6724805 0.6856965 -0.4043927 0.6052165 -0.6856964 -0.4043927 0.6052165 0.6856964 -0.5146942 0.5146942 -0.6856965 -0.5146942 0.5146942 0.6856965 -0.6052165 0.4043927 -0.6856964 -0.6052165 0.4043927 0.6856964 -0.6724805 0.2785505 -0.6856965 -0.6724805 0.2785505 0.6856965 -0.7139015 0.1420038 -0.6856964 -0.7139015 0.1420038 0.6856964 -0.7278876 -2.584764e-17 -0.6856965 -0.7278876 2.584764e-17 0.6856965 -0.7139015 -0.1420038 -0.6856964 -0.7139015 -0.1420038 0.6856964 -0.6724805 -0.2785505 -0.6856965 -0.6724805 -0.2785505 0.6856965 -0.6052165 -0.4043927 -0.6856964 -0.6052165 -0.4043927 0.6856964 -0.5146942 -0.5146942 -0.6856965 -0.5146942 -0.5146942 0.6856965 -0.4043927 -0.6052165 -0.6856964 -0.4043927 -0.6052165 0.6856964 -0.2785505 -0.6724805 -0.6856965 -0.2785505 -0.6724805 0.6856965 -0.1420038 -0.7139015 -0.6856964 -0.1420038 -0.7139015 0.6856964 2.584764e-17 -0.7278876 -0.6856965 -2.584764e-17 -0.7278876 0.6856965 0.1420038 -0.7139015 -0.6856964 0.1420038 -0.7139015 0.6856964 0.2785505 -0.6724805 -0.6856965 0.2785505 -0.6724805 0.6856965 0.4043927 -0.6052165 -0.6856964 0.4043927 -0.6052165 0.6856964 0.5146942 -0.5146942 -0.6856965 0.5146942 -0.5146942 0.6856965 0.6052165 -0.4043927 -0.6856964 0.6052165 -0.4043927 0.6856964 0.6724805 -0.2785505 -0.6856965 0.6724805 -0.2785505 0.6856965 0.7139015 -0.1420038 -0.6856964 0.7139015 -0.1420038 0.6856964 0.7342545 -1.20228e-16 -0.6788743 0 0 -1 0.7092352 0.190039 -0.6788746 0.7342545 1.243174e-16 0.6788743 0.7092352 0.190039 0.6788746 0 0 1 0.6358831 0.3671273 -0.6788743 0.6358831 0.3671273 0.6788743 0.5191962 0.5191962 -0.6788745 0.5191962 0.5191962 0.6788745 0.3671273 0.6358831 -0.6788743 0.3671273 0.6358831 0.6788743 0.190039 0.7092352 -0.6788746 0.190039 0.7092352 0.6788746 3.925814e-17 0.7342545 -0.6788743 -4.580116e-17 0.7342545 0.6788743 -0.190039 0.7092352 -0.6788746 -0.190039 0.7092352 0.6788746 -0.3671273 0.6358831 -0.6788743 -0.3671273 0.6358831 0.6788743 -0.5191963 0.5191963 -0.6788744 -0.5191963 0.5191963 0.6788744 -0.6358829 0.3671272 -0.6788745 -0.6358829 0.3671272 0.6788745 -0.7092353 0.190039 -0.6788744 -0.7092353 0.190039 0.6788744 -0.7342543 -4.580115e-17 -0.6788745 -0.7342543 4.580115e-17 0.6788745 -0.7092354 -0.190039 -0.6788743 -0.7092354 -0.190039 0.6788743 -0.6358829 -0.3671272 -0.6788745 -0.6358829 -0.3671272 0.6788745 -0.5191963 -0.5191963 -0.6788743 -0.5191963 -0.5191963 0.6788743 -0.3671272 -0.6358829 -0.6788745 -0.3671272 -0.6358829 0.6788745 -0.190039 -0.7092354 -0.6788743 -0.190039 -0.7092354 0.6788743 -3.27151e-17 -0.7342543 -0.6788745 3.925812e-17 -0.7342543 0.6788745 0.190039 -0.7092353 -0.6788744 0.190039 -0.7092353 0.6788744 0.3671272 -0.6358829 -0.6788745 0.3671272 -0.6358829 0.6788745 0.5191963 -0.5191963 -0.6788744 0.5191963 -0.5191963 0.6788744 0.6358831 -0.3671273 -0.6788743 0.6358831 -0.3671273 0.6788743 0.7092352 -0.190039 -0.6788746 0.7092352 -0.190039 0.6788746 0.7342543 4.723243e-17 -0.6788745 0 0 -1 0.7092354 0.190039 -0.6788743 0.7342543 -4.580115e-17 0.6788745 0.7092354 0.190039 0.6788743 0 0 1 0.6358829 0.3671272 -0.6788745 0.6358829 0.3671272 0.6788745 0.5191963 0.5191963 -0.6788743 0.5191963 0.5191963 0.6788743 0.3671272 0.6358829 -0.6788745 0.3671272 0.6358829 0.6788745 0.190039 0.7092354 -0.6788743 0.190039 0.7092354 0.6788743 3.27151e-17 0.7342543 -0.6788745 -3.925812e-17 0.7342543 0.6788745 -0.190039 0.7092353 -0.6788744 -0.190039 0.7092353 0.6788744 -0.3671272 0.6358829 -0.6788745 -0.3671272 0.6358829 0.6788745 -0.5191963 0.5191963 -0.6788744 -0.5191963 0.5191963 0.6788744 -0.6358831 0.3671273 -0.6788743 -0.6358831 0.3671273 0.6788743 -0.7092352 0.190039 -0.6788746 -0.7092352 0.190039 0.6788746 -0.7342545 1.177744e-16 -0.6788743 -0.7342545 -1.243174e-16 0.6788743 -0.7092352 -0.190039 -0.6788746 -0.7092352 -0.190039 0.6788746 -0.6358831 -0.3671273 -0.6788743 -0.6358831 -0.3671273 0.6788743 -0.5191962 -0.5191962 -0.6788745 -0.5191962 -0.5191962 0.6788745 -0.3671273 -0.6358831 -0.6788743 -0.3671273 -0.6358831 0.6788743 -0.190039 -0.7092352 -0.6788746 -0.190039 -0.7092352 0.6788746 -3.925814e-17 -0.7342545 -0.6788743 4.580116e-17 -0.7342545 0.6788743 0.190039 -0.7092352 -0.6788746 0.190039 -0.7092352 0.6788746 0.3671273 -0.6358831 -0.6788743 0.3671273 -0.6358831 0.6788743 0.5191963 -0.5191963 -0.6788744 0.5191963 -0.5191963 0.6788744 0.6358829 -0.3671272 -0.6788745 0.6358829 -0.3671272 0.6788745 0.7092353 -0.190039 -0.6788744 0.7092353 -0.190039 0.6788744 0.7342546 0 -0.6788742 0 0 -1 0.7092352 0.190039 -0.6788746 0.7342546 0 0.6788742 0.7092352 0.190039 0.6788746 0 0 1 0.6358831 0.3671273 -0.6788743 0.6358831 0.3671273 0.6788743 0.5191961 0.5191961 -0.6788746 0.5191961 0.5191961 0.6788746 0.3671273 0.6358831 -0.6788743 0.3671273 0.6358831 0.6788743 0.190039 0.7092352 -0.6788746 0.190039 0.7092352 0.6788746 0 0.7342546 -0.6788742 0 0.7342546 0.6788742 -0.190039 0.7092352 -0.6788746 -0.190039 0.7092352 0.6788746 -0.3671272 0.635883 -0.6788743 -0.3671272 0.635883 0.6788743 -0.5191962 0.5191962 -0.6788745 -0.5191962 0.5191962 0.6788745 -0.6358829 0.3671272 -0.6788744 -0.6358829 0.3671272 0.6788744 -0.7092354 0.1900391 -0.6788743 -0.7092354 0.1900391 0.6788743 -0.7342542 2.617208e-17 -0.6788746 -0.7342542 -2.617208e-17 0.6788746 -0.7092354 -0.1900391 -0.6788743 -0.7092354 -0.1900391 0.6788743 -0.6358829 -0.3671272 -0.6788745 -0.6358829 -0.3671272 0.6788745 -0.5191963 -0.5191963 -0.6788743 -0.5191963 -0.5191963 0.6788743 -0.3671272 -0.6358829 -0.6788745 -0.3671272 -0.6358829 0.6788745 -0.1900391 -0.7092354 -0.6788743 -0.1900391 -0.7092354 0.6788743 -2.617208e-17 -0.7342542 -0.6788746 2.617208e-17 -0.7342542 0.6788746 0.1900391 -0.7092354 -0.6788743 0.1900391 -0.7092354 0.6788743 0.3671272 -0.6358829 -0.6788744 0.3671272 -0.6358829 0.6788744 0.5191962 -0.5191962 -0.6788745 0.5191962 -0.5191962 0.6788745 0.635883 -0.3671272 -0.6788743 0.635883 -0.3671272 0.6788743 0.7092352 -0.190039 -0.6788746 0.7092352 -0.190039 0.6788746 0.7342542 -2.290057e-17 -0.6788746 0 0 -1 0.7092354 0.1900391 -0.6788743 0.7342542 3.27151e-17 0.6788746 0.7092354 0.1900391 0.6788743 0 0 1 0.6358829 0.3671272 -0.6788745 0.6358829 0.3671272 0.6788745 0.5191963 0.5191963 -0.6788743 0.5191963 0.5191963 0.6788743 0.3671272 0.6358829 -0.6788745 0.3671272 0.6358829 0.6788745 0.1900391 0.7092354 -0.6788743 0.1900391 0.7092354 0.6788743 2.617208e-17 0.7342542 -0.6788746 -2.617208e-17 0.7342542 0.6788746 -0.1900391 0.7092354 -0.6788743 -0.1900391 0.7092354 0.6788743 -0.3671272 0.6358829 -0.6788744 -0.3671272 0.6358829 0.6788744 -0.5191962 0.5191962 -0.6788745 -0.5191962 0.5191962 0.6788745 -0.635883 0.3671272 -0.6788743 -0.635883 0.3671272 0.6788743 -0.7092352 0.190039 -0.6788746 -0.7092352 0.190039 0.6788746 -0.7342546 0 -0.6788742 -0.7342546 0 0.6788742 -0.7092352 -0.190039 -0.6788746 -0.7092352 -0.190039 0.6788746 -0.6358831 -0.3671273 -0.6788743 -0.6358831 -0.3671273 0.6788743 -0.5191961 -0.5191961 -0.6788746 -0.5191961 -0.5191961 0.6788746 -0.3671273 -0.6358831 -0.6788743 -0.3671273 -0.6358831 0.6788743 -0.190039 -0.7092352 -0.6788746 -0.190039 -0.7092352 0.6788746 0 -0.7342546 -0.6788742 0 -0.7342546 0.6788742 0.190039 -0.7092352 -0.6788746 0.190039 -0.7092352 0.6788746 0.3671272 -0.635883 -0.6788743 0.3671272 -0.635883 0.6788743 0.5191962 -0.5191962 -0.6788745 0.5191962 -0.5191962 0.6788745 0.6358829 -0.3671272 -0.6788744 0.6358829 -0.3671272 0.6788744 0.7092354 -0.1900391 -0.6788743 0.7092354 -0.1900391 0.6788743</float_array>
          <technique_common>
            <accessor count="274" source="#normals-array-array" stride="3">
              <param type="float" name="X" />
              <param type="float" name="Y" />
              <param type="float" name="Z" />
            </accessor>
          </technique_common>
        </source>
        <vertices id="verts-array-vertices">
          <input semantic="POSITION" source="#verts-array" />
        </vertices>
        <triangles count="524" material="material0">
          <input offset="0" semantic="VERTEX" source="#verts-array-vertices" />
          <input offset="1" semantic="NORMAL" source="#normals-array" />
          <p>0 0 1 1 2 2 3 3 0 0 2 2 2 2 1 1 4 4 4 4 3 3 2 2 0 0 5 5 1 1 6 6 0 0 3 3 6 6 5 5 0 0 1 1 5 5 4 4 7 7 3 3 4 4 4 4 5 5 7 7 7 7 6 6 3 3 5 5 6 6 7 7 8 8 9 9 10 10 8 8 10 10 11 11 11 11 10 10 12 12 11 11 12 12 13 13 10 10 9 9 14 14 10 10 14 14 12 12 12 12 14 14 15 15 12 12 15 15 13 13 14 14 9 9 16 16 14 14 16 16 15 15 15 15 16 16 17 17 15 15 17 17 13 13 16 16 9 9 18 18 16 16 18 18 17 17 17 17 18 18 19 19 17 17 19 19 13 13 18 18 9 9 20 20 18 18 20 20 19 19 19 19 20 20 21 21 19 19 21 21 13 13 20 20 9 9 22 22 20 20 22 22 21 21 21 21 22 22 23 23 21 21 23 23 13 13 22 22 9 9 24 24 22 22 24 24 23 23 23 23 24 24 25 25 23 23 25 25 13 13 24 24 9 9 26 26 24 24 26 26 25 25 25 25 26 26 27 27 25 25 27 27 13 13 26 26 9 9 28 28 26 26 28 28 27 27 27 27 28 28 29 29 27 27 29 29 13 13 28 28 9 9 30 30 28 28 30 30 29 29 29 29 30 30 31 31 29 29 31 31 13 13 30 30 9 9 32 32 30 30 32 32 31 31 31 31 32 32 33 33 31 31 33 33 13 13 32 32 9 9 34 34 32 32 34 34 33 33 33 33 34 34 35 35 33 33 35 35 13 13 34 34 9 9 36 36 34 34 36 36 35 35 35 35 36 36 37 37 35 35 37 37 13 13 36 36 9 9 38 38 36 36 38 38 37 37 37 37 38 38 39 39 37 37 39 39 13 13 38 38 9 9 40 40 38 38 40 40 39 39 39 39 40 40 41 41 39 39 41 41 13 13 40 40 9 9 42 42 40 40 42 42 41 41 41 41 42 42 43 43 41 41 43 43 13 13 42 42 9 9 44 44 42 42 44 44 43 43 43 43 44 44 45 45 43 43 45 45 13 13 44 44 9 9 46 46 44 44 46 46 45 45 45 45 46 46 47 47 45 45 47 47 13 13 46 46 9 9 48 48 46 46 48 48 47 47 47 47 48 48 49 49 47 47 49 49 13 13 48 48 9 9 50 50 48 48 50 50 49 49 49 49 50 50 51 51 49 49 51 51 13 13 50 50 9 9 52 52 50 50 52 52 51 51 51 51 52 52 53 53 51 51 53 53 13 13 52 52 9 9 54 54 52 52 54 54 53 53 53 53 54 54 55 55 53 53 55 55 13 13 54 54 9 9 56 56 54 54 56 56 55 55 55 55 56 56 57 57 55 55 57 57 13 13 56 56 9 9 58 58 56 56 58 58 57 57 57 57 58 58 59 59 57 57 59 59 13 13 58 58 9 9 60 60 58 58 60 60 59 59 59 59 60 60 61 61 59 59 61 61 13 13 60 60 9 9 62 62 60 60 62 62 61 61 61 61 62 62 63 63 61 61 63 63 13 13 62 62 9 9 64 64 62 62 64 64 63 63 63 63 64 64 65 65 63 63 65 65 13 13 64 64 9 9 66 66 64 64 66 66 65 65 65 65 66 66 67 67 65 65 67 67 13 13 66 66 9 9 68 68 66 66 68 68 67 67 67 67 68 68 69 69 67 67 69 69 13 13 68 68 9 9 70 70 68 68 70 70 69 69 69 69 70 70 71 71 69 69 71 71 13 13 70 70 9 9 72 72 70 70 72 72 71 71 71 71 72 72 73 73 71 71 73 73 13 13 72 72 9 9 8 8 72 72 8 8 73 73 73 73 8 8 11 11 73 73 11 11 13 13 74 74 75 75 76 76 74 74 76 76 77 77 77 77 76 76 78 78 77 77 78 78 79 79 76 76 75 75 80 80 76 76 80 80 78 78 78 78 80 80 81 81 78 78 81 81 79 79 80 80 75 75 82 82 80 80 82 82 81 81 81 81 82 82 83 83 81 81 83 83 79 79 82 82 75 75 84 84 82 82 84 84 83 83 83 83 84 84 85 85 83 83 85 85 79 79 84 84 75 75 86 86 84 84 86 86 85 85 85 85 86 86 87 87 85 85 87 87 79 79 86 86 75 75 88 88 86 86 88 88 87 87 87 87 88 88 89 89 87 87 89 89 79 79 88 88 75 75 90 90 88 88 90 90 89 89 89 89 90 90 91 91 89 89 91 91 79 79 90 90 75 75 92 92 90 90 92 92 91 91 91 91 92 92 93 93 91 91 93 93 79 79 92 92 75 75 94 94 92 92 94 94 93 93 93 93 94 94 95 95 93 93 95 95 79 79 94 94 75 75 96 96 94 94 96 96 95 95 95 95 96 96 97 97 95 95 97 97 79 79 96 96 75 75 98 98 96 96 98 98 97 97 97 97 98 98 99 99 97 97 99 99 79 79 98 98 75 75 100 100 98 98 100 100 99 99 99 99 100 100 101 101 99 99 101 101 79 79 100 100 75 75 102 102 100 100 102 102 101 101 101 101 102 102 103 103 101 101 103 103 79 79 102 102 75 75 104 104 102 102 104 104 103 103 103 103 104 104 105 105 103 103 105 105 79 79 104 104 75 75 106 106 104 104 106 106 105 105 105 105 106 106 107 107 105 105 107 107 79 79 106 106 75 75 108 108 106 106 108 108 107 107 107 107 108 108 109 109 107 107 109 109 79 79 108 108 75 75 110 110 108 108 110 110 109 109 109 109 110 110 111 111 109 109 111 111 79 79 110 110 75 75 112 112 110 110 112 112 111 111 111 111 112 112 113 113 111 111 113 113 79 79 112 112 75 75 114 114 112 112 114 114 113 113 113 113 114 114 115 115 113 113 115 115 79 79 114 114 75 75 116 116 114 114 116 116 115 115 115 115 116 116 117 117 115 115 117 117 79 79 116 116 75 75 118 118 116 116 118 118 117 117 117 117 118 118 119 119 117 117 119 119 79 79 118 118 75 75 120 120 118 118 120 120 119 119 119 119 120 120 121 121 119 119 121 121 79 79 120 120 75 75 122 122 120 120 122 122 121 121 121 121 122 122 123 123 121 121 123 123 79 79 122 122 75 75 74 74 122 122 74 74 123 123 123 123 74 74 77 77 123 123 77 77 79 79 124 124 125 125 126 126 124 124 126 126 127 127 127 127 126 126 128 128 127 127 128 128 129 129 126 126 125 125 130 130 126 126 130 130 128 128 128 128 130 130 131 131 128 128 131 131 129 129 130 130 125 125 132 132 130 130 132 132 131 131 131 131 132 132 133 133 131 131 133 133 129 129 132 132 125 125 134 134 132 132 134 134 133 133 133 133 134 134 135 135 133 133 135 135 129 129 134 134 125 125 136 136 134 134 136 136 135 135 135 135 136 136 137 137 135 135 137 137 129 129 136 136 125 125 138 138 136 136 138 138 137 137 137 137 138 138 139 139 137 137 139 139 129 129 138 138 125 125 140 140 138 138 140 140 139 139 139 139 140 140 141 141 139 139 141 141 129 129 140 140 125 125 142 142 140 140 142 142 141 141 141 141 142 142 143 143 141 141 143 143 129 129 142 142 125 125 144 144 142 142 144 144 143 143 143 143 144 144 145 145 143 143 145 145 129 129 144 144 125 125 146 146 144 144 146 146 145 145 145 145 146 146 147 147 145 145 147 147 129 129 146 146 125 125 148 148 146 146 148 148 147 147 147 147 148 148 149 149 147 147 149 149 129 129 148 148 125 125 150 150 148 148 150 150 149 149 149 149 150 150 151 151 149 149 151 151 129 129 150 150 125 125 152 152 150 150 152 152 151 151 151 151 152 152 153 153 151 151 153 153 129 129 152 152 125 125 154 154 152 152 154 154 153 153 153 153 154 154 155 155 153 153 155 155 129 129 154 154 125 125 156 156 154 154 156 156 155 155 155 155 156 156 157 157 155 155 157 157 129 129 156 156 125 125 158 158 156 156 158 158 157 157 157 157 158 158 159 159 157 157 159 159 129 129 158 158 125 125 160 160 158 158 160 160 159 159 159 159 160 160 161 161 159 159 161 161 129 129 160 160 125 125 162 162 160 160 162 162 161 161 161 161 162 162 163 163 161 161 163 163 129 129 162 162 125 125 164 164 162 162 164 164 163 163 163 163 164 164 165 165 163 163 165 165 129 129 164 164 125 125 166 166 164 164 166 166 165 165 165 165 166 166 167 167 165 165 167 167 129 129 166 166 125 125 168 168 166 166 168 168 167 167 167 167 168 168 169 169 167 167 169 169 129 129 168 168 125 125 170 170 168 168 170 170 169 169 169 169 170 170 171 171 169 169 171 171 129 129 170 170 125 125 172 172 170 170 172 172 171 171 171 171 172 172 173 173 171 171 173 173 129 129 172 172 125 125 124 124 172 172 124 124 173 173 173 173 124 124 127 127 173 173 127 127 129 129 174 174 175 175 176 176 174 174 176 176 177 177 177 177 176 176 178 178 177 177 178 178 179 179 176 176 175 175 180 180 176 176 180 180 178 178 178 178 180 180 181 181 178 178 181 181 179 179 180 180 175 175 182 182 180 180 182 182 181 181 181 181 182 182 183 183 181 181 183 183 179 179 182 182 175 175 184 184 182 182 184 184 183 183 183 183 184 184 185 185 183 183 185 185 179 179 184 184 175 175 186 186 184 184 186 186 185 185 185 185 186 186 187 187 185 185 187 187 179 179 186 186 175 175 188 188 186 186 188 188 187 187 187 187 188 188 189 189 187 187 189 189 179 179 188 188 175 175 190 190 188 188 190 190 189 189 189 189 190 190 191 191 189 189 191 191 179 179 190 190 175 175 192 192 190 190 192 192 191 191 191 191 192 192 193 193 191 191 193 193 179 179 192 192 175 175 194 194 192 192 194 194 193 193 193 193 194 194 195 195 193 193 195 195 179 179 194 194 175 175 196 196 194 194 196 196 195 195 195 195 196 196 197 197 195 195 197 197 179 179 196 196 175 175 198 198 196 196 198 198 197 197 197 197 198 198 199 199 197 197 199 199 179 179 198 198 175 175 200 200 198 198 200 200 199 199 199 199 200 200 201 201 199 199 201 201 179 179 200 200 175 175 202 202 200 200 202 202 201 201 201 201 202 202 203 203 201 201 203 203 179 179 202 202 175 175 204 204 202 202 204 204 203 203 203 203 204 204 205 205 203 203 205 205 179 179 204 204 175 175 206 206 204 204 206 206 205 205 205 205 206 206 207 207 205 205 207 207 179 179 206 206 175 175 208 208 206 206 208 208 207 207 207 207 208 208 209 209 207 207 209 209 179 179 208 208 175 175 210 210 208 208 210 210 209 209 209 209 210 210 211 211 209 209 211 211 179 179 210 210 175 175 212 212 210 210 212 212 211 211 211 211 212 212 213 213 211 211 213 213 179 179 212 212 175 175 214 214 212 212 214 214 213 213 213 213 214 214 215 215 213 213 215 215 179 179 214 214 175 175 216 216 214 214 216 216 215 215 215 215 216 216 217 217 215 215 217 217 179 179 216 216 175 175 218 218 216 216 218 218 217 217 217 217 218 218 219 219 217 217 219 219 179 179 218 218 175 175 220 220 218 218 220 220 219 219 219 219 220 220 221 221 219 219 221 221 179 179 220 220 175 175 222 222 220 220 222 222 221 221 221 221 222 222 223 223 221 221 223 223 179 179 222 222 175 175 174 174 222 222 174 174 223 223 223 223 174 174 177 177 223 223 177 177 179 179 224 224 225 225 226 226 224 224 226 226 227 227 227 227 226 226 228 228 227 227 228 228 229 229 226 226 225 225 230 230 226 226 230 230 228 228 228 228 230 230 231 231 228 228 231 231 229 229 230 230 225 225 232 232 230 230 232 232 231 231 231 231 232 232 233 233 231 231 233 233 229 229 232 232 225 225 234 234 232 232 234 234 233 233 233 233 234 234 235 235 233 233 235 235 229 229 234 234 225 225 236 236 234 234 236 236 235 235 235 235 236 236 237 237 235 235 237 237 229 229 236 236 225 225 238 238 236 236 238 238 237 237 237 237 238 238 239 239 237 237 239 239 229 229 238 238 225 225 240 240 238 238 240 240 239 239 239 239 240 240 241 241 239 239 241 241 229 229 240 240 225 225 242 242 240 240 242 242 241 241 241 241 242 242 243 243 241 241 243 243 229 229 242 242 225 225 244 244 242 242 244 244 243 243 243 243 244 244 245 245 243 243 245 245 229 229 244 244 225 225 246 246 244 244 246 246 245 245 245 245 246 246 247 247 245 245 247 247 229 229 246 246 225 225 248 248 246 246 248 248 247 247 247 247 248 248 249 249 247 247 249 249 229 229 248 248 225 225 250 250 248 248 250 250 249 249 249 249 250 250 251 251 249 249 251 251 229 229 250 250 225 225 252 252 250 250 252 252 251 251 251 251 252 252 253 253 251 251 253 253 229 229 252 252 225 225 254 254 252 252 254 254 253 253 253 253 254 254 255 255 253 253 255 255 229 229 254 254 225 225 256 256 254 254 256 256 255 255 255 255 256 256 257 257 255 255 257 257 229 229 256 256 225 225 258 258 256 256 258 258 257 257 257 257 258 258 259 259 257 257 259 259 229 229 258 258 225 225 260 260 258 258 260 260 259 259 259 259 260 260 261 261 259 259 261 261 229 229 260 260 225 225 262 262 260 260 262 262 261 261 261 261 262 262 263 263 261 261 263 263 229 229 262 262 225 225 264 264 262 262 264 264 263 263 263 263 264 264 265 265 263 263 265 265 229 229 264 264 225 225 266 266 264 264 266 266 265 265 265 265 266 266 267 267 265 265 267 267 229 229 266 266 225 225 268 268 266 266 268 268 267 267 267 267 268 268 269 269 267 267 269 269 229 229 268 268 225 225 270 270 268 268 270 270 269 269 269 269 270 270 271 271 269 269 271 271 229 229 270 270 225 225 272 272 270 270 272 272 271 271 271 271 272 272 273 273 271 271 273 273 229 229 272 272 225 225 224 224 272 272 224 224 273 273 273 273 224 224 227 227 273 273 227 227 229 229</p>
        </triangles>
      </mesh>
    </geometry>
  </library_geometries>
  <library_materials>
    <material id="69629105e1764ea6a46e7a1cce7ecf29" name="defaultmaterial">
      <instance_effect url="#ece2356e81cd4f60bd802871a85ae710" />
    </material>
  </library_materials>
  <library_visual_scenes>
    <visual_scene id="scene">
      <node id="node0" name="node0">
        <instance_geometry url="#4a837d0e07184f04a5fdcda1a45e4e8f">
          <bind_material>
            <technique_common>
              <instance_material symbol="material0" target="#69629105e1764ea6a46e7a1cce7ecf29" />
            </technique_common>
          </bind_material>
        </instance_geometry>
      </node>
    </visual_scene>
  </library_visual_scenes>
  <scene>
    <instance_visual_scene url="#scene" />
  </scene>
</COLLADA>
