# https://github.com/mikedh/trimesh
v -0.04000000 -0.04000000 0.00600000
v -0.04000000 0.04000000 0.00600000
v -0.04000000 -0.04000000 -0.00600000
v 0.04000000 -0.04000000 -0.00600000
v -0.04000000 0.04000000 -0.00600000
v 0.04000000 0.04000000 0.00600000
v 0.04000000 -0.04000000 0.00600000
v 0.04000000 0.04000000 -0.00600000
v 0.02000000 0.00000000 0.00600000
v 0.00000000 0.00000000 0.00600000
v 0.01961571 0.00390181 0.00600000
v 0.02000000 0.00000000 0.07600000
v 0.01961571 0.00390181 0.07600000
v 0.00000000 0.00000000 0.07600000
v 0.01847759 0.00765367 0.00600000
v 0.01847759 0.00765367 0.07600000
v 0.01662939 0.01111140 0.00600000
v 0.01662939 0.01111140 0.07600000
v 0.01414214 0.01414214 0.00600000
v 0.01414214 0.01414214 0.07600000
v 0.01111140 0.01662939 0.00600000
v 0.01111140 0.01662939 0.07600000
v 0.00765367 0.01847759 0.00600000
v 0.00765367 0.01847759 0.07600000
v 0.00390181 0.01961571 0.00600000
v 0.00390181 0.01961571 0.07600000
v 0.00000000 0.02000000 0.00600000
v 0.00000000 0.02000000 0.07600000
v -0.00390181 0.01961571 0.00600000
v -0.00390181 0.01961571 0.07600000
v -0.00765367 0.01847759 0.00600000
v -0.00765367 0.01847759 0.07600000
v -0.01111140 0.01662939 0.00600000
v -0.01111140 0.01662939 0.07600000
v -0.01414214 0.01414214 0.00600000
v -0.01414214 0.01414214 0.07600000
v -0.01662939 0.01111140 0.00600000
v -0.01662939 0.01111140 0.07600000
v -0.01847759 0.00765367 0.00600000
v -0.01847759 0.00765367 0.07600000
v -0.01961571 0.00390181 0.00600000
v -0.01961571 0.00390181 0.07600000
v -0.02000000 0.00000000 0.00600000
v -0.02000000 0.00000000 0.07600000
v -0.01961571 -0.00390181 0.00600000
v -0.01961571 -0.00390181 0.07600000
v -0.01847759 -0.00765367 0.00600000
v -0.01847759 -0.00765367 0.07600000
v -0.01662939 -0.01111140 0.00600000
v -0.01662939 -0.01111140 0.07600000
v -0.01414214 -0.01414214 0.00600000
v -0.01414214 -0.01414214 0.07600000
v -0.01111140 -0.01662939 0.00600000
v -0.01111140 -0.01662939 0.07600000
v -0.00765367 -0.01847759 0.00600000
v -0.00765367 -0.01847759 0.07600000
v -0.00390181 -0.01961571 0.00600000
v -0.00390181 -0.01961571 0.07600000
v -0.00000000 -0.02000000 0.00600000
v -0.00000000 -0.02000000 0.07600000
v 0.00390181 -0.01961571 0.00600000
v 0.00390181 -0.01961571 0.07600000
v 0.00765367 -0.01847759 0.00600000
v 0.00765367 -0.01847759 0.07600000
v 0.01111140 -0.01662939 0.00600000
v 0.01111140 -0.01662939 0.07600000
v 0.01414214 -0.01414214 0.00600000
v 0.01414214 -0.01414214 0.07600000
v 0.01662939 -0.01111140 0.00600000
v 0.01662939 -0.01111140 0.07600000
v 0.01847759 -0.00765367 0.00600000
v 0.01847759 -0.00765367 0.07600000
v 0.01961571 -0.00390181 0.00600000
v 0.01961571 -0.00390181 0.07600000
v 0.03300000 0.02500000 0.00000000
v 0.02500000 0.02500000 0.00000000
v 0.03272741 0.02707055 0.00000000
v 0.03300000 0.02500000 0.05000000
v 0.03272741 0.02707055 0.05000000
v 0.02500000 0.02500000 0.05000000
v 0.03192820 0.02900000 0.00000000
v 0.03192820 0.02900000 0.05000000
v 0.03065685 0.03065685 0.00000000
v 0.03065685 0.03065685 0.05000000
v 0.02900000 0.03192820 0.00000000
v 0.02900000 0.03192820 0.05000000
v 0.02707055 0.03272741 0.00000000
v 0.02707055 0.03272741 0.05000000
v 0.02500000 0.03300000 0.00000000
v 0.02500000 0.03300000 0.05000000
v 0.02292945 0.03272741 0.00000000
v 0.02292945 0.03272741 0.05000000
v 0.02100000 0.03192820 0.00000000
v 0.02100000 0.03192820 0.05000000
v 0.01934315 0.03065685 0.00000000
v 0.01934315 0.03065685 0.05000000
v 0.01807180 0.02900000 0.00000000
v 0.01807180 0.02900000 0.05000000
v 0.01727259 0.02707055 0.00000000
v 0.01727259 0.02707055 0.05000000
v 0.01700000 0.02500000 0.00000000
v 0.01700000 0.02500000 0.05000000
v 0.01727259 0.02292945 0.00000000
v 0.01727259 0.02292945 0.05000000
v 0.01807180 0.02100000 0.00000000
v 0.01807180 0.02100000 0.05000000
v 0.01934315 0.01934315 0.00000000
v 0.01934315 0.01934315 0.05000000
v 0.02100000 0.01807180 0.00000000
v 0.02100000 0.01807180 0.05000000
v 0.02292945 0.01727259 0.00000000
v 0.02292945 0.01727259 0.05000000
v 0.02500000 0.01700000 0.00000000
v 0.02500000 0.01700000 0.05000000
v 0.02707055 0.01727259 0.00000000
v 0.02707055 0.01727259 0.05000000
v 0.02900000 0.01807180 0.00000000
v 0.02900000 0.01807180 0.05000000
v 0.03065685 0.01934315 0.00000000
v 0.03065685 0.01934315 0.05000000
v 0.03192820 0.02100000 0.00000000
v 0.03192820 0.02100000 0.05000000
v 0.03272741 0.02292945 0.00000000
v 0.03272741 0.02292945 0.05000000
v -0.01700000 -0.02500000 0.00000000
v -0.02500000 -0.02500000 0.00000000
v -0.01727259 -0.02292945 0.00000000
v -0.01700000 -0.02500000 0.05000000
v -0.01727259 -0.02292945 0.05000000
v -0.02500000 -0.02500000 0.05000000
v -0.01807180 -0.02100000 0.00000000
v -0.01807180 -0.02100000 0.05000000
v -0.01934315 -0.01934315 0.00000000
v -0.01934315 -0.01934315 0.05000000
v -0.02100000 -0.01807180 0.00000000
v -0.02100000 -0.01807180 0.05000000
v -0.02292945 -0.01727259 0.00000000
v -0.02292945 -0.01727259 0.05000000
v -0.02500000 -0.01700000 0.00000000
v -0.02500000 -0.01700000 0.05000000
v -0.02707055 -0.01727259 0.00000000
v -0.02707055 -0.01727259 0.05000000
v -0.02900000 -0.01807180 0.00000000
v -0.02900000 -0.01807180 0.05000000
v -0.03065685 -0.01934315 0.00000000
v -0.03065685 -0.01934315 0.05000000
v -0.03192820 -0.02100000 0.00000000
v -0.03192820 -0.02100000 0.05000000
v -0.03272741 -0.02292945 0.00000000
v -0.03272741 -0.02292945 0.05000000
v -0.03300000 -0.02500000 0.00000000
v -0.03300000 -0.02500000 0.05000000
v -0.03272741 -0.02707055 0.00000000
v -0.03272741 -0.02707055 0.05000000
v -0.03192820 -0.02900000 0.00000000
v -0.03192820 -0.02900000 0.05000000
v -0.03065685 -0.03065685 0.00000000
v -0.03065685 -0.03065685 0.05000000
v -0.02900000 -0.03192820 0.00000000
v -0.02900000 -0.03192820 0.05000000
v -0.02707055 -0.03272741 0.00000000
v -0.02707055 -0.03272741 0.05000000
v -0.02500000 -0.03300000 0.00000000
v -0.02500000 -0.03300000 0.05000000
v -0.02292945 -0.03272741 0.00000000
v -0.02292945 -0.03272741 0.05000000
v -0.02100000 -0.03192820 0.00000000
v -0.02100000 -0.03192820 0.05000000
v -0.01934315 -0.03065685 0.00000000
v -0.01934315 -0.03065685 0.05000000
v -0.01807180 -0.02900000 0.00000000
v -0.01807180 -0.02900000 0.05000000
v -0.01727259 -0.02707055 0.00000000
v -0.01727259 -0.02707055 0.05000000
v 0.03400000 0.02500000 0.04800000
v 0.02500000 0.02500000 0.04800000
v 0.03369333 0.02732937 0.04800000
v 0.03400000 0.02500000 0.05600000
v 0.03369333 0.02732937 0.05600000
v 0.02500000 0.02500000 0.05600000
v 0.03279423 0.02950000 0.04800000
v 0.03279423 0.02950000 0.05600000
v 0.03136396 0.03136396 0.04800000
v 0.03136396 0.03136396 0.05600000
v 0.02950000 0.03279423 0.04800000
v 0.02950000 0.03279423 0.05600000
v 0.02732937 0.03369333 0.04800000
v 0.02732937 0.03369333 0.05600000
v 0.02500000 0.03400000 0.04800000
v 0.02500000 0.03400000 0.05600000
v 0.02267063 0.03369333 0.04800000
v 0.02267063 0.03369333 0.05600000
v 0.02050000 0.03279423 0.04800000
v 0.02050000 0.03279423 0.05600000
v 0.01863604 0.03136396 0.04800000
v 0.01863604 0.03136396 0.05600000
v 0.01720577 0.02950000 0.04800000
v 0.01720577 0.02950000 0.05600000
v 0.01630667 0.02732937 0.04800000
v 0.01630667 0.02732937 0.05600000
v 0.01600000 0.02500000 0.04800000
v 0.01600000 0.02500000 0.05600000
v 0.01630667 0.02267063 0.04800000
v 0.01630667 0.02267063 0.05600000
v 0.01720577 0.02050000 0.04800000
v 0.01720577 0.02050000 0.05600000
v 0.01863604 0.01863604 0.04800000
v 0.01863604 0.01863604 0.05600000
v 0.02050000 0.01720577 0.04800000
v 0.02050000 0.01720577 0.05600000
v 0.02267063 0.01630667 0.04800000
v 0.02267063 0.01630667 0.05600000
v 0.02500000 0.01600000 0.04800000
v 0.02500000 0.01600000 0.05600000
v 0.02732937 0.01630667 0.04800000
v 0.02732937 0.01630667 0.05600000
v 0.02950000 0.01720577 0.04800000
v 0.02950000 0.01720577 0.05600000
v 0.03136396 0.01863604 0.04800000
v 0.03136396 0.01863604 0.05600000
v 0.03279423 0.02050000 0.04800000
v 0.03279423 0.02050000 0.05600000
v 0.03369333 0.02267063 0.04800000
v 0.03369333 0.02267063 0.05600000
v -0.01600000 -0.02500000 0.04800000
v -0.02500000 -0.02500000 0.04800000
v -0.01630667 -0.02267063 0.04800000
v -0.01600000 -0.02500000 0.05600000
v -0.01630667 -0.02267063 0.05600000
v -0.02500000 -0.02500000 0.05600000
v -0.01720577 -0.02050000 0.04800000
v -0.01720577 -0.02050000 0.05600000
v -0.01863604 -0.01863604 0.04800000
v -0.01863604 -0.01863604 0.05600000
v -0.02050000 -0.01720577 0.04800000
v -0.02050000 -0.01720577 0.05600000
v -0.02267063 -0.01630667 0.04800000
v -0.02267063 -0.01630667 0.05600000
v -0.02500000 -0.01600000 0.04800000
v -0.02500000 -0.01600000 0.05600000
v -0.02732937 -0.01630667 0.04800000
v -0.02732937 -0.01630667 0.05600000
v -0.02950000 -0.01720577 0.04800000
v -0.02950000 -0.01720577 0.05600000
v -0.03136396 -0.01863604 0.04800000
v -0.03136396 -0.01863604 0.05600000
v -0.03279423 -0.02050000 0.04800000
v -0.03279423 -0.02050000 0.05600000
v -0.03369333 -0.02267063 0.04800000
v -0.03369333 -0.02267063 0.05600000
v -0.03400000 -0.02500000 0.04800000
v -0.03400000 -0.02500000 0.05600000
v -0.03369333 -0.02732937 0.04800000
v -0.03369333 -0.02732937 0.05600000
v -0.03279423 -0.02950000 0.04800000
v -0.03279423 -0.02950000 0.05600000
v -0.03136396 -0.03136396 0.04800000
v -0.03136396 -0.03136396 0.05600000
v -0.02950000 -0.03279423 0.04800000
v -0.02950000 -0.03279423 0.05600000
v -0.02732937 -0.03369333 0.04800000
v -0.02732937 -0.03369333 0.05600000
v -0.02500000 -0.03400000 0.04800000
v -0.02500000 -0.03400000 0.05600000
v -0.02267063 -0.03369333 0.04800000
v -0.02267063 -0.03369333 0.05600000
v -0.02050000 -0.03279423 0.04800000
v -0.02050000 -0.03279423 0.05600000
v -0.01863604 -0.03136396 0.04800000
v -0.01863604 -0.03136396 0.05600000
v -0.01720577 -0.02950000 0.04800000
v -0.01720577 -0.02950000 0.05600000
v -0.01630667 -0.02732937 0.04800000
v -0.01630667 -0.02732937 0.05600000
vn -0.57735027 -0.57735027 0.57735027
vn -0.57735027 0.57735027 0.57735027
vn -0.57735027 -0.57735027 -0.57735027
vn 0.57735027 -0.57735027 -0.57735027
vn -0.57735027 0.57735027 -0.57735027
vn 0.57735027 0.57735027 0.57735027
vn 0.57735027 -0.57735027 0.57735027
vn 0.57735027 0.57735027 -0.57735027
vn 0.72788756 0.00000000 -0.68569651
vn 0.00000000 0.00000000 -1.00000000
vn 0.71390149 0.14200383 -0.68569641
vn 0.72788756 -0.00000000 0.68569651
vn 0.71390149 0.14200383 0.68569641
vn 0.00000000 0.00000000 1.00000000
vn 0.67248047 0.27855052 -0.68569646
vn 0.67248047 0.27855052 0.68569646
vn 0.60521645 0.40439270 -0.68569643
vn 0.60521645 0.40439270 0.68569643
vn 0.51469423 0.51469423 -0.68569651
vn 0.51469423 0.51469423 0.68569651
vn 0.40439270 0.60521645 -0.68569643
vn 0.40439270 0.60521645 0.68569643
vn 0.27855052 0.67248047 -0.68569646
vn 0.27855052 0.67248047 0.68569646
vn 0.14200383 0.71390149 -0.68569641
vn 0.14200383 0.71390149 0.68569641
vn -0.00000000 0.72788756 -0.68569651
vn 0.00000000 0.72788756 0.68569651
vn -0.14200383 0.71390149 -0.68569641
vn -0.14200383 0.71390149 0.68569641
vn -0.27855052 0.67248047 -0.68569646
vn -0.27855052 0.67248047 0.68569646
vn -0.40439270 0.60521645 -0.68569643
vn -0.40439270 0.60521645 0.68569643
vn -0.51469423 0.51469423 -0.68569651
vn -0.51469423 0.51469423 0.68569651
vn -0.60521645 0.40439270 -0.68569643
vn -0.60521645 0.40439270 0.68569643
vn -0.67248047 0.27855052 -0.68569646
vn -0.67248047 0.27855052 0.68569646
vn -0.71390149 0.14200383 -0.68569641
vn -0.71390149 0.14200383 0.68569641
vn -0.72788756 -0.00000000 -0.68569651
vn -0.72788756 0.00000000 0.68569651
vn -0.71390149 -0.14200383 -0.68569641
vn -0.71390149 -0.14200383 0.68569641
vn -0.67248047 -0.27855052 -0.68569646
vn -0.67248047 -0.27855052 0.68569646
vn -0.60521645 -0.40439270 -0.68569643
vn -0.60521645 -0.40439270 0.68569643
vn -0.51469423 -0.51469423 -0.68569651
vn -0.51469423 -0.51469423 0.68569651
vn -0.40439270 -0.60521645 -0.68569643
vn -0.40439270 -0.60521645 0.68569643
vn -0.27855052 -0.67248047 -0.68569646
vn -0.27855052 -0.67248047 0.68569646
vn -0.14200383 -0.71390149 -0.68569641
vn -0.14200383 -0.71390149 0.68569641
vn 0.00000000 -0.72788756 -0.68569651
vn -0.00000000 -0.72788756 0.68569651
vn 0.14200383 -0.71390149 -0.68569641
vn 0.14200383 -0.71390149 0.68569641
vn 0.27855052 -0.67248047 -0.68569646
vn 0.27855052 -0.67248047 0.68569646
vn 0.40439270 -0.60521645 -0.68569643
vn 0.40439270 -0.60521645 0.68569643
vn 0.51469423 -0.51469423 -0.68569651
vn 0.51469423 -0.51469423 0.68569651
vn 0.60521645 -0.40439270 -0.68569643
vn 0.60521645 -0.40439270 0.68569643
vn 0.67248047 -0.27855052 -0.68569646
vn 0.67248047 -0.27855052 0.68569646
vn 0.71390149 -0.14200383 -0.68569641
vn 0.71390149 -0.14200383 0.68569641
vn 0.73425453 -0.00000000 -0.67887428
vn 0.00000000 0.00000000 -1.00000000
vn 0.70923515 0.19003898 -0.67887457
vn 0.73425453 0.00000000 0.67887428
vn 0.70923515 0.19003898 0.67887457
vn 0.00000000 0.00000000 1.00000000
vn 0.63588308 0.36712728 -0.67887427
vn 0.63588308 0.36712728 0.67887427
vn 0.51919620 0.51919620 -0.67887452
vn 0.51919620 0.51919620 0.67887452
vn 0.36712728 0.63588308 -0.67887427
vn 0.36712728 0.63588308 0.67887427
vn 0.19003898 0.70923515 -0.67887457
vn 0.19003898 0.70923515 0.67887457
vn 0.00000000 0.73425453 -0.67887428
vn -0.00000000 0.73425453 0.67887428
vn -0.19003899 0.70923517 -0.67887456
vn -0.19003899 0.70923517 0.67887456
vn -0.36712728 0.63588308 -0.67887427
vn -0.36712728 0.63588308 0.67887427
vn -0.51919626 0.51919626 -0.67887443
vn -0.51919626 0.51919626 0.67887443
vn -0.63588293 0.36712719 -0.67887446
vn -0.63588293 0.36712719 0.67887446
vn -0.70923535 0.19003903 -0.67887435
vn -0.70923535 0.19003903 0.67887435
vn -0.73425432 -0.00000000 -0.67887451
vn -0.73425432 0.00000000 0.67887451
vn -0.70923536 -0.19003904 -0.67887434
vn -0.70923536 -0.19003904 0.67887434
vn -0.63588293 -0.36712719 -0.67887446
vn -0.63588293 -0.36712719 0.67887446
vn -0.51919632 -0.51919632 -0.67887434
vn -0.51919632 -0.51919632 0.67887434
vn -0.36712719 -0.63588293 -0.67887446
vn -0.36712719 -0.63588293 0.67887446
vn -0.19003904 -0.70923536 -0.67887434
vn -0.19003904 -0.70923536 0.67887434
vn -0.00000000 -0.73425432 -0.67887451
vn 0.00000000 -0.73425432 0.67887451
vn 0.19003903 -0.70923535 -0.67887435
vn 0.19003903 -0.70923535 0.67887435
vn 0.36712719 -0.63588293 -0.67887446
vn 0.36712719 -0.63588293 0.67887446
vn 0.51919626 -0.51919626 -0.67887443
vn 0.51919626 -0.51919626 0.67887443
vn 0.63588308 -0.36712728 -0.67887427
vn 0.63588308 -0.36712728 0.67887427
vn 0.70923517 -0.19003899 -0.67887456
vn 0.70923517 -0.19003899 0.67887456
vn 0.73425432 0.00000000 -0.67887451
vn 0.00000000 0.00000000 -1.00000000
vn 0.70923536 0.19003904 -0.67887434
vn 0.73425432 -0.00000000 0.67887451
vn 0.70923536 0.19003904 0.67887434
vn 0.00000000 0.00000000 1.00000000
vn 0.63588293 0.36712719 -0.67887446
vn 0.63588293 0.36712719 0.67887446
vn 0.51919632 0.51919632 -0.67887434
vn 0.51919632 0.51919632 0.67887434
vn 0.36712719 0.63588293 -0.67887446
vn 0.36712719 0.63588293 0.67887446
vn 0.19003904 0.70923536 -0.67887434
vn 0.19003904 0.70923536 0.67887434
vn 0.00000000 0.73425432 -0.67887451
vn -0.00000000 0.73425432 0.67887451
vn -0.19003903 0.70923535 -0.67887435
vn -0.19003903 0.70923535 0.67887435
vn -0.36712719 0.63588293 -0.67887446
vn -0.36712719 0.63588293 0.67887446
vn -0.51919626 0.51919626 -0.67887443
vn -0.51919626 0.51919626 0.67887443
vn -0.63588308 0.36712728 -0.67887427
vn -0.63588308 0.36712728 0.67887427
vn -0.70923517 0.19003899 -0.67887456
vn -0.70923517 0.19003899 0.67887456
vn -0.73425453 0.00000000 -0.67887428
vn -0.73425453 -0.00000000 0.67887428
vn -0.70923515 -0.19003898 -0.67887457
vn -0.70923515 -0.19003898 0.67887457
vn -0.63588308 -0.36712728 -0.67887427
vn -0.63588308 -0.36712728 0.67887427
vn -0.51919620 -0.51919620 -0.67887452
vn -0.51919620 -0.51919620 0.67887452
vn -0.36712728 -0.63588308 -0.67887427
vn -0.36712728 -0.63588308 0.67887427
vn -0.19003898 -0.70923515 -0.67887457
vn -0.19003898 -0.70923515 0.67887457
vn -0.00000000 -0.73425453 -0.67887428
vn 0.00000000 -0.73425453 0.67887428
vn 0.19003899 -0.70923517 -0.67887456
vn 0.19003899 -0.70923517 0.67887456
vn 0.36712728 -0.63588308 -0.67887427
vn 0.36712728 -0.63588308 0.67887427
vn 0.51919626 -0.51919626 -0.67887443
vn 0.51919626 -0.51919626 0.67887443
vn 0.63588293 -0.36712719 -0.67887446
vn 0.63588293 -0.36712719 0.67887446
vn 0.70923535 -0.19003903 -0.67887435
vn 0.70923535 -0.19003903 0.67887435
vn 0.73425462 0.00000000 -0.67887418
vn 0.00000000 0.00000000 -1.00000000
vn 0.70923516 0.19003898 -0.67887457
vn 0.73425462 0.00000000 0.67887418
vn 0.70923516 0.19003898 0.67887457
vn 0.00000000 0.00000000 1.00000000
vn 0.63588308 0.36712728 -0.67887426
vn 0.63588308 0.36712728 0.67887426
vn 0.51919614 0.51919614 -0.67887462
vn 0.51919614 0.51919614 0.67887462
vn 0.36712728 0.63588308 -0.67887426
vn 0.36712728 0.63588308 0.67887426
vn 0.19003898 0.70923516 -0.67887457
vn 0.19003898 0.70923516 0.67887457
vn 0.00000000 0.73425462 -0.67887418
vn 0.00000000 0.73425462 0.67887418
vn -0.19003898 0.70923516 -0.67887457
vn -0.19003898 0.70923516 0.67887457
vn -0.36712725 0.63588303 -0.67887433
vn -0.36712725 0.63588303 0.67887433
vn -0.51919623 0.51919623 -0.67887448
vn -0.51919623 0.51919623 0.67887448
vn -0.63588294 0.36712720 -0.67887444
vn -0.63588294 0.36712720 0.67887444
vn -0.70923542 0.19003905 -0.67887427
vn -0.70923542 0.19003905 0.67887427
vn -0.73425425 0.00000000 -0.67887458
vn -0.73425425 -0.00000000 0.67887458
vn -0.70923542 -0.19003905 -0.67887427
vn -0.70923542 -0.19003905 0.67887427
vn -0.63588290 -0.36712717 -0.67887450
vn -0.63588290 -0.36712717 0.67887450
vn -0.51919632 -0.51919632 -0.67887433
vn -0.51919632 -0.51919632 0.67887433
vn -0.36712717 -0.63588290 -0.67887450
vn -0.36712717 -0.63588290 0.67887450
vn -0.19003905 -0.70923542 -0.67887427
vn -0.19003905 -0.70923542 0.67887427
vn -0.00000000 -0.73425425 -0.67887458
vn 0.00000000 -0.73425425 0.67887458
vn 0.19003905 -0.70923542 -0.67887427
vn 0.19003905 -0.70923542 0.67887427
vn 0.36712720 -0.63588294 -0.67887444
vn 0.36712720 -0.63588294 0.67887444
vn 0.51919623 -0.51919623 -0.67887448
vn 0.51919623 -0.51919623 0.67887448
vn 0.63588303 -0.36712725 -0.67887433
vn 0.63588303 -0.36712725 0.67887433
vn 0.70923516 -0.19003898 -0.67887457
vn 0.70923516 -0.19003898 0.67887457
vn 0.73425425 -0.00000000 -0.67887458
vn 0.00000000 0.00000000 -1.00000000
vn 0.70923542 0.19003905 -0.67887427
vn 0.73425425 0.00000000 0.67887458
vn 0.70923542 0.19003905 0.67887427
vn 0.00000000 0.00000000 1.00000000
vn 0.63588290 0.36712717 -0.67887450
vn 0.63588290 0.36712717 0.67887450
vn 0.51919632 0.51919632 -0.67887433
vn 0.51919632 0.51919632 0.67887433
vn 0.36712717 0.63588290 -0.67887450
vn 0.36712717 0.63588290 0.67887450
vn 0.19003905 0.70923542 -0.67887427
vn 0.19003905 0.70923542 0.67887427
vn 0.00000000 0.73425425 -0.67887458
vn -0.00000000 0.73425425 0.67887458
vn -0.19003905 0.70923542 -0.67887427
vn -0.19003905 0.70923542 0.67887427
vn -0.36712720 0.63588294 -0.67887444
vn -0.36712720 0.63588294 0.67887444
vn -0.51919623 0.51919623 -0.67887448
vn -0.51919623 0.51919623 0.67887448
vn -0.63588303 0.36712725 -0.67887433
vn -0.63588303 0.36712725 0.67887433
vn -0.70923516 0.19003898 -0.67887457
vn -0.70923516 0.19003898 0.67887457
vn -0.73425462 0.00000000 -0.67887418
vn -0.73425462 0.00000000 0.67887418
vn -0.70923516 -0.19003898 -0.67887457
vn -0.70923516 -0.19003898 0.67887457
vn -0.63588308 -0.36712728 -0.67887426
vn -0.63588308 -0.36712728 0.67887426
vn -0.51919614 -0.51919614 -0.67887462
vn -0.51919614 -0.51919614 0.67887462
vn -0.36712728 -0.63588308 -0.67887426
vn -0.36712728 -0.63588308 0.67887426
vn -0.19003898 -0.70923516 -0.67887457
vn -0.19003898 -0.70923516 0.67887457
vn 0.00000000 -0.73425462 -0.67887418
vn 0.00000000 -0.73425462 0.67887418
vn 0.19003898 -0.70923516 -0.67887457
vn 0.19003898 -0.70923516 0.67887457
vn 0.36712725 -0.63588303 -0.67887433
vn 0.36712725 -0.63588303 0.67887433
vn 0.51919623 -0.51919623 -0.67887448
vn 0.51919623 -0.51919623 0.67887448
vn 0.63588294 -0.36712720 -0.67887444
vn 0.63588294 -0.36712720 0.67887444
vn 0.70923542 -0.19003905 -0.67887427
vn 0.70923542 -0.19003905 0.67887427
f 1//1 2//2 3//3
f 4//4 1//1 3//3
f 3//3 2//2 5//5
f 5//5 4//4 3//3
f 1//1 6//6 2//2
f 7//7 1//1 4//4
f 7//7 6//6 1//1
f 2//2 6//6 5//5
f 8//8 4//4 5//5
f 5//5 6//6 8//8
f 8//8 7//7 4//4
f 6//6 7//7 8//8
f 9//9 10//10 11//11
f 9//9 11//11 12//12
f 12//12 11//11 13//13
f 12//12 13//13 14//14
f 11//11 10//10 15//15
f 11//11 15//15 13//13
f 13//13 15//15 16//16
f 13//13 16//16 14//14
f 15//15 10//10 17//17
f 15//15 17//17 16//16
f 16//16 17//17 18//18
f 16//16 18//18 14//14
f 17//17 10//10 19//19
f 17//17 19//19 18//18
f 18//18 19//19 20//20
f 18//18 20//20 14//14
f 19//19 10//10 21//21
f 19//19 21//21 20//20
f 20//20 21//21 22//22
f 20//20 22//22 14//14
f 21//21 10//10 23//23
f 21//21 23//23 22//22
f 22//22 23//23 24//24
f 22//22 24//24 14//14
f 23//23 10//10 25//25
f 23//23 25//25 24//24
f 24//24 25//25 26//26
f 24//24 26//26 14//14
f 25//25 10//10 27//27
f 25//25 27//27 26//26
f 26//26 27//27 28//28
f 26//26 28//28 14//14
f 27//27 10//10 29//29
f 27//27 29//29 28//28
f 28//28 29//29 30//30
f 28//28 30//30 14//14
f 29//29 10//10 31//31
f 29//29 31//31 30//30
f 30//30 31//31 32//32
f 30//30 32//32 14//14
f 31//31 10//10 33//33
f 31//31 33//33 32//32
f 32//32 33//33 34//34
f 32//32 34//34 14//14
f 33//33 10//10 35//35
f 33//33 35//35 34//34
f 34//34 35//35 36//36
f 34//34 36//36 14//14
f 35//35 10//10 37//37
f 35//35 37//37 36//36
f 36//36 37//37 38//38
f 36//36 38//38 14//14
f 37//37 10//10 39//39
f 37//37 39//39 38//38
f 38//38 39//39 40//40
f 38//38 40//40 14//14
f 39//39 10//10 41//41
f 39//39 41//41 40//40
f 40//40 41//41 42//42
f 40//40 42//42 14//14
f 41//41 10//10 43//43
f 41//41 43//43 42//42
f 42//42 43//43 44//44
f 42//42 44//44 14//14
f 43//43 10//10 45//45
f 43//43 45//45 44//44
f 44//44 45//45 46//46
f 44//44 46//46 14//14
f 45//45 10//10 47//47
f 45//45 47//47 46//46
f 46//46 47//47 48//48
f 46//46 48//48 14//14
f 47//47 10//10 49//49
f 47//47 49//49 48//48
f 48//48 49//49 50//50
f 48//48 50//50 14//14
f 49//49 10//10 51//51
f 49//49 51//51 50//50
f 50//50 51//51 52//52
f 50//50 52//52 14//14
f 51//51 10//10 53//53
f 51//51 53//53 52//52
f 52//52 53//53 54//54
f 52//52 54//54 14//14
f 53//53 10//10 55//55
f 53//53 55//55 54//54
f 54//54 55//55 56//56
f 54//54 56//56 14//14
f 55//55 10//10 57//57
f 55//55 57//57 56//56
f 56//56 57//57 58//58
f 56//56 58//58 14//14
f 57//57 10//10 59//59
f 57//57 59//59 58//58
f 58//58 59//59 60//60
f 58//58 60//60 14//14
f 59//59 10//10 61//61
f 59//59 61//61 60//60
f 60//60 61//61 62//62
f 60//60 62//62 14//14
f 61//61 10//10 63//63
f 61//61 63//63 62//62
f 62//62 63//63 64//64
f 62//62 64//64 14//14
f 63//63 10//10 65//65
f 63//63 65//65 64//64
f 64//64 65//65 66//66
f 64//64 66//66 14//14
f 65//65 10//10 67//67
f 65//65 67//67 66//66
f 66//66 67//67 68//68
f 66//66 68//68 14//14
f 67//67 10//10 69//69
f 67//67 69//69 68//68
f 68//68 69//69 70//70
f 68//68 70//70 14//14
f 69//69 10//10 71//71
f 69//69 71//71 70//70
f 70//70 71//71 72//72
f 70//70 72//72 14//14
f 71//71 10//10 73//73
f 71//71 73//73 72//72
f 72//72 73//73 74//74
f 72//72 74//74 14//14
f 73//73 10//10 9//9
f 73//73 9//9 74//74
f 74//74 9//9 12//12
f 74//74 12//12 14//14
f 75//75 76//76 77//77
f 75//75 77//77 78//78
f 78//78 77//77 79//79
f 78//78 79//79 80//80
f 77//77 76//76 81//81
f 77//77 81//81 79//79
f 79//79 81//81 82//82
f 79//79 82//82 80//80
f 81//81 76//76 83//83
f 81//81 83//83 82//82
f 82//82 83//83 84//84
f 82//82 84//84 80//80
f 83//83 76//76 85//85
f 83//83 85//85 84//84
f 84//84 85//85 86//86
f 84//84 86//86 80//80
f 85//85 76//76 87//87
f 85//85 87//87 86//86
f 86//86 87//87 88//88
f 86//86 88//88 80//80
f 87//87 76//76 89//89
f 87//87 89//89 88//88
f 88//88 89//89 90//90
f 88//88 90//90 80//80
f 89//89 76//76 91//91
f 89//89 91//91 90//90
f 90//90 91//91 92//92
f 90//90 92//92 80//80
f 91//91 76//76 93//93
f 91//91 93//93 92//92
f 92//92 93//93 94//94
f 92//92 94//94 80//80
f 93//93 76//76 95//95
f 93//93 95//95 94//94
f 94//94 95//95 96//96
f 94//94 96//96 80//80
f 95//95 76//76 97//97
f 95//95 97//97 96//96
f 96//96 97//97 98//98
f 96//96 98//98 80//80
f 97//97 76//76 99//99
f 97//97 99//99 98//98
f 98//98 99//99 100//100
f 98//98 100//100 80//80
f 99//99 76//76 101//101
f 99//99 101//101 100//100
f 100//100 101//101 102//102
f 100//100 102//102 80//80
f 101//101 76//76 103//103
f 101//101 103//103 102//102
f 102//102 103//103 104//104
f 102//102 104//104 80//80
f 103//103 76//76 105//105
f 103//103 105//105 104//104
f 104//104 105//105 106//106
f 104//104 106//106 80//80
f 105//105 76//76 107//107
f 105//105 107//107 106//106
f 106//106 107//107 108//108
f 106//106 108//108 80//80
f 107//107 76//76 109//109
f 107//107 109//109 108//108
f 108//108 109//109 110//110
f 108//108 110//110 80//80
f 109//109 76//76 111//111
f 109//109 111//111 110//110
f 110//110 111//111 112//112
f 110//110 112//112 80//80
f 111//111 76//76 113//113
f 111//111 113//113 112//112
f 112//112 113//113 114//114
f 112//112 114//114 80//80
f 113//113 76//76 115//115
f 113//113 115//115 114//114
f 114//114 115//115 116//116
f 114//114 116//116 80//80
f 115//115 76//76 117//117
f 115//115 117//117 116//116
f 116//116 117//117 118//118
f 116//116 118//118 80//80
f 117//117 76//76 119//119
f 117//117 119//119 118//118
f 118//118 119//119 120//120
f 118//118 120//120 80//80
f 119//119 76//76 121//121
f 119//119 121//121 120//120
f 120//120 121//121 122//122
f 120//120 122//122 80//80
f 121//121 76//76 123//123
f 121//121 123//123 122//122
f 122//122 123//123 124//124
f 122//122 124//124 80//80
f 123//123 76//76 75//75
f 123//123 75//75 124//124
f 124//124 75//75 78//78
f 124//124 78//78 80//80
f 125//125 126//126 127//127
f 125//125 127//127 128//128
f 128//128 127//127 129//129
f 128//128 129//129 130//130
f 127//127 126//126 131//131
f 127//127 131//131 129//129
f 129//129 131//131 132//132
f 129//129 132//132 130//130
f 131//131 126//126 133//133
f 131//131 133//133 132//132
f 132//132 133//133 134//134
f 132//132 134//134 130//130
f 133//133 126//126 135//135
f 133//133 135//135 134//134
f 134//134 135//135 136//136
f 134//134 136//136 130//130
f 135//135 126//126 137//137
f 135//135 137//137 136//136
f 136//136 137//137 138//138
f 136//136 138//138 130//130
f 137//137 126//126 139//139
f 137//137 139//139 138//138
f 138//138 139//139 140//140
f 138//138 140//140 130//130
f 139//139 126//126 141//141
f 139//139 141//141 140//140
f 140//140 141//141 142//142
f 140//140 142//142 130//130
f 141//141 126//126 143//143
f 141//141 143//143 142//142
f 142//142 143//143 144//144
f 142//142 144//144 130//130
f 143//143 126//126 145//145
f 143//143 145//145 144//144
f 144//144 145//145 146//146
f 144//144 146//146 130//130
f 145//145 126//126 147//147
f 145//145 147//147 146//146
f 146//146 147//147 148//148
f 146//146 148//148 130//130
f 147//147 126//126 149//149
f 147//147 149//149 148//148
f 148//148 149//149 150//150
f 148//148 150//150 130//130
f 149//149 126//126 151//151
f 149//149 151//151 150//150
f 150//150 151//151 152//152
f 150//150 152//152 130//130
f 151//151 126//126 153//153
f 151//151 153//153 152//152
f 152//152 153//153 154//154
f 152//152 154//154 130//130
f 153//153 126//126 155//155
f 153//153 155//155 154//154
f 154//154 155//155 156//156
f 154//154 156//156 130//130
f 155//155 126//126 157//157
f 155//155 157//157 156//156
f 156//156 157//157 158//158
f 156//156 158//158 130//130
f 157//157 126//126 159//159
f 157//157 159//159 158//158
f 158//158 159//159 160//160
f 158//158 160//160 130//130
f 159//159 126//126 161//161
f 159//159 161//161 160//160
f 160//160 161//161 162//162
f 160//160 162//162 130//130
f 161//161 126//126 163//163
f 161//161 163//163 162//162
f 162//162 163//163 164//164
f 162//162 164//164 130//130
f 163//163 126//126 165//165
f 163//163 165//165 164//164
f 164//164 165//165 166//166
f 164//164 166//166 130//130
f 165//165 126//126 167//167
f 165//165 167//167 166//166
f 166//166 167//167 168//168
f 166//166 168//168 130//130
f 167//167 126//126 169//169
f 167//167 169//169 168//168
f 168//168 169//169 170//170
f 168//168 170//170 130//130
f 169//169 126//126 171//171
f 169//169 171//171 170//170
f 170//170 171//171 172//172
f 170//170 172//172 130//130
f 171//171 126//126 173//173
f 171//171 173//173 172//172
f 172//172 173//173 174//174
f 172//172 174//174 130//130
f 173//173 126//126 125//125
f 173//173 125//125 174//174
f 174//174 125//125 128//128
f 174//174 128//128 130//130
f 175//175 176//176 177//177
f 175//175 177//177 178//178
f 178//178 177//177 179//179
f 178//178 179//179 180//180
f 177//177 176//176 181//181
f 177//177 181//181 179//179
f 179//179 181//181 182//182
f 179//179 182//182 180//180
f 181//181 176//176 183//183
f 181//181 183//183 182//182
f 182//182 183//183 184//184
f 182//182 184//184 180//180
f 183//183 176//176 185//185
f 183//183 185//185 184//184
f 184//184 185//185 186//186
f 184//184 186//186 180//180
f 185//185 176//176 187//187
f 185//185 187//187 186//186
f 186//186 187//187 188//188
f 186//186 188//188 180//180
f 187//187 176//176 189//189
f 187//187 189//189 188//188
f 188//188 189//189 190//190
f 188//188 190//190 180//180
f 189//189 176//176 191//191
f 189//189 191//191 190//190
f 190//190 191//191 192//192
f 190//190 192//192 180//180
f 191//191 176//176 193//193
f 191//191 193//193 192//192
f 192//192 193//193 194//194
f 192//192 194//194 180//180
f 193//193 176//176 195//195
f 193//193 195//195 194//194
f 194//194 195//195 196//196
f 194//194 196//196 180//180
f 195//195 176//176 197//197
f 195//195 197//197 196//196
f 196//196 197//197 198//198
f 196//196 198//198 180//180
f 197//197 176//176 199//199
f 197//197 199//199 198//198
f 198//198 199//199 200//200
f 198//198 200//200 180//180
f 199//199 176//176 201//201
f 199//199 201//201 200//200
f 200//200 201//201 202//202
f 200//200 202//202 180//180
f 201//201 176//176 203//203
f 201//201 203//203 202//202
f 202//202 203//203 204//204
f 202//202 204//204 180//180
f 203//203 176//176 205//205
f 203//203 205//205 204//204
f 204//204 205//205 206//206
f 204//204 206//206 180//180
f 205//205 176//176 207//207
f 205//205 207//207 206//206
f 206//206 207//207 208//208
f 206//206 208//208 180//180
f 207//207 176//176 209//209
f 207//207 209//209 208//208
f 208//208 209//209 210//210
f 208//208 210//210 180//180
f 209//209 176//176 211//211
f 209//209 211//211 210//210
f 210//210 211//211 212//212
f 210//210 212//212 180//180
f 211//211 176//176 213//213
f 211//211 213//213 212//212
f 212//212 213//213 214//214
f 212//212 214//214 180//180
f 213//213 176//176 215//215
f 213//213 215//215 214//214
f 214//214 215//215 216//216
f 214//214 216//216 180//180
f 215//215 176//176 217//217
f 215//215 217//217 216//216
f 216//216 217//217 218//218
f 216//216 218//218 180//180
f 217//217 176//176 219//219
f 217//217 219//219 218//218
f 218//218 219//219 220//220
f 218//218 220//220 180//180
f 219//219 176//176 221//221
f 219//219 221//221 220//220
f 220//220 221//221 222//222
f 220//220 222//222 180//180
f 221//221 176//176 223//223
f 221//221 223//223 222//222
f 222//222 223//223 224//224
f 222//222 224//224 180//180
f 223//223 176//176 175//175
f 223//223 175//175 224//224
f 224//224 175//175 178//178
f 224//224 178//178 180//180
f 225//225 226//226 227//227
f 225//225 227//227 228//228
f 228//228 227//227 229//229
f 228//228 229//229 230//230
f 227//227 226//226 231//231
f 227//227 231//231 229//229
f 229//229 231//231 232//232
f 229//229 232//232 230//230
f 231//231 226//226 233//233
f 231//231 233//233 232//232
f 232//232 233//233 234//234
f 232//232 234//234 230//230
f 233//233 226//226 235//235
f 233//233 235//235 234//234
f 234//234 235//235 236//236
f 234//234 236//236 230//230
f 235//235 226//226 237//237
f 235//235 237//237 236//236
f 236//236 237//237 238//238
f 236//236 238//238 230//230
f 237//237 226//226 239//239
f 237//237 239//239 238//238
f 238//238 239//239 240//240
f 238//238 240//240 230//230
f 239//239 226//226 241//241
f 239//239 241//241 240//240
f 240//240 241//241 242//242
f 240//240 242//242 230//230
f 241//241 226//226 243//243
f 241//241 243//243 242//242
f 242//242 243//243 244//244
f 242//242 244//244 230//230
f 243//243 226//226 245//245
f 243//243 245//245 244//244
f 244//244 245//245 246//246
f 244//244 246//246 230//230
f 245//245 226//226 247//247
f 245//245 247//247 246//246
f 246//246 247//247 248//248
f 246//246 248//248 230//230
f 247//247 226//226 249//249
f 247//247 249//249 248//248
f 248//248 249//249 250//250
f 248//248 250//250 230//230
f 249//249 226//226 251//251
f 249//249 251//251 250//250
f 250//250 251//251 252//252
f 250//250 252//252 230//230
f 251//251 226//226 253//253
f 251//251 253//253 252//252
f 252//252 253//253 254//254
f 252//252 254//254 230//230
f 253//253 226//226 255//255
f 253//253 255//255 254//254
f 254//254 255//255 256//256
f 254//254 256//256 230//230
f 255//255 226//226 257//257
f 255//255 257//257 256//256
f 256//256 257//257 258//258
f 256//256 258//258 230//230
f 257//257 226//226 259//259
f 257//257 259//259 258//258
f 258//258 259//259 260//260
f 258//258 260//260 230//230
f 259//259 226//226 261//261
f 259//259 261//261 260//260
f 260//260 261//261 262//262
f 260//260 262//262 230//230
f 261//261 226//226 263//263
f 261//261 263//263 262//262
f 262//262 263//263 264//264
f 262//262 264//264 230//230
f 263//263 226//226 265//265
f 263//263 265//265 264//264
f 264//264 265//265 266//266
f 264//264 266//266 230//230
f 265//265 226//226 267//267
f 265//265 267//267 266//266
f 266//266 267//267 268//268
f 266//266 268//268 230//230
f 267//267 226//226 269//269
f 267//267 269//269 268//268
f 268//268 269//269 270//270
f 268//268 270//270 230//230
f 269//269 226//226 271//271
f 269//269 271//271 270//270
f 270//270 271//271 272//272
f 270//270 272//272 230//230
f 271//271 226//226 273//273
f 271//271 273//273 272//272
f 272//272 273//273 274//274
f 272//272 274//274 230//230
f 273//273 226//226 225//225
f 273//273 225//225 274//274
f 274//274 225//225 228//228
f 274//274 228//228 230//230

