<COLLADA xmlns="http://www.collada.org/2005/11/COLLADASchema" version="1.4.1">
  <asset>
    <created>2026-09-03T21:36:14.806680</created>
    <modified>2026-09-03T21:36:14.806684</modified>
    <up_axis>Y_UP</up_axis>
  </asset>
  <library_effects>
    <effect id="c8f56491fd1b4ed88da8381007a2f6d0" name="c8f56491fd1b4ed88da8381007a2f6d0">
      <profile_COMMON>
        <technique sid="common">
          <phong>
            <emission>
              <color>0.0 0.0 0.0 1.0</color>
            </emission>
            <ambient>
              <color>0.0 0.0 0.0 1.0</color>
            </ambient>
            <diffuse>
              <color>0.0 0.0 0.0 1.0</color>
            </diffuse>
            <specular>
              <color>0.0 0.0 0.0 1.0</color>
            </specular>
            <shininess>
              <float>0.0</float>
            </shininess>
            <reflective>
              <color>0.0 0.0 0.0 1.0</color>
            </reflective>
            <reflectivity>
              <float>0.0</float>
            </reflectivity>
            <transparent>
              <color>0.0 0.0 0.0 1.0</color>
            </transparent>
            <transparency>
              <float>1.0</float>
            </transparency>
          </phong>
        </technique>
        <extra>
          <technique profile="GOOGLEEARTH">
            <double_sided>0</double_sided>
          </technique>
        </extra>
      </profile_COMMON>
    </effect>
  </library_effects>
  <library_geometries>
    <geometry id="8bc342b67f8b4010963bed1e154a5615" name="7e0865efa405428bb6f58f366eea7c14">
      <mesh>
        <source id="verts-array">
          <float_array count="789" id="verts-array-array">0.01 0 0 0 0 0 0.009807853 0.001950903 0 0.01 0 0.24 0.009807853 0.001950903 0.24 0 0 0.24 0.009238795 0.003826834 0 0.009238795 0.003826834 0.24 0.008314696 0.005555702 0 0.008314696 0.005555702 0.24 0.007071068 0.007071068 0 0.007071068 0.007071068 0.24 0.005555702 0.008314696 0 0.005555702 0.008314696 0.24 0.003826834 0.009238795 0 0.003826834 0.009238795 0.24 0.001950903 0.009807853 0 0.001950903 0.009807853 0.24 6.123234e-19 0.01 0 6.123234e-19 0.01 0.24 -0.001950903 0.009807853 0 -0.001950903 0.009807853 0.24 -0.003826834 0.009238795 0 -0.003826834 0.009238795 0.24 -0.005555702 0.008314696 0 -0.005555702 0.008314696 0.24 -0.007071068 0.007071068 0 -0.007071068 0.007071068 0.24 -0.008314696 0.005555702 0 -0.008314696 0.005555702 0.24 -0.009238795 0.003826834 0 -0.009238795 0.003826834 0.24 -0.009807853 0.001950903 0 -0.009807853 0.001950903 0.24 -0.01 1.224647e-18 0 -0.01 1.224647e-18 0.24 -0.009807853 -0.001950903 0 -0.009807853 -0.001950903 0.24 -0.009238795 -0.003826834 0 -0.009238795 -0.003826834 0.24 -0.008314696 -0.005555702 0 -0.008314696 -0.005555702 0.24 -0.007071068 -0.007071068 0 -0.007071068 -0.007071068 0.24 -0.005555702 -0.008314696 0 -0.005555702 -0.008314696 0.24 -0.003826834 -0.009238795 0 -0.003826834 -0.009238795 0.24 -0.001950903 -0.009807853 0 -0.001950903 -0.009807853 0.24 -1.83697e-18 -0.01 0 -1.83697e-18 -0.01 0.24 0.001950903 -0.009807853 0 0.001950903 -0.009807853 0.24 0.003826834 -0.009238795 0 0.003826834 -0.009238795 0.24 0.005555702 -0.008314696 0 0.005555702 -0.008314696 0.24 0.007071068 -0.007071068 0 0.007071068 -0.007071068 0.24 0.008314696 -0.005555702 0 0.008314696 -0.005555702 0.24 0.009238795 -0.003826834 0 0.009238795 -0.003826834 0.24 0.009807853 -0.001950903 0 0.009807853 -0.001950903 0.24 0.026 0 0.146 0 0 0.146 0.02550042 0.005072348 0.146 0.026 0 0.154 0.02550042 0.005072348 0.154 0 0 0.154 0.02402087 0.009949769 0.146 0.02402087 0.009949769 0.154 0.02161821 0.01444483 0.146 0.02161821 0.01444483 0.154 0.01838478 0.01838478 0.146 0.01838478 0.01838478 0.154 0.01444483 0.02161821 0.146 0.01444483 0.02161821 0.154 0.009949769 0.02402087 0.146 0.009949769 0.02402087 0.154 0.005072348 0.02550042 0.146 0.005072348 0.02550042 0.154 1.592041e-18 0.026 0.146 1.592041e-18 0.026 0.154 -0.005072348 0.02550042 0.146 -0.005072348 0.02550042 0.154 -0.009949769 0.02402087 0.146 -0.009949769 0.02402087 0.154 -0.01444483 0.02161821 0.146 -0.01444483 0.02161821 0.154 -0.01838478 0.01838478 0.146 -0.01838478 0.01838478 0.154 -0.02161821 0.01444483 0.146 -0.02161821 0.01444483 0.154 -0.02402087 0.009949769 0.146 -0.02402087 0.009949769 0.154 -0.02550042 0.005072348 0.146 -0.02550042 0.005072348 0.154 -0.026 3.184082e-18 0.146 -0.026 3.184082e-18 0.154 -0.02550042 -0.005072348 0.146 -0.02550042 -0.005072348 0.154 -0.02402087 -0.009949769 0.146 -0.02402087 -0.009949769 0.154 -0.02161821 -0.01444483 0.146 -0.02161821 -0.01444483 0.154 -0.01838478 -0.01838478 0.146 -0.01838478 -0.01838478 0.154 -0.01444483 -0.02161821 0.146 -0.01444483 -0.02161821 0.154 -0.009949769 -0.02402087 0.146 -0.009949769 -0.02402087 0.154 -0.005072348 -0.02550042 0.146 -0.005072348 -0.02550042 0.154 -4.776123e-18 -0.026 0.146 -4.776123e-18 -0.026 0.154 0.005072348 -0.02550042 0.146 0.005072348 -0.02550042 0.154 0.009949769 -0.02402087 0.146 0.009949769 -0.02402087 0.154 0.01444483 -0.02161821 0.146 0.01444483 -0.02161821 0.154 0.01838478 -0.01838478 0.146 0.01838478 -0.01838478 0.154 0.02161821 -0.01444483 0.146 0.02161821 -0.01444483 0.154 0.02402087 -0.009949769 0.146 0.02402087 -0.009949769 0.154 0.02550042 -0.005072348 0.146 0.02550042 -0.005072348 0.154 0.018 0 0.0125 0 0 0.0125 0.01765414 0.003511626 0.0125 0.018 0 0.0275 0.01765414 0.003511626 0.0275 0 0 0.0275 0.01662983 0.006888302 0.0125 0.01662983 0.006888302 0.0275 0.01496645 0.01000026 0.0125 0.01496645 0.01000026 0.0275 0.01272792 0.01272792 0.0125 0.01272792 0.01272792 0.0275 0.01000026 0.01496645 0.0125 0.01000026 0.01496645 0.0275 0.006888302 0.01662983 0.0125 0.006888302 0.01662983 0.0275 0.003511626 0.01765414 0.0125 0.003511626 0.01765414 0.0275 1.102182e-18 0.018 0.0125 1.102182e-18 0.018 0.0275 -0.003511626 0.01765414 0.0125 -0.003511626 0.01765414 0.0275 -0.006888302 0.01662983 0.0125 -0.006888302 0.01662983 0.0275 -0.01000026 0.01496645 0.0125 -0.01000026 0.01496645 0.0275 -0.01272792 0.01272792 0.0125 -0.01272792 0.01272792 0.0275 -0.01496645 0.01000026 0.0125 -0.01496645 0.01000026 0.0275 -0.01662983 0.006888302 0.0125 -0.01662983 0.006888302 0.0275 -0.01765414 0.003511626 0.0125 -0.01765414 0.003511626 0.0275 -0.018 2.204364e-18 0.0125 -0.018 2.204364e-18 0.0275 -0.01765414 -0.003511626 0.0125 -0.01765414 -0.003511626 0.0275 -0.01662983 -0.006888302 0.0125 -0.01662983 -0.006888302 0.0275 -0.01496645 -0.01000026 0.0125 -0.01496645 -0.01000026 0.0275 -0.01272792 -0.01272792 0.0125 -0.01272792 -0.01272792 0.0275 -0.01000026 -0.01496645 0.0125 -0.01000026 -0.01496645 0.0275 -0.006888302 -0.01662983 0.0125 -0.006888302 -0.01662983 0.0275 -0.003511626 -0.01765414 0.0125 -0.003511626 -0.01765414 0.0275 -3.306546e-18 -0.018 0.0125 -3.306546e-18 -0.018 0.0275 0.003511626 -0.01765414 0.0125 0.003511626 -0.01765414 0.0275 0.006888302 -0.01662983 0.0125 0.006888302 -0.01662983 0.0275 0.01000026 -0.01496645 0.0125 0.01000026 -0.01496645 0.0275 0.01272792 -0.01272792 0.0125 0.01272792 -0.01272792 0.0275 0.01496645 -0.01000026 0.0125 0.01496645 -0.01000026 0.0275 0.01662983 -0.006888302 0.0125 0.01662983 -0.006888302 0.0275 0.01765414 -0.003511626 0.0125 0.01765414 -0.003511626 0.0275 0.014 0 0.22 0 0 0.22 0.01373099 0.002731265 0.22 0.014 0 0.24 0.01373099 0.002731265 0.24 0.01293431 0.005357568 0.22 0.01293431 0.005357568 0.24 0.01164057 0.007777983 0.22 0.01164057 0.007777983 0.24 0.009899495 0.009899495 0.22 0.009899495 0.009899495 0.24 0.007777983 0.01164057 0.22 0.007777983 0.01164057 0.24 0.005357568 0.01293431 0.22 0.005357568 0.01293431 0.24 0.002731265 0.01373099 0.22 0.002731265 0.01373099 0.24 8.572528e-19 0.014 0.22 8.572528e-19 0.014 0.24 -0.002731265 0.01373099 0.22 -0.002731265 0.01373099 0.24 -0.005357568 0.01293431 0.22 -0.005357568 0.01293431 0.24 -0.007777983 0.01164057 0.22 -0.007777983 0.01164057 0.24 -0.009899495 0.009899495 0.22 -0.009899495 0.009899495 0.24 -0.01164057 0.007777983 0.22 -0.01164057 0.007777983 0.24 -0.01293431 0.005357568 0.22 -0.01293431 0.005357568 0.24 -0.01373099 0.002731265 0.22 -0.01373099 0.002731265 0.24 -0.014 1.714506e-18 0.22 -0.014 1.714506e-18 0.24 -0.01373099 -0.002731265 0.22 -0.01373099 -0.002731265 0.24 -0.01293431 -0.005357568 0.22 -0.01293431 -0.005357568 0.24 -0.01164057 -0.007777983 0.22 -0.01164057 -0.007777983 0.24 -0.009899495 -0.009899495 0.22 -0.009899495 -0.009899495 0.24 -0.007777983 -0.01164057 0.22 -0.007777983 -0.01164057 0.24 -0.005357568 -0.01293431 0.22 -0.005357568 -0.01293431 0.24 -0.002731265 -0.01373099 0.22 -0.002731265 -0.01373099 0.24 -2.571758e-18 -0.014 0.22 -2.571758e-18 -0.014 0.24 0.002731265 -0.01373099 0.22 0.002731265 -0.01373099 0.24 0.005357568 -0.01293431 0.22 0.005357568 -0.01293431 0.24 0.007777983 -0.01164057 0.22 0.007777983 -0.01164057 0.24 0.009899495 -0.009899495 0.22 0.009899495 -0.009899495 0.24 0.01164057 -0.007777983 0.22 0.01164057 -0.007777983 0.24 0.01293431 -0.005357568 0.22 0.01293431 -0.005357568 0.24 0.01373099 -0.002731265 0.22 0.01373099 -0.002731265 0.24</float_array>
          <technique_common>
            <accessor count="263" source="#verts-array-array" stride="3">
              <param type="float" name="X" />
              <param type="float" name="Y" />
              <param type="float" name="Z" />
            </accessor>
          </technique_common>
        </source>
        <source id="normals-array">
          <float_array count="789" id="normals-array-array">0.7278876 1.387544e-16 -0.6856965 0 0 -1 0.7139015 0.1420038 -0.6856964 0.7278876 -1.42162e-16 0.6856965 0.7139015 0.1420038 0.6856964 0 0 1 0.6724805 0.2785505 -0.6856965 0.6724805 0.2785505 0.6856965 0.6052165 0.4043927 -0.6856964 0.6052165 0.4043927 0.6856964 0.5146942 0.5146942 -0.6856965 0.5146942 0.5146942 0.6856965 0.4043927 0.6052165 -0.6856964 0.4043927 0.6052165 0.6856964 0.2785505 0.6724805 -0.6856965 0.2785505 0.6724805 0.6856965 0.1420038 0.7139015 -0.6856964 0.1420038 0.7139015 0.6856964 -1.357001e-16 0.7278876 -0.6856965 1.42162e-16 0.7278876 0.6856965 -0.1420038 0.7139015 -0.6856964 -0.1420038 0.7139015 0.6856964 -0.2785505 0.6724805 -0.6856965 -0.2785505 0.6724805 0.6856965 -0.4043927 0.6052165 -0.6856964 -0.4043927 0.6052165 0.6856964 -0.5146942 0.5146942 -0.6856965 -0.5146942 0.5146942 0.6856965 -0.6052165 0.4043927 -0.6856964 -0.6052165 0.4043927 0.6856964 -0.6724805 0.2785505 -0.6856965 -0.6724805 0.2785505 0.6856965 -0.7139015 0.1420038 -0.6856964 -0.7139015 0.1420038 0.6856964 -0.7278876 -1.357001e-16 -0.6856965 -0.7278876 1.42162e-16 0.6856965 -0.7139015 -0.1420038 -0.6856964 -0.7139015 -0.1420038 0.6856964 -0.6724805 -0.2785505 -0.6856965 -0.6724805 -0.2785505 0.6856965 -0.6052165 -0.4043927 -0.6856964 -0.6052165 -0.4043927 0.6856964 -0.5146942 -0.5146942 -0.6856965 -0.5146942 -0.5146942 0.6856965 -0.4043927 -0.6052165 -0.6856964 -0.4043927 -0.6052165 0.6856964 -0.2785505 -0.6724805 -0.6856965 -0.2785505 -0.6724805 0.6856965 -0.1420038 -0.7139015 -0.6856964 -0.1420038 -0.7139015 0.6856964 1.357001e-16 -0.7278876 -0.6856965 -1.42162e-16 -0.7278876 0.6856965 0.1420038 -0.7139015 -0.6856964 0.1420038 -0.7139015 0.6856964 0.2785505 -0.6724805 -0.6856965 0.2785505 -0.6724805 0.6856965 0.4043927 -0.6052165 -0.6856964 0.4043927 -0.6052165 0.6856964 0.5146942 -0.5146942 -0.6856965 0.5146942 -0.5146942 0.6856965 0.6052165 -0.4043927 -0.6856964 0.6052165 -0.4043927 0.6856964 0.6724805 -0.2785505 -0.6856965 0.6724805 -0.2785505 0.6856965 0.7139015 -0.1420038 -0.6856964 0.7139015 -0.1420038 0.6856964 0.7278877 -3.230956e-18 -0.6856964 0 0 -1 0.7139014 0.1420038 -0.6856965 0.7278877 0 0.6856964 0.7139014 0.1420038 0.6856965 0 0 1 0.6724805 0.2785505 -0.6856965 0.6724805 0.2785505 0.6856965 0.6052164 0.4043927 -0.6856965 0.6052164 0.4043927 0.6856965 0.5146943 0.5146943 -0.6856964 0.5146943 0.5146943 0.6856964 0.4043927 0.6052164 -0.6856965 0.4043927 0.6052164 0.6856965 0.2785505 0.6724805 -0.6856965 0.2785505 0.6724805 0.6856965 0.1420038 0.7139014 -0.6856965 0.1420038 0.7139014 0.6856965 0 0.7278877 -0.6856964 9.692868e-18 0.7278877 0.6856964 -0.1420038 0.7139014 -0.6856965 -0.1420038 0.7139014 0.6856965 -0.2785505 0.6724805 -0.6856965 -0.2785505 0.6724805 0.6856965 -0.4043927 0.6052164 -0.6856965 -0.4043927 0.6052164 0.6856965 -0.5146943 0.5146943 -0.6856964 -0.5146943 0.5146943 0.6856964 -0.6052164 0.4043927 -0.6856965 -0.6052164 0.4043927 0.6856965 -0.6724805 0.2785505 -0.6856965 -0.6724805 0.2785505 0.6856965 -0.7139014 0.1420038 -0.6856965 -0.7139014 0.1420038 0.6856965 -0.7278877 0 -0.6856964 -0.7278877 9.692868e-18 0.6856964 -0.7139014 -0.1420038 -0.6856965 -0.7139014 -0.1420038 0.6856965 -0.6724805 -0.2785505 -0.6856965 -0.6724805 -0.2785505 0.6856965 -0.6052164 -0.4043927 -0.6856965 -0.6052164 -0.4043927 0.6856965 -0.5146943 -0.5146943 -0.6856964 -0.5146943 -0.5146943 0.6856964 -0.4043927 -0.6052164 -0.6856965 -0.4043927 -0.6052164 0.6856965 -0.2785505 -0.6724805 -0.6856965 -0.2785505 -0.6724805 0.6856965 -0.1420038 -0.7139014 -0.6856965 -0.1420038 -0.7139014 0.6856965 0 -0.7278877 -0.6856964 -3.230956e-18 -0.7278877 0.6856964 0.1420038 -0.7139014 -0.6856965 0.1420038 -0.7139014 0.6856965 0.2785505 -0.6724805 -0.6856965 0.2785505 -0.6724805 0.6856965 0.4043927 -0.6052164 -0.6856965 0.4043927 -0.6052164 0.6856965 0.5146943 -0.5146943 -0.6856964 0.5146943 -0.5146943 0.6856964 0.6052164 -0.4043927 -0.6856965 0.6052164 -0.4043927 0.6856965 0.6724805 -0.2785505 -0.6856965 0.6724805 -0.2785505 0.6856965 0.7139014 -0.1420038 -0.6856965 0.7139014 -0.1420038 0.6856965 0.7278875 -4.038694e-18 -0.6856966 0 0 -1 0.7139015 0.1420038 -0.6856964 0.7278875 6.46191e-18 0.6856966 0.7139015 0.1420038 0.6856964 0 0 1 0.6724805 0.2785505 -0.6856965 0.6724805 0.2785505 0.6856965 0.6052165 0.4043927 -0.6856964 0.6052165 0.4043927 0.6856964 0.5146942 0.5146942 -0.6856965 0.5146942 0.5146942 0.6856965 0.4043927 0.6052165 -0.6856964 0.4043927 0.6052165 0.6856964 0.2785505 0.6724805 -0.6856965 0.2785505 0.6724805 0.6856965 0.1420038 0.7139015 -0.6856964 0.1420038 0.7139015 0.6856964 1.292382e-17 0.7278875 -0.6856966 -6.46191e-18 0.7278875 0.6856966 -0.1420038 0.7139015 -0.6856964 -0.1420038 0.7139015 0.6856964 -0.2785505 0.6724805 -0.6856965 -0.2785505 0.6724805 0.6856965 -0.4043927 0.6052165 -0.6856964 -0.4043927 0.6052165 0.6856964 -0.5146942 0.5146942 -0.6856965 -0.5146942 0.5146942 0.6856965 -0.6052165 0.4043927 -0.6856964 -0.6052165 0.4043927 0.6856964 -0.6724805 0.2785505 -0.6856965 -0.6724805 0.2785505 0.6856965 -0.7139015 0.1420038 -0.6856964 -0.7139015 0.1420038 0.6856964 -0.7278875 1.292382e-17 -0.6856966 -0.7278875 0 0.6856966 -0.7139015 -0.1420038 -0.6856964 -0.7139015 -0.1420038 0.6856964 -0.6724805 -0.2785505 -0.6856965 -0.6724805 -0.2785505 0.6856965 -0.6052165 -0.4043927 -0.6856964 -0.6052165 -0.4043927 0.6856964 -0.5146942 -0.5146942 -0.6856965 -0.5146942 -0.5146942 0.6856965 -0.4043927 -0.6052165 -0.6856964 -0.4043927 -0.6052165 0.6856964 -0.2785505 -0.6724805 -0.6856965 -0.2785505 -0.6724805 0.6856965 -0.1420038 -0.7139015 -0.6856964 -0.1420038 -0.7139015 0.6856964 -1.292382e-17 -0.7278875 -0.6856966 0 -0.7278875 0.6856966 0.1420038 -0.7139015 -0.6856964 0.1420038 -0.7139015 0.6856964 0.2785505 -0.6724805 -0.6856965 0.2785505 -0.6724805 0.6856965 0.4043927 -0.6052165 -0.6856964 0.4043927 -0.6052165 0.6856964 0.5146942 -0.5146942 -0.6856965 0.5146942 -0.5146942 0.6856965 0.6052165 -0.4043927 -0.6856964 0.6052165 -0.4043927 0.6856964 0.6724805 -0.2785505 -0.6856965 0.6724805 -0.2785505 0.6856965 0.7139015 -0.1420038 -0.6856964 0.7139015 -0.1420038 0.6856964 0.7278877 -2.7867e-17 -0.6856964 0 0 -1 0.7139014 0.1420038 -0.6856965 0.7278877 2.584765e-17 0.6856964 0.7139014 0.1420038 0.6856965 0.6724805 0.2785505 -0.6856965 0.6724805 0.2785505 0.6856965 0.6052164 0.4043927 -0.6856964 0.6052164 0.4043927 0.6856964 0.5146943 0.5146943 -0.6856964 0.5146943 0.5146943 0.6856964 0.4043927 0.6052164 -0.6856964 0.4043927 0.6052164 0.6856964 0.2785505 0.6724805 -0.6856965 0.2785505 0.6724805 0.6856965 0.1420038 0.7139014 -0.6856965 0.1420038 0.7139014 0.6856965 2.584765e-17 0.7278877 -0.6856964 -2.584765e-17 0.7278877 0.6856964 -0.1420038 0.7139014 -0.6856965 -0.1420038 0.7139014 0.6856965 -0.2785505 0.6724805 -0.6856965 -0.2785505 0.6724805 0.6856965 -0.4043927 0.6052164 -0.6856964 -0.4043927 0.6052164 0.6856964 -0.5146943 0.5146943 -0.6856964 -0.5146943 0.5146943 0.6856964 -0.6052164 0.4043927 -0.6856964 -0.6052164 0.4043927 0.6856964 -0.6724805 0.2785505 -0.6856965 -0.6724805 0.2785505 0.6856965 -0.7139014 0.1420038 -0.6856965 -0.7139014 0.1420038 0.6856965 -0.7278877 2.584765e-17 -0.6856964 -0.7278877 -1.938574e-17 0.6856964 -0.7139014 -0.1420038 -0.6856965 -0.7139014 -0.1420038 0.6856965 -0.6724805 -0.2785505 -0.6856965 -0.6724805 -0.2785505 0.6856965 -0.6052164 -0.4043927 -0.6856964 -0.6052164 -0.4043927 0.6856964 -0.5146943 -0.5146943 -0.6856964 -0.5146943 -0.5146943 0.6856964 -0.4043927 -0.6052164 -0.6856964 -0.4043927 -0.6052164 0.6856964 -0.2785505 -0.6724805 -0.6856965 -0.2785505 -0.6724805 0.6856965 -0.1420038 -0.7139014 -0.6856965 -0.1420038 -0.7139014 0.6856965 -2.584765e-17 -0.7278877 -0.6856964 1.938574e-17 -0.7278877 0.6856964 0.1420038 -0.7139014 -0.6856965 0.1420038 -0.7139014 0.6856965 0.2785505 -0.6724805 -0.6856965 0.2785505 -0.6724805 0.6856965 0.4043927 -0.6052164 -0.6856964 0.4043927 -0.6052164 0.6856964 0.5146943 -0.5146943 -0.6856964 0.5146943 -0.5146943 0.6856964 0.6052164 -0.4043927 -0.6856964 0.6052164 -0.4043927 0.6856964 0.6724805 -0.2785505 -0.6856965 0.6724805 -0.2785505 0.6856965 0.7139014 -0.1420038 -0.6856965 0.7139014 -0.1420038 0.6856965</float_array>
          <technique_common>
            <accessor count="263" source="#normals-array-array" stride="3">
              <param type="float" name="X" />
              <param type="float" name="Y" />
              <param type="float" name="Z" />
            </accessor>
          </technique_common>
        </source>
        <vertices id="verts-array-vertices">
          <input semantic="POSITION" source="#verts-array" />
        </vertices>
        <triangles count="512" material="material0">
          <input offset="0" semantic="VERTEX" source="#verts-array-vertices" />
          <input offset="1" semantic="NORMAL" source="#normals-array" />
          <p>0 0 1 1 2 2 0 0 2 2 3 3 3 3 2 2 4 4 3 3 4 4 5 5 2 2 1 1 6 6 2 2 6 6 4 4 4 4 6 6 7 7 4 4 7 7 5 5 6 6 1 1 8 8 6 6 8 8 7 7 7 7 8 8 9 9 7 7 9 9 5 5 8 8 1 1 10 10 8 8 10 10 9 9 9 9 10 10 11 11 9 9 11 11 5 5 10 10 1 1 12 12 10 10 12 12 11 11 11 11 12 12 13 13 11 11 13 13 5 5 12 12 1 1 14 14 12 12 14 14 13 13 13 13 14 14 15 15 13 13 15 15 5 5 14 14 1 1 16 16 14 14 16 16 15 15 15 15 16 16 17 17 15 15 17 17 5 5 16 16 1 1 18 18 16 16 18 18 17 17 17 17 18 18 19 19 17 17 19 19 5 5 18 18 1 1 20 20 18 18 20 20 19 19 19 19 20 20 21 21 19 19 21 21 5 5 20 20 1 1 22 22 20 20 22 22 21 21 21 21 22 22 23 23 21 21 23 23 5 5 22 22 1 1 24 24 22 22 24 24 23 23 23 23 24 24 25 25 23 23 25 25 5 5 24 24 1 1 26 26 24 24 26 26 25 25 25 25 26 26 27 27 25 25 27 27 5 5 26 26 1 1 28 28 26 26 28 28 27 27 27 27 28 28 29 29 27 27 29 29 5 5 28 28 1 1 30 30 28 28 30 30 29 29 29 29 30 30 31 31 29 29 31 31 5 5 30 30 1 1 32 32 30 30 32 32 31 31 31 31 32 32 33 33 31 31 33 33 5 5 32 32 1 1 34 34 32 32 34 34 33 33 33 33 34 34 35 35 33 33 35 35 5 5 34 34 1 1 36 36 34 34 36 36 35 35 35 35 36 36 37 37 35 35 37 37 5 5 36 36 1 1 38 38 36 36 38 38 37 37 37 37 38 38 39 39 37 37 39 39 5 5 38 38 1 1 40 40 38 38 40 40 39 39 39 39 40 40 41 41 39 39 41 41 5 5 40 40 1 1 42 42 40 40 42 42 41 41 41 41 42 42 43 43 41 41 43 43 5 5 42 42 1 1 44 44 42 42 44 44 43 43 43 43 44 44 45 45 43 43 45 45 5 5 44 44 1 1 46 46 44 44 46 46 45 45 45 45 46 46 47 47 45 45 47 47 5 5 46 46 1 1 48 48 46 46 48 48 47 47 47 47 48 48 49 49 47 47 49 49 5 5 48 48 1 1 50 50 48 48 50 50 49 49 49 49 50 50 51 51 49 49 51 51 5 5 50 50 1 1 52 52 50 50 52 52 51 51 51 51 52 52 53 53 51 51 53 53 5 5 52 52 1 1 54 54 52 52 54 54 53 53 53 53 54 54 55 55 53 53 55 55 5 5 54 54 1 1 56 56 54 54 56 56 55 55 55 55 56 56 57 57 55 55 57 57 5 5 56 56 1 1 58 58 56 56 58 58 57 57 57 57 58 58 59 59 57 57 59 59 5 5 58 58 1 1 60 60 58 58 60 60 59 59 59 59 60 60 61 61 59 59 61 61 5 5 60 60 1 1 62 62 60 60 62 62 61 61 61 61 62 62 63 63 61 61 63 63 5 5 62 62 1 1 64 64 62 62 64 64 63 63 63 63 64 64 65 65 63 63 65 65 5 5 64 64 1 1 0 0 64 64 0 0 65 65 65 65 0 0 3 3 65 65 3 3 5 5 66 66 67 67 68 68 66 66 68 68 69 69 69 69 68 68 70 70 69 69 70 70 71 71 68 68 67 67 72 72 68 68 72 72 70 70 70 70 72 72 73 73 70 70 73 73 71 71 72 72 67 67 74 74 72 72 74 74 73 73 73 73 74 74 75 75 73 73 75 75 71 71 74 74 67 67 76 76 74 74 76 76 75 75 75 75 76 76 77 77 75 75 77 77 71 71 76 76 67 67 78 78 76 76 78 78 77 77 77 77 78 78 79 79 77 77 79 79 71 71 78 78 67 67 80 80 78 78 80 80 79 79 79 79 80 80 81 81 79 79 81 81 71 71 80 80 67 67 82 82 80 80 82 82 81 81 81 81 82 82 83 83 81 81 83 83 71 71 82 82 67 67 84 84 82 82 84 84 83 83 83 83 84 84 85 85 83 83 85 85 71 71 84 84 67 67 86 86 84 84 86 86 85 85 85 85 86 86 87 87 85 85 87 87 71 71 86 86 67 67 88 88 86 86 88 88 87 87 87 87 88 88 89 89 87 87 89 89 71 71 88 88 67 67 90 90 88 88 90 90 89 89 89 89 90 90 91 91 89 89 91 91 71 71 90 90 67 67 92 92 90 90 92 92 91 91 91 91 92 92 93 93 91 91 93 93 71 71 92 92 67 67 94 94 92 92 94 94 93 93 93 93 94 94 95 95 93 93 95 95 71 71 94 94 67 67 96 96 94 94 96 96 95 95 95 95 96 96 97 97 95 95 97 97 71 71 96 96 67 67 98 98 96 96 98 98 97 97 97 97 98 98 99 99 97 97 99 99 71 71 98 98 67 67 100 100 98 98 100 100 99 99 99 99 100 100 101 101 99 99 101 101 71 71 100 100 67 67 102 102 100 100 102 102 101 101 101 101 102 102 103 103 101 101 103 103 71 71 102 102 67 67 104 104 102 102 104 104 103 103 103 103 104 104 105 105 103 103 105 105 71 71 104 104 67 67 106 106 104 104 106 106 105 105 105 105 106 106 107 107 105 105 107 107 71 71 106 106 67 67 108 108 106 106 108 108 107 107 107 107 108 108 109 109 107 107 109 109 71 71 108 108 67 67 110 110 108 108 110 110 109 109 109 109 110 110 111 111 109 109 111 111 71 71 110 110 67 67 112 112 110 110 112 112 111 111 111 111 112 112 113 113 111 111 113 113 71 71 112 112 67 67 114 114 112 112 114 114 113 113 113 113 114 114 115 115 113 113 115 115 71 71 114 114 67 67 116 116 114 114 116 116 115 115 115 115 116 116 117 117 115 115 117 117 71 71 116 116 67 67 118 118 116 116 118 118 117 117 117 117 118 118 119 119 117 117 119 119 71 71 118 118 67 67 120 120 118 118 120 120 119 119 119 119 120 120 121 121 119 119 121 121 71 71 120 120 67 67 122 122 120 120 122 122 121 121 121 121 122 122 123 123 121 121 123 123 71 71 122 122 67 67 124 124 122 122 124 124 123 123 123 123 124 124 125 125 123 123 125 125 71 71 124 124 67 67 126 126 124 124 126 126 125 125 125 125 126 126 127 127 125 125 127 127 71 71 126 126 67 67 128 128 126 126 128 128 127 127 127 127 128 128 129 129 127 127 129 129 71 71 128 128 67 67 130 130 128 128 130 130 129 129 129 129 130 130 131 131 129 129 131 131 71 71 130 130 67 67 66 66 130 130 66 66 131 131 131 131 66 66 69 69 131 131 69 69 71 71 132 132 133 133 134 134 132 132 134 134 135 135 135 135 134 134 136 136 135 135 136 136 137 137 134 134 133 133 138 138 134 134 138 138 136 136 136 136 138 138 139 139 136 136 139 139 137 137 138 138 133 133 140 140 138 138 140 140 139 139 139 139 140 140 141 141 139 139 141 141 137 137 140 140 133 133 142 142 140 140 142 142 141 141 141 141 142 142 143 143 141 141 143 143 137 137 142 142 133 133 144 144 142 142 144 144 143 143 143 143 144 144 145 145 143 143 145 145 137 137 144 144 133 133 146 146 144 144 146 146 145 145 145 145 146 146 147 147 145 145 147 147 137 137 146 146 133 133 148 148 146 146 148 148 147 147 147 147 148 148 149 149 147 147 149 149 137 137 148 148 133 133 150 150 148 148 150 150 149 149 149 149 150 150 151 151 149 149 151 151 137 137 150 150 133 133 152 152 150 150 152 152 151 151 151 151 152 152 153 153 151 151 153 153 137 137 152 152 133 133 154 154 152 152 154 154 153 153 153 153 154 154 155 155 153 153 155 155 137 137 154 154 133 133 156 156 154 154 156 156 155 155 155 155 156 156 157 157 155 155 157 157 137 137 156 156 133 133 158 158 156 156 158 158 157 157 157 157 158 158 159 159 157 157 159 159 137 137 158 158 133 133 160 160 158 158 160 160 159 159 159 159 160 160 161 161 159 159 161 161 137 137 160 160 133 133 162 162 160 160 162 162 161 161 161 161 162 162 163 163 161 161 163 163 137 137 162 162 133 133 164 164 162 162 164 164 163 163 163 163 164 164 165 165 163 163 165 165 137 137 164 164 133 133 166 166 164 164 166 166 165 165 165 165 166 166 167 167 165 165 167 167 137 137 166 166 133 133 168 168 166 166 168 168 167 167 167 167 168 168 169 169 167 167 169 169 137 137 168 168 133 133 170 170 168 168 170 170 169 169 169 169 170 170 171 171 169 169 171 171 137 137 170 170 133 133 172 172 170 170 172 172 171 171 171 171 172 172 173 173 171 171 173 173 137 137 172 172 133 133 174 174 172 172 174 174 173 173 173 173 174 174 175 175 173 173 175 175 137 137 174 174 133 133 176 176 174 174 176 176 175 175 175 175 176 176 177 177 175 175 177 177 137 137 176 176 133 133 178 178 176 176 178 178 177 177 177 177 178 178 179 179 177 177 179 179 137 137 178 178 133 133 180 180 178 178 180 180 179 179 179 179 180 180 181 181 179 179 181 181 137 137 180 180 133 133 182 182 180 180 182 182 181 181 181 181 182 182 183 183 181 181 183 183 137 137 182 182 133 133 184 184 182 182 184 184 183 183 183 183 184 184 185 185 183 183 185 185 137 137 184 184 133 133 186 186 184 184 186 186 185 185 185 185 186 186 187 187 185 185 187 187 137 137 186 186 133 133 188 188 186 186 188 188 187 187 187 187 188 188 189 189 187 187 189 189 137 137 188 188 133 133 190 190 188 188 190 190 189 189 189 189 190 190 191 191 189 189 191 191 137 137 190 190 133 133 192 192 190 190 192 192 191 191 191 191 192 192 193 193 191 191 193 193 137 137 192 192 133 133 194 194 192 192 194 194 193 193 193 193 194 194 195 195 193 193 195 195 137 137 194 194 133 133 196 196 194 194 196 196 195 195 195 195 196 196 197 197 195 195 197 197 137 137 196 196 133 133 132 132 196 196 132 132 197 197 197 197 132 132 135 135 197 197 135 135 137 137 198 198 199 199 200 200 198 198 200 200 201 201 201 201 200 200 202 202 201 201 202 202 5 5 200 200 199 199 203 203 200 200 203 203 202 202 202 202 203 203 204 204 202 202 204 204 5 5 203 203 199 199 205 205 203 203 205 205 204 204 204 204 205 205 206 206 204 204 206 206 5 5 205 205 199 199 207 207 205 205 207 207 206 206 206 206 207 207 208 208 206 206 208 208 5 5 207 207 199 199 209 209 207 207 209 209 208 208 208 208 209 209 210 210 208 208 210 210 5 5 209 209 199 199 211 211 209 209 211 211 210 210 210 210 211 211 212 212 210 210 212 212 5 5 211 211 199 199 213 213 211 211 213 213 212 212 212 212 213 213 214 214 212 212 214 214 5 5 213 213 199 199 215 215 213 213 215 215 214 214 214 214 215 215 216 216 214 214 216 216 5 5 215 215 199 199 217 217 215 215 217 217 216 216 216 216 217 217 218 218 216 216 218 218 5 5 217 217 199 199 219 219 217 217 219 219 218 218 218 218 219 219 220 220 218 218 220 220 5 5 219 219 199 199 221 221 219 219 221 221 220 220 220 220 221 221 222 222 220 220 222 222 5 5 221 221 199 199 223 223 221 221 223 223 222 222 222 222 223 223 224 224 222 222 224 224 5 5 223 223 199 199 225 225 223 223 225 225 224 224 224 224 225 225 226 226 224 224 226 226 5 5 225 225 199 199 227 227 225 225 227 227 226 226 226 226 227 227 228 228 226 226 228 228 5 5 227 227 199 199 229 229 227 227 229 229 228 228 228 228 229 229 230 230 228 228 230 230 5 5 229 229 199 199 231 231 229 229 231 231 230 230 230 230 231 231 232 232 230 230 232 232 5 5 231 231 199 199 233 233 231 231 233 233 232 232 232 232 233 233 234 234 232 232 234 234 5 5 233 233 199 199 235 235 233 233 235 235 234 234 234 234 235 235 236 236 234 234 236 236 5 5 235 235 199 199 237 237 235 235 237 237 236 236 236 236 237 237 238 238 236 236 238 238 5 5 237 237 199 199 239 239 237 237 239 239 238 238 238 238 239 239 240 240 238 238 240 240 5 5 239 239 199 199 241 241 239 239 241 241 240 240 240 240 241 241 242 242 240 240 242 242 5 5 241 241 199 199 243 243 241 241 243 243 242 242 242 242 243 243 244 244 242 242 244 244 5 5 243 243 199 199 245 245 243 243 245 245 244 244 244 244 245 245 246 246 244 244 246 246 5 5 245 245 199 199 247 247 245 245 247 247 246 246 246 246 247 247 248 248 246 246 248 248 5 5 247 247 199 199 249 249 247 247 249 249 248 248 248 248 249 249 250 250 248 248 250 250 5 5 249 249 199 199 251 251 249 249 251 251 250 250 250 250 251 251 252 252 250 250 252 252 5 5 251 251 199 199 253 253 251 251 253 253 252 252 252 252 253 253 254 254 252 252 254 254 5 5 253 253 199 199 255 255 253 253 255 255 254 254 254 254 255 255 256 256 254 254 256 256 5 5 255 255 199 199 257 257 255 255 257 257 256 256 256 256 257 257 258 258 256 256 258 258 5 5 257 257 199 199 259 259 257 257 259 259 258 258 258 258 259 259 260 260 258 258 260 260 5 5 259 259 199 199 261 261 259 259 261 261 260 260 260 260 261 261 262 262 260 260 262 262 5 5 261 261 199 199 198 198 261 261 198 198 262 262 262 262 198 198 201 201 262 262 201 201 5 5</p>
        </triangles>
      </mesh>
    </geometry>
  </library_geometries>
  <library_materials>
    <material id="1462d31d4a7342fe8a484d373ce6561a" name="defaultmaterial">
      <instance_effect url="#c8f56491fd1b4ed88da8381007a2f6d0" />
    </material>
  </library_materials>
  <library_visual_scenes>
    <visual_scene id="scene">
      <node id="node0" name="node0">
        <instance_geometry url="#8bc342b67f8b4010963bed1e154a5615">
          <bind_material>
            <technique_common>
              <instance_material symbol="material0" target="#1462d31d4a7342fe8a484d373ce6561a" />
            </technique_common>
          </bind_material>
        </instance_geometry>
      </node>
    </visual_scene>
  </library_visual_scenes>
  <scene>
    <instance_visual_scene url="#scene" />
  </scene>
</COLLADA>
