<COLLADA xmlns="http://www.collada.org/2005/11/COLLADASchema" version="1.4.1">
  <asset>
    <created>2026-09-03T21:36:14.736118</created>
    <modified>2026-09-03T21:36:14.736121</modified>
    <up_axis>Y_UP</up_axis>
  </asset>
  <library_effects>
    <effect id="9bab1e60a17148a291e1f9021f41df6e" name="9bab1e60a17148a291e1f9021f41df6e">
      <profile_COMMON>
        <technique sid="common">
          <phong>
            <emission>
              <color>0.0 0.0 0.0 1.0</color>
            </emission>
            <ambient>
              <color>0.0 0.0 0.0 1.0</color>
            </ambient>
            <diffuse>
              <color>0.0 0.0 0.0 1.0</color>
            </diffuse>
            <specular>
              <color>0.0 0.0 0.0 1.0</color>
            </specular>
            <shininess>
              <float>0.0</float>
            </shininess>
            <reflective>
              <color>0.0 0.0 0.0 1.0</color>
            </reflective>
            <reflectivity>
              <float>0.0</float>
            </reflectivity>
            <transparent>
              <color>0.0 0.0 0.0 1.0</color>
            </transparent>
            <transparency>
              <float>1.0</float>
            </transparency>
          </phong>
        </technique>
        <extra>
          <technique profile="GOOGLEEARTH">
            <double_sided>0</double_sided>
          </technique>
        </extra>
      </profile_COMMON>
    </effect>
  </library_effects>
  <library_geometries>
    <geometry id="3cd3e2aea9634b77a217499e9bfcef38" name="903af7024378407085412eb268d36036">
      <mesh>
        <source id="verts-array">
          <float_array count="666" id="verts-array-array">0.025 0 -0.009 0 0 -0.009 0.02451963 0.004877258 -0.009 0.025 0 0.009 0.02451963 0.004877258 0.009 0 0 0.009 0.02309699 0.009567086 -0.009 0.02309699 0.009567086 0.009 0.02078674 0.01388926 -0.009 0.02078674 0.01388926 0.009 0.01767767 0.01767767 -0.009 0.01767767 0.01767767 0.009 0.01388926 0.02078674 -0.009 0.01388926 0.02078674 0.009 0.009567086 0.02309699 -0.009 0.009567086 0.02309699 0.009 0.004877258 0.02451963 -0.009 0.004877258 0.02451963 0.009 1.530808e-18 0.025 -0.009 1.530808e-18 0.025 0.009 -0.004877258 0.02451963 -0.009 -0.004877258 0.02451963 0.009 -0.009567086 0.02309699 -0.009 -0.009567086 0.02309699 0.009 -0.01388926 0.02078674 -0.009 -0.01388926 0.02078674 0.009 -0.01767767 0.01767767 -0.009 -0.01767767 0.01767767 0.009 -0.02078674 0.01388926 -0.009 -0.02078674 0.01388926 0.009 -0.02309699 0.009567086 -0.009 -0.02309699 0.009567086 0.009 -0.02451963 0.004877258 -0.009 -0.02451963 0.004877258 0.009 -0.025 3.061617e-18 -0.009 -0.025 3.061617e-18 0.009 -0.02451963 -0.004877258 -0.009 -0.02451963 -0.004877258 0.009 -0.02309699 -0.009567086 -0.009 -0.02309699 -0.009567086 0.009 -0.02078674 -0.01388926 -0.009 -0.02078674 -0.01388926 0.009 -0.01767767 -0.01767767 -0.009 -0.01767767 -0.01767767 0.009 -0.01388926 -0.02078674 -0.009 -0.01388926 -0.02078674 0.009 -0.009567086 -0.02309699 -0.009 -0.009567086 -0.02309699 0.009 -0.004877258 -0.02451963 -0.009 -0.004877258 -0.02451963 0.009 -4.592426e-18 -0.025 -0.009 -4.592426e-18 -0.025 0.009 0.004877258 -0.02451963 -0.009 0.004877258 -0.02451963 0.009 0.009567086 -0.02309699 -0.009 0.009567086 -0.02309699 0.009 0.01388926 -0.02078674 -0.009 0.01388926 -0.02078674 0.009 0.01767767 -0.01767767 -0.009 0.01767767 -0.01767767 0.009 0.02078674 -0.01388926 -0.009 0.02078674 -0.01388926 0.009 0.02309699 -0.009567086 -0.009 0.02309699 -0.009567086 0.009 0.02451963 -0.004877258 -0.009 0.02451963 -0.004877258 0.009 -0.005 0.018 0.0475 -0.005 0.026 0.0475 -0.005 0.018 0.0025 0.005 0.018 0.0025 -0.005 0.026 0.0025 0.005 0.026 0.0475 0.005 0.018 0.0475 0.005 0.026 0.0025 -0.005 -0.026 0.0475 -0.005 -0.018 0.0475 -0.005 -0.026 0.0025 0.005 -0.026 0.0025 -0.005 -0.018 0.0025 0.005 -0.018 0.0475 0.005 -0.026 0.0475 0.005 -0.018 0.0025 -0.0075 0 0.015 -0.0075 0 0.035 -0.0075 0.003901806 0.01538429 0.0475 0 0.015 0.0475 0.003901806 0.01538429 0.0475 0 0.035 -0.0075 0.007653669 0.01652241 0.0475 0.007653669 0.01652241 -0.0075 0.0111114 0.01837061 0.0475 0.0111114 0.01837061 -0.0075 0.01414214 0.02085786 0.0475 0.01414214 0.02085786 -0.0075 0.01662939 0.0238886 0.0475 0.01662939 0.0238886 -0.0075 0.01847759 0.02734633 0.0475 0.01847759 0.02734633 -0.0075 0.01961571 0.03109819 0.0475 0.01961571 0.03109819 -0.0075 0.02 0.035 0.0475 0.02 0.035 -0.0075 0.01961571 0.03890181 0.0475 0.01961571 0.03890181 -0.0075 0.01847759 0.04265367 0.0475 0.01847759 0.04265367 -0.0075 0.01662939 0.0461114 0.0475 0.01662939 0.0461114 -0.0075 0.01414214 0.04914214 0.0475 0.01414214 0.04914214 -0.0075 0.0111114 0.05162939 0.0475 0.0111114 0.05162939 -0.0075 0.007653669 0.05347759 0.0475 0.007653669 0.05347759 -0.0075 0.003901806 0.05461571 0.0475 0.003901806 0.05461571 -0.0075 2.449294e-18 0.055 0.0475 2.449294e-18 0.055 -0.0075 -0.003901806 0.05461571 0.0475 -0.003901806 0.05461571 -0.0075 -0.007653669 0.05347759 0.0475 -0.007653669 0.05347759 -0.0075 -0.0111114 0.05162939 0.0475 -0.0111114 0.05162939 -0.0075 -0.01414214 0.04914214 0.0475 -0.01414214 0.04914214 -0.0075 -0.01662939 0.0461114 0.0475 -0.01662939 0.0461114 -0.0075 -0.01847759 0.04265367 0.0475 -0.01847759 0.04265367 -0.0075 -0.01961571 0.03890181 0.0475 -0.01961571 0.03890181 -0.0075 -0.02 0.035 0.0475 -0.02 0.035 -0.0075 -0.01961571 0.03109819 0.0475 -0.01961571 0.03109819 -0.0075 -0.01847759 0.02734633 0.0475 -0.01847759 0.02734633 -0.0075 -0.01662939 0.0238886 0.0475 -0.01662939 0.0238886 -0.0075 -0.01414214 0.02085786 0.0475 -0.01414214 0.02085786 -0.0075 -0.0111114 0.01837061 0.0475 -0.0111114 0.01837061 -0.0075 -0.007653669 0.01652241 0.0475 -0.007653669 0.01652241 -0.0075 -0.003901806 0.01538429 0.0475 -0.003901806 0.01538429 0.0425 0 0.011 0.0425 0 0.035 0.0425 0.004682168 0.01146115 0.0575 0 0.011 0.0575 0.004682168 0.01146115 0.0575 0 0.035 0.0425 0.009184402 0.01282689 0.0575 0.009184402 0.01282689 0.0425 0.01333369 0.01504473 0.0575 0.01333369 0.01504473 0.0425 0.01697056 0.01802944 0.0575 0.01697056 0.01802944 0.0425 0.01995527 0.02166631 0.0575 0.01995527 0.02166631 0.0425 0.02217311 0.0258156 0.0575 0.02217311 0.0258156 0.0425 0.02353885 0.03031783 0.0575 0.02353885 0.03031783 0.0425 0.024 0.035 0.0575 0.024 0.035 0.0425 0.02353885 0.03968217 0.0575 0.02353885 0.03968217 0.0425 0.02217311 0.0441844 0.0575 0.02217311 0.0441844 0.0425 0.01995527 0.04833369 0.0575 0.01995527 0.04833369 0.0425 0.01697056 0.05197056 0.0575 0.01697056 0.05197056 0.0425 0.01333369 0.05495527 0.0575 0.01333369 0.05495527 0.0425 0.009184402 0.05717311 0.0575 0.009184402 0.05717311 0.0425 0.004682168 0.05853885 0.0575 0.004682168 0.05853885 0.0425 2.939152e-18 0.059 0.0575 2.939152e-18 0.059 0.0425 -0.004682168 0.05853885 0.0575 -0.004682168 0.05853885 0.0425 -0.009184402 0.05717311 0.0575 -0.009184402 0.05717311 0.0425 -0.01333369 0.05495527 0.0575 -0.01333369 0.05495527 0.0425 -0.01697056 0.05197056 0.0575 -0.01697056 0.05197056 0.0425 -0.01995527 0.04833369 0.0575 -0.01995527 0.04833369 0.0425 -0.02217311 0.0441844 0.0575 -0.02217311 0.0441844 0.0425 -0.02353885 0.03968217 0.0575 -0.02353885 0.03968217 0.0425 -0.024 0.035 0.0575 -0.024 0.035 0.0425 -0.02353885 0.03031783 0.0575 -0.02353885 0.03031783 0.0425 -0.02217311 0.0258156 0.0575 -0.02217311 0.0258156 0.0425 -0.01995527 0.02166631 0.0575 -0.01995527 0.02166631 0.0425 -0.01697056 0.01802944 0.0575 -0.01697056 0.01802944 0.0425 -0.01333369 0.01504473 0.0575 -0.01333369 0.01504473 0.0425 -0.009184402 0.01282689 0.0575 -0.009184402 0.01282689 0.0425 -0.004682168 0.01146115 0.0575 -0.004682168 0.01146115 0.001 -0.009 0.064 0.001 0.009 0.064 0.001 -0.009 0.056 0.019 -0.009 0.056 0.001 0.009 0.056 0.019 0.009 0.064 0.019 -0.009 0.064 0.019 0.009 0.056</float_array>
          <technique_common>
            <accessor count="222" source="#verts-array-array" stride="3">
              <param type="float" name="X" />
              <param type="float" name="Y" />
              <param type="float" name="Z" />
            </accessor>
          </technique_common>
        </source>
        <source id="normals-array">
          <float_array count="666" id="normals-array-array">0.7278876 -1.615478e-18 -0.6856964 0 0 -1 0.7139014 0.1420038 -0.6856965 0.7278876 0 0.6856964 0.7139014 0.1420038 0.6856965 0 0 1 0.6724805 0.2785505 -0.6856964 0.6724805 0.2785505 0.6856964 0.6052164 0.4043927 -0.6856965 0.6052164 0.4043927 0.6856965 0.5146943 0.5146943 -0.6856964 0.5146943 0.5146943 0.6856964 0.4043927 0.6052164 -0.6856965 0.4043927 0.6052164 0.6856965 0.2785505 0.6724805 -0.6856964 0.2785505 0.6724805 0.6856964 0.1420038 0.7139014 -0.6856965 0.1420038 0.7139014 0.6856965 0 0.7278876 -0.6856964 0 0.7278876 0.6856964 -0.1420038 0.7139014 -0.6856965 -0.1420038 0.7139014 0.6856965 -0.2785505 0.6724805 -0.6856964 -0.2785505 0.6724805 0.6856964 -0.4043927 0.6052164 -0.6856965 -0.4043927 0.6052164 0.6856965 -0.5146943 0.5146943 -0.6856964 -0.5146943 0.5146943 0.6856964 -0.6052164 0.4043927 -0.6856965 -0.6052164 0.4043927 0.6856965 -0.6724805 0.2785505 -0.6856964 -0.6724805 0.2785505 0.6856964 -0.7139014 0.1420038 -0.6856965 -0.7139014 0.1420038 0.6856965 -0.7278876 -6.461912e-18 -0.6856964 -0.7278876 6.461912e-18 0.6856964 -0.7139014 -0.1420038 -0.6856965 -0.7139014 -0.1420038 0.6856965 -0.6724805 -0.2785505 -0.6856964 -0.6724805 -0.2785505 0.6856964 -0.6052164 -0.4043927 -0.6856965 -0.6052164 -0.4043927 0.6856965 -0.5146943 -0.5146943 -0.6856964 -0.5146943 -0.5146943 0.6856964 -0.4043927 -0.6052164 -0.6856965 -0.4043927 -0.6052164 0.6856965 -0.2785505 -0.6724805 -0.6856964 -0.2785505 -0.6724805 0.6856964 -0.1420038 -0.7139014 -0.6856965 -0.1420038 -0.7139014 0.6856965 6.461912e-18 -0.7278876 -0.6856964 -1.292382e-17 -0.7278876 0.6856964 0.1420038 -0.7139014 -0.6856965 0.1420038 -0.7139014 0.6856965 0.2785505 -0.6724805 -0.6856964 0.2785505 -0.6724805 0.6856964 0.4043927 -0.6052164 -0.6856965 0.4043927 -0.6052164 0.6856965 0.5146943 -0.5146943 -0.6856964 0.5146943 -0.5146943 0.6856964 0.6052164 -0.4043927 -0.6856965 0.6052164 -0.4043927 0.6856965 0.6724805 -0.2785505 -0.6856964 0.6724805 -0.2785505 0.6856964 0.7139014 -0.1420038 -0.6856965 0.7139014 -0.1420038 0.6856965 -0.5773503 -0.5773503 0.5773503 -0.5773503 0.5773503 0.5773503 -0.5773503 -0.5773503 -0.5773503 0.5773503 -0.5773503 -0.5773503 -0.5773503 0.5773503 -0.5773503 0.5773503 0.5773503 0.5773503 0.5773503 -0.5773503 0.5773503 0.5773503 0.5773503 -0.5773503 -0.5773503 -0.5773503 0.5773503 -0.5773503 0.5773503 0.5773503 -0.5773503 -0.5773503 -0.5773503 0.5773503 -0.5773503 -0.5773503 -0.5773503 0.5773503 -0.5773503 0.5773503 0.5773503 0.5773503 0.5773503 -0.5773503 0.5773503 0.5773503 0.5773503 -0.5773503 -0.6856965 2.403023e-17 -0.7278876 -1 0 0 -0.6856964 0.1420038 -0.7139015 0.6856965 -2.584765e-17 -0.7278876 0.6856964 0.1420038 -0.7139015 1 0 0 -0.6856965 0.2785505 -0.6724805 0.6856965 0.2785505 -0.6724805 -0.6856964 0.4043927 -0.6052165 0.6856964 0.4043927 -0.6052165 -0.6856965 0.5146942 -0.5146942 0.6856965 0.5146942 -0.5146942 -0.6856964 0.6052165 -0.4043927 0.6856964 0.6052165 -0.4043927 -0.6856965 0.6724805 -0.2785505 0.6856965 0.6724805 -0.2785505 -0.6856964 0.7139015 -0.1420038 0.6856964 0.7139015 -0.1420038 -0.6856965 0.7278876 -5.169529e-17 0.6856965 0.7278876 5.169529e-17 -0.6856964 0.7139015 0.1420038 0.6856964 0.7139015 0.1420038 -0.6856965 0.6724805 0.2785505 0.6856965 0.6724805 0.2785505 -0.6856965 0.6052164 0.4043927 0.6856965 0.6052164 0.4043927 -0.6856964 0.5146943 0.5146943 0.6856964 0.5146943 0.5146943 -0.6856965 0.4043927 0.6052164 0.6856965 0.4043927 0.6052164 -0.6856965 0.2785505 0.6724804 0.6856965 0.2785505 0.6724804 -0.6856964 0.1420038 0.7139015 0.6856964 0.1420038 0.7139015 -0.6856965 -4.523338e-17 0.7278876 0.6856965 5.169529e-17 0.7278876 -0.6856964 -0.1420038 0.7139015 0.6856964 -0.1420038 0.7139015 -0.6856965 -0.2785505 0.6724804 0.6856965 -0.2785505 0.6724804 -0.6856965 -0.4043927 0.6052164 0.6856965 -0.4043927 0.6052164 -0.6856964 -0.5146943 0.5146943 0.6856964 -0.5146943 0.5146943 -0.6856965 -0.6052164 0.4043927 0.6856965 -0.6052164 0.4043927 -0.6856965 -0.6724805 0.2785505 0.6856965 -0.6724805 0.2785505 -0.6856964 -0.7139015 0.1420038 0.6856964 -0.7139015 0.1420038 -0.6856965 -0.7278876 5.169529e-17 0.6856965 -0.7278876 -5.169529e-17 -0.6856964 -0.7139015 -0.1420038 0.6856964 -0.7139015 -0.1420038 -0.6856965 -0.6724805 -0.2785505 0.6856965 -0.6724805 -0.2785505 -0.6856964 -0.6052165 -0.4043927 0.6856964 -0.6052165 -0.4043927 -0.6856965 -0.5146942 -0.5146942 0.6856965 -0.5146942 -0.5146942 -0.6856964 -0.4043927 -0.6052165 0.6856964 -0.4043927 -0.6052165 -0.6856965 -0.2785505 -0.6724805 0.6856965 -0.2785505 -0.6724805 -0.6856964 -0.1420038 -0.7139015 0.6856964 -0.1420038 -0.7139015 -0.6856964 -6.461911e-18 -0.7278876 -1 0 0 -0.6856965 0.1420038 -0.7139015 0.6856964 0 -0.7278876 0.6856965 0.1420038 -0.7139015 1 0 0 -0.6856965 0.2785505 -0.6724805 0.6856965 0.2785505 -0.6724805 -0.6856964 0.4043927 -0.6052164 0.6856964 0.4043927 -0.6052164 -0.6856965 0.5146943 -0.5146943 0.6856965 0.5146943 -0.5146943 -0.6856965 0.6052164 -0.4043927 0.6856965 0.6052164 -0.4043927 -0.6856964 0.6724805 -0.2785505 0.6856964 0.6724805 -0.2785505 -0.6856965 0.7139014 -0.1420038 0.6856965 0.7139014 -0.1420038 -0.6856964 0.7278876 -1.292382e-17 0.6856964 0.7278876 6.461911e-18 -0.6856964 0.7139015 0.1420038 0.6856964 0.7139015 0.1420038 -0.6856965 0.6724805 0.2785505 0.6856965 0.6724805 0.2785505 -0.6856965 0.6052164 0.4043927 0.6856965 0.6052164 0.4043927 -0.6856964 0.5146943 0.5146943 0.6856964 0.5146943 0.5146943 -0.6856965 0.4043927 0.6052164 0.6856965 0.4043927 0.6052164 -0.6856963 0.2785506 0.6724806 0.6856963 0.2785506 0.6724806 -0.6856965 0.1420038 0.7139014 0.6856965 0.1420038 0.7139014 -0.6856964 1.292382e-17 0.7278876 0.6856964 -6.461911e-18 0.7278876 -0.6856965 -0.1420038 0.7139014 0.6856965 -0.1420038 0.7139014 -0.6856963 -0.2785506 0.6724806 0.6856963 -0.2785506 0.6724806 -0.6856965 -0.4043927 0.6052164 0.6856965 -0.4043927 0.6052164 -0.6856964 -0.5146943 0.5146943 0.6856964 -0.5146943 0.5146943 -0.6856965 -0.6052164 0.4043927 0.6856965 -0.6052164 0.4043927 -0.6856965 -0.6724805 0.2785505 0.6856965 -0.6724805 0.2785505 -0.6856964 -0.7139015 0.1420038 0.6856964 -0.7139015 0.1420038 -0.6856964 -0.7278876 1.292382e-17 0.6856964 -0.7278876 -6.461911e-18 -0.6856965 -0.7139014 -0.1420038 0.6856965 -0.7139014 -0.1420038 -0.6856964 -0.6724805 -0.2785505 0.6856964 -0.6724805 -0.2785505 -0.6856965 -0.6052164 -0.4043927 0.6856965 -0.6052164 -0.4043927 -0.6856965 -0.5146943 -0.5146943 0.6856965 -0.5146943 -0.5146943 -0.6856964 -0.4043927 -0.6052164 0.6856964 -0.4043927 -0.6052164 -0.6856965 -0.2785505 -0.6724805 0.6856965 -0.2785505 -0.6724805 -0.6856965 -0.1420038 -0.7139015 0.6856965 -0.1420038 -0.7139015 -0.5773503 -0.5773503 0.5773503 -0.5773503 0.5773503 0.5773503 -0.5773503 -0.5773503 -0.5773503 0.5773503 -0.5773503 -0.5773503 -0.5773503 0.5773503 -0.5773503 0.5773503 0.5773503 0.5773503 0.5773503 -0.5773503 0.5773503 0.5773503 0.5773503 -0.5773503</float_array>
          <technique_common>
            <accessor count="222" source="#normals-array-array" stride="3">
              <param type="float" name="X" />
              <param type="float" name="Y" />
              <param type="float" name="Z" />
            </accessor>
          </technique_common>
        </source>
        <vertices id="verts-array-vertices">
          <input semantic="POSITION" source="#verts-array" />
        </vertices>
        <triangles count="420" material="material0">
          <input offset="0" semantic="VERTEX" source="#verts-array-vertices" />
          <input offset="1" semantic="NORMAL" source="#normals-array" />
          <p>0 0 1 1 2 2 0 0 2 2 3 3 3 3 2 2 4 4 3 3 4 4 5 5 2 2 1 1 6 6 2 2 6 6 4 4 4 4 6 6 7 7 4 4 7 7 5 5 6 6 1 1 8 8 6 6 8 8 7 7 7 7 8 8 9 9 7 7 9 9 5 5 8 8 1 1 10 10 8 8 10 10 9 9 9 9 10 10 11 11 9 9 11 11 5 5 10 10 1 1 12 12 10 10 12 12 11 11 11 11 12 12 13 13 11 11 13 13 5 5 12 12 1 1 14 14 12 12 14 14 13 13 13 13 14 14 15 15 13 13 15 15 5 5 14 14 1 1 16 16 14 14 16 16 15 15 15 15 16 16 17 17 15 15 17 17 5 5 16 16 1 1 18 18 16 16 18 18 17 17 17 17 18 18 19 19 17 17 19 19 5 5 18 18 1 1 20 20 18 18 20 20 19 19 19 19 20 20 21 21 19 19 21 21 5 5 20 20 1 1 22 22 20 20 22 22 21 21 21 21 22 22 23 23 21 21 23 23 5 5 22 22 1 1 24 24 22 22 24 24 23 23 23 23 24 24 25 25 23 23 25 25 5 5 24 24 1 1 26 26 24 24 26 26 25 25 25 25 26 26 27 27 25 25 27 27 5 5 26 26 1 1 28 28 26 26 28 28 27 27 27 27 28 28 29 29 27 27 29 29 5 5 28 28 1 1 30 30 28 28 30 30 29 29 29 29 30 30 31 31 29 29 31 31 5 5 30 30 1 1 32 32 30 30 32 32 31 31 31 31 32 32 33 33 31 31 33 33 5 5 32 32 1 1 34 34 32 32 34 34 33 33 33 33 34 34 35 35 33 33 35 35 5 5 34 34 1 1 36 36 34 34 36 36 35 35 35 35 36 36 37 37 35 35 37 37 5 5 36 36 1 1 38 38 36 36 38 38 37 37 37 37 38 38 39 39 37 37 39 39 5 5 38 38 1 1 40 40 38 38 40 40 39 39 39 39 40 40 41 41 39 39 41 41 5 5 40 40 1 1 42 42 40 40 42 42 41 41 41 41 42 42 43 43 41 41 43 43 5 5 42 42 1 1 44 44 42 42 44 44 43 43 43 43 44 44 45 45 43 43 45 45 5 5 44 44 1 1 46 46 44 44 46 46 45 45 45 45 46 46 47 47 45 45 47 47 5 5 46 46 1 1 48 48 46 46 48 48 47 47 47 47 48 48 49 49 47 47 49 49 5 5 48 48 1 1 50 50 48 48 50 50 49 49 49 49 50 50 51 51 49 49 51 51 5 5 50 50 1 1 52 52 50 50 52 52 51 51 51 51 52 52 53 53 51 51 53 53 5 5 52 52 1 1 54 54 52 52 54 54 53 53 53 53 54 54 55 55 53 53 55 55 5 5 54 54 1 1 56 56 54 54 56 56 55 55 55 55 56 56 57 57 55 55 57 57 5 5 56 56 1 1 58 58 56 56 58 58 57 57 57 57 58 58 59 59 57 57 59 59 5 5 58 58 1 1 60 60 58 58 60 60 59 59 59 59 60 60 61 61 59 59 61 61 5 5 60 60 1 1 62 62 60 60 62 62 61 61 61 61 62 62 63 63 61 61 63 63 5 5 62 62 1 1 64 64 62 62 64 64 63 63 63 63 64 64 65 65 63 63 65 65 5 5 64 64 1 1 0 0 64 64 0 0 65 65 65 65 0 0 3 3 65 65 3 3 5 5 66 66 67 67 68 68 69 69 66 66 68 68 68 68 67 67 70 70 70 70 69 69 68 68 66 66 71 71 67 67 72 72 66 66 69 69 72 72 71 71 66 66 67 67 71 71 70 70 73 73 69 69 70 70 70 70 71 71 73 73 73 73 72 72 69 69 71 71 72 72 73 73 74 74 75 75 76 76 77 77 74 74 76 76 76 76 75 75 78 78 78 78 77 77 76 76 74 74 79 79 75 75 80 80 74 74 77 77 80 80 79 79 74 74 75 75 79 79 78 78 81 81 77 77 78 78 78 78 79 79 81 81 81 81 80 80 77 77 79 79 80 80 81 81 82 82 83 83 84 84 82 82 84 84 85 85 85 85 84 84 86 86 85 85 86 86 87 87 84 84 83 83 88 88 84 84 88 88 86 86 86 86 88 88 89 89 86 86 89 89 87 87 88 88 83 83 90 90 88 88 90 90 89 89 89 89 90 90 91 91 89 89 91 91 87 87 90 90 83 83 92 92 90 90 92 92 91 91 91 91 92 92 93 93 91 91 93 93 87 87 92 92 83 83 94 94 92 92 94 94 93 93 93 93 94 94 95 95 93 93 95 95 87 87 94 94 83 83 96 96 94 94 96 96 95 95 95 95 96 96 97 97 95 95 97 97 87 87 96 96 83 83 98 98 96 96 98 98 97 97 97 97 98 98 99 99 97 97 99 99 87 87 98 98 83 83 100 100 98 98 100 100 99 99 99 99 100 100 101 101 99 99 101 101 87 87 100 100 83 83 102 102 100 100 102 102 101 101 101 101 102 102 103 103 101 101 103 103 87 87 102 102 83 83 104 104 102 102 104 104 103 103 103 103 104 104 105 105 103 103 105 105 87 87 104 104 83 83 106 106 104 104 106 106 105 105 105 105 106 106 107 107 105 105 107 107 87 87 106 106 83 83 108 108 106 106 108 108 107 107 107 107 108 108 109 109 107 107 109 109 87 87 108 108 83 83 110 110 108 108 110 110 109 109 109 109 110 110 111 111 109 109 111 111 87 87 110 110 83 83 112 112 110 110 112 112 111 111 111 111 112 112 113 113 111 111 113 113 87 87 112 112 83 83 114 114 112 112 114 114 113 113 113 113 114 114 115 115 113 113 115 115 87 87 114 114 83 83 116 116 114 114 116 116 115 115 115 115 116 116 117 117 115 115 117 117 87 87 116 116 83 83 118 118 116 116 118 118 117 117 117 117 118 118 119 119 117 117 119 119 87 87 118 118 83 83 120 120 118 118 120 120 119 119 119 119 120 120 121 121 119 119 121 121 87 87 120 120 83 83 122 122 120 120 122 122 121 121 121 121 122 122 123 123 121 121 123 123 87 87 122 122 83 83 124 124 122 122 124 124 123 123 123 123 124 124 125 125 123 123 125 125 87 87 124 124 83 83 126 126 124 124 126 126 125 125 125 125 126 126 127 127 125 125 127 127 87 87 126 126 83 83 128 128 126 126 128 128 127 127 127 127 128 128 129 129 127 127 129 129 87 87 128 128 83 83 130 130 128 128 130 130 129 129 129 129 130 130 131 131 129 129 131 131 87 87 130 130 83 83 132 132 130 130 132 132 131 131 131 131 132 132 133 133 131 131 133 133 87 87 132 132 83 83 134 134 132 132 134 134 133 133 133 133 134 134 135 135 133 133 135 135 87 87 134 134 83 83 136 136 134 134 136 136 135 135 135 135 136 136 137 137 135 135 137 137 87 87 136 136 83 83 138 138 136 136 138 138 137 137 137 137 138 138 139 139 137 137 139 139 87 87 138 138 83 83 140 140 138 138 140 140 139 139 139 139 140 140 141 141 139 139 141 141 87 87 140 140 83 83 142 142 140 140 142 142 141 141 141 141 142 142 143 143 141 141 143 143 87 87 142 142 83 83 144 144 142 142 144 144 143 143 143 143 144 144 145 145 143 143 145 145 87 87 144 144 83 83 146 146 144 144 146 146 145 145 145 145 146 146 147 147 145 145 147 147 87 87 146 146 83 83 82 82 146 146 82 82 147 147 147 147 82 82 85 85 147 147 85 85 87 87 148 148 149 149 150 150 148 148 150 150 151 151 151 151 150 150 152 152 151 151 152 152 153 153 150 150 149 149 154 154 150 150 154 154 152 152 152 152 154 154 155 155 152 152 155 155 153 153 154 154 149 149 156 156 154 154 156 156 155 155 155 155 156 156 157 157 155 155 157 157 153 153 156 156 149 149 158 158 156 156 158 158 157 157 157 157 158 158 159 159 157 157 159 159 153 153 158 158 149 149 160 160 158 158 160 160 159 159 159 159 160 160 161 161 159 159 161 161 153 153 160 160 149 149 162 162 160 160 162 162 161 161 161 161 162 162 163 163 161 161 163 163 153 153 162 162 149 149 164 164 162 162 164 164 163 163 163 163 164 164 165 165 163 163 165 165 153 153 164 164 149 149 166 166 164 164 166 166 165 165 165 165 166 166 167 167 165 165 167 167 153 153 166 166 149 149 168 168 166 166 168 168 167 167 167 167 168 168 169 169 167 167 169 169 153 153 168 168 149 149 170 170 168 168 170 170 169 169 169 169 170 170 171 171 169 169 171 171 153 153 170 170 149 149 172 172 170 170 172 172 171 171 171 171 172 172 173 173 171 171 173 173 153 153 172 172 149 149 174 174 172 172 174 174 173 173 173 173 174 174 175 175 173 173 175 175 153 153 174 174 149 149 176 176 174 174 176 176 175 175 175 175 176 176 177 177 175 175 177 177 153 153 176 176 149 149 178 178 176 176 178 178 177 177 177 177 178 178 179 179 177 177 179 179 153 153 178 178 149 149 180 180 178 178 180 180 179 179 179 179 180 180 181 181 179 179 181 181 153 153 180 180 149 149 182 182 180 180 182 182 181 181 181 181 182 182 183 183 181 181 183 183 153 153 182 182 149 149 184 184 182 182 184 184 183 183 183 183 184 184 185 185 183 183 185 185 153 153 184 184 149 149 186 186 184 184 186 186 185 185 185 185 186 186 187 187 185 185 187 187 153 153 186 186 149 149 188 188 186 186 188 188 187 187 187 187 188 188 189 189 187 187 189 189 153 153 188 188 149 149 190 190 188 188 190 190 189 189 189 189 190 190 191 191 189 189 191 191 153 153 190 190 149 149 192 192 190 190 192 192 191 191 191 191 192 192 193 193 191 191 193 193 153 153 192 192 149 149 194 194 192 192 194 194 193 193 193 193 194 194 195 195 193 193 195 195 153 153 194 194 149 149 196 196 194 194 196 196 195 195 195 195 196 196 197 197 195 195 197 197 153 153 196 196 149 149 198 198 196 196 198 198 197 197 197 197 198 198 199 199 197 197 199 199 153 153 198 198 149 149 200 200 198 198 200 200 199 199 199 199 200 200 201 201 199 199 201 201 153 153 200 200 149 149 202 202 200 200 202 202 201 201 201 201 202 202 203 203 201 201 203 203 153 153 202 202 149 149 204 204 202 202 204 204 203 203 203 203 204 204 205 205 203 203 205 205 153 153 204 204 149 149 206 206 204 204 206 206 205 205 205 205 206 206 207 207 205 205 207 207 153 153 206 206 149 149 208 208 206 206 208 208 207 207 207 207 208 208 209 209 207 207 209 209 153 153 208 208 149 149 210 210 208 208 210 210 209 209 209 209 210 210 211 211 209 209 211 211 153 153 210 210 149 149 212 212 210 210 212 212 211 211 211 211 212 212 213 213 211 211 213 213 153 153 212 212 149 149 148 148 212 212 148 148 213 213 213 213 148 148 151 151 213 213 151 151 153 153 214 214 215 215 216 216 217 217 214 214 216 216 216 216 215 215 218 218 218 218 217 217 216 216 214 214 219 219 215 215 220 220 214 214 217 217 220 220 219 219 214 214 215 215 219 219 218 218 221 221 217 217 218 218 218 218 219 219 221 221 221 221 220 220 217 217 219 219 220 220 221 221</p>
        </triangles>
      </mesh>
    </geometry>
  </library_geometries>
  <library_materials>
    <material id="8ca9b563ea4742efa443c5b9d8349277" name="defaultmaterial">
      <instance_effect url="#9bab1e60a17148a291e1f9021f41df6e" />
    </material>
  </library_materials>
  <library_visual_scenes>
    <visual_scene id="scene">
      <node id="node0" name="node0">
        <instance_geometry url="#3cd3e2aea9634b77a217499e9bfcef38">
          <bind_material>
            <technique_common>
              <instance_material symbol="material0" target="#8ca9b563ea4742efa443c5b9d8349277" />
            </technique_common>
          </bind_material>
        </instance_geometry>
      </node>
    </visual_scene>
  </library_visual_scenes>
  <scene>
    <instance_visual_scene url="#scene" />
  </scene>
</COLLADA>
