# https://github.com/mikedh/trimesh
v 0.02500000 0.00000000 -0.00900000
v 0.00000000 0.00000000 -0.00900000
v 0.02451963 0.00487726 -0.00900000
v 0.02500000 0.00000000 0.00900000
v 0.02451963 0.00487726 0.00900000
v 0.00000000 0.00000000 0.00900000
v 0.02309699 0.00956709 -0.00900000
v 0.02309699 0.00956709 0.00900000
v 0.02078674 0.01388926 -0.00900000
v 0.02078674 0.01388926 0.00900000
v 0.01767767 0.01767767 -0.00900000
v 0.01767767 0.01767767 0.00900000
v 0.01388926 0.02078674 -0.00900000
v 0.01388926 0.02078674 0.00900000
v 0.00956709 0.02309699 -0.00900000
v 0.00956709 0.02309699 0.00900000
v 0.00487726 0.02451963 -0.00900000
v 0.00487726 0.02451963 0.00900000
v 0.00000000 0.02500000 -0.00900000
v 0.00000000 0.02500000 0.00900000
v -0.00487726 0.02451963 -0.00900000
v -0.00487726 0.02451963 0.00900000
v -0.00956709 0.02309699 -0.00900000
v -0.00956709 0.02309699 0.00900000
v -0.01388926 0.02078674 -0.00900000
v -0.01388926 0.02078674 0.00900000
v -0.01767767 0.01767767 -0.00900000
v -0.01767767 0.01767767 0.00900000
v -0.02078674 0.01388926 -0.00900000
v -0.02078674 0.01388926 0.00900000
v -0.02309699 0.00956709 -0.00900000
v -0.02309699 0.00956709 0.00900000
v -0.02451963 0.00487726 -0.00900000
v -0.02451963 0.00487726 0.00900000
v -0.02500000 0.00000000 -0.00900000
v -0.02500000 0.00000000 0.00900000
v -0.02451963 -0.00487726 -0.00900000
v -0.02451963 -0.00487726 0.00900000
v -0.02309699 -0.00956709 -0.00900000
v -0.02309699 -0.00956709 0.00900000
v -0.02078674 -0.01388926 -0.00900000
v -0.02078674 -0.01388926 0.00900000
v -0.01767767 -0.01767767 -0.00900000
v -0.01767767 -0.01767767 0.00900000
v -0.01388926 -0.02078674 -0.00900000
v -0.01388926 -0.02078674 0.00900000
v -0.00956709 -0.02309699 -0.00900000
v -0.00956709 -0.02309699 0.00900000
v -0.00487726 -0.02451963 -0.00900000
v -0.00487726 -0.02451963 0.00900000
v -0.00000000 -0.02500000 -0.00900000
v -0.00000000 -0.02500000 0.00900000
v 0.00487726 -0.02451963 -0.00900000
v 0.00487726 -0.02451963 0.00900000
v 0.00956709 -0.02309699 -0.00900000
v 0.00956709 -0.02309699 0.00900000
v 0.01388926 -0.02078674 -0.00900000
v 0.01388926 -0.02078674 0.00900000
v 0.01767767 -0.01767767 -0.00900000
v 0.01767767 -0.01767767 0.00900000
v 0.02078674 -0.01388926 -0.00900000
v 0.02078674 -0.01388926 0.00900000
v 0.02309699 -0.00956709 -0.00900000
v 0.02309699 -0.00956709 0.00900000
v 0.02451963 -0.00487726 -0.00900000
v 0.02451963 -0.00487726 0.00900000
v -0.00500000 0.01800000 0.04750000
v -0.00500000 0.02600000 0.04750000
v -0.00500000 0.01800000 0.00250000
v 0.00500000 0.01800000 0.00250000
v -0.00500000 0.02600000 0.00250000
v 0.00500000 0.02600000 0.04750000
v 0.00500000 0.01800000 0.04750000
v 0.00500000 0.02600000 0.00250000
v -0.00500000 -0.02600000 0.04750000
v -0.00500000 -0.01800000 0.04750000
v -0.00500000 -0.02600000 0.00250000
v 0.00500000 -0.02600000 0.00250000
v -0.00500000 -0.01800000 0.00250000
v 0.00500000 -0.01800000 0.04750000
v 0.00500000 -0.02600000 0.04750000
v 0.00500000 -0.01800000 0.00250000
v -0.00750000 0.00000000 0.01500000
v -0.00750000 0.00000000 0.03500000
v -0.00750000 0.00390181 0.01538429
v 0.04750000 0.00000000 0.01500000
v 0.04750000 0.00390181 0.01538429
v 0.04750000 0.00000000 0.03500000
v -0.00750000 0.00765367 0.01652241
v 0.04750000 0.00765367 0.01652241
v -0.00750000 0.01111140 0.01837061
v 0.04750000 0.01111140 0.01837061
v -0.00750000 0.01414214 0.02085786
v 0.04750000 0.01414214 0.02085786
v -0.00750000 0.01662939 0.02388860
v 0.04750000 0.01662939 0.02388860
v -0.00750000 0.01847759 0.02734633
v 0.04750000 0.01847759 0.02734633
v -0.00750000 0.01961571 0.03109819
v 0.04750000 0.01961571 0.03109819
v -0.00750000 0.02000000 0.03500000
v 0.04750000 0.02000000 0.03500000
v -0.00750000 0.01961571 0.03890181
v 0.04750000 0.01961571 0.03890181
v -0.00750000 0.01847759 0.04265367
v 0.04750000 0.01847759 0.04265367
v -0.00750000 0.01662939 0.04611140
v 0.04750000 0.01662939 0.04611140
v -0.00750000 0.01414214 0.04914214
v 0.04750000 0.01414214 0.04914214
v -0.00750000 0.01111140 0.05162939
v 0.04750000 0.01111140 0.05162939
v -0.00750000 0.00765367 0.05347759
v 0.04750000 0.00765367 0.05347759
v -0.00750000 0.00390181 0.05461571
v 0.04750000 0.00390181 0.05461571
v -0.00750000 0.00000000 0.05500000
v 0.04750000 0.00000000 0.05500000
v -0.00750000 -0.00390181 0.05461571
v 0.04750000 -0.00390181 0.05461571
v -0.00750000 -0.00765367 0.05347759
v 0.04750000 -0.00765367 0.05347759
v -0.00750000 -0.01111140 0.05162939
v 0.04750000 -0.01111140 0.05162939
v -0.00750000 -0.01414214 0.04914214
v 0.04750000 -0.01414214 0.04914214
v -0.00750000 -0.01662939 0.04611140
v 0.04750000 -0.01662939 0.04611140
v -0.00750000 -0.01847759 0.04265367
v 0.04750000 -0.01847759 0.04265367
v -0.00750000 -0.01961571 0.03890181
v 0.04750000 -0.01961571 0.03890181
v -0.00750000 -0.02000000 0.03500000
v 0.04750000 -0.02000000 0.03500000
v -0.00750000 -0.01961571 0.03109819
v 0.04750000 -0.01961571 0.03109819
v -0.00750000 -0.01847759 0.02734633
v 0.04750000 -0.01847759 0.02734633
v -0.00750000 -0.01662939 0.02388860
v 0.04750000 -0.01662939 0.02388860
v -0.00750000 -0.01414214 0.02085786
v 0.04750000 -0.01414214 0.02085786
v -0.00750000 -0.01111140 0.01837061
v 0.04750000 -0.01111140 0.01837061
v -0.00750000 -0.00765367 0.01652241
v 0.04750000 -0.00765367 0.01652241
v -0.00750000 -0.00390181 0.01538429
v 0.04750000 -0.00390181 0.01538429
v 0.04250000 0.00000000 0.01100000
v 0.04250000 0.00000000 0.03500000
v 0.04250000 0.00468217 0.01146115
v 0.05750000 0.00000000 0.01100000
v 0.05750000 0.00468217 0.01146115
v 0.05750000 0.00000000 0.03500000
v 0.04250000 0.00918440 0.01282689
v 0.05750000 0.00918440 0.01282689
v 0.04250000 0.01333369 0.01504473
v 0.05750000 0.01333369 0.01504473
v 0.04250000 0.01697056 0.01802944
v 0.05750000 0.01697056 0.01802944
v 0.04250000 0.01995527 0.02166631
v 0.05750000 0.01995527 0.02166631
v 0.04250000 0.02217311 0.02581560
v 0.05750000 0.02217311 0.02581560
v 0.04250000 0.02353885 0.03031783
v 0.05750000 0.02353885 0.03031783
v 0.04250000 0.02400000 0.03500000
v 0.05750000 0.02400000 0.03500000
v 0.04250000 0.02353885 0.03968217
v 0.05750000 0.02353885 0.03968217
v 0.04250000 0.02217311 0.04418440
v 0.05750000 0.02217311 0.04418440
v 0.04250000 0.01995527 0.04833369
v 0.05750000 0.01995527 0.04833369
v 0.04250000 0.01697056 0.05197056
v 0.05750000 0.01697056 0.05197056
v 0.04250000 0.01333369 0.05495527
v 0.05750000 0.01333369 0.05495527
v 0.04250000 0.00918440 0.05717311
v 0.05750000 0.00918440 0.05717311
v 0.04250000 0.00468217 0.05853885
v 0.05750000 0.00468217 0.05853885
v 0.04250000 0.00000000 0.05900000
v 0.05750000 0.00000000 0.05900000
v 0.04250000 -0.00468217 0.05853885
v 0.05750000 -0.00468217 0.05853885
v 0.04250000 -0.00918440 0.05717311
v 0.05750000 -0.00918440 0.05717311
v 0.04250000 -0.01333369 0.05495527
v 0.05750000 -0.01333369 0.05495527
v 0.04250000 -0.01697056 0.05197056
v 0.05750000 -0.01697056 0.05197056
v 0.04250000 -0.01995527 0.04833369
v 0.05750000 -0.01995527 0.04833369
v 0.04250000 -0.02217311 0.04418440
v 0.05750000 -0.02217311 0.04418440
v 0.04250000 -0.02353885 0.03968217
v 0.05750000 -0.02353885 0.03968217
v 0.04250000 -0.02400000 0.03500000
v 0.05750000 -0.02400000 0.03500000
v 0.04250000 -0.02353885 0.03031783
v 0.05750000 -0.02353885 0.03031783
v 0.04250000 -0.02217311 0.02581560
v 0.05750000 -0.02217311 0.02581560
v 0.04250000 -0.01995527 0.02166631
v 0.05750000 -0.01995527 0.02166631
v 0.04250000 -0.01697056 0.01802944
v 0.05750000 -0.01697056 0.01802944
v 0.04250000 -0.01333369 0.01504473
v 0.05750000 -0.01333369 0.01504473
v 0.04250000 -0.00918440 0.01282689
v 0.05750000 -0.00918440 0.01282689
v 0.04250000 -0.00468217 0.01146115
v 0.05750000 -0.00468217 0.01146115
v 0.00100000 -0.00900000 0.06400000
v 0.00100000 0.00900000 0.06400000
v 0.00100000 -0.00900000 0.05600000
v 0.01900000 -0.00900000 0.05600000
v 0.00100000 0.00900000 0.05600000
v 0.01900000 0.00900000 0.06400000
v 0.01900000 -0.00900000 0.06400000
v 0.01900000 0.00900000 0.05600000
vn 0.72788764 -0.00000000 -0.68569642
vn 0.00000000 0.00000000 -1.00000000
vn 0.71390144 0.14200382 -0.68569647
vn 0.72788764 0.00000000 0.68569642
vn 0.71390144 0.14200382 0.68569647
vn 0.00000000 0.00000000 1.00000000
vn 0.67248047 0.27855052 -0.68569645
vn 0.67248047 0.27855052 0.68569645
vn 0.60521641 0.40439267 -0.68569649
vn 0.60521641 0.40439267 0.68569649
vn 0.51469431 0.51469431 -0.68569639
vn 0.51469431 0.51469431 0.68569639
vn 0.40439267 0.60521641 -0.68569649
vn 0.40439267 0.60521641 0.68569649
vn 0.27855052 0.67248047 -0.68569645
vn 0.27855052 0.67248047 0.68569645
vn 0.14200382 0.71390144 -0.68569647
vn 0.14200382 0.71390144 0.68569647
vn 0.00000000 0.72788764 -0.68569642
vn 0.00000000 0.72788764 0.68569642
vn -0.14200382 0.71390144 -0.68569647
vn -0.14200382 0.71390144 0.68569647
vn -0.27855052 0.67248047 -0.68569645
vn -0.27855052 0.67248047 0.68569645
vn -0.40439267 0.60521641 -0.68569649
vn -0.40439267 0.60521641 0.68569649
vn -0.51469431 0.51469431 -0.68569639
vn -0.51469431 0.51469431 0.68569639
vn -0.60521641 0.40439267 -0.68569649
vn -0.60521641 0.40439267 0.68569649
vn -0.67248047 0.27855052 -0.68569645
vn -0.67248047 0.27855052 0.68569645
vn -0.71390144 0.14200382 -0.68569647
vn -0.71390144 0.14200382 0.68569647
vn -0.72788764 -0.00000000 -0.68569642
vn -0.72788764 0.00000000 0.68569642
vn -0.71390144 -0.14200382 -0.68569647
vn -0.71390144 -0.14200382 0.68569647
vn -0.67248047 -0.27855052 -0.68569645
vn -0.67248047 -0.27855052 0.68569645
vn -0.60521641 -0.40439267 -0.68569649
vn -0.60521641 -0.40439267 0.68569649
vn -0.51469431 -0.51469431 -0.68569639
vn -0.51469431 -0.51469431 0.68569639
vn -0.40439267 -0.60521641 -0.68569649
vn -0.40439267 -0.60521641 0.68569649
vn -0.27855052 -0.67248047 -0.68569645
vn -0.27855052 -0.67248047 0.68569645
vn -0.14200382 -0.71390144 -0.68569647
vn -0.14200382 -0.71390144 0.68569647
vn 0.00000000 -0.72788764 -0.68569642
vn -0.00000000 -0.72788764 0.68569642
vn 0.14200382 -0.71390144 -0.68569647
vn 0.14200382 -0.71390144 0.68569647
vn 0.27855052 -0.67248047 -0.68569645
vn 0.27855052 -0.67248047 0.68569645
vn 0.40439267 -0.60521641 -0.68569649
vn 0.40439267 -0.60521641 0.68569649
vn 0.51469431 -0.51469431 -0.68569639
vn 0.51469431 -0.51469431 0.68569639
vn 0.60521641 -0.40439267 -0.68569649
vn 0.60521641 -0.40439267 0.68569649
vn 0.67248047 -0.27855052 -0.68569645
vn 0.67248047 -0.27855052 0.68569645
vn 0.71390144 -0.14200382 -0.68569647
vn 0.71390144 -0.14200382 0.68569647
vn -0.57735027 -0.57735027 0.57735027
vn -0.57735027 0.57735027 0.57735027
vn -0.57735027 -0.57735027 -0.57735027
vn 0.57735027 -0.57735027 -0.57735027
vn -0.57735027 0.57735027 -0.57735027
vn 0.57735027 0.57735027 0.57735027
vn 0.57735027 -0.57735027 0.57735027
vn 0.57735027 0.57735027 -0.57735027
vn -0.57735027 -0.57735027 0.57735027
vn -0.57735027 0.57735027 0.57735027
vn -0.57735027 -0.57735027 -0.57735027
vn 0.57735027 -0.57735027 -0.57735027
vn -0.57735027 0.57735027 -0.57735027
vn 0.57735027 0.57735027 0.57735027
vn 0.57735027 -0.57735027 0.57735027
vn 0.57735027 0.57735027 -0.57735027
vn -0.68569645 0.00000000 -0.72788761
vn -1.00000000 0.00000000 0.00000000
vn -0.68569644 0.14200383 -0.71390147
vn 0.68569645 -0.00000000 -0.72788761
vn 0.68569644 0.14200383 -0.71390147
vn 1.00000000 0.00000000 0.00000000
vn -0.68569646 0.27855052 -0.67248047
vn 0.68569646 0.27855052 -0.67248047
vn -0.68569643 0.40439270 -0.60521645
vn 0.68569643 0.40439270 -0.60521645
vn -0.68569651 0.51469423 -0.51469423
vn 0.68569651 0.51469423 -0.51469423
vn -0.68569643 0.60521645 -0.40439270
vn 0.68569643 0.60521645 -0.40439270
vn -0.68569645 0.67248047 -0.27855052
vn 0.68569645 0.67248047 -0.27855052
vn -0.68569642 0.71390149 -0.14200383
vn 0.68569642 0.71390149 -0.14200383
vn -0.68569651 0.72788756 -0.00000000
vn 0.68569651 0.72788756 0.00000000
vn -0.68569642 0.71390149 0.14200383
vn 0.68569642 0.71390149 0.14200383
vn -0.68569645 0.67248047 0.27855052
vn 0.68569645 0.67248047 0.27855052
vn -0.68569646 0.60521642 0.40439268
vn 0.68569646 0.60521642 0.40439268
vn -0.68569638 0.51469432 0.51469432
vn 0.68569638 0.51469432 0.51469432
vn -0.68569652 0.40439265 0.60521638
vn 0.68569652 0.40439265 0.60521638
vn -0.68569651 0.27855050 0.67248042
vn 0.68569651 0.27855050 0.67248042
vn -0.68569636 0.14200384 0.71390155
vn 0.68569636 0.14200384 0.71390155
vn -0.68569651 -0.00000000 0.72788756
vn 0.68569651 0.00000000 0.72788756
vn -0.68569636 -0.14200384 0.71390155
vn 0.68569636 -0.14200384 0.71390155
vn -0.68569651 -0.27855050 0.67248042
vn 0.68569651 -0.27855050 0.67248042
vn -0.68569652 -0.40439265 0.60521638
vn 0.68569652 -0.40439265 0.60521638
vn -0.68569638 -0.51469432 0.51469432
vn 0.68569638 -0.51469432 0.51469432
vn -0.68569646 -0.60521642 0.40439268
vn 0.68569646 -0.60521642 0.40439268
vn -0.68569645 -0.67248047 0.27855052
vn 0.68569645 -0.67248047 0.27855052
vn -0.68569642 -0.71390149 0.14200383
vn 0.68569642 -0.71390149 0.14200383
vn -0.68569651 -0.72788756 0.00000000
vn 0.68569651 -0.72788756 -0.00000000
vn -0.68569642 -0.71390149 -0.14200383
vn 0.68569642 -0.71390149 -0.14200383
vn -0.68569645 -0.67248047 -0.27855052
vn 0.68569645 -0.67248047 -0.27855052
vn -0.68569643 -0.60521645 -0.40439270
vn 0.68569643 -0.60521645 -0.40439270
vn -0.68569651 -0.51469423 -0.51469423
vn 0.68569651 -0.51469423 -0.51469423
vn -0.68569643 -0.40439270 -0.60521645
vn 0.68569643 -0.40439270 -0.60521645
vn -0.68569646 -0.27855052 -0.67248047
vn 0.68569646 -0.27855052 -0.67248047
vn -0.68569644 -0.14200383 -0.71390147
vn 0.68569644 -0.14200383 -0.71390147
vn -0.68569643 -0.00000000 -0.72788763
vn -1.00000000 0.00000000 0.00000000
vn -0.68569646 0.14200382 -0.71390145
vn 0.68569643 0.00000000 -0.72788763
vn 0.68569646 0.14200382 -0.71390145
vn 1.00000000 0.00000000 0.00000000
vn -0.68569646 0.27855052 -0.67248046
vn 0.68569646 0.27855052 -0.67248046
vn -0.68569644 0.40439270 -0.60521644
vn 0.68569644 0.40439270 -0.60521644
vn -0.68569645 0.51469427 -0.51469427
vn 0.68569645 0.51469427 -0.51469427
vn -0.68569648 0.60521641 -0.40439267
vn 0.68569648 0.60521641 -0.40439267
vn -0.68569642 0.67248050 -0.27855053
vn 0.68569642 0.67248050 -0.27855053
vn -0.68569646 0.71390145 -0.14200382
vn 0.68569646 0.71390145 -0.14200382
vn -0.68569644 0.72788763 -0.00000000
vn 0.68569644 0.72788763 0.00000000
vn -0.68569645 0.71390146 0.14200382
vn 0.68569645 0.71390146 0.14200382
vn -0.68569646 0.67248046 0.27855052
vn 0.68569646 0.67248046 0.27855052
vn -0.68569646 0.60521643 0.40439269
vn 0.68569646 0.60521643 0.40439269
vn -0.68569643 0.51469428 0.51469428
vn 0.68569643 0.51469428 0.51469428
vn -0.68569652 0.40439265 0.60521638
vn 0.68569652 0.40439265 0.60521638
vn -0.68569635 0.27855056 0.67248056
vn 0.68569635 0.27855056 0.67248056
vn -0.68569651 0.14200381 0.71390141
vn 0.68569651 0.14200381 0.71390141
vn -0.68569643 0.00000000 0.72788763
vn 0.68569643 -0.00000000 0.72788763
vn -0.68569651 -0.14200381 0.71390141
vn 0.68569651 -0.14200381 0.71390141
vn -0.68569635 -0.27855056 0.67248056
vn 0.68569635 -0.27855056 0.67248056
vn -0.68569652 -0.40439265 0.60521638
vn 0.68569652 -0.40439265 0.60521638
vn -0.68569643 -0.51469428 0.51469428
vn 0.68569643 -0.51469428 0.51469428
vn -0.68569646 -0.60521643 0.40439269
vn 0.68569646 -0.60521643 0.40439269
vn -0.68569646 -0.67248046 0.27855052
vn 0.68569646 -0.67248046 0.27855052
vn -0.68569645 -0.71390146 0.14200382
vn 0.68569645 -0.71390146 0.14200382
vn -0.68569644 -0.72788763 0.00000000
vn 0.68569644 -0.72788763 -0.00000000
vn -0.68569646 -0.71390145 -0.14200382
vn 0.68569646 -0.71390145 -0.14200382
vn -0.68569642 -0.67248050 -0.27855053
vn 0.68569642 -0.67248050 -0.27855053
vn -0.68569648 -0.60521641 -0.40439267
vn 0.68569648 -0.60521641 -0.40439267
vn -0.68569645 -0.51469427 -0.51469427
vn 0.68569645 -0.51469427 -0.51469427
vn -0.68569644 -0.40439270 -0.60521644
vn 0.68569644 -0.40439270 -0.60521644
vn -0.68569646 -0.27855052 -0.67248046
vn 0.68569646 -0.27855052 -0.67248046
vn -0.68569646 -0.14200382 -0.71390145
vn 0.68569646 -0.14200382 -0.71390145
vn -0.57735027 -0.57735027 0.57735027
vn -0.57735027 0.57735027 0.57735027
vn -0.57735027 -0.57735027 -0.57735027
vn 0.57735027 -0.57735027 -0.57735027
vn -0.57735027 0.57735027 -0.57735027
vn 0.57735027 0.57735027 0.57735027
vn 0.57735027 -0.57735027 0.57735027
vn 0.57735027 0.57735027 -0.57735027
f 1//1 2//2 3//3
f 1//1 3//3 4//4
f 4//4 3//3 5//5
f 4//4 5//5 6//6
f 3//3 2//2 7//7
f 3//3 7//7 5//5
f 5//5 7//7 8//8
f 5//5 8//8 6//6
f 7//7 2//2 9//9
f 7//7 9//9 8//8
f 8//8 9//9 10//10
f 8//8 10//10 6//6
f 9//9 2//2 11//11
f 9//9 11//11 10//10
f 10//10 11//11 12//12
f 10//10 12//12 6//6
f 11//11 2//2 13//13
f 11//11 13//13 12//12
f 12//12 13//13 14//14
f 12//12 14//14 6//6
f 13//13 2//2 15//15
f 13//13 15//15 14//14
f 14//14 15//15 16//16
f 14//14 16//16 6//6
f 15//15 2//2 17//17
f 15//15 17//17 16//16
f 16//16 17//17 18//18
f 16//16 18//18 6//6
f 17//17 2//2 19//19
f 17//17 19//19 18//18
f 18//18 19//19 20//20
f 18//18 20//20 6//6
f 19//19 2//2 21//21
f 19//19 21//21 20//20
f 20//20 21//21 22//22
f 20//20 22//22 6//6
f 21//21 2//2 23//23
f 21//21 23//23 22//22
f 22//22 23//23 24//24
f 22//22 24//24 6//6
f 23//23 2//2 25//25
f 23//23 25//25 24//24
f 24//24 25//25 26//26
f 24//24 26//26 6//6
f 25//25 2//2 27//27
f 25//25 27//27 26//26
f 26//26 27//27 28//28
f 26//26 28//28 6//6
f 27//27 2//2 29//29
f 27//27 29//29 28//28
f 28//28 29//29 30//30
f 28//28 30//30 6//6
f 29//29 2//2 31//31
f 29//29 31//31 30//30
f 30//30 31//31 32//32
f 30//30 32//32 6//6
f 31//31 2//2 33//33
f 31//31 33//33 32//32
f 32//32 33//33 34//34
f 32//32 34//34 6//6
f 33//33 2//2 35//35
f 33//33 35//35 34//34
f 34//34 35//35 36//36
f 34//34 36//36 6//6
f 35//35 2//2 37//37
f 35//35 37//37 36//36
f 36//36 37//37 38//38
f 36//36 38//38 6//6
f 37//37 2//2 39//39
f 37//37 39//39 38//38
f 38//38 39//39 40//40
f 38//38 40//40 6//6
f 39//39 2//2 41//41
f 39//39 41//41 40//40
f 40//40 41//41 42//42
f 40//40 42//42 6//6
f 41//41 2//2 43//43
f 41//41 43//43 42//42
f 42//42 43//43 44//44
f 42//42 44//44 6//6
f 43//43 2//2 45//45
f 43//43 45//45 44//44
f 44//44 45//45 46//46
f 44//44 46//46 6//6
f 45//45 2//2 47//47
f 45//45 47//47 46//46
f 46//46 47//47 48//48
f 46//46 48//48 6//6
f 47//47 2//2 49//49
f 47//47 49//49 48//48
f 48//48 49//49 50//50
f 48//48 50//50 6//6
f 49//49 2//2 51//51
f 49//49 51//51 50//50
f 50//50 51//51 52//52
f 50//50 52//52 6//6
f 51//51 2//2 53//53
f 51//51 53//53 52//52
f 52//52 53//53 54//54
f 52//52 54//54 6//6
f 53//53 2//2 55//55
f 53//53 55//55 54//54
f 54//54 55//55 56//56
f 54//54 56//56 6//6
f 55//55 2//2 57//57
f 55//55 57//57 56//56
f 56//56 57//57 58//58
f 56//56 58//58 6//6
f 57//57 2//2 59//59
f 57//57 59//59 58//58
f 58//58 59//59 60//60
f 58//58 60//60 6//6
f 59//59 2//2 61//61
f 59//59 61//61 60//60
f 60//60 61//61 62//62
f 60//60 62//62 6//6
f 61//61 2//2 63//63
f 61//61 63//63 62//62
f 62//62 63//63 64//64
f 62//62 64//64 6//6
f 63//63 2//2 65//65
f 63//63 65//65 64//64
f 64//64 65//65 66//66
f 64//64 66//66 6//6
f 65//65 2//2 1//1
f 65//65 1//1 66//66
f 66//66 1//1 4//4
f 66//66 4//4 6//6
f 67//67 68//68 69//69
f 70//70 67//67 69//69
f 69//69 68//68 71//71
f 71//71 70//70 69//69
f 67//67 72//72 68//68
f 73//73 67//67 70//70
f 73//73 72//72 67//67
f 68//68 72//72 71//71
f 74//74 70//70 71//71
f 71//71 72//72 74//74
f 74//74 73//73 70//70
f 72//72 73//73 74//74
f 75//75 76//76 77//77
f 78//78 75//75 77//77
f 77//77 76//76 79//79
f 79//79 78//78 77//77
f 75//75 80//80 76//76
f 81//81 75//75 78//78
f 81//81 80//80 75//75
f 76//76 80//80 79//79
f 82//82 78//78 79//79
f 79//79 80//80 82//82
f 82//82 81//81 78//78
f 80//80 81//81 82//82
f 83//83 84//84 85//85
f 83//83 85//85 86//86
f 86//86 85//85 87//87
f 86//86 87//87 88//88
f 85//85 84//84 89//89
f 85//85 89//89 87//87
f 87//87 89//89 90//90
f 87//87 90//90 88//88
f 89//89 84//84 91//91
f 89//89 91//91 90//90
f 90//90 91//91 92//92
f 90//90 92//92 88//88
f 91//91 84//84 93//93
f 91//91 93//93 92//92
f 92//92 93//93 94//94
f 92//92 94//94 88//88
f 93//93 84//84 95//95
f 93//93 95//95 94//94
f 94//94 95//95 96//96
f 94//94 96//96 88//88
f 95//95 84//84 97//97
f 95//95 97//97 96//96
f 96//96 97//97 98//98
f 96//96 98//98 88//88
f 97//97 84//84 99//99
f 97//97 99//99 98//98
f 98//98 99//99 100//100
f 98//98 100//100 88//88
f 99//99 84//84 101//101
f 99//99 101//101 100//100
f 100//100 101//101 102//102
f 100//100 102//102 88//88
f 101//101 84//84 103//103
f 101//101 103//103 102//102
f 102//102 103//103 104//104
f 102//102 104//104 88//88
f 103//103 84//84 105//105
f 103//103 105//105 104//104
f 104//104 105//105 106//106
f 104//104 106//106 88//88
f 105//105 84//84 107//107
f 105//105 107//107 106//106
f 106//106 107//107 108//108
f 106//106 108//108 88//88
f 107//107 84//84 109//109
f 107//107 109//109 108//108
f 108//108 109//109 110//110
f 108//108 110//110 88//88
f 109//109 84//84 111//111
f 109//109 111//111 110//110
f 110//110 111//111 112//112
f 110//110 112//112 88//88
f 111//111 84//84 113//113
f 111//111 113//113 112//112
f 112//112 113//113 114//114
f 112//112 114//114 88//88
f 113//113 84//84 115//115
f 113//113 115//115 114//114
f 114//114 115//115 116//116
f 114//114 116//116 88//88
f 115//115 84//84 117//117
f 115//115 117//117 116//116
f 116//116 117//117 118//118
f 116//116 118//118 88//88
f 117//117 84//84 119//119
f 117//117 119//119 118//118
f 118//118 119//119 120//120
f 118//118 120//120 88//88
f 119//119 84//84 121//121
f 119//119 121//121 120//120
f 120//120 121//121 122//122
f 120//120 122//122 88//88
f 121//121 84//84 123//123
f 121//121 123//123 122//122
f 122//122 123//123 124//124
f 122//122 124//124 88//88
f 123//123 84//84 125//125
f 123//123 125//125 124//124
f 124//124 125//125 126//126
f 124//124 126//126 88//88
f 125//125 84//84 127//127
f 125//125 127//127 126//126
f 126//126 127//127 128//128
f 126//126 128//128 88//88
f 127//127 84//84 129//129
f 127//127 129//129 128//128
f 128//128 129//129 130//130
f 128//128 130//130 88//88
f 129//129 84//84 131//131
f 129//129 131//131 130//130
f 130//130 131//131 132//132
f 130//130 132//132 88//88
f 131//131 84//84 133//133
f 131//131 133//133 132//132
f 132//132 133//133 134//134
f 132//132 134//134 88//88
f 133//133 84//84 135//135
f 133//133 135//135 134//134
f 134//134 135//135 136//136
f 134//134 136//136 88//88
f 135//135 84//84 137//137
f 135//135 137//137 136//136
f 136//136 137//137 138//138
f 136//136 138//138 88//88
f 137//137 84//84 139//139
f 137//137 139//139 138//138
f 138//138 139//139 140//140
f 138//138 140//140 88//88
f 139//139 84//84 141//141
f 139//139 141//141 140//140
f 140//140 141//141 142//142
f 140//140 142//142 88//88
f 141//141 84//84 143//143
f 141//141 143//143 142//142
f 142//142 143//143 144//144
f 142//142 144//144 88//88
f 143//143 84//84 145//145
f 143//143 145//145 144//144
f 144//144 145//145 146//146
f 144//144 146//146 88//88
f 145//145 84//84 147//147
f 145//145 147//147 146//146
f 146//146 147//147 148//148
f 146//146 148//148 88//88
f 147//147 84//84 83//83
f 147//147 83//83 148//148
f 148//148 83//83 86//86
f 148//148 86//86 88//88
f 149//149 150//150 151//151
f 149//149 151//151 152//152
f 152//152 151//151 153//153
f 152//152 153//153 154//154
f 151//151 150//150 155//155
f 151//151 155//155 153//153
f 153//153 155//155 156//156
f 153//153 156//156 154//154
f 155//155 150//150 157//157
f 155//155 157//157 156//156
f 156//156 157//157 158//158
f 156//156 158//158 154//154
f 157//157 150//150 159//159
f 157//157 159//159 158//158
f 158//158 159//159 160//160
f 158//158 160//160 154//154
f 159//159 150//150 161//161
f 159//159 161//161 160//160
f 160//160 161//161 162//162
f 160//160 162//162 154//154
f 161//161 150//150 163//163
f 161//161 163//163 162//162
f 162//162 163//163 164//164
f 162//162 164//164 154//154
f 163//163 150//150 165//165
f 163//163 165//165 164//164
f 164//164 165//165 166//166
f 164//164 166//166 154//154
f 165//165 150//150 167//167
f 165//165 167//167 166//166
f 166//166 167//167 168//168
f 166//166 168//168 154//154
f 167//167 150//150 169//169
f 167//167 169//169 168//168
f 168//168 169//169 170//170
f 168//168 170//170 154//154
f 169//169 150//150 171//171
f 169//169 171//171 170//170
f 170//170 171//171 172//172
f 170//170 172//172 154//154
f 171//171 150//150 173//173
f 171//171 173//173 172//172
f 172//172 173//173 174//174
f 172//172 174//174 154//154
f 173//173 150//150 175//175
f 173//173 175//175 174//174
f 174//174 175//175 176//176
f 174//174 176//176 154//154
f 175//175 150//150 177//177
f 175//175 177//177 176//176
f 176//176 177//177 178//178
f 176//176 178//178 154//154
f 177//177 150//150 179//179
f 177//177 179//179 178//178
f 178//178 179//179 180//180
f 178//178 180//180 154//154
f 179//179 150//150 181//181
f 179//179 181//181 180//180
f 180//180 181//181 182//182
f 180//180 182//182 154//154
f 181//181 150//150 183//183
f 181//181 183//183 182//182
f 182//182 183//183 184//184
f 182//182 184//184 154//154
f 183//183 150//150 185//185
f 183//183 185//185 184//184
f 184//184 185//185 186//186
f 184//184 186//186 154//154
f 185//185 150//150 187//187
f 185//185 187//187 186//186
f 186//186 187//187 188//188
f 186//186 188//188 154//154
f 187//187 150//150 189//189
f 187//187 189//189 188//188
f 188//188 189//189 190//190
f 188//188 190//190 154//154
f 189//189 150//150 191//191
f 189//189 191//191 190//190
f 190//190 191//191 192//192
f 190//190 192//192 154//154
f 191//191 150//150 193//193
f 191//191 193//193 192//192
f 192//192 193//193 194//194
f 192//192 194//194 154//154
f 193//193 150//150 195//195
f 193//193 195//195 194//194
f 194//194 195//195 196//196
f 194//194 196//196 154//154
f 195//195 150//150 197//197
f 195//195 197//197 196//196
f 196//196 197//197 198//198
f 196//196 198//198 154//154
f 197//197 150//150 199//199
f 197//197 199//199 198//198
f 198//198 199//199 200//200
f 198//198 200//200 154//154
f 199//199 150//150 201//201
f 199//199 201//201 200//200
f 200//200 201//201 202//202
f 200//200 202//202 154//154
f 201//201 150//150 203//203
f 201//201 203//203 202//202
f 202//202 203//203 204//204
f 202//202 204//204 154//154
f 203//203 150//150 205//205
f 203//203 205//205 204//204
f 204//204 205//205 206//206
f 204//204 206//206 154//154
f 205//205 150//150 207//207
f 205//205 207//207 206//206
f 206//206 207//207 208//208
f 206//206 208//208 154//154
f 207//207 150//150 209//209
f 207//207 209//209 208//208
f 208//208 209//209 210//210
f 208//208 210//210 154//154
f 209//209 150//150 211//211
f 209//209 211//211 210//210
f 210//210 211//211 212//212
f 210//210 212//212 154//154
f 211//211 150//150 213//213
f 211//211 213//213 212//212
f 212//212 213//213 214//214
f 212//212 214//214 154//154
f 213//213 150//150 149//149
f 213//213 149//149 214//214
f 214//214 149//149 152//152
f 214//214 152//152 154//154
f 215//215 216//216 217//217
f 218//218 215//215 217//217
f 217//217 216//216 219//219
f 219//219 218//218 217//217
f 215//215 220//220 216//216
f 221//221 215//215 218//218
f 221//221 220//220 215//215
f 216//216 220//220 219//219
f 222//222 218//218 219//219
f 219//219 220//220 222//222
f 222//222 221//221 218//218
f 220//220 221//221 222//222

