<COLLADA xmlns="http://www.collada.org/2005/11/COLLADASchema" version="1.4.1">
  <asset>
    <created>2026-09-03T21:36:14.799838</created>
    <modified>2026-09-03T21:36:14.799841</modified>
    <up_axis>Y_UP</up_axis>
  </asset>
  <library_effects>
    <effect id="3c422fe4ee0045639e8f55af84a19989" name="3c422fe4ee0045639e8f55af84a19989">
      <profile_COMMON>
        <technique sid="common">
          <phong>
            <emission>
              <color>0.0 0.0 0.0 1.0</color>
            </emission>
            <ambient>
              <color>0.0 0.0 0.0 1.0</color>
            </ambient>
            <diffuse>
              <color>0.0 0.0 0.0 1.0</color>
            </diffuse>
            <specular>
              <color>0.0 0.0 0.0 1.0</color>
            </specular>
            <shininess>
              <float>0.0</float>
            </shininess>
            <reflective>
              <color>0.0 0.0 0.0 1.0</color>
            </reflective>
            <reflectivity>
              <float>0.0</float>
            </reflectivity>
            <transparent>
              <color>0.0 0.0 0.0 1.0</color>
            </transparent>
            <transparency>
              <float>1.0</float>
            </transparency>
          </phong>
        </technique>
        <extra>
          <technique profile="GOOGLEEARTH">
            <double_sided>0</double_sided>
          </technique>
        </extra>
      </profile_COMMON>
    </effect>
  </library_effects>
  <library_geometries>
    <geometry id="02bfc63f754b43d186ff062b31991981" name="e110ca656c0241b5adb7fdbb96ed1d93">
      <mesh>
        <source id="verts-array">
          <float_array count="930" id="verts-array-array">0.02275 0.0275 -1.683889e-18 0 0.0275 -1.683889e-18 0.02231286 0.0275 0.004438305 0.02275 -0.0275 1.683889e-18 0.02231286 -0.0275 0.004438305 0 -0.0275 1.683889e-18 0.02101826 0.0275 0.008706048 0.02101826 -0.0275 0.008706048 0.01891593 0.0275 0.01263922 0.01891593 -0.0275 0.01263922 0.01608668 0.0275 0.01608668 0.01608668 -0.0275 0.01608668 0.01263922 0.0275 0.01891593 0.01263922 -0.0275 0.01891593 0.008706048 0.0275 0.02101826 0.008706048 -0.0275 0.02101826 0.004438305 0.0275 0.02231286 0.004438305 -0.0275 0.02231286 1.393036e-18 0.0275 0.02275 1.393036e-18 -0.0275 0.02275 -0.004438305 0.0275 0.02231286 -0.004438305 -0.0275 0.02231286 -0.008706048 0.0275 0.02101826 -0.008706048 -0.0275 0.02101826 -0.01263922 0.0275 0.01891593 -0.01263922 -0.0275 0.01891593 -0.01608668 0.0275 0.01608668 -0.01608668 -0.0275 0.01608668 -0.01891593 0.0275 0.01263922 -0.01891593 -0.0275 0.01263922 -0.02101826 0.0275 0.008706048 -0.02101826 -0.0275 0.008706048 -0.02231286 0.0275 0.004438305 -0.02231286 -0.0275 0.004438305 -0.02275 0.0275 1.102182e-18 -0.02275 -0.0275 4.469961e-18 -0.02231286 0.0275 -0.004438305 -0.02231286 -0.0275 -0.004438305 -0.02101826 0.0275 -0.008706048 -0.02101826 -0.0275 -0.008706048 -0.01891593 0.0275 -0.01263922 -0.01891593 -0.0275 -0.01263922 -0.01608668 0.0275 -0.01608668 -0.01608668 -0.0275 -0.01608668 -0.01263922 0.0275 -0.01891593 -0.01263922 -0.0275 -0.01891593 -0.008706048 0.0275 -0.02101826 -0.008706048 -0.0275 -0.02101826 -0.004438305 0.0275 -0.02231286 -0.004438305 -0.0275 -0.02231286 -4.179107e-18 0.0275 -0.02275 -4.179107e-18 -0.0275 -0.02275 0.004438305 0.0275 -0.02231286 0.004438305 -0.0275 -0.02231286 0.008706048 0.0275 -0.02101826 0.008706048 -0.0275 -0.02101826 0.01263922 0.0275 -0.01891593 0.01263922 -0.0275 -0.01891593 0.01608668 0.0275 -0.01608668 0.01608668 -0.0275 -0.01608668 0.01891593 0.0275 -0.01263922 0.01891593 -0.0275 -0.01263922 0.02101826 0.0275 -0.008706048 0.02101826 -0.0275 -0.008706048 0.02231286 0.0275 -0.004438305 0.02231286 -0.0275 -0.004438305 0.065 0.0225 -1.377728e-18 0 0.0225 -1.377728e-18 0.06375104 0.0225 0.01268087 0.065 -0.0225 1.377728e-18 0.06375104 -0.0225 0.01268087 0 -0.0225 1.377728e-18 0.06005217 0.0225 0.02487442 0.06005217 -0.0225 0.02487442 0.05404552 0.0225 0.03611207 0.05404552 -0.0225 0.03611207 0.04596194 0.0225 0.04596194 0.04596194 -0.0225 0.04596194 0.03611207 0.0225 0.05404552 0.03611207 -0.0225 0.05404552 0.02487442 0.0225 0.06005217 0.02487442 -0.0225 0.06005217 0.01268087 0.0225 0.06375104 0.01268087 -0.0225 0.06375104 3.980102e-18 0.0225 0.065 3.980102e-18 -0.0225 0.065 -0.01268087 0.0225 0.06375104 -0.01268087 -0.0225 0.06375104 -0.02487442 0.0225 0.06005217 -0.02487442 -0.0225 0.06005217 -0.03611207 0.0225 0.05404552 -0.03611207 -0.0225 0.05404552 -0.04596194 0.0225 0.04596194 -0.04596194 -0.0225 0.04596194 -0.05404552 0.0225 0.03611207 -0.05404552 -0.0225 0.03611207 -0.06005217 0.0225 0.02487442 -0.06005217 -0.0225 0.02487442 -0.06375104 0.0225 0.01268087 -0.06375104 -0.0225 0.01268087 -0.065 0.0225 6.582477e-18 -0.065 -0.0225 9.337932e-18 -0.06375104 0.0225 -0.01268087 -0.06375104 -0.0225 -0.01268087 -0.06005217 0.0225 -0.02487442 -0.06005217 -0.0225 -0.02487442 -0.05404552 0.0225 -0.03611207 -0.05404552 -0.0225 -0.03611207 -0.04596194 0.0225 -0.04596194 -0.04596194 -0.0225 -0.04596194 -0.03611207 0.0225 -0.05404552 -0.03611207 -0.0225 -0.05404552 -0.02487442 0.0225 -0.06005217 -0.02487442 -0.0225 -0.06005217 -0.01268087 0.0225 -0.06375104 -0.01268087 -0.0225 -0.06375104 -1.194031e-17 0.0225 -0.065 -1.194031e-17 -0.0225 -0.065 0.01268087 0.0225 -0.06375104 0.01268087 -0.0225 -0.06375104 0.02487442 0.0225 -0.06005217 0.02487442 -0.0225 -0.06005217 0.03611207 0.0225 -0.05404552 0.03611207 -0.0225 -0.05404552 0.04596194 0.0225 -0.04596194 0.04596194 -0.0225 -0.04596194 0.05404552 0.0225 -0.03611207 0.05404552 -0.0225 -0.03611207 0.06005217 0.0225 -0.02487442 0.06005217 -0.0225 -0.02487442 0.06375104 0.0225 -0.01268087 0.06375104 -0.0225 -0.01268087 0.05525 0.0075 -4.592426e-19 0 0.0075 -4.592426e-19 0.05418839 0.0075 0.01077874 0.05525 -0.0075 4.592426e-19 0.05418839 -0.0075 0.01077874 0 -0.0075 4.592426e-19 0.05104434 0.0075 0.02114326 0.05104434 -0.0075 0.02114326 0.0459387 0.0075 0.03069526 0.0459387 -0.0075 0.03069526 0.03906765 0.0075 0.03906765 0.03906765 -0.0075 0.03906765 0.03069526 0.0075 0.0459387 0.03069526 -0.0075 0.0459387 0.02114326 0.0075 0.05104434 0.02114326 -0.0075 0.05104434 0.01077874 0.0075 0.05418839 0.01077874 -0.0075 0.05418839 3.383087e-18 0.0075 0.05525 3.383087e-18 -0.0075 0.05525 -0.01077874 0.0075 0.05418839 -0.01077874 -0.0075 0.05418839 -0.02114326 0.0075 0.05104434 -0.02114326 -0.0075 0.05104434 -0.03069526 0.0075 0.0459387 -0.03069526 -0.0075 0.0459387 -0.03906765 0.0075 0.03906765 -0.03906765 -0.0075 0.03906765 -0.0459387 0.0075 0.03069526 -0.0459387 -0.0075 0.03069526 -0.05104434 0.0075 0.02114326 -0.05104434 -0.0075 0.02114326 -0.05418839 0.0075 0.01077874 -0.05418839 -0.0075 0.01077874 -0.05525 0.0075 6.306931e-18 -0.05525 -0.0075 7.225416e-18 -0.05418839 0.0075 -0.01077874 -0.05418839 -0.0075 -0.01077874 -0.05104434 0.0075 -0.02114326 -0.05104434 -0.0075 -0.02114326 -0.0459387 0.0075 -0.03069526 -0.0459387 -0.0075 -0.03069526 -0.03906765 0.0075 -0.03906765 -0.03906765 -0.0075 -0.03906765 -0.03069526 0.0075 -0.0459387 -0.03069526 -0.0075 -0.0459387 -0.02114326 0.0075 -0.05104434 -0.02114326 -0.0075 -0.05104434 -0.01077874 0.0075 -0.05418839 -0.01077874 -0.0075 -0.05418839 -1.014926e-17 0.0075 -0.05525 -1.014926e-17 -0.0075 -0.05525 0.01077874 0.0075 -0.05418839 0.01077874 -0.0075 -0.05418839 0.02114326 0.0075 -0.05104434 0.02114326 -0.0075 -0.05104434 0.03069526 0.0075 -0.0459387 0.03069526 -0.0075 -0.0459387 0.03906765 0.0075 -0.03906765 0.03906765 -0.0075 -0.03906765 0.0459387 0.0075 -0.03069526 0.0459387 -0.0075 -0.03069526 0.05104434 0.0075 -0.02114326 0.05104434 -0.0075 -0.02114326 0.05418839 0.0075 -0.01077874 0.05418839 -0.0075 -0.01077874 0.0625 -0.02125 -0.006 0.0625 -0.02125 0.006 0.0625 0.02125 -0.006 0.0775 0.02125 -0.006 0.0625 0.02125 0.006 0.0775 -0.02125 0.006 0.0775 -0.02125 -0.006 0.0775 0.02125 0.006 0.05556782 -0.02125 0.02437186 0.05556782 -0.02125 0.03637186 0.05556782 0.02125 0.02437186 0.07056782 0.02125 0.02437186 0.05556782 0.02125 0.03637186 0.07056782 -0.02125 0.03637186 0.07056782 -0.02125 0.02437186 0.07056782 0.02125 0.03637186 0.03614429 -0.02125 0.04872821 0.03614429 -0.02125 0.0607282 0.03614429 0.02125 0.04872821 0.05114429 0.02125 0.04872821 0.03614429 0.02125 0.0607282 0.05114429 -0.02125 0.0607282 0.05114429 -0.02125 0.04872821 0.05114429 0.02125 0.0607282 0.008076466 -0.02125 0.06224496 0.008076466 -0.02125 0.07424495 0.008076466 0.02125 0.06224496 0.02307647 0.02125 0.06224496 0.008076466 0.02125 0.07424495 0.02307647 -0.02125 0.07424495 0.02307647 -0.02125 0.06224496 0.02307647 0.02125 0.07424495 -0.02307647 -0.02125 0.06224496 -0.02307647 -0.02125 0.07424495 -0.02307647 0.02125 0.06224496 -0.008076466 0.02125 0.06224496 -0.02307647 0.02125 0.07424495 -0.008076466 -0.02125 0.07424495 -0.008076466 -0.02125 0.06224496 -0.008076466 0.02125 0.07424495 -0.05114429 -0.02125 0.04872821 -0.05114429 -0.02125 0.0607282 -0.05114429 0.02125 0.04872821 -0.03614429 0.02125 0.04872821 -0.05114429 0.02125 0.0607282 -0.03614429 -0.02125 0.0607282 -0.03614429 -0.02125 0.04872821 -0.03614429 0.02125 0.0607282 -0.07056782 -0.02125 0.02437186 -0.07056782 -0.02125 0.03637186 -0.07056782 0.02125 0.02437186 -0.05556782 0.02125 0.02437186 -0.07056782 0.02125 0.03637186 -0.05556782 -0.02125 0.03637186 -0.05556782 -0.02125 0.02437186 -0.05556782 0.02125 0.03637186 -0.0775 -0.02125 -0.006 -0.0775 -0.02125 0.006 -0.0775 0.02125 -0.006 -0.0625 0.02125 -0.006 -0.0775 0.02125 0.006 -0.0625 -0.02125 0.006 -0.0625 -0.02125 -0.006 -0.0625 0.02125 0.006 -0.07056782 -0.02125 -0.03637186 -0.07056782 -0.02125 -0.02437186 -0.07056782 0.02125 -0.03637186 -0.05556782 0.02125 -0.03637186 -0.07056782 0.02125 -0.02437186 -0.05556782 -0.02125 -0.02437186 -0.05556782 -0.02125 -0.03637186 -0.05556782 0.02125 -0.02437186 -0.05114429 -0.02125 -0.0607282 -0.05114429 -0.02125 -0.04872821 -0.05114429 0.02125 -0.0607282 -0.03614429 0.02125 -0.0607282 -0.05114429 0.02125 -0.04872821 -0.03614429 -0.02125 -0.04872821 -0.03614429 -0.02125 -0.0607282 -0.03614429 0.02125 -0.04872821 -0.02307647 -0.02125 -0.07424495 -0.02307647 -0.02125 -0.06224496 -0.02307647 0.02125 -0.07424495 -0.008076466 0.02125 -0.07424495 -0.02307647 0.02125 -0.06224496 -0.008076466 -0.02125 -0.06224496 -0.008076466 -0.02125 -0.07424495 -0.008076466 0.02125 -0.06224496 0.008076466 -0.02125 -0.07424495 0.008076466 -0.02125 -0.06224496 0.008076466 0.02125 -0.07424495 0.02307647 0.02125 -0.07424495 0.008076466 0.02125 -0.06224496 0.02307647 -0.02125 -0.06224496 0.02307647 -0.02125 -0.07424495 0.02307647 0.02125 -0.06224496 0.03614429 -0.02125 -0.0607282 0.03614429 -0.02125 -0.04872821 0.03614429 0.02125 -0.0607282 0.05114429 0.02125 -0.0607282 0.03614429 0.02125 -0.04872821 0.05114429 -0.02125 -0.04872821 0.05114429 -0.02125 -0.0607282 0.05114429 0.02125 -0.04872821 0.05556782 -0.02125 -0.03637186 0.05556782 -0.02125 -0.02437186 0.05556782 0.02125 -0.03637186 0.07056782 0.02125 -0.03637186 0.05556782 0.02125 -0.02437186 0.07056782 -0.02125 -0.02437186 0.07056782 -0.02125 -0.03637186 0.07056782 0.02125 -0.02437186</float_array>
          <technique_common>
            <accessor count="310" source="#verts-array-array" stride="3">
              <param type="float" name="X" />
              <param type="float" name="Y" />
              <param type="float" name="Z" />
            </accessor>
          </technique_common>
        </source>
        <source id="normals-array">
          <float_array count="930" id="normals-array-array">0.7278876 0.6856965 -1.211608e-17 0 1 -6.123234e-17 0.7139014 0.6856965 0.1420038 0.7278876 -0.6856965 8.069577e-18 0.7139014 -0.6856965 0.1420038 0 -1 6.123234e-17 0.6724805 0.6856965 0.2785505 0.6724805 -0.6856965 0.2785505 0.6052165 0.6856964 0.4043927 0.6052165 -0.6856964 0.4043927 0.5146942 0.6856965 0.5146942 0.5146942 -0.6856965 0.5146942 0.4043927 0.6856964 0.6052165 0.4043927 -0.6856964 0.6052165 0.2785505 0.6856965 0.6724805 0.2785505 -0.6856965 0.6724805 0.1420038 0.6856965 0.7139014 0.1420038 -0.6856965 0.7139014 -2.584765e-17 0.6856965 0.7278876 3.230956e-17 -0.6856965 0.7278876 -0.1420038 0.6856965 0.7139014 -0.1420038 -0.6856965 0.7139014 -0.2785505 0.6856965 0.6724805 -0.2785505 -0.6856965 0.6724805 -0.4043927 0.6856964 0.6052165 -0.4043927 -0.6856964 0.6052165 -0.5146942 0.6856965 0.5146942 -0.5146942 -0.6856965 0.5146942 -0.6052165 0.6856964 0.4043927 -0.6052165 -0.6856964 0.4043927 -0.6724805 0.6856965 0.2785505 -0.6724805 -0.6856965 0.2785505 -0.7139014 0.6856965 0.1420038 -0.7139014 -0.6856965 0.1420038 -0.7278876 0.6856965 -7.108102e-17 -0.7278876 -0.6856965 7.91506e-17 -0.7139014 0.6856965 -0.1420038 -0.7139014 -0.6856965 -0.1420038 -0.6724805 0.6856965 -0.2785505 -0.6724805 -0.6856965 -0.2785505 -0.6052165 0.6856964 -0.4043927 -0.6052165 -0.6856964 -0.4043927 -0.5146942 0.6856965 -0.5146942 -0.5146942 -0.6856965 -0.5146942 -0.4043927 0.6856964 -0.6052165 -0.4043927 -0.6856964 -0.6052165 -0.2785505 0.6856965 -0.6724805 -0.2785505 -0.6856965 -0.6724805 -0.1420038 0.6856965 -0.7139014 -0.1420038 -0.6856965 -0.7139014 2.584765e-17 0.6856965 -0.7278876 -3.230956e-17 -0.6856965 -0.7278876 0.1420038 0.6856965 -0.7139014 0.1420038 -0.6856965 -0.7139014 0.2785505 0.6856965 -0.6724805 0.2785505 -0.6856965 -0.6724805 0.4043927 0.6856964 -0.6052165 0.4043927 -0.6856964 -0.6052165 0.5146942 0.6856965 -0.5146942 0.5146942 -0.6856965 -0.5146942 0.6052165 0.6856964 -0.4043927 0.6052165 -0.6856964 -0.4043927 0.6724805 0.6856965 -0.2785505 0.6724805 -0.6856965 -0.2785505 0.7139014 0.6856965 -0.1420038 0.7139014 -0.6856965 -0.1420038 0.7278876 0.6856965 -4.927207e-17 0 1 -6.123234e-17 0.7139014 0.6856965 0.1420038 0.7278876 -0.6856965 4.684105e-17 0.7139014 -0.6856965 0.1420038 0 -1 6.123234e-17 0.6724805 0.6856964 0.2785505 0.6724805 -0.6856964 0.2785505 0.6052164 0.6856965 0.4043927 0.6052164 -0.6856965 0.4043927 0.5146943 0.6856964 0.5146943 0.5146943 -0.6856964 0.5146943 0.4043927 0.6856965 0.6052164 0.4043927 -0.6856965 0.6052164 0.2785505 0.6856964 0.6724805 0.2785505 -0.6856964 0.6724805 0.1420038 0.6856965 0.7139014 0.1420038 -0.6856965 0.7139014 1.292382e-17 0.6856965 0.7278876 -6.461911e-18 -0.6856965 0.7278876 -0.1420038 0.6856965 0.7139014 -0.1420038 -0.6856965 0.7139014 -0.2785505 0.6856964 0.6724805 -0.2785505 -0.6856964 0.6724805 -0.4043927 0.6856965 0.6052164 -0.4043927 -0.6856965 0.6052164 -0.5146943 0.6856964 0.5146943 -0.5146943 -0.6856964 0.5146943 -0.6052164 0.6856965 0.4043927 -0.6052164 -0.6856965 0.4043927 -0.6724805 0.6856964 0.2785505 -0.6724805 -0.6856964 0.2785505 -0.7139014 0.6856965 0.1420038 -0.7139014 -0.6856965 0.1420038 -0.7278876 0.6856965 -3.230956e-17 -0.7278876 -0.6856965 4.037913e-17 -0.7139014 0.6856965 -0.1420038 -0.7139014 -0.6856965 -0.1420038 -0.6724805 0.6856964 -0.2785505 -0.6724805 -0.6856964 -0.2785505 -0.6052164 0.6856965 -0.4043927 -0.6052164 -0.6856965 -0.4043927 -0.5146943 0.6856964 -0.5146943 -0.5146943 -0.6856964 -0.5146943 -0.4043927 0.6856965 -0.6052164 -0.4043927 -0.6856965 -0.6052164 -0.2785505 0.6856964 -0.6724805 -0.2785505 -0.6856964 -0.6724805 -0.1420038 0.6856965 -0.7139014 -0.1420038 -0.6856965 -0.7139014 -1.292382e-17 0.6856965 -0.7278876 1.292382e-17 -0.6856965 -0.7278876 0.1420038 0.6856965 -0.7139014 0.1420038 -0.6856965 -0.7139014 0.2785505 0.6856964 -0.6724805 0.2785505 -0.6856964 -0.6724805 0.4043927 0.6856965 -0.6052164 0.4043927 -0.6856965 -0.6052164 0.5146943 0.6856964 -0.5146943 0.5146943 -0.6856964 -0.5146943 0.6052164 0.6856965 -0.4043927 0.6052164 -0.6856965 -0.4043927 0.6724805 0.6856964 -0.2785505 0.6724805 -0.6856964 -0.2785505 0.7139014 0.6856965 -0.1420038 0.7139014 -0.6856965 -0.1420038 0.7278876 0.6856964 -4.684886e-17 0 1 -6.123234e-17 0.7139014 0.6856965 0.1420038 0.7278876 -0.6856964 4.037913e-17 0.7139014 -0.6856965 0.1420038 0 -1 6.123234e-17 0.6724805 0.6856964 0.2785505 0.6724805 -0.6856964 0.2785505 0.6052165 0.6856964 0.4043927 0.6052165 -0.6856964 0.4043927 0.5146942 0.6856965 0.5146942 0.5146942 -0.6856965 0.5146942 0.4043927 0.6856964 0.6052165 0.4043927 -0.6856964 0.6052165 0.2785505 0.6856964 0.6724805 0.2785505 -0.6856964 0.6724805 0.1420038 0.6856965 0.7139014 0.1420038 -0.6856965 0.7139014 6.461912e-18 0.6856964 0.7278876 -3.230956e-18 -0.6856964 0.7278876 -0.1420038 0.6856965 0.7139014 -0.1420038 -0.6856965 0.7139014 -0.2785505 0.6856964 0.6724805 -0.2785505 -0.6856964 0.6724805 -0.4043927 0.6856964 0.6052165 -0.4043927 -0.6856964 0.6052165 -0.5146942 0.6856965 0.5146942 -0.5146942 -0.6856965 0.5146942 -0.6052165 0.6856964 0.4043927 -0.6052165 -0.6856964 0.4043927 -0.6724805 0.6856964 0.2785505 -0.6724805 -0.6856964 0.2785505 -0.7139014 0.6856965 0.1420038 -0.7139014 -0.6856965 0.1420038 -0.7278876 0.6856964 -3.877147e-17 -0.7278876 -0.6856964 4.037913e-17 -0.7139014 0.6856965 -0.1420038 -0.7139014 -0.6856965 -0.1420038 -0.6724805 0.6856964 -0.2785505 -0.6724805 -0.6856964 -0.2785505 -0.6052165 0.6856964 -0.4043927 -0.6052165 -0.6856964 -0.4043927 -0.5146942 0.6856965 -0.5146942 -0.5146942 -0.6856965 -0.5146942 -0.4043927 0.6856964 -0.6052165 -0.4043927 -0.6856964 -0.6052165 -0.2785505 0.6856964 -0.6724805 -0.2785505 -0.6856964 -0.6724805 -0.1420038 0.6856965 -0.7139014 -0.1420038 -0.6856965 -0.7139014 -6.461912e-18 0.6856964 -0.7278876 3.230956e-18 -0.6856964 -0.7278876 0.1420038 0.6856965 -0.7139014 0.1420038 -0.6856965 -0.7139014 0.2785505 0.6856964 -0.6724805 0.2785505 -0.6856964 -0.6724805 0.4043927 0.6856964 -0.6052165 0.4043927 -0.6856964 -0.6052165 0.5146942 0.6856965 -0.5146942 0.5146942 -0.6856965 -0.5146942 0.6052165 0.6856964 -0.4043927 0.6052165 -0.6856964 -0.4043927 0.6724805 0.6856964 -0.2785505 0.6724805 -0.6856964 -0.2785505 0.7139014 0.6856965 -0.1420038 0.7139014 -0.6856965 -0.1420038 -0.5773503 -0.5773503 -0.5773503 -0.5773503 -0.5773503 0.5773503 -0.5773503 0.5773503 -0.5773503 0.5773503 0.5773503 -0.5773503 -0.5773503 0.5773503 0.5773503 0.5773503 -0.5773503 0.5773503 0.5773503 -0.5773503 -0.5773503 0.5773503 0.5773503 0.5773503 -0.5773503 -0.5773503 -0.5773503 -0.5773503 -0.5773503 0.5773503 -0.5773503 0.5773503 -0.5773503 0.5773503 0.5773503 -0.5773503 -0.5773503 0.5773503 0.5773503 0.5773503 -0.5773503 0.5773503 0.5773503 -0.5773503 -0.5773503 0.5773503 0.5773503 0.5773503 -0.5773503 -0.5773503 -0.5773503 -0.5773503 -0.5773503 0.5773503 -0.5773503 0.5773503 -0.5773503 0.5773503 0.5773503 -0.5773503 -0.5773503 0.5773503 0.5773503 0.5773503 -0.5773503 0.5773503 0.5773503 -0.5773503 -0.5773503 0.5773503 0.5773503 0.5773503 -0.5773503 -0.5773503 -0.5773503 -0.5773503 -0.5773503 0.5773503 -0.5773503 0.5773503 -0.5773503 0.5773503 0.5773503 -0.5773503 -0.5773503 0.5773503 0.5773503 0.5773503 -0.5773503 0.5773503 0.5773503 -0.5773503 -0.5773503 0.5773503 0.5773503 0.5773503 -0.5773503 -0.5773503 -0.5773503 -0.5773503 -0.5773503 0.5773503 -0.5773503 0.5773503 -0.5773503 0.5773503 0.5773503 -0.5773503 -0.5773503 0.5773503 0.5773503 0.5773503 -0.5773503 0.5773503 0.5773503 -0.5773503 -0.5773503 0.5773503 0.5773503 0.5773503 -0.5773503 -0.5773503 -0.5773503 -0.5773503 -0.5773503 0.5773503 -0.5773503 0.5773503 -0.5773503 0.5773503 0.5773503 -0.5773503 -0.5773503 0.5773503 0.5773503 0.5773503 -0.5773503 0.5773503 0.5773503 -0.5773503 -0.5773503 0.5773503 0.5773503 0.5773503 -0.5773503 -0.5773503 -0.5773503 -0.5773503 -0.5773503 0.5773503 -0.5773503 0.5773503 -0.5773503 0.5773503 0.5773503 -0.5773503 -0.5773503 0.5773503 0.5773503 0.5773503 -0.5773503 0.5773503 0.5773503 -0.5773503 -0.5773503 0.5773503 0.5773503 0.5773503 -0.5773503 -0.5773503 -0.5773503 -0.5773503 -0.5773503 0.5773503 -0.5773503 0.5773503 -0.5773503 0.5773503 0.5773503 -0.5773503 -0.5773503 0.5773503 0.5773503 0.5773503 -0.5773503 0.5773503 0.5773503 -0.5773503 -0.5773503 0.5773503 0.5773503 0.5773503 -0.5773503 -0.5773503 -0.5773503 -0.5773503 -0.5773503 0.5773503 -0.5773503 0.5773503 -0.5773503 0.5773503 0.5773503 -0.5773503 -0.5773503 0.5773503 0.5773503 0.5773503 -0.5773503 0.5773503 0.5773503 -0.5773503 -0.5773503 0.5773503 0.5773503 0.5773503 -0.5773503 -0.5773503 -0.5773503 -0.5773503 -0.5773503 0.5773503 -0.5773503 0.5773503 -0.5773503 0.5773503 0.5773503 -0.5773503 -0.5773503 0.5773503 0.5773503 0.5773503 -0.5773503 0.5773503 0.5773503 -0.5773503 -0.5773503 0.5773503 0.5773503 0.5773503 -0.5773503 -0.5773503 -0.5773503 -0.5773503 -0.5773503 0.5773503 -0.5773503 0.5773503 -0.5773503 0.5773503 0.5773503 -0.5773503 -0.5773503 0.5773503 0.5773503 0.5773503 -0.5773503 0.5773503 0.5773503 -0.5773503 -0.5773503 0.5773503 0.5773503 0.5773503 -0.5773503 -0.5773503 -0.5773503 -0.5773503 -0.5773503 0.5773503 -0.5773503 0.5773503 -0.5773503 0.5773503 0.5773503 -0.5773503 -0.5773503 0.5773503 0.5773503 0.5773503 -0.5773503 0.5773503 0.5773503 -0.5773503 -0.5773503 0.5773503 0.5773503 0.5773503 -0.5773503 -0.5773503 -0.5773503 -0.5773503 -0.5773503 0.5773503 -0.5773503 0.5773503 -0.5773503 0.5773503 0.5773503 -0.5773503 -0.5773503 0.5773503 0.5773503 0.5773503 -0.5773503 0.5773503 0.5773503 -0.5773503 -0.5773503 0.5773503 0.5773503 0.5773503 -0.5773503 -0.5773503 -0.5773503 -0.5773503 -0.5773503 0.5773503 -0.5773503 0.5773503 -0.5773503 0.5773503 0.5773503 -0.5773503 -0.5773503 0.5773503 0.5773503 0.5773503 -0.5773503 0.5773503 0.5773503 -0.5773503 -0.5773503 0.5773503 0.5773503 0.5773503</float_array>
          <technique_common>
            <accessor count="310" source="#normals-array-array" stride="3">
              <param type="float" name="X" />
              <param type="float" name="Y" />
              <param type="float" name="Z" />
            </accessor>
          </technique_common>
        </source>
        <vertices id="verts-array-vertices">
          <input semantic="POSITION" source="#verts-array" />
        </vertices>
        <triangles count="552" material="material0">
          <input offset="0" semantic="VERTEX" source="#verts-array-vertices" />
          <input offset="1" semantic="NORMAL" source="#normals-array" />
          <p>0 0 1 1 2 2 0 0 2 2 3 3 3 3 2 2 4 4 3 3 4 4 5 5 2 2 1 1 6 6 2 2 6 6 4 4 4 4 6 6 7 7 4 4 7 7 5 5 6 6 1 1 8 8 6 6 8 8 7 7 7 7 8 8 9 9 7 7 9 9 5 5 8 8 1 1 10 10 8 8 10 10 9 9 9 9 10 10 11 11 9 9 11 11 5 5 10 10 1 1 12 12 10 10 12 12 11 11 11 11 12 12 13 13 11 11 13 13 5 5 12 12 1 1 14 14 12 12 14 14 13 13 13 13 14 14 15 15 13 13 15 15 5 5 14 14 1 1 16 16 14 14 16 16 15 15 15 15 16 16 17 17 15 15 17 17 5 5 16 16 1 1 18 18 16 16 18 18 17 17 17 17 18 18 19 19 17 17 19 19 5 5 18 18 1 1 20 20 18 18 20 20 19 19 19 19 20 20 21 21 19 19 21 21 5 5 20 20 1 1 22 22 20 20 22 22 21 21 21 21 22 22 23 23 21 21 23 23 5 5 22 22 1 1 24 24 22 22 24 24 23 23 23 23 24 24 25 25 23 23 25 25 5 5 24 24 1 1 26 26 24 24 26 26 25 25 25 25 26 26 27 27 25 25 27 27 5 5 26 26 1 1 28 28 26 26 28 28 27 27 27 27 28 28 29 29 27 27 29 29 5 5 28 28 1 1 30 30 28 28 30 30 29 29 29 29 30 30 31 31 29 29 31 31 5 5 30 30 1 1 32 32 30 30 32 32 31 31 31 31 32 32 33 33 31 31 33 33 5 5 32 32 1 1 34 34 32 32 34 34 33 33 33 33 34 34 35 35 33 33 35 35 5 5 34 34 1 1 36 36 34 34 36 36 35 35 35 35 36 36 37 37 35 35 37 37 5 5 36 36 1 1 38 38 36 36 38 38 37 37 37 37 38 38 39 39 37 37 39 39 5 5 38 38 1 1 40 40 38 38 40 40 39 39 39 39 40 40 41 41 39 39 41 41 5 5 40 40 1 1 42 42 40 40 42 42 41 41 41 41 42 42 43 43 41 41 43 43 5 5 42 42 1 1 44 44 42 42 44 44 43 43 43 43 44 44 45 45 43 43 45 45 5 5 44 44 1 1 46 46 44 44 46 46 45 45 45 45 46 46 47 47 45 45 47 47 5 5 46 46 1 1 48 48 46 46 48 48 47 47 47 47 48 48 49 49 47 47 49 49 5 5 48 48 1 1 50 50 48 48 50 50 49 49 49 49 50 50 51 51 49 49 51 51 5 5 50 50 1 1 52 52 50 50 52 52 51 51 51 51 52 52 53 53 51 51 53 53 5 5 52 52 1 1 54 54 52 52 54 54 53 53 53 53 54 54 55 55 53 53 55 55 5 5 54 54 1 1 56 56 54 54 56 56 55 55 55 55 56 56 57 57 55 55 57 57 5 5 56 56 1 1 58 58 56 56 58 58 57 57 57 57 58 58 59 59 57 57 59 59 5 5 58 58 1 1 60 60 58 58 60 60 59 59 59 59 60 60 61 61 59 59 61 61 5 5 60 60 1 1 62 62 60 60 62 62 61 61 61 61 62 62 63 63 61 61 63 63 5 5 62 62 1 1 64 64 62 62 64 64 63 63 63 63 64 64 65 65 63 63 65 65 5 5 64 64 1 1 0 0 64 64 0 0 65 65 65 65 0 0 3 3 65 65 3 3 5 5 66 66 67 67 68 68 66 66 68 68 69 69 69 69 68 68 70 70 69 69 70 70 71 71 68 68 67 67 72 72 68 68 72 72 70 70 70 70 72 72 73 73 70 70 73 73 71 71 72 72 67 67 74 74 72 72 74 74 73 73 73 73 74 74 75 75 73 73 75 75 71 71 74 74 67 67 76 76 74 74 76 76 75 75 75 75 76 76 77 77 75 75 77 77 71 71 76 76 67 67 78 78 76 76 78 78 77 77 77 77 78 78 79 79 77 77 79 79 71 71 78 78 67 67 80 80 78 78 80 80 79 79 79 79 80 80 81 81 79 79 81 81 71 71 80 80 67 67 82 82 80 80 82 82 81 81 81 81 82 82 83 83 81 81 83 83 71 71 82 82 67 67 84 84 82 82 84 84 83 83 83 83 84 84 85 85 83 83 85 85 71 71 84 84 67 67 86 86 84 84 86 86 85 85 85 85 86 86 87 87 85 85 87 87 71 71 86 86 67 67 88 88 86 86 88 88 87 87 87 87 88 88 89 89 87 87 89 89 71 71 88 88 67 67 90 90 88 88 90 90 89 89 89 89 90 90 91 91 89 89 91 91 71 71 90 90 67 67 92 92 90 90 92 92 91 91 91 91 92 92 93 93 91 91 93 93 71 71 92 92 67 67 94 94 92 92 94 94 93 93 93 93 94 94 95 95 93 93 95 95 71 71 94 94 67 67 96 96 94 94 96 96 95 95 95 95 96 96 97 97 95 95 97 97 71 71 96 96 67 67 98 98 96 96 98 98 97 97 97 97 98 98 99 99 97 97 99 99 71 71 98 98 67 67 100 100 98 98 100 100 99 99 99 99 100 100 101 101 99 99 101 101 71 71 100 100 67 67 102 102 100 100 102 102 101 101 101 101 102 102 103 103 101 101 103 103 71 71 102 102 67 67 104 104 102 102 104 104 103 103 103 103 104 104 105 105 103 103 105 105 71 71 104 104 67 67 106 106 104 104 106 106 105 105 105 105 106 106 107 107 105 105 107 107 71 71 106 106 67 67 108 108 106 106 108 108 107 107 107 107 108 108 109 109 107 107 109 109 71 71 108 108 67 67 110 110 108 108 110 110 109 109 109 109 110 110 111 111 109 109 111 111 71 71 110 110 67 67 112 112 110 110 112 112 111 111 111 111 112 112 113 113 111 111 113 113 71 71 112 112 67 67 114 114 112 112 114 114 113 113 113 113 114 114 115 115 113 113 115 115 71 71 114 114 67 67 116 116 114 114 116 116 115 115 115 115 116 116 117 117 115 115 117 117 71 71 116 116 67 67 118 118 116 116 118 118 117 117 117 117 118 118 119 119 117 117 119 119 71 71 118 118 67 67 120 120 118 118 120 120 119 119 119 119 120 120 121 121 119 119 121 121 71 71 120 120 67 67 122 122 120 120 122 122 121 121 121 121 122 122 123 123 121 121 123 123 71 71 122 122 67 67 124 124 122 122 124 124 123 123 123 123 124 124 125 125 123 123 125 125 71 71 124 124 67 67 126 126 124 124 126 126 125 125 125 125 126 126 127 127 125 125 127 127 71 71 126 126 67 67 128 128 126 126 128 128 127 127 127 127 128 128 129 129 127 127 129 129 71 71 128 128 67 67 130 130 128 128 130 130 129 129 129 129 130 130 131 131 129 129 131 131 71 71 130 130 67 67 66 66 130 130 66 66 131 131 131 131 66 66 69 69 131 131 69 69 71 71 132 132 133 133 134 134 132 132 134 134 135 135 135 135 134 134 136 136 135 135 136 136 137 137 134 134 133 133 138 138 134 134 138 138 136 136 136 136 138 138 139 139 136 136 139 139 137 137 138 138 133 133 140 140 138 138 140 140 139 139 139 139 140 140 141 141 139 139 141 141 137 137 140 140 133 133 142 142 140 140 142 142 141 141 141 141 142 142 143 143 141 141 143 143 137 137 142 142 133 133 144 144 142 142 144 144 143 143 143 143 144 144 145 145 143 143 145 145 137 137 144 144 133 133 146 146 144 144 146 146 145 145 145 145 146 146 147 147 145 145 147 147 137 137 146 146 133 133 148 148 146 146 148 148 147 147 147 147 148 148 149 149 147 147 149 149 137 137 148 148 133 133 150 150 148 148 150 150 149 149 149 149 150 150 151 151 149 149 151 151 137 137 150 150 133 133 152 152 150 150 152 152 151 151 151 151 152 152 153 153 151 151 153 153 137 137 152 152 133 133 154 154 152 152 154 154 153 153 153 153 154 154 155 155 153 153 155 155 137 137 154 154 133 133 156 156 154 154 156 156 155 155 155 155 156 156 157 157 155 155 157 157 137 137 156 156 133 133 158 158 156 156 158 158 157 157 157 157 158 158 159 159 157 157 159 159 137 137 158 158 133 133 160 160 158 158 160 160 159 159 159 159 160 160 161 161 159 159 161 161 137 137 160 160 133 133 162 162 160 160 162 162 161 161 161 161 162 162 163 163 161 161 163 163 137 137 162 162 133 133 164 164 162 162 164 164 163 163 163 163 164 164 165 165 163 163 165 165 137 137 164 164 133 133 166 166 164 164 166 166 165 165 165 165 166 166 167 167 165 165 167 167 137 137 166 166 133 133 168 168 166 166 168 168 167 167 167 167 168 168 169 169 167 167 169 169 137 137 168 168 133 133 170 170 168 168 170 170 169 169 169 169 170 170 171 171 169 169 171 171 137 137 170 170 133 133 172 172 170 170 172 172 171 171 171 171 172 172 173 173 171 171 173 173 137 137 172 172 133 133 174 174 172 172 174 174 173 173 173 173 174 174 175 175 173 173 175 175 137 137 174 174 133 133 176 176 174 174 176 176 175 175 175 175 176 176 177 177 175 175 177 177 137 137 176 176 133 133 178 178 176 176 178 178 177 177 177 177 178 178 179 179 177 177 179 179 137 137 178 178 133 133 180 180 178 178 180 180 179 179 179 179 180 180 181 181 179 179 181 181 137 137 180 180 133 133 182 182 180 180 182 182 181 181 181 181 182 182 183 183 181 181 183 183 137 137 182 182 133 133 184 184 182 182 184 184 183 183 183 183 184 184 185 185 183 183 185 185 137 137 184 184 133 133 186 186 184 184 186 186 185 185 185 185 186 186 187 187 185 185 187 187 137 137 186 186 133 133 188 188 186 186 188 188 187 187 187 187 188 188 189 189 187 187 189 189 137 137 188 188 133 133 190 190 188 188 190 190 189 189 189 189 190 190 191 191 189 189 191 191 137 137 190 190 133 133 192 192 190 190 192 192 191 191 191 191 192 192 193 193 191 191 193 193 137 137 192 192 133 133 194 194 192 192 194 194 193 193 193 193 194 194 195 195 193 193 195 195 137 137 194 194 133 133 196 196 194 194 196 196 195 195 195 195 196 196 197 197 195 195 197 197 137 137 196 196 133 133 132 132 196 196 132 132 197 197 197 197 132 132 135 135 197 197 135 135 137 137 198 198 199 199 200 200 201 201 198 198 200 200 200 200 199 199 202 202 202 202 201 201 200 200 198 198 203 203 199 199 204 204 198 198 201 201 204 204 203 203 198 198 199 199 203 203 202 202 205 205 201 201 202 202 202 202 203 203 205 205 205 205 204 204 201 201 203 203 204 204 205 205 206 206 207 207 208 208 209 209 206 206 208 208 208 208 207 207 210 210 210 210 209 209 208 208 206 206 211 211 207 207 212 212 206 206 209 209 212 212 211 211 206 206 207 207 211 211 210 210 213 213 209 209 210 210 210 210 211 211 213 213 213 213 212 212 209 209 211 211 212 212 213 213 214 214 215 215 216 216 217 217 214 214 216 216 216 216 215 215 218 218 218 218 217 217 216 216 214 214 219 219 215 215 220 220 214 214 217 217 220 220 219 219 214 214 215 215 219 219 218 218 221 221 217 217 218 218 218 218 219 219 221 221 221 221 220 220 217 217 219 219 220 220 221 221 222 222 223 223 224 224 225 225 222 222 224 224 224 224 223 223 226 226 226 226 225 225 224 224 222 222 227 227 223 223 228 228 222 222 225 225 228 228 227 227 222 222 223 223 227 227 226 226 229 229 225 225 226 226 226 226 227 227 229 229 229 229 228 228 225 225 227 227 228 228 229 229 230 230 231 231 232 232 233 233 230 230 232 232 232 232 231 231 234 234 234 234 233 233 232 232 230 230 235 235 231 231 236 236 230 230 233 233 236 236 235 235 230 230 231 231 235 235 234 234 237 237 233 233 234 234 234 234 235 235 237 237 237 237 236 236 233 233 235 235 236 236 237 237 238 238 239 239 240 240 241 241 238 238 240 240 240 240 239 239 242 242 242 242 241 241 240 240 238 238 243 243 239 239 244 244 238 238 241 241 244 244 243 243 238 238 239 239 243 243 242 242 245 245 241 241 242 242 242 242 243 243 245 245 245 245 244 244 241 241 243 243 244 244 245 245 246 246 247 247 248 248 249 249 246 246 248 248 248 248 247 247 250 250 250 250 249 249 248 248 246 246 251 251 247 247 252 252 246 246 249 249 252 252 251 251 246 246 247 247 251 251 250 250 253 253 249 249 250 250 250 250 251 251 253 253 253 253 252 252 249 249 251 251 252 252 253 253 254 254 255 255 256 256 257 257 254 254 256 256 256 256 255 255 258 258 258 258 257 257 256 256 254 254 259 259 255 255 260 260 254 254 257 257 260 260 259 259 254 254 255 255 259 259 258 258 261 261 257 257 258 258 258 258 259 259 261 261 261 261 260 260 257 257 259 259 260 260 261 261 262 262 263 263 264 264 265 265 262 262 264 264 264 264 263 263 266 266 266 266 265 265 264 264 262 262 267 267 263 263 268 268 262 262 265 265 268 268 267 267 262 262 263 263 267 267 266 266 269 269 265 265 266 266 266 266 267 267 269 269 269 269 268 268 265 265 267 267 268 268 269 269 270 270 271 271 272 272 273 273 270 270 272 272 272 272 271 271 274 274 274 274 273 273 272 272 270 270 275 275 271 271 276 276 270 270 273 273 276 276 275 275 270 270 271 271 275 275 274 274 277 277 273 273 274 274 274 274 275 275 277 277 277 277 276 276 273 273 275 275 276 276 277 277 278 278 279 279 280 280 281 281 278 278 280 280 280 280 279 279 282 282 282 282 281 281 280 280 278 278 283 283 279 279 284 284 278 278 281 281 284 284 283 283 278 278 279 279 283 283 282 282 285 285 281 281 282 282 282 282 283 283 285 285 285 285 284 284 281 281 283 283 284 284 285 285 286 286 287 287 288 288 289 289 286 286 288 288 288 288 287 287 290 290 290 290 289 289 288 288 286 286 291 291 287 287 292 292 286 286 289 289 292 292 291 291 286 286 287 287 291 291 290 290 293 293 289 289 290 290 290 290 291 291 293 293 293 293 292 292 289 289 291 291 292 292 293 293 294 294 295 295 296 296 297 297 294 294 296 296 296 296 295 295 298 298 298 298 297 297 296 296 294 294 299 299 295 295 300 300 294 294 297 297 300 300 299 299 294 294 295 295 299 299 298 298 301 301 297 297 298 298 298 298 299 299 301 301 301 301 300 300 297 297 299 299 300 300 301 301 302 302 303 303 304 304 305 305 302 302 304 304 304 304 303 303 306 306 306 306 305 305 304 304 302 302 307 307 303 303 308 308 302 302 305 305 308 308 307 307 302 302 303 303 307 307 306 306 309 309 305 305 306 306 306 306 307 307 309 309 309 309 308 308 305 305 307 307 308 308 309 309</p>
        </triangles>
      </mesh>
    </geometry>
  </library_geometries>
  <library_materials>
    <material id="0ac0f06709594a76a3906280d585bf25" name="defaultmaterial">
      <instance_effect url="#3c422fe4ee0045639e8f55af84a19989" />
    </material>
  </library_materials>
  <library_visual_scenes>
    <visual_scene id="scene">
      <node id="node0" name="node0">
        <instance_geometry url="#02bfc63f754b43d186ff062b31991981">
          <bind_material>
            <technique_common>
              <instance_material symbol="material0" target="#0ac0f06709594a76a3906280d585bf25" />
            </technique_common>
          </bind_material>
        </instance_geometry>
      </node>
    </visual_scene>
  </library_visual_scenes>
  <scene>
    <instance_visual_scene url="#scene" />
  </scene>
</COLLADA>
