# https://github.com/mikedh/trimesh
v -0.17000000 -0.02750000 0.08100000
v -0.17000000 0.02750000 0.08100000
v -0.17000000 -0.02750000 0.06500000
v 0.17000000 -0.02750000 0.06500000
v -0.17000000 0.02750000 0.06500000
v 0.17000000 0.02750000 0.08100000
v 0.17000000 -0.02750000 0.08100000
v 0.17000000 0.02750000 0.06500000
v -0.17000000 -0.02750000 -0.06500000
v -0.17000000 0.02750000 -0.06500000
v -0.17000000 -0.02750000 -0.08100000
v 0.17000000 -0.02750000 -0.08100000
v -0.17000000 0.02750000 -0.08100000
v 0.17000000 0.02750000 -0.06500000
v 0.17000000 -0.02750000 -0.06500000
v 0.17000000 0.02750000 -0.08100000
v 0.25099999 0.02750000 -0.00000000
v 0.17000000 0.02750000 -0.00000000
v 0.24944361 0.02750000 0.01580232
v 0.25099999 -0.02750000 0.00000000
v 0.24944361 -0.02750000 0.01580232
v 0.17000000 -0.02750000 0.00000000
v 0.24483424 0.02750000 0.03099736
v 0.24483424 -0.02750000 0.03099736
v 0.23734903 0.02750000 0.04500119
v 0.23734903 -0.02750000 0.04500119
v 0.22727565 0.02750000 0.05727565
v 0.22727565 -0.02750000 0.05727565
v 0.21500120 0.02750000 0.06734904
v 0.21500120 -0.02750000 0.06734904
v 0.20099735 0.02750000 0.07483424
v 0.20099735 -0.02750000 0.07483424
v 0.18580231 0.02750000 0.07944361
v 0.18580231 -0.02750000 0.07944361
v 0.15419768 0.02750000 0.07944361
v 0.15419768 -0.02750000 0.07944361
v 0.13900264 0.02750000 0.07483424
v 0.13900264 -0.02750000 0.07483424
v 0.12499881 0.02750000 0.06734904
v 0.12499881 -0.02750000 0.06734904
v 0.11272435 0.02750000 0.05727565
v 0.11272435 -0.02750000 0.05727565
v 0.10265096 0.02750000 0.04500119
v 0.10265096 -0.02750000 0.04500119
v 0.09516576 0.02750000 0.03099736
v 0.09516576 -0.02750000 0.03099736
v 0.09055639 0.02750000 0.01580232
v 0.09055639 -0.02750000 0.01580232
v 0.08900000 0.02750000 0.00000000
v 0.08900000 -0.02750000 0.00000000
v 0.09055639 0.02750000 -0.01580232
v 0.09055639 -0.02750000 -0.01580232
v 0.09516576 0.02750000 -0.03099736
v 0.09516576 -0.02750000 -0.03099736
v 0.10265096 0.02750000 -0.04500119
v 0.10265096 -0.02750000 -0.04500119
v 0.11272435 0.02750000 -0.05727565
v 0.11272435 -0.02750000 -0.05727565
v 0.12499881 0.02750000 -0.06734904
v 0.12499881 -0.02750000 -0.06734904
v 0.13900264 0.02750000 -0.07483424
v 0.13900264 -0.02750000 -0.07483424
v 0.15419768 0.02750000 -0.07944361
v 0.15419768 -0.02750000 -0.07944361
v 0.18580231 0.02750000 -0.07944361
v 0.18580231 -0.02750000 -0.07944361
v 0.20099735 0.02750000 -0.07483424
v 0.20099735 -0.02750000 -0.07483424
v 0.21500120 0.02750000 -0.06734904
v 0.21500120 -0.02750000 -0.06734904
v 0.22727565 0.02750000 -0.05727565
v 0.22727565 -0.02750000 -0.05727565
v 0.23734903 0.02750000 -0.04500119
v 0.23734903 -0.02750000 -0.04500119
v 0.24483424 0.02750000 -0.03099736
v 0.24483424 -0.02750000 -0.03099736
v 0.24944361 0.02750000 -0.01580232
v 0.24944361 -0.02750000 -0.01580232
v -0.08900000 0.02750000 -0.00000000
v -0.17000000 0.02750000 -0.00000000
v -0.09055639 0.02750000 0.01580232
v -0.08900000 -0.02750000 0.00000000
v -0.09055639 -0.02750000 0.01580232
v -0.17000000 -0.02750000 0.00000000
v -0.09516576 0.02750000 0.03099736
v -0.09516576 -0.02750000 0.03099736
v -0.10265096 0.02750000 0.04500119
v -0.10265096 -0.02750000 0.04500119
v -0.11272435 0.02750000 0.05727565
v -0.11272435 -0.02750000 0.05727565
v -0.12499881 0.02750000 0.06734904
v -0.12499881 -0.02750000 0.06734904
v -0.13900264 0.02750000 0.07483424
v -0.13900264 -0.02750000 0.07483424
v -0.15419768 0.02750000 0.07944361
v -0.15419768 -0.02750000 0.07944361
v -0.18580231 0.02750000 0.07944361
v -0.18580231 -0.02750000 0.07944361
v -0.20099735 0.02750000 0.07483424
v -0.20099735 -0.02750000 0.07483424
v -0.21500120 0.02750000 0.06734904
v -0.21500120 -0.02750000 0.06734904
v -0.22727565 0.02750000 0.05727565
v -0.22727565 -0.02750000 0.05727565
v -0.23734903 0.02750000 0.04500119
v -0.23734903 -0.02750000 0.04500119
v -0.24483424 0.02750000 0.03099736
v -0.24483424 -0.02750000 0.03099736
v -0.24944361 0.02750000 0.01580232
v -0.24944361 -0.02750000 0.01580232
v -0.25099999 0.02750000 0.00000000
v -0.25099999 -0.02750000 0.00000000
v -0.24944361 0.02750000 -0.01580232
v -0.24944361 -0.02750000 -0.01580232
v -0.24483424 0.02750000 -0.03099736
v -0.24483424 -0.02750000 -0.03099736
v -0.23734903 0.02750000 -0.04500119
v -0.23734903 -0.02750000 -0.04500119
v -0.22727565 0.02750000 -0.05727565
v -0.22727565 -0.02750000 -0.05727565
v -0.21500120 0.02750000 -0.06734904
v -0.21500120 -0.02750000 -0.06734904
v -0.20099735 0.02750000 -0.07483424
v -0.20099735 -0.02750000 -0.07483424
v -0.18580231 0.02750000 -0.07944361
v -0.18580231 -0.02750000 -0.07944361
v -0.15419768 0.02750000 -0.07944361
v -0.15419768 -0.02750000 -0.07944361
v -0.13900264 0.02750000 -0.07483424
v -0.13900264 -0.02750000 -0.07483424
v -0.12499881 0.02750000 -0.06734904
v -0.12499881 -0.02750000 -0.06734904
v -0.11272435 0.02750000 -0.05727565
v -0.11272435 -0.02750000 -0.05727565
v -0.10265096 0.02750000 -0.04500119
v -0.10265096 -0.02750000 -0.04500119
v -0.09516576 0.02750000 -0.03099736
v -0.09516576 -0.02750000 -0.03099736
v -0.09055639 0.02750000 -0.01580232
v -0.09055639 -0.02750000 -0.01580232
v -0.17399999 -0.02887500 0.08600000
v -0.17399999 0.02887500 0.08600000
v -0.17399999 -0.02887500 0.08100000
v -0.16599999 -0.02887500 0.08100000
v -0.17399999 0.02887500 0.08100000
v -0.16599999 0.02887500 0.08600000
v -0.16599999 -0.02887500 0.08600000
v -0.16599999 0.02887500 0.08100000
v -0.17399999 -0.02887500 -0.08100000
v -0.17399999 0.02887500 -0.08100000
v -0.17399999 -0.02887500 -0.08600000
v -0.16599999 -0.02887500 -0.08600000
v -0.17399999 0.02887500 -0.08600000
v -0.16599999 0.02887500 -0.08100000
v -0.16599999 -0.02887500 -0.08100000
v -0.16599999 0.02887500 -0.08600000
v -0.15400000 -0.02887500 0.08600000
v -0.15400000 0.02887500 0.08600000
v -0.15400000 -0.02887500 0.08100000
v -0.14600000 -0.02887500 0.08100000
v -0.15400000 0.02887500 0.08100000
v -0.14600000 0.02887500 0.08600000
v -0.14600000 -0.02887500 0.08600000
v -0.14600000 0.02887500 0.08100000
v -0.15400000 -0.02887500 -0.08100000
v -0.15400000 0.02887500 -0.08100000
v -0.15400000 -0.02887500 -0.08600000
v -0.14600000 -0.02887500 -0.08600000
v -0.15400000 0.02887500 -0.08600000
v -0.14600000 0.02887500 -0.08100000
v -0.14600000 -0.02887500 -0.08100000
v -0.14600000 0.02887500 -0.08600000
v -0.13400000 -0.02887500 0.08600000
v -0.13400000 0.02887500 0.08600000
v -0.13400000 -0.02887500 0.08100000
v -0.12600000 -0.02887500 0.08100000
v -0.13400000 0.02887500 0.08100000
v -0.12600000 0.02887500 0.08600000
v -0.12600000 -0.02887500 0.08600000
v -0.12600000 0.02887500 0.08100000
v -0.13400000 -0.02887500 -0.08100000
v -0.13400000 0.02887500 -0.08100000
v -0.13400000 -0.02887500 -0.08600000
v -0.12600000 -0.02887500 -0.08600000
v -0.13400000 0.02887500 -0.08600000
v -0.12600000 0.02887500 -0.08100000
v -0.12600000 -0.02887500 -0.08100000
v -0.12600000 0.02887500 -0.08600000
v -0.11400000 -0.02887500 0.08600000
v -0.11400000 0.02887500 0.08600000
v -0.11400000 -0.02887500 0.08100000
v -0.10600000 -0.02887500 0.08100000
v -0.11400000 0.02887500 0.08100000
v -0.10600000 0.02887500 0.08600000
v -0.10600000 -0.02887500 0.08600000
v -0.10600000 0.02887500 0.08100000
v -0.11400000 -0.02887500 -0.08100000
v -0.11400000 0.02887500 -0.08100000
v -0.11400000 -0.02887500 -0.08600000
v -0.10600000 -0.02887500 -0.08600000
v -0.11400000 0.02887500 -0.08600000
v -0.10600000 0.02887500 -0.08100000
v -0.10600000 -0.02887500 -0.08100000
v -0.10600000 0.02887500 -0.08600000
v -0.09400000 -0.02887500 0.08600000
v -0.09400000 0.02887500 0.08600000
v -0.09400000 -0.02887500 0.08100000
v -0.08600000 -0.02887500 0.08100000
v -0.09400000 0.02887500 0.08100000
v -0.08600000 0.02887500 0.08600000
v -0.08600000 -0.02887500 0.08600000
v -0.08600000 0.02887500 0.08100000
v -0.09400000 -0.02887500 -0.08100000
v -0.09400000 0.02887500 -0.08100000
v -0.09400000 -0.02887500 -0.08600000
v -0.08600000 -0.02887500 -0.08600000
v -0.09400000 0.02887500 -0.08600000
v -0.08600000 0.02887500 -0.08100000
v -0.08600000 -0.02887500 -0.08100000
v -0.08600000 0.02887500 -0.08600000
v -0.07400000 -0.02887500 0.08600000
v -0.07400000 0.02887500 0.08600000
v -0.07400000 -0.02887500 0.08100000
v -0.06600000 -0.02887500 0.08100000
v -0.07400000 0.02887500 0.08100000
v -0.06600000 0.02887500 0.08600000
v -0.06600000 -0.02887500 0.08600000
v -0.06600000 0.02887500 0.08100000
v -0.07400000 -0.02887500 -0.08100000
v -0.07400000 0.02887500 -0.08100000
v -0.07400000 -0.02887500 -0.08600000
v -0.06600000 -0.02887500 -0.08600000
v -0.07400000 0.02887500 -0.08600000
v -0.06600000 0.02887500 -0.08100000
v -0.06600000 -0.02887500 -0.08100000
v -0.06600000 0.02887500 -0.08600000
v -0.05400000 -0.02887500 0.08600000
v -0.05400000 0.02887500 0.08600000
v -0.05400000 -0.02887500 0.08100000
v -0.04600000 -0.02887500 0.08100000
v -0.05400000 0.02887500 0.08100000
v -0.04600000 0.02887500 0.08600000
v -0.04600000 -0.02887500 0.08600000
v -0.04600000 0.02887500 0.08100000
v -0.05400000 -0.02887500 -0.08100000
v -0.05400000 0.02887500 -0.08100000
v -0.05400000 -0.02887500 -0.08600000
v -0.04600000 -0.02887500 -0.08600000
v -0.05400000 0.02887500 -0.08600000
v -0.04600000 0.02887500 -0.08100000
v -0.04600000 -0.02887500 -0.08100000
v -0.04600000 0.02887500 -0.08600000
v -0.03400000 -0.02887500 0.08600000
v -0.03400000 0.02887500 0.08600000
v -0.03400000 -0.02887500 0.08100000
v -0.02600000 -0.02887500 0.08100000
v -0.03400000 0.02887500 0.08100000
v -0.02600000 0.02887500 0.08600000
v -0.02600000 -0.02887500 0.08600000
v -0.02600000 0.02887500 0.08100000
v -0.03400000 -0.02887500 -0.08100000
v -0.03400000 0.02887500 -0.08100000
v -0.03400000 -0.02887500 -0.08600000
v -0.02600000 -0.02887500 -0.08600000
v -0.03400000 0.02887500 -0.08600000
v -0.02600000 0.02887500 -0.08100000
v -0.02600000 -0.02887500 -0.08100000
v -0.02600000 0.02887500 -0.08600000
v -0.01400000 -0.02887500 0.08600000
v -0.01400000 0.02887500 0.08600000
v -0.01400000 -0.02887500 0.08100000
v -0.00600000 -0.02887500 0.08100000
v -0.01400000 0.02887500 0.08100000
v -0.00600000 0.02887500 0.08600000
v -0.00600000 -0.02887500 0.08600000
v -0.00600000 0.02887500 0.08100000
v -0.01400000 -0.02887500 -0.08100000
v -0.01400000 0.02887500 -0.08100000
v -0.01400000 -0.02887500 -0.08600000
v -0.00600000 -0.02887500 -0.08600000
v -0.01400000 0.02887500 -0.08600000
v -0.00600000 0.02887500 -0.08100000
v -0.00600000 -0.02887500 -0.08100000
v -0.00600000 0.02887500 -0.08600000
v 0.00600000 -0.02887500 0.08600000
v 0.00600000 0.02887500 0.08600000
v 0.00600000 -0.02887500 0.08100000
v 0.01400000 -0.02887500 0.08100000
v 0.00600000 0.02887500 0.08100000
v 0.01400000 0.02887500 0.08600000
v 0.01400000 -0.02887500 0.08600000
v 0.01400000 0.02887500 0.08100000
v 0.00600000 -0.02887500 -0.08100000
v 0.00600000 0.02887500 -0.08100000
v 0.00600000 -0.02887500 -0.08600000
v 0.01400000 -0.02887500 -0.08600000
v 0.00600000 0.02887500 -0.08600000
v 0.01400000 0.02887500 -0.08100000
v 0.01400000 -0.02887500 -0.08100000
v 0.01400000 0.02887500 -0.08600000
v 0.02600000 -0.02887500 0.08600000
v 0.02600000 0.02887500 0.08600000
v 0.02600000 -0.02887500 0.08100000
v 0.03400000 -0.02887500 0.08100000
v 0.02600000 0.02887500 0.08100000
v 0.03400000 0.02887500 0.08600000
v 0.03400000 -0.02887500 0.08600000
v 0.03400000 0.02887500 0.08100000
v 0.02600000 -0.02887500 -0.08100000
v 0.02600000 0.02887500 -0.08100000
v 0.02600000 -0.02887500 -0.08600000
v 0.03400000 -0.02887500 -0.08600000
v 0.02600000 0.02887500 -0.08600000
v 0.03400000 0.02887500 -0.08100000
v 0.03400000 -0.02887500 -0.08100000
v 0.03400000 0.02887500 -0.08600000
v 0.04600000 -0.02887500 0.08600000
v 0.04600000 0.02887500 0.08600000
v 0.04600000 -0.02887500 0.08100000
v 0.05400000 -0.02887500 0.08100000
v 0.04600000 0.02887500 0.08100000
v 0.05400000 0.02887500 0.08600000
v 0.05400000 -0.02887500 0.08600000
v 0.05400000 0.02887500 0.08100000
v 0.04600000 -0.02887500 -0.08100000
v 0.04600000 0.02887500 -0.08100000
v 0.04600000 -0.02887500 -0.08600000
v 0.05400000 -0.02887500 -0.08600000
v 0.04600000 0.02887500 -0.08600000
v 0.05400000 0.02887500 -0.08100000
v 0.05400000 -0.02887500 -0.08100000
v 0.05400000 0.02887500 -0.08600000
v 0.06600000 -0.02887500 0.08600000
v 0.06600000 0.02887500 0.08600000
v 0.06600000 -0.02887500 0.08100000
v 0.07400000 -0.02887500 0.08100000
v 0.06600000 0.02887500 0.08100000
v 0.07400000 0.02887500 0.08600000
v 0.07400000 -0.02887500 0.08600000
v 0.07400000 0.02887500 0.08100000
v 0.06600000 -0.02887500 -0.08100000
v 0.06600000 0.02887500 -0.08100000
v 0.06600000 -0.02887500 -0.08600000
v 0.07400000 -0.02887500 -0.08600000
v 0.06600000 0.02887500 -0.08600000
v 0.07400000 0.02887500 -0.08100000
v 0.07400000 -0.02887500 -0.08100000
v 0.07400000 0.02887500 -0.08600000
v 0.08600000 -0.02887500 0.08600000
v 0.08600000 0.02887500 0.08600000
v 0.08600000 -0.02887500 0.08100000
v 0.09400000 -0.02887500 0.08100000
v 0.08600000 0.02887500 0.08100000
v 0.09400000 0.02887500 0.08600000
v 0.09400000 -0.02887500 0.08600000
v 0.09400000 0.02887500 0.08100000
v 0.08600000 -0.02887500 -0.08100000
v 0.08600000 0.02887500 -0.08100000
v 0.08600000 -0.02887500 -0.08600000
v 0.09400000 -0.02887500 -0.08600000
v 0.08600000 0.02887500 -0.08600000
v 0.09400000 0.02887500 -0.08100000
v 0.09400000 -0.02887500 -0.08100000
v 0.09400000 0.02887500 -0.08600000
v 0.10600000 -0.02887500 0.08600000
v 0.10600000 0.02887500 0.08600000
v 0.10600000 -0.02887500 0.08100000
v 0.11400000 -0.02887500 0.08100000
v 0.10600000 0.02887500 0.08100000
v 0.11400000 0.02887500 0.08600000
v 0.11400000 -0.02887500 0.08600000
v 0.11400000 0.02887500 0.08100000
v 0.10600000 -0.02887500 -0.08100000
v 0.10600000 0.02887500 -0.08100000
v 0.10600000 -0.02887500 -0.08600000
v 0.11400000 -0.02887500 -0.08600000
v 0.10600000 0.02887500 -0.08600000
v 0.11400000 0.02887500 -0.08100000
v 0.11400000 -0.02887500 -0.08100000
v 0.11400000 0.02887500 -0.08600000
v 0.12600000 -0.02887500 0.08600000
v 0.12600000 0.02887500 0.08600000
v 0.12600000 -0.02887500 0.08100000
v 0.13400000 -0.02887500 0.08100000
v 0.12600000 0.02887500 0.08100000
v 0.13400000 0.02887500 0.08600000
v 0.13400000 -0.02887500 0.08600000
v 0.13400000 0.02887500 0.08100000
v 0.12600000 -0.02887500 -0.08100000
v 0.12600000 0.02887500 -0.08100000
v 0.12600000 -0.02887500 -0.08600000
v 0.13400000 -0.02887500 -0.08600000
v 0.12600000 0.02887500 -0.08600000
v 0.13400000 0.02887500 -0.08100000
v 0.13400000 -0.02887500 -0.08100000
v 0.13400000 0.02887500 -0.08600000
v 0.14600000 -0.02887500 0.08600000
v 0.14600000 0.02887500 0.08600000
v 0.14600000 -0.02887500 0.08100000
v 0.15400000 -0.02887500 0.08100000
v 0.14600000 0.02887500 0.08100000
v 0.15400000 0.02887500 0.08600000
v 0.15400000 -0.02887500 0.08600000
v 0.15400000 0.02887500 0.08100000
v 0.14600000 -0.02887500 -0.08100000
v 0.14600000 0.02887500 -0.08100000
v 0.14600000 -0.02887500 -0.08600000
v 0.15400000 -0.02887500 -0.08600000
v 0.14600000 0.02887500 -0.08600000
v 0.15400000 0.02887500 -0.08100000
v 0.15400000 -0.02887500 -0.08100000
v 0.15400000 0.02887500 -0.08600000
v 0.16599999 -0.02887500 0.08600000
v 0.16599999 0.02887500 0.08600000
v 0.16599999 -0.02887500 0.08100000
v 0.17399999 -0.02887500 0.08100000
v 0.16599999 0.02887500 0.08100000
v 0.17399999 0.02887500 0.08600000
v 0.17399999 -0.02887500 0.08600000
v 0.17399999 0.02887500 0.08100000
v 0.16599999 -0.02887500 -0.08100000
v 0.16599999 0.02887500 -0.08100000
v 0.16599999 -0.02887500 -0.08600000
v 0.17399999 -0.02887500 -0.08600000
v 0.16599999 0.02887500 -0.08600000
v 0.17399999 0.02887500 -0.08100000
v 0.17399999 -0.02887500 -0.08100000
v 0.17399999 0.02887500 -0.08600000
vn -0.23435253 -0.67376358 0.70080064
vn -0.23435253 0.67376358 0.70080064
vn -0.57735027 -0.57735027 -0.57735027
vn 0.57735027 -0.57735027 -0.57735027
vn -0.57735027 0.57735027 -0.57735027
vn 0.23435253 0.67376358 0.70080064
vn 0.23435253 -0.67376358 0.70080064
vn 0.57735027 0.57735027 -0.57735027
vn -0.57735027 -0.57735027 0.57735027
vn -0.57735027 0.57735027 0.57735027
vn -0.23435253 -0.67376358 -0.70080064
vn 0.23435253 -0.67376358 -0.70080064
vn -0.23435253 0.67376358 -0.70080064
vn 0.57735027 0.57735027 0.57735027
vn 0.57735027 -0.57735027 0.57735027
vn 0.23435253 0.67376358 -0.70080064
vn 0.72788745 0.68569662 -0.00000000
vn 0.00000000 1.00000000 -0.00000000
vn 0.71390151 0.68569640 0.14200383
vn 0.72788745 -0.68569662 0.00000000
vn 0.71390151 -0.68569640 0.14200383
vn 0.00000000 -1.00000000 0.00000000
vn 0.67248054 0.68569637 0.27855055
vn 0.67248054 -0.68569637 0.27855055
vn 0.60521635 0.68569655 0.40439263
vn 0.60521635 -0.68569655 0.40439263
vn 0.51469429 0.68569641 0.51469429
vn 0.51469429 -0.68569641 0.51469429
vn 0.40439272 0.68569640 0.60521648
vn 0.40439272 -0.68569640 0.60521648
vn 0.27855050 0.68569651 0.67248042
vn 0.27855050 -0.68569651 0.67248042
vn 0.14200383 0.68569641 0.71390150
vn 0.14200383 -0.68569641 0.71390150
vn -0.14200383 0.68569640 0.71390151
vn -0.14200383 -0.68569640 0.71390151
vn -0.27855052 0.68569646 0.67248046
vn -0.27855052 -0.68569646 0.67248046
vn -0.40439269 0.68569645 0.60521643
vn -0.40439269 -0.68569645 0.60521643
vn -0.51469426 0.68569646 0.51469426
vn -0.51469426 -0.68569646 0.51469426
vn -0.60521643 0.68569646 0.40439268
vn -0.60521643 -0.68569646 0.40439268
vn -0.67248045 0.68569647 0.27855051
vn -0.67248045 -0.68569647 0.27855051
vn -0.71390150 0.68569640 0.14200383
vn -0.71390150 -0.68569640 0.14200383
vn -0.72788756 0.68569651 0.00000000
vn -0.72788756 -0.68569651 -0.00000000
vn -0.71390150 0.68569640 -0.14200383
vn -0.71390150 -0.68569640 -0.14200383
vn -0.67248045 0.68569647 -0.27855051
vn -0.67248045 -0.68569647 -0.27855051
vn -0.60521643 0.68569646 -0.40439268
vn -0.60521643 -0.68569646 -0.40439268
vn -0.51469426 0.68569646 -0.51469426
vn -0.51469426 -0.68569646 -0.51469426
vn -0.40439269 0.68569645 -0.60521643
vn -0.40439269 -0.68569645 -0.60521643
vn -0.27855052 0.68569646 -0.67248046
vn -0.27855052 -0.68569646 -0.67248046
vn -0.14200383 0.68569640 -0.71390151
vn -0.14200383 -0.68569640 -0.71390151
vn 0.14200383 0.68569641 -0.71390150
vn 0.14200383 -0.68569641 -0.71390150
vn 0.27855050 0.68569651 -0.67248042
vn 0.27855050 -0.68569651 -0.67248042
vn 0.40439272 0.68569640 -0.60521648
vn 0.40439272 -0.68569640 -0.60521648
vn 0.51469429 0.68569641 -0.51469429
vn 0.51469429 -0.68569641 -0.51469429
vn 0.60521635 0.68569655 -0.40439263
vn 0.60521635 -0.68569655 -0.40439263
vn 0.67248054 0.68569637 -0.27855055
vn 0.67248054 -0.68569637 -0.27855055
vn 0.71390151 0.68569640 -0.14200383
vn 0.71390151 -0.68569640 -0.14200383
vn 0.72788756 0.68569651 -0.00000000
vn 0.00000000 1.00000000 -0.00000000
vn 0.71390150 0.68569640 0.14200383
vn 0.72788756 -0.68569651 0.00000000
vn 0.71390150 -0.68569640 0.14200383
vn 0.00000000 -1.00000000 0.00000000
vn 0.67248045 0.68569647 0.27855051
vn 0.67248045 -0.68569647 0.27855051
vn 0.60521643 0.68569646 0.40439268
vn 0.60521643 -0.68569646 0.40439268
vn 0.51469426 0.68569646 0.51469426
vn 0.51469426 -0.68569646 0.51469426
vn 0.40439269 0.68569645 0.60521643
vn 0.40439269 -0.68569645 0.60521643
vn 0.27855052 0.68569646 0.67248046
vn 0.27855052 -0.68569646 0.67248046
vn 0.14200383 0.68569640 0.71390151
vn 0.14200383 -0.68569640 0.71390151
vn -0.14200383 0.68569641 0.71390150
vn -0.14200383 -0.68569641 0.71390150
vn -0.27855050 0.68569651 0.67248042
vn -0.27855050 -0.68569651 0.67248042
vn -0.40439272 0.68569640 0.60521648
vn -0.40439272 -0.68569640 0.60521648
vn -0.51469429 0.68569641 0.51469429
vn -0.51469429 -0.68569641 0.51469429
vn -0.60521635 0.68569655 0.40439263
vn -0.60521635 -0.68569655 0.40439263
vn -0.67248054 0.68569637 0.27855055
vn -0.67248054 -0.68569637 0.27855055
vn -0.71390151 0.68569640 0.14200383
vn -0.71390151 -0.68569640 0.14200383
vn -0.72788745 0.68569662 0.00000000
vn -0.72788745 -0.68569662 0.00000000
vn -0.71390151 0.68569640 -0.14200383
vn -0.71390151 -0.68569640 -0.14200383
vn -0.67248054 0.68569637 -0.27855055
vn -0.67248054 -0.68569637 -0.27855055
vn -0.60521635 0.68569655 -0.40439263
vn -0.60521635 -0.68569655 -0.40439263
vn -0.51469429 0.68569641 -0.51469429
vn -0.51469429 -0.68569641 -0.51469429
vn -0.40439272 0.68569640 -0.60521648
vn -0.40439272 -0.68569640 -0.60521648
vn -0.27855050 0.68569651 -0.67248042
vn -0.27855050 -0.68569651 -0.67248042
vn -0.14200383 0.68569641 -0.71390150
vn -0.14200383 -0.68569641 -0.71390150
vn 0.14200383 0.68569640 -0.71390151
vn 0.14200383 -0.68569640 -0.71390151
vn 0.27855052 0.68569646 -0.67248046
vn 0.27855052 -0.68569646 -0.67248046
vn 0.40439269 0.68569645 -0.60521643
vn 0.40439269 -0.68569645 -0.60521643
vn 0.51469426 0.68569646 -0.51469426
vn 0.51469426 -0.68569646 -0.51469426
vn 0.60521643 0.68569646 -0.40439268
vn 0.60521643 -0.68569646 -0.40439268
vn 0.67248045 0.68569647 -0.27855051
vn 0.67248045 -0.68569647 -0.27855051
vn 0.71390150 0.68569640 -0.14200383
vn 0.71390150 -0.68569640 -0.14200383
vn -0.57735027 -0.57735027 0.57735027
vn -0.57735027 0.57735027 0.57735027
vn -0.57735027 -0.57735027 -0.57735027
vn 0.57735027 -0.57735027 -0.57735027
vn -0.57735027 0.57735027 -0.57735027
vn 0.57735027 0.57735027 0.57735027
vn 0.57735027 -0.57735027 0.57735027
vn 0.57735027 0.57735027 -0.57735027
vn -0.57735027 -0.57735027 0.57735027
vn -0.57735027 0.57735027 0.57735027
vn -0.57735027 -0.57735027 -0.57735027
vn 0.57735027 -0.57735027 -0.57735027
vn -0.57735027 0.57735027 -0.57735027
vn 0.57735027 0.57735027 0.57735027
vn 0.57735027 -0.57735027 0.57735027
vn 0.57735027 0.57735027 -0.57735027
vn -0.57735027 -0.57735027 0.57735027
vn -0.57735027 0.57735027 0.57735027
vn -0.57735027 -0.57735027 -0.57735027
vn 0.57735027 -0.57735027 -0.57735027
vn -0.57735027 0.57735027 -0.57735027
vn 0.57735027 0.57735027 0.57735027
vn 0.57735027 -0.57735027 0.57735027
vn 0.57735027 0.57735027 -0.57735027
vn -0.57735027 -0.57735027 0.57735027
vn -0.57735027 0.57735027 0.57735027
vn -0.57735027 -0.57735027 -0.57735027
vn 0.57735027 -0.57735027 -0.57735027
vn -0.57735027 0.57735027 -0.57735027
vn 0.57735027 0.57735027 0.57735027
vn 0.57735027 -0.57735027 0.57735027
vn 0.57735027 0.57735027 -0.57735027
vn -0.57735027 -0.57735027 0.57735027
vn -0.57735027 0.57735027 0.57735027
vn -0.57735027 -0.57735027 -0.57735027
vn 0.57735027 -0.57735027 -0.57735027
vn -0.57735027 0.57735027 -0.57735027
vn 0.57735027 0.57735027 0.57735027
vn 0.57735027 -0.57735027 0.57735027
vn 0.57735027 0.57735027 -0.57735027
vn -0.57735027 -0.57735027 0.57735027
vn -0.57735027 0.57735027 0.57735027
vn -0.57735027 -0.57735027 -0.57735027
vn 0.57735027 -0.57735027 -0.57735027
vn -0.57735027 0.57735027 -0.57735027
vn 0.57735027 0.57735027 0.57735027
vn 0.57735027 -0.57735027 0.57735027
vn 0.57735027 0.57735027 -0.57735027
vn -0.57735027 -0.57735027 0.57735027
vn -0.57735027 0.57735027 0.57735027
vn -0.57735027 -0.57735027 -0.57735027
vn 0.57735027 -0.57735027 -0.57735027
vn -0.57735027 0.57735027 -0.57735027
vn 0.57735027 0.57735027 0.57735027
vn 0.57735027 -0.57735027 0.57735027
vn 0.57735027 0.57735027 -0.57735027
vn -0.57735027 -0.57735027 0.57735027
vn -0.57735027 0.57735027 0.57735027
vn -0.57735027 -0.57735027 -0.57735027
vn 0.57735027 -0.57735027 -0.57735027
vn -0.57735027 0.57735027 -0.57735027
vn 0.57735027 0.57735027 0.57735027
vn 0.57735027 -0.57735027 0.57735027
vn 0.57735027 0.57735027 -0.57735027
vn -0.57735027 -0.57735027 0.57735027
vn -0.57735027 0.57735027 0.57735027
vn -0.57735027 -0.57735027 -0.57735027
vn 0.57735027 -0.57735027 -0.57735027
vn -0.57735027 0.57735027 -0.57735027
vn 0.57735027 0.57735027 0.57735027
vn 0.57735027 -0.57735027 0.57735027
vn 0.57735027 0.57735027 -0.57735027
vn -0.57735027 -0.57735027 0.57735027
vn -0.57735027 0.57735027 0.57735027
vn -0.57735027 -0.57735027 -0.57735027
vn 0.57735027 -0.57735027 -0.57735027
vn -0.57735027 0.57735027 -0.57735027
vn 0.57735027 0.57735027 0.57735027
vn 0.57735027 -0.57735027 0.57735027
vn 0.57735027 0.57735027 -0.57735027
vn -0.57735027 -0.57735027 0.57735027
vn -0.57735027 0.57735027 0.57735027
vn -0.57735027 -0.57735027 -0.57735027
vn 0.57735027 -0.57735027 -0.57735027
vn -0.57735027 0.57735027 -0.57735027
vn 0.57735027 0.57735027 0.57735027
vn 0.57735027 -0.57735027 0.57735027
vn 0.57735027 0.57735027 -0.57735027
vn -0.57735027 -0.57735027 0.57735027
vn -0.57735027 0.57735027 0.57735027
vn -0.57735027 -0.57735027 -0.57735027
vn 0.57735027 -0.57735027 -0.57735027
vn -0.57735027 0.57735027 -0.57735027
vn 0.57735027 0.57735027 0.57735027
vn 0.57735027 -0.57735027 0.57735027
vn 0.57735027 0.57735027 -0.57735027
vn -0.57735027 -0.57735027 0.57735027
vn -0.57735027 0.57735027 0.57735027
vn -0.57735027 -0.57735027 -0.57735027
vn 0.57735027 -0.57735027 -0.57735027
vn -0.57735027 0.57735027 -0.57735027
vn 0.57735027 0.57735027 0.57735027
vn 0.57735027 -0.57735027 0.57735027
vn 0.57735027 0.57735027 -0.57735027
vn -0.57735027 -0.57735027 0.57735027
vn -0.57735027 0.57735027 0.57735027
vn -0.57735027 -0.57735027 -0.57735027
vn 0.57735027 -0.57735027 -0.57735027
vn -0.57735027 0.57735027 -0.57735027
vn 0.57735027 0.57735027 0.57735027
vn 0.57735027 -0.57735027 0.57735027
vn 0.57735027 0.57735027 -0.57735027
vn -0.57735027 -0.57735027 0.57735027
vn -0.57735027 0.57735027 0.57735027
vn -0.57735027 -0.57735027 -0.57735027
vn 0.57735027 -0.57735027 -0.57735027
vn -0.57735027 0.57735027 -0.57735027
vn 0.57735027 0.57735027 0.57735027
vn 0.57735027 -0.57735027 0.57735027
vn 0.57735027 0.57735027 -0.57735027
vn -0.57735027 -0.57735027 0.57735027
vn -0.57735027 0.57735027 0.57735027
vn -0.57735027 -0.57735027 -0.57735027
vn 0.57735027 -0.57735027 -0.57735027
vn -0.57735027 0.57735027 -0.57735027
vn 0.57735027 0.57735027 0.57735027
vn 0.57735027 -0.57735027 0.57735027
vn 0.57735027 0.57735027 -0.57735027
vn -0.57735027 -0.57735027 0.57735027
vn -0.57735027 0.57735027 0.57735027
vn -0.57735027 -0.57735027 -0.57735027
vn 0.57735027 -0.57735027 -0.57735027
vn -0.57735027 0.57735027 -0.57735027
vn 0.57735027 0.57735027 0.57735027
vn 0.57735027 -0.57735027 0.57735027
vn 0.57735027 0.57735027 -0.57735027
vn -0.57735027 -0.57735027 0.57735027
vn -0.57735027 0.57735027 0.57735027
vn -0.57735027 -0.57735027 -0.57735027
vn 0.57735027 -0.57735027 -0.57735027
vn -0.57735027 0.57735027 -0.57735027
vn 0.57735027 0.57735027 0.57735027
vn 0.57735027 -0.57735027 0.57735027
vn 0.57735027 0.57735027 -0.57735027
vn -0.57735027 -0.57735027 0.57735027
vn -0.57735027 0.57735027 0.57735027
vn -0.57735027 -0.57735027 -0.57735027
vn 0.57735027 -0.57735027 -0.57735027
vn -0.57735027 0.57735027 -0.57735027
vn 0.57735027 0.57735027 0.57735027
vn 0.57735027 -0.57735027 0.57735027
vn 0.57735027 0.57735027 -0.57735027
vn -0.57735027 -0.57735027 0.57735027
vn -0.57735027 0.57735027 0.57735027
vn -0.57735027 -0.57735027 -0.57735027
vn 0.57735027 -0.57735027 -0.57735027
vn -0.57735027 0.57735027 -0.57735027
vn 0.57735027 0.57735027 0.57735027
vn 0.57735027 -0.57735027 0.57735027
vn 0.57735027 0.57735027 -0.57735027
vn -0.57735027 -0.57735027 0.57735027
vn -0.57735027 0.57735027 0.57735027
vn -0.57735027 -0.57735027 -0.57735027
vn 0.57735027 -0.57735027 -0.57735027
vn -0.57735027 0.57735027 -0.57735027
vn 0.57735027 0.57735027 0.57735027
vn 0.57735027 -0.57735027 0.57735027
vn 0.57735027 0.57735027 -0.57735027
vn -0.57735027 -0.57735027 0.57735027
vn -0.57735027 0.57735027 0.57735027
vn -0.57735027 -0.57735027 -0.57735027
vn 0.57735027 -0.57735027 -0.57735027
vn -0.57735027 0.57735027 -0.57735027
vn 0.57735027 0.57735027 0.57735027
vn 0.57735027 -0.57735027 0.57735027
vn 0.57735027 0.57735027 -0.57735027
vn -0.57735027 -0.57735027 0.57735027
vn -0.57735027 0.57735027 0.57735027
vn -0.57735027 -0.57735027 -0.57735027
vn 0.57735027 -0.57735027 -0.57735027
vn -0.57735027 0.57735027 -0.57735027
vn 0.57735027 0.57735027 0.57735027
vn 0.57735027 -0.57735027 0.57735027
vn 0.57735027 0.57735027 -0.57735027
vn -0.57735027 -0.57735027 0.57735027
vn -0.57735027 0.57735027 0.57735027
vn -0.57735027 -0.57735027 -0.57735027
vn 0.57735027 -0.57735027 -0.57735027
vn -0.57735027 0.57735027 -0.57735027
vn 0.57735027 0.57735027 0.57735027
vn 0.57735027 -0.57735027 0.57735027
vn 0.57735027 0.57735027 -0.57735027
vn -0.57735027 -0.57735027 0.57735027
vn -0.57735027 0.57735027 0.57735027
vn -0.57735027 -0.57735027 -0.57735027
vn 0.57735027 -0.57735027 -0.57735027
vn -0.57735027 0.57735027 -0.57735027
vn 0.57735027 0.57735027 0.57735027
vn 0.57735027 -0.57735027 0.57735027
vn 0.57735027 0.57735027 -0.57735027
vn -0.57735027 -0.57735027 0.57735027
vn -0.57735027 0.57735027 0.57735027
vn -0.57735027 -0.57735027 -0.57735027
vn 0.57735027 -0.57735027 -0.57735027
vn -0.57735027 0.57735027 -0.57735027
vn 0.57735027 0.57735027 0.57735027
vn 0.57735027 -0.57735027 0.57735027
vn 0.57735027 0.57735027 -0.57735027
vn -0.57735027 -0.57735027 0.57735027
vn -0.57735027 0.57735027 0.57735027
vn -0.57735027 -0.57735027 -0.57735027
vn 0.57735027 -0.57735027 -0.57735027
vn -0.57735027 0.57735027 -0.57735027
vn 0.57735027 0.57735027 0.57735027
vn 0.57735027 -0.57735027 0.57735027
vn 0.57735027 0.57735027 -0.57735027
vn -0.57735027 -0.57735027 0.57735027
vn -0.57735027 0.57735027 0.57735027
vn -0.57735027 -0.57735027 -0.57735027
vn 0.57735027 -0.57735027 -0.57735027
vn -0.57735027 0.57735027 -0.57735027
vn 0.57735027 0.57735027 0.57735027
vn 0.57735027 -0.57735027 0.57735027
vn 0.57735027 0.57735027 -0.57735027
vn -0.57735027 -0.57735027 0.57735027
vn -0.57735027 0.57735027 0.57735027
vn -0.57735027 -0.57735027 -0.57735027
vn 0.57735027 -0.57735027 -0.57735027
vn -0.57735027 0.57735027 -0.57735027
vn 0.57735027 0.57735027 0.57735027
vn 0.57735027 -0.57735027 0.57735027
vn 0.57735027 0.57735027 -0.57735027
vn -0.57735027 -0.57735027 0.57735027
vn -0.57735027 0.57735027 0.57735027
vn -0.57735027 -0.57735027 -0.57735027
vn 0.57735027 -0.57735027 -0.57735027
vn -0.57735027 0.57735027 -0.57735027
vn 0.57735027 0.57735027 0.57735027
vn 0.57735027 -0.57735027 0.57735027
vn 0.57735027 0.57735027 -0.57735027
vn -0.57735027 -0.57735027 0.57735027
vn -0.57735027 0.57735027 0.57735027
vn -0.57735027 -0.57735027 -0.57735027
vn 0.57735027 -0.57735027 -0.57735027
vn -0.57735027 0.57735027 -0.57735027
vn 0.57735027 0.57735027 0.57735027
vn 0.57735027 -0.57735027 0.57735027
vn 0.57735027 0.57735027 -0.57735027
vn -0.57735027 -0.57735027 0.57735027
vn -0.57735027 0.57735027 0.57735027
vn -0.57735027 -0.57735027 -0.57735027
vn 0.57735027 -0.57735027 -0.57735027
vn -0.57735027 0.57735027 -0.57735027
vn 0.57735027 0.57735027 0.57735027
vn 0.57735027 -0.57735027 0.57735027
vn 0.57735027 0.57735027 -0.57735027
vn -0.57735027 -0.57735027 0.57735027
vn -0.57735027 0.57735027 0.57735027
vn -0.57735027 -0.57735027 -0.57735027
vn 0.57735027 -0.57735027 -0.57735027
vn -0.57735027 0.57735027 -0.57735027
vn 0.57735027 0.57735027 0.57735027
vn 0.57735027 -0.57735027 0.57735027
vn 0.57735027 0.57735027 -0.57735027
vn -0.57735027 -0.57735027 0.57735027
vn -0.57735027 0.57735027 0.57735027
vn -0.57735027 -0.57735027 -0.57735027
vn 0.57735027 -0.57735027 -0.57735027
vn -0.57735027 0.57735027 -0.57735027
vn 0.57735027 0.57735027 0.57735027
vn 0.57735027 -0.57735027 0.57735027
vn 0.57735027 0.57735027 -0.57735027
vn -0.57735027 -0.57735027 0.57735027
vn -0.57735027 0.57735027 0.57735027
vn -0.57735027 -0.57735027 -0.57735027
vn 0.57735027 -0.57735027 -0.57735027
vn -0.57735027 0.57735027 -0.57735027
vn 0.57735027 0.57735027 0.57735027
vn 0.57735027 -0.57735027 0.57735027
vn 0.57735027 0.57735027 -0.57735027
vn -0.57735027 -0.57735027 0.57735027
vn -0.57735027 0.57735027 0.57735027
vn -0.57735027 -0.57735027 -0.57735027
vn 0.57735027 -0.57735027 -0.57735027
vn -0.57735027 0.57735027 -0.57735027
vn 0.57735027 0.57735027 0.57735027
vn 0.57735027 -0.57735027 0.57735027
vn 0.57735027 0.57735027 -0.57735027
f 1//1 2//2 3//3
f 4//4 1//1 3//3
f 3//3 2//2 5//5
f 5//5 4//4 3//3
f 1//1 6//6 2//2
f 7//7 1//1 4//4
f 7//7 6//6 1//1
f 2//2 6//6 5//5
f 8//8 4//4 5//5
f 5//5 6//6 8//8
f 8//8 7//7 4//4
f 6//6 7//7 8//8
f 9//9 10//10 11//11
f 12//12 9//9 11//11
f 11//11 10//10 13//13
f 13//13 12//12 11//11
f 9//9 14//14 10//10
f 15//15 9//9 12//12
f 15//15 14//14 9//9
f 10//10 14//14 13//13
f 16//16 12//12 13//13
f 13//13 14//14 16//16
f 16//16 15//15 12//12
f 14//14 15//15 16//16
f 17//17 18//18 19//19
f 17//17 19//19 20//20
f 20//20 19//19 21//21
f 20//20 21//21 22//22
f 19//19 18//18 23//23
f 19//19 23//23 21//21
f 21//21 23//23 24//24
f 21//21 24//24 22//22
f 23//23 18//18 25//25
f 23//23 25//25 24//24
f 24//24 25//25 26//26
f 24//24 26//26 22//22
f 25//25 18//18 27//27
f 25//25 27//27 26//26
f 26//26 27//27 28//28
f 26//26 28//28 22//22
f 27//27 18//18 29//29
f 27//27 29//29 28//28
f 28//28 29//29 30//30
f 28//28 30//30 22//22
f 29//29 18//18 31//31
f 29//29 31//31 30//30
f 30//30 31//31 32//32
f 30//30 32//32 22//22
f 31//31 18//18 33//33
f 31//31 33//33 32//32
f 32//32 33//33 34//34
f 32//32 34//34 22//22
f 33//33 18//18 6//6
f 33//33 6//6 34//34
f 34//34 6//6 7//7
f 34//34 7//7 22//22
f 6//6 18//18 35//35
f 6//6 35//35 7//7
f 7//7 35//35 36//36
f 7//7 36//36 22//22
f 35//35 18//18 37//37
f 35//35 37//37 36//36
f 36//36 37//37 38//38
f 36//36 38//38 22//22
f 37//37 18//18 39//39
f 37//37 39//39 38//38
f 38//38 39//39 40//40
f 38//38 40//40 22//22
f 39//39 18//18 41//41
f 39//39 41//41 40//40
f 40//40 41//41 42//42
f 40//40 42//42 22//22
f 41//41 18//18 43//43
f 41//41 43//43 42//42
f 42//42 43//43 44//44
f 42//42 44//44 22//22
f 43//43 18//18 45//45
f 43//43 45//45 44//44
f 44//44 45//45 46//46
f 44//44 46//46 22//22
f 45//45 18//18 47//47
f 45//45 47//47 46//46
f 46//46 47//47 48//48
f 46//46 48//48 22//22
f 47//47 18//18 49//49
f 47//47 49//49 48//48
f 48//48 49//49 50//50
f 48//48 50//50 22//22
f 49//49 18//18 51//51
f 49//49 51//51 50//50
f 50//50 51//51 52//52
f 50//50 52//52 22//22
f 51//51 18//18 53//53
f 51//51 53//53 52//52
f 52//52 53//53 54//54
f 52//52 54//54 22//22
f 53//53 18//18 55//55
f 53//53 55//55 54//54
f 54//54 55//55 56//56
f 54//54 56//56 22//22
f 55//55 18//18 57//57
f 55//55 57//57 56//56
f 56//56 57//57 58//58
f 56//56 58//58 22//22
f 57//57 18//18 59//59
f 57//57 59//59 58//58
f 58//58 59//59 60//60
f 58//58 60//60 22//22
f 59//59 18//18 61//61
f 59//59 61//61 60//60
f 60//60 61//61 62//62
f 60//60 62//62 22//22
f 61//61 18//18 63//63
f 61//61 63//63 62//62
f 62//62 63//63 64//64
f 62//62 64//64 22//22
f 63//63 18//18 16//16
f 63//63 16//16 64//64
f 64//64 16//16 12//12
f 64//64 12//12 22//22
f 16//16 18//18 65//65
f 16//16 65//65 12//12
f 12//12 65//65 66//66
f 12//12 66//66 22//22
f 65//65 18//18 67//67
f 65//65 67//67 66//66
f 66//66 67//67 68//68
f 66//66 68//68 22//22
f 67//67 18//18 69//69
f 67//67 69//69 68//68
f 68//68 69//69 70//70
f 68//68 70//70 22//22
f 69//69 18//18 71//71
f 69//69 71//71 70//70
f 70//70 71//71 72//72
f 70//70 72//72 22//22
f 71//71 18//18 73//73
f 71//71 73//73 72//72
f 72//72 73//73 74//74
f 72//72 74//74 22//22
f 73//73 18//18 75//75
f 73//73 75//75 74//74
f 74//74 75//75 76//76
f 74//74 76//76 22//22
f 75//75 18//18 77//77
f 75//75 77//77 76//76
f 76//76 77//77 78//78
f 76//76 78//78 22//22
f 77//77 18//18 17//17
f 77//77 17//17 78//78
f 78//78 17//17 20//20
f 78//78 20//20 22//22
f 79//79 80//80 81//81
f 79//79 81//81 82//82
f 82//82 81//81 83//83
f 82//82 83//83 84//84
f 81//81 80//80 85//85
f 81//81 85//85 83//83
f 83//83 85//85 86//86
f 83//83 86//86 84//84
f 85//85 80//80 87//87
f 85//85 87//87 86//86
f 86//86 87//87 88//88
f 86//86 88//88 84//84
f 87//87 80//80 89//89
f 87//87 89//89 88//88
f 88//88 89//89 90//90
f 88//88 90//90 84//84
f 89//89 80//80 91//91
f 89//89 91//91 90//90
f 90//90 91//91 92//92
f 90//90 92//92 84//84
f 91//91 80//80 93//93
f 91//91 93//93 92//92
f 92//92 93//93 94//94
f 92//92 94//94 84//84
f 93//93 80//80 95//95
f 93//93 95//95 94//94
f 94//94 95//95 96//96
f 94//94 96//96 84//84
f 95//95 80//80 2//2
f 95//95 2//2 96//96
f 96//96 2//2 1//1
f 96//96 1//1 84//84
f 2//2 80//80 97//97
f 2//2 97//97 1//1
f 1//1 97//97 98//98
f 1//1 98//98 84//84
f 97//97 80//80 99//99
f 97//97 99//99 98//98
f 98//98 99//99 100//100
f 98//98 100//100 84//84
f 99//99 80//80 101//101
f 99//99 101//101 100//100
f 100//100 101//101 102//102
f 100//100 102//102 84//84
f 101//101 80//80 103//103
f 101//101 103//103 102//102
f 102//102 103//103 104//104
f 102//102 104//104 84//84
f 103//103 80//80 105//105
f 103//103 105//105 104//104
f 104//104 105//105 106//106
f 104//104 106//106 84//84
f 105//105 80//80 107//107
f 105//105 107//107 106//106
f 106//106 107//107 108//108
f 106//106 108//108 84//84
f 107//107 80//80 109//109
f 107//107 109//109 108//108
f 108//108 109//109 110//110
f 108//108 110//110 84//84
f 109//109 80//80 111//111
f 109//109 111//111 110//110
f 110//110 111//111 112//112
f 110//110 112//112 84//84
f 111//111 80//80 113//113
f 111//111 113//113 112//112
f 112//112 113//113 114//114
f 112//112 114//114 84//84
f 113//113 80//80 115//115
f 113//113 115//115 114//114
f 114//114 115//115 116//116
f 114//114 116//116 84//84
f 115//115 80//80 117//117
f 115//115 117//117 116//116
f 116//116 117//117 118//118
f 116//116 118//118 84//84
f 117//117 80//80 119//119
f 117//117 119//119 118//118
f 118//118 119//119 120//120
f 118//118 120//120 84//84
f 119//119 80//80 121//121
f 119//119 121//121 120//120
f 120//120 121//121 122//122
f 120//120 122//122 84//84
f 121//121 80//80 123//123
f 121//121 123//123 122//122
f 122//122 123//123 124//124
f 122//122 124//124 84//84
f 123//123 80//80 125//125
f 123//123 125//125 124//124
f 124//124 125//125 126//126
f 124//124 126//126 84//84
f 125//125 80//80 13//13
f 125//125 13//13 126//126
f 126//126 13//13 11//11
f 126//126 11//11 84//84
f 13//13 80//80 127//127
f 13//13 127//127 11//11
f 11//11 127//127 128//128
f 11//11 128//128 84//84
f 127//127 80//80 129//129
f 127//127 129//129 128//128
f 128//128 129//129 130//130
f 128//128 130//130 84//84
f 129//129 80//80 131//131
f 129//129 131//131 130//130
f 130//130 131//131 132//132
f 130//130 132//132 84//84
f 131//131 80//80 133//133
f 131//131 133//133 132//132
f 132//132 133//133 134//134
f 132//132 134//134 84//84
f 133//133 80//80 135//135
f 133//133 135//135 134//134
f 134//134 135//135 136//136
f 134//134 136//136 84//84
f 135//135 80//80 137//137
f 135//135 137//137 136//136
f 136//136 137//137 138//138
f 136//136 138//138 84//84
f 137//137 80//80 139//139
f 137//137 139//139 138//138
f 138//138 139//139 140//140
f 138//138 140//140 84//84
f 139//139 80//80 79//79
f 139//139 79//79 140//140
f 140//140 79//79 82//82
f 140//140 82//82 84//84
f 141//141 142//142 143//143
f 144//144 141//141 143//143
f 143//143 142//142 145//145
f 145//145 144//144 143//143
f 141//141 146//146 142//142
f 147//147 141//141 144//144
f 147//147 146//146 141//141
f 142//142 146//146 145//145
f 148//148 144//144 145//145
f 145//145 146//146 148//148
f 148//148 147//147 144//144
f 146//146 147//147 148//148
f 149//149 150//150 151//151
f 152//152 149//149 151//151
f 151//151 150//150 153//153
f 153//153 152//152 151//151
f 149//149 154//154 150//150
f 155//155 149//149 152//152
f 155//155 154//154 149//149
f 150//150 154//154 153//153
f 156//156 152//152 153//153
f 153//153 154//154 156//156
f 156//156 155//155 152//152
f 154//154 155//155 156//156
f 157//157 158//158 159//159
f 160//160 157//157 159//159
f 159//159 158//158 161//161
f 161//161 160//160 159//159
f 157//157 162//162 158//158
f 163//163 157//157 160//160
f 163//163 162//162 157//157
f 158//158 162//162 161//161
f 164//164 160//160 161//161
f 161//161 162//162 164//164
f 164//164 163//163 160//160
f 162//162 163//163 164//164
f 165//165 166//166 167//167
f 168//168 165//165 167//167
f 167//167 166//166 169//169
f 169//169 168//168 167//167
f 165//165 170//170 166//166
f 171//171 165//165 168//168
f 171//171 170//170 165//165
f 166//166 170//170 169//169
f 172//172 168//168 169//169
f 169//169 170//170 172//172
f 172//172 171//171 168//168
f 170//170 171//171 172//172
f 173//173 174//174 175//175
f 176//176 173//173 175//175
f 175//175 174//174 177//177
f 177//177 176//176 175//175
f 173//173 178//178 174//174
f 179//179 173//173 176//176
f 179//179 178//178 173//173
f 174//174 178//178 177//177
f 180//180 176//176 177//177
f 177//177 178//178 180//180
f 180//180 179//179 176//176
f 178//178 179//179 180//180
f 181//181 182//182 183//183
f 184//184 181//181 183//183
f 183//183 182//182 185//185
f 185//185 184//184 183//183
f 181//181 186//186 182//182
f 187//187 181//181 184//184
f 187//187 186//186 181//181
f 182//182 186//186 185//185
f 188//188 184//184 185//185
f 185//185 186//186 188//188
f 188//188 187//187 184//184
f 186//186 187//187 188//188
f 189//189 190//190 191//191
f 192//192 189//189 191//191
f 191//191 190//190 193//193
f 193//193 192//192 191//191
f 189//189 194//194 190//190
f 195//195 189//189 192//192
f 195//195 194//194 189//189
f 190//190 194//194 193//193
f 196//196 192//192 193//193
f 193//193 194//194 196//196
f 196//196 195//195 192//192
f 194//194 195//195 196//196
f 197//197 198//198 199//199
f 200//200 197//197 199//199
f 199//199 198//198 201//201
f 201//201 200//200 199//199
f 197//197 202//202 198//198
f 203//203 197//197 200//200
f 203//203 202//202 197//197
f 198//198 202//202 201//201
f 204//204 200//200 201//201
f 201//201 202//202 204//204
f 204//204 203//203 200//200
f 202//202 203//203 204//204
f 205//205 206//206 207//207
f 208//208 205//205 207//207
f 207//207 206//206 209//209
f 209//209 208//208 207//207
f 205//205 210//210 206//206
f 211//211 205//205 208//208
f 211//211 210//210 205//205
f 206//206 210//210 209//209
f 212//212 208//208 209//209
f 209//209 210//210 212//212
f 212//212 211//211 208//208
f 210//210 211//211 212//212
f 213//213 214//214 215//215
f 216//216 213//213 215//215
f 215//215 214//214 217//217
f 217//217 216//216 215//215
f 213//213 218//218 214//214
f 219//219 213//213 216//216
f 219//219 218//218 213//213
f 214//214 218//218 217//217
f 220//220 216//216 217//217
f 217//217 218//218 220//220
f 220//220 219//219 216//216
f 218//218 219//219 220//220
f 221//221 222//222 223//223
f 224//224 221//221 223//223
f 223//223 222//222 225//225
f 225//225 224//224 223//223
f 221//221 226//226 222//222
f 227//227 221//221 224//224
f 227//227 226//226 221//221
f 222//222 226//226 225//225
f 228//228 224//224 225//225
f 225//225 226//226 228//228
f 228//228 227//227 224//224
f 226//226 227//227 228//228
f 229//229 230//230 231//231
f 232//232 229//229 231//231
f 231//231 230//230 233//233
f 233//233 232//232 231//231
f 229//229 234//234 230//230
f 235//235 229//229 232//232
f 235//235 234//234 229//229
f 230//230 234//234 233//233
f 236//236 232//232 233//233
f 233//233 234//234 236//236
f 236//236 235//235 232//232
f 234//234 235//235 236//236
f 237//237 238//238 239//239
f 240//240 237//237 239//239
f 239//239 238//238 241//241
f 241//241 240//240 239//239
f 237//237 242//242 238//238
f 243//243 237//237 240//240
f 243//243 242//242 237//237
f 238//238 242//242 241//241
f 244//244 240//240 241//241
f 241//241 242//242 244//244
f 244//244 243//243 240//240
f 242//242 243//243 244//244
f 245//245 246//246 247//247
f 248//248 245//245 247//247
f 247//247 246//246 249//249
f 249//249 248//248 247//247
f 245//245 250//250 246//246
f 251//251 245//245 248//248
f 251//251 250//250 245//245
f 246//246 250//250 249//249
f 252//252 248//248 249//249
f 249//249 250//250 252//252
f 252//252 251//251 248//248
f 250//250 251//251 252//252
f 253//253 254//254 255//255
f 256//256 253//253 255//255
f 255//255 254//254 257//257
f 257//257 256//256 255//255
f 253//253 258//258 254//254
f 259//259 253//253 256//256
f 259//259 258//258 253//253
f 254//254 258//258 257//257
f 260//260 256//256 257//257
f 257//257 258//258 260//260
f 260//260 259//259 256//256
f 258//258 259//259 260//260
f 261//261 262//262 263//263
f 264//264 261//261 263//263
f 263//263 262//262 265//265
f 265//265 264//264 263//263
f 261//261 266//266 262//262
f 267//267 261//261 264//264
f 267//267 266//266 261//261
f 262//262 266//266 265//265
f 268//268 264//264 265//265
f 265//265 266//266 268//268
f 268//268 267//267 264//264
f 266//266 267//267 268//268
f 269//269 270//270 271//271
f 272//272 269//269 271//271
f 271//271 270//270 273//273
f 273//273 272//272 271//271
f 269//269 274//274 270//270
f 275//275 269//269 272//272
f 275//275 274//274 269//269
f 270//270 274//274 273//273
f 276//276 272//272 273//273
f 273//273 274//274 276//276
f 276//276 275//275 272//272
f 274//274 275//275 276//276
f 277//277 278//278 279//279
f 280//280 277//277 279//279
f 279//279 278//278 281//281
f 281//281 280//280 279//279
f 277//277 282//282 278//278
f 283//283 277//277 280//280
f 283//283 282//282 277//277
f 278//278 282//282 281//281
f 284//284 280//280 281//281
f 281//281 282//282 284//284
f 284//284 283//283 280//280
f 282//282 283//283 284//284
f 285//285 286//286 287//287
f 288//288 285//285 287//287
f 287//287 286//286 289//289
f 289//289 288//288 287//287
f 285//285 290//290 286//286
f 291//291 285//285 288//288
f 291//291 290//290 285//285
f 286//286 290//290 289//289
f 292//292 288//288 289//289
f 289//289 290//290 292//292
f 292//292 291//291 288//288
f 290//290 291//291 292//292
f 293//293 294//294 295//295
f 296//296 293//293 295//295
f 295//295 294//294 297//297
f 297//297 296//296 295//295
f 293//293 298//298 294//294
f 299//299 293//293 296//296
f 299//299 298//298 293//293
f 294//294 298//298 297//297
f 300//300 296//296 297//297
f 297//297 298//298 300//300
f 300//300 299//299 296//296
f 298//298 299//299 300//300
f 301//301 302//302 303//303
f 304//304 301//301 303//303
f 303//303 302//302 305//305
f 305//305 304//304 303//303
f 301//301 306//306 302//302
f 307//307 301//301 304//304
f 307//307 306//306 301//301
f 302//302 306//306 305//305
f 308//308 304//304 305//305
f 305//305 306//306 308//308
f 308//308 307//307 304//304
f 306//306 307//307 308//308
f 309//309 310//310 311//311
f 312//312 309//309 311//311
f 311//311 310//310 313//313
f 313//313 312//312 311//311
f 309//309 314//314 310//310
f 315//315 309//309 312//312
f 315//315 314//314 309//309
f 310//310 314//314 313//313
f 316//316 312//312 313//313
f 313//313 314//314 316//316
f 316//316 315//315 312//312
f 314//314 315//315 316//316
f 317//317 318//318 319//319
f 320//320 317//317 319//319
f 319//319 318//318 321//321
f 321//321 320//320 319//319
f 317//317 322//322 318//318
f 323//323 317//317 320//320
f 323//323 322//322 317//317
f 318//318 322//322 321//321
f 324//324 320//320 321//321
f 321//321 322//322 324//324
f 324//324 323//323 320//320
f 322//322 323//323 324//324
f 325//325 326//326 327//327
f 328//328 325//325 327//327
f 327//327 326//326 329//329
f 329//329 328//328 327//327
f 325//325 330//330 326//326
f 331//331 325//325 328//328
f 331//331 330//330 325//325
f 326//326 330//330 329//329
f 332//332 328//328 329//329
f 329//329 330//330 332//332
f 332//332 331//331 328//328
f 330//330 331//331 332//332
f 333//333 334//334 335//335
f 336//336 333//333 335//335
f 335//335 334//334 337//337
f 337//337 336//336 335//335
f 333//333 338//338 334//334
f 339//339 333//333 336//336
f 339//339 338//338 333//333
f 334//334 338//338 337//337
f 340//340 336//336 337//337
f 337//337 338//338 340//340
f 340//340 339//339 336//336
f 338//338 339//339 340//340
f 341//341 342//342 343//343
f 344//344 341//341 343//343
f 343//343 342//342 345//345
f 345//345 344//344 343//343
f 341//341 346//346 342//342
f 347//347 341//341 344//344
f 347//347 346//346 341//341
f 342//342 346//346 345//345
f 348//348 344//344 345//345
f 345//345 346//346 348//348
f 348//348 347//347 344//344
f 346//346 347//347 348//348
f 349//349 350//350 351//351
f 352//352 349//349 351//351
f 351//351 350//350 353//353
f 353//353 352//352 351//351
f 349//349 354//354 350//350
f 355//355 349//349 352//352
f 355//355 354//354 349//349
f 350//350 354//354 353//353
f 356//356 352//352 353//353
f 353//353 354//354 356//356
f 356//356 355//355 352//352
f 354//354 355//355 356//356
f 357//357 358//358 359//359
f 360//360 357//357 359//359
f 359//359 358//358 361//361
f 361//361 360//360 359//359
f 357//357 362//362 358//358
f 363//363 357//357 360//360
f 363//363 362//362 357//357
f 358//358 362//362 361//361
f 364//364 360//360 361//361
f 361//361 362//362 364//364
f 364//364 363//363 360//360
f 362//362 363//363 364//364
f 365//365 366//366 367//367
f 368//368 365//365 367//367
f 367//367 366//366 369//369
f 369//369 368//368 367//367
f 365//365 370//370 366//366
f 371//371 365//365 368//368
f 371//371 370//370 365//365
f 366//366 370//370 369//369
f 372//372 368//368 369//369
f 369//369 370//370 372//372
f 372//372 371//371 368//368
f 370//370 371//371 372//372
f 373//373 374//374 375//375
f 376//376 373//373 375//375
f 375//375 374//374 377//377
f 377//377 376//376 375//375
f 373//373 378//378 374//374
f 379//379 373//373 376//376
f 379//379 378//378 373//373
f 374//374 378//378 377//377
f 380//380 376//376 377//377
f 377//377 378//378 380//380
f 380//380 379//379 376//376
f 378//378 379//379 380//380
f 381//381 382//382 383//383
f 384//384 381//381 383//383
f 383//383 382//382 385//385
f 385//385 384//384 383//383
f 381//381 386//386 382//382
f 387//387 381//381 384//384
f 387//387 386//386 381//381
f 382//382 386//386 385//385
f 388//388 384//384 385//385
f 385//385 386//386 388//388
f 388//388 387//387 384//384
f 386//386 387//387 388//388
f 389//389 390//390 391//391
f 392//392 389//389 391//391
f 391//391 390//390 393//393
f 393//393 392//392 391//391
f 389//389 394//394 390//390
f 395//395 389//389 392//392
f 395//395 394//394 389//389
f 390//390 394//394 393//393
f 396//396 392//392 393//393
f 393//393 394//394 396//396
f 396//396 395//395 392//392
f 394//394 395//395 396//396
f 397//397 398//398 399//399
f 400//400 397//397 399//399
f 399//399 398//398 401//401
f 401//401 400//400 399//399
f 397//397 402//402 398//398
f 403//403 397//397 400//400
f 403//403 402//402 397//397
f 398//398 402//402 401//401
f 404//404 400//400 401//401
f 401//401 402//402 404//404
f 404//404 403//403 400//400
f 402//402 403//403 404//404
f 405//405 406//406 407//407
f 408//408 405//405 407//407
f 407//407 406//406 409//409
f 409//409 408//408 407//407
f 405//405 410//410 406//406
f 411//411 405//405 408//408
f 411//411 410//410 405//405
f 406//406 410//410 409//409
f 412//412 408//408 409//409
f 409//409 410//410 412//412
f 412//412 411//411 408//408
f 410//410 411//411 412//412
f 413//413 414//414 415//415
f 416//416 413//413 415//415
f 415//415 414//414 417//417
f 417//417 416//416 415//415
f 413//413 418//418 414//414
f 419//419 413//413 416//416
f 419//419 418//418 413//413
f 414//414 418//418 417//417
f 420//420 416//416 417//417
f 417//417 418//418 420//420
f 420//420 419//419 416//416
f 418//418 419//419 420//420
f 421//421 422//422 423//423
f 424//424 421//421 423//423
f 423//423 422//422 425//425
f 425//425 424//424 423//423
f 421//421 426//426 422//422
f 427//427 421//421 424//424
f 427//427 426//426 421//421
f 422//422 426//426 425//425
f 428//428 424//424 425//425
f 425//425 426//426 428//428
f 428//428 427//427 424//424
f 426//426 427//427 428//428

