<COLLADA xmlns="http://www.collada.org/2005/11/COLLADASchema" version="1.4.1">
  <asset>
    <created>2026-09-03T21:36:14.794170</created>
    <modified>2026-09-03T21:36:14.794176</modified>
    <up_axis>Y_UP</up_axis>
  </asset>
  <library_effects>
    <effect id="82305fe2a10c4968a9e0b1a944394518" name="82305fe2a10c4968a9e0b1a944394518">
      <profile_COMMON>
        <technique sid="common">
          <phong>
            <emission>
              <color>0.0 0.0 0.0 1.0</color>
            </emission>
            <ambient>
              <color>0.0 0.0 0.0 1.0</color>
            </ambient>
            <diffuse>
              <color>0.0 0.0 0.0 1.0</color>
            </diffuse>
            <specular>
              <color>0.0 0.0 0.0 1.0</color>
            </specular>
            <shininess>
              <float>0.0</float>
            </shininess>
            <reflective>
              <color>0.0 0.0 0.0 1.0</color>
            </reflective>
            <reflectivity>
              <float>0.0</float>
            </reflectivity>
            <transparent>
              <color>0.0 0.0 0.0 1.0</color>
            </transparent>
            <transparency>
              <float>1.0</float>
            </transparency>
          </phong>
        </technique>
        <extra>
          <technique profile="GOOGLEEARTH">
            <double_sided>0</double_sided>
          </technique>
        </extra>
      </profile_COMMON>
    </effect>
  </library_effects>
  <library_geometries>
    <geometry id="4f4360ca64ab49fdb6ce9fde516da2bb" name="901b168414414edda84452c2f003bfea">
      <mesh>
        <source id="verts-array">
          <float_array count="1284" id="verts-array-array">-0.17 -0.0275 0.081 -0.17 0.0275 0.081 -0.17 -0.0275 0.065 0.17 -0.0275 0.065 -0.17 0.0275 0.065 0.17 0.0275 0.081 0.17 -0.0275 0.081 0.17 0.0275 0.065 -0.17 -0.0275 -0.065 -0.17 0.0275 -0.065 -0.17 -0.0275 -0.081 0.17 -0.0275 -0.081 -0.17 0.0275 -0.081 0.17 0.0275 -0.065 0.17 -0.0275 -0.065 0.17 0.0275 -0.081 0.251 0.0275 -1.683889e-18 0.17 0.0275 -1.683889e-18 0.2494436 0.0275 0.01580232 0.251 -0.0275 1.683889e-18 0.2494436 -0.0275 0.01580232 0.17 -0.0275 1.683889e-18 0.2448342 0.0275 0.03099736 0.2448342 -0.0275 0.03099736 0.237349 0.0275 0.04500119 0.237349 -0.0275 0.04500119 0.2272757 0.0275 0.05727565 0.2272757 -0.0275 0.05727565 0.2150012 0.0275 0.06734904 0.2150012 -0.0275 0.06734904 0.2009974 0.0275 0.07483424 0.2009974 -0.0275 0.07483424 0.1858023 0.0275 0.07944361 0.1858023 -0.0275 0.07944361 0.1541977 0.0275 0.07944361 0.1541977 -0.0275 0.07944361 0.1390026 0.0275 0.07483424 0.1390026 -0.0275 0.07483424 0.1249988 0.0275 0.06734904 0.1249988 -0.0275 0.06734904 0.1127243 0.0275 0.05727565 0.1127243 -0.0275 0.05727565 0.102651 0.0275 0.04500119 0.102651 -0.0275 0.04500119 0.09516576 0.0275 0.03099736 0.09516576 -0.0275 0.03099736 0.09055639 0.0275 0.01580232 0.09055639 -0.0275 0.01580232 0.089 0.0275 8.235749e-18 0.089 -0.0275 1.160353e-17 0.09055639 0.0275 -0.01580232 0.09055639 -0.0275 -0.01580232 0.09516576 0.0275 -0.03099736 0.09516576 -0.0275 -0.03099736 0.102651 0.0275 -0.04500119 0.102651 -0.0275 -0.04500119 0.1127243 0.0275 -0.05727565 0.1127243 -0.0275 -0.05727565 0.1249988 0.0275 -0.06734904 0.1249988 -0.0275 -0.06734904 0.1390026 0.0275 -0.07483424 0.1390026 -0.0275 -0.07483424 0.1541977 0.0275 -0.07944361 0.1541977 -0.0275 -0.07944361 0.1858023 0.0275 -0.07944361 0.1858023 -0.0275 -0.07944361 0.2009974 0.0275 -0.07483424 0.2009974 -0.0275 -0.07483424 0.2150012 0.0275 -0.06734904 0.2150012 -0.0275 -0.06734904 0.2272757 0.0275 -0.05727565 0.2272757 -0.0275 -0.05727565 0.237349 0.0275 -0.04500119 0.237349 -0.0275 -0.04500119 0.2448342 0.0275 -0.03099736 0.2448342 -0.0275 -0.03099736 0.2494436 0.0275 -0.01580232 0.2494436 -0.0275 -0.01580232 -0.089 0.0275 -1.683889e-18 -0.17 0.0275 -1.683889e-18 -0.09055639 0.0275 0.01580232 -0.089 -0.0275 1.683889e-18 -0.09055639 -0.0275 0.01580232 -0.17 -0.0275 1.683889e-18 -0.09516576 0.0275 0.03099736 -0.09516576 -0.0275 0.03099736 -0.102651 0.0275 0.04500119 -0.102651 -0.0275 0.04500119 -0.1127243 0.0275 0.05727565 -0.1127243 -0.0275 0.05727565 -0.1249988 0.0275 0.06734904 -0.1249988 -0.0275 0.06734904 -0.1390026 0.0275 0.07483424 -0.1390026 -0.0275 0.07483424 -0.1541977 0.0275 0.07944361 -0.1541977 -0.0275 0.07944361 -0.1858023 0.0275 0.07944361 -0.1858023 -0.0275 0.07944361 -0.2009974 0.0275 0.07483424 -0.2009974 -0.0275 0.07483424 -0.2150012 0.0275 0.06734904 -0.2150012 -0.0275 0.06734904 -0.2272757 0.0275 0.05727565 -0.2272757 -0.0275 0.05727565 -0.237349 0.0275 0.04500119 -0.237349 -0.0275 0.04500119 -0.2448342 0.0275 0.03099736 -0.2448342 -0.0275 0.03099736 -0.2494436 0.0275 0.01580232 -0.2494436 -0.0275 0.01580232 -0.251 0.0275 8.235749e-18 -0.251 -0.0275 1.160353e-17 -0.2494436 0.0275 -0.01580232 -0.2494436 -0.0275 -0.01580232 -0.2448342 0.0275 -0.03099736 -0.2448342 -0.0275 -0.03099736 -0.237349 0.0275 -0.04500119 -0.237349 -0.0275 -0.04500119 -0.2272757 0.0275 -0.05727565 -0.2272757 -0.0275 -0.05727565 -0.2150012 0.0275 -0.06734904 -0.2150012 -0.0275 -0.06734904 -0.2009974 0.0275 -0.07483424 -0.2009974 -0.0275 -0.07483424 -0.1858023 0.0275 -0.07944361 -0.1858023 -0.0275 -0.07944361 -0.1541977 0.0275 -0.07944361 -0.1541977 -0.0275 -0.07944361 -0.1390026 0.0275 -0.07483424 -0.1390026 -0.0275 -0.07483424 -0.1249988 0.0275 -0.06734904 -0.1249988 -0.0275 -0.06734904 -0.1127243 0.0275 -0.05727565 -0.1127243 -0.0275 -0.05727565 -0.102651 0.0275 -0.04500119 -0.102651 -0.0275 -0.04500119 -0.09516576 0.0275 -0.03099736 -0.09516576 -0.0275 -0.03099736 -0.09055639 0.0275 -0.01580232 -0.09055639 -0.0275 -0.01580232 -0.174 -0.028875 0.086 -0.174 0.028875 0.086 -0.174 -0.028875 0.081 -0.166 -0.028875 0.081 -0.174 0.028875 0.081 -0.166 0.028875 0.086 -0.166 -0.028875 0.086 -0.166 0.028875 0.081 -0.174 -0.028875 -0.081 -0.174 0.028875 -0.081 -0.174 -0.028875 -0.086 -0.166 -0.028875 -0.086 -0.174 0.028875 -0.086 -0.166 0.028875 -0.081 -0.166 -0.028875 -0.081 -0.166 0.028875 -0.086 -0.154 -0.028875 0.086 -0.154 0.028875 0.086 -0.154 -0.028875 0.081 -0.146 -0.028875 0.081 -0.154 0.028875 0.081 -0.146 0.028875 0.086 -0.146 -0.028875 0.086 -0.146 0.028875 0.081 -0.154 -0.028875 -0.081 -0.154 0.028875 -0.081 -0.154 -0.028875 -0.086 -0.146 -0.028875 -0.086 -0.154 0.028875 -0.086 -0.146 0.028875 -0.081 -0.146 -0.028875 -0.081 -0.146 0.028875 -0.086 -0.134 -0.028875 0.086 -0.134 0.028875 0.086 -0.134 -0.028875 0.081 -0.126 -0.028875 0.081 -0.134 0.028875 0.081 -0.126 0.028875 0.086 -0.126 -0.028875 0.086 -0.126 0.028875 0.081 -0.134 -0.028875 -0.081 -0.134 0.028875 -0.081 -0.134 -0.028875 -0.086 -0.126 -0.028875 -0.086 -0.134 0.028875 -0.086 -0.126 0.028875 -0.081 -0.126 -0.028875 -0.081 -0.126 0.028875 -0.086 -0.114 -0.028875 0.086 -0.114 0.028875 0.086 -0.114 -0.028875 0.081 -0.106 -0.028875 0.081 -0.114 0.028875 0.081 -0.106 0.028875 0.086 -0.106 -0.028875 0.086 -0.106 0.028875 0.081 -0.114 -0.028875 -0.081 -0.114 0.028875 -0.081 -0.114 -0.028875 -0.086 -0.106 -0.028875 -0.086 -0.114 0.028875 -0.086 -0.106 0.028875 -0.081 -0.106 -0.028875 -0.081 -0.106 0.028875 -0.086 -0.094 -0.028875 0.086 -0.094 0.028875 0.086 -0.094 -0.028875 0.081 -0.086 -0.028875 0.081 -0.094 0.028875 0.081 -0.086 0.028875 0.086 -0.086 -0.028875 0.086 -0.086 0.028875 0.081 -0.094 -0.028875 -0.081 -0.094 0.028875 -0.081 -0.094 -0.028875 -0.086 -0.086 -0.028875 -0.086 -0.094 0.028875 -0.086 -0.086 0.028875 -0.081 -0.086 -0.028875 -0.081 -0.086 0.028875 -0.086 -0.074 -0.028875 0.086 -0.074 0.028875 0.086 -0.074 -0.028875 0.081 -0.066 -0.028875 0.081 -0.074 0.028875 0.081 -0.066 0.028875 0.086 -0.066 -0.028875 0.086 -0.066 0.028875 0.081 -0.074 -0.028875 -0.081 -0.074 0.028875 -0.081 -0.074 -0.028875 -0.086 -0.066 -0.028875 -0.086 -0.074 0.028875 -0.086 -0.066 0.028875 -0.081 -0.066 -0.028875 -0.081 -0.066 0.028875 -0.086 -0.054 -0.028875 0.086 -0.054 0.028875 0.086 -0.054 -0.028875 0.081 -0.046 -0.028875 0.081 -0.054 0.028875 0.081 -0.046 0.028875 0.086 -0.046 -0.028875 0.086 -0.046 0.028875 0.081 -0.054 -0.028875 -0.081 -0.054 0.028875 -0.081 -0.054 -0.028875 -0.086 -0.046 -0.028875 -0.086 -0.054 0.028875 -0.086 -0.046 0.028875 -0.081 -0.046 -0.028875 -0.081 -0.046 0.028875 -0.086 -0.034 -0.028875 0.086 -0.034 0.028875 0.086 -0.034 -0.028875 0.081 -0.026 -0.028875 0.081 -0.034 0.028875 0.081 -0.026 0.028875 0.086 -0.026 -0.028875 0.086 -0.026 0.028875 0.081 -0.034 -0.028875 -0.081 -0.034 0.028875 -0.081 -0.034 -0.028875 -0.086 -0.026 -0.028875 -0.086 -0.034 0.028875 -0.086 -0.026 0.028875 -0.081 -0.026 -0.028875 -0.081 -0.026 0.028875 -0.086 -0.014 -0.028875 0.086 -0.014 0.028875 0.086 -0.014 -0.028875 0.081 -0.006 -0.028875 0.081 -0.014 0.028875 0.081 -0.006 0.028875 0.086 -0.006 -0.028875 0.086 -0.006 0.028875 0.081 -0.014 -0.028875 -0.081 -0.014 0.028875 -0.081 -0.014 -0.028875 -0.086 -0.006 -0.028875 -0.086 -0.014 0.028875 -0.086 -0.006 0.028875 -0.081 -0.006 -0.028875 -0.081 -0.006 0.028875 -0.086 0.006 -0.028875 0.086 0.006 0.028875 0.086 0.006 -0.028875 0.081 0.014 -0.028875 0.081 0.006 0.028875 0.081 0.014 0.028875 0.086 0.014 -0.028875 0.086 0.014 0.028875 0.081 0.006 -0.028875 -0.081 0.006 0.028875 -0.081 0.006 -0.028875 -0.086 0.014 -0.028875 -0.086 0.006 0.028875 -0.086 0.014 0.028875 -0.081 0.014 -0.028875 -0.081 0.014 0.028875 -0.086 0.026 -0.028875 0.086 0.026 0.028875 0.086 0.026 -0.028875 0.081 0.034 -0.028875 0.081 0.026 0.028875 0.081 0.034 0.028875 0.086 0.034 -0.028875 0.086 0.034 0.028875 0.081 0.026 -0.028875 -0.081 0.026 0.028875 -0.081 0.026 -0.028875 -0.086 0.034 -0.028875 -0.086 0.026 0.028875 -0.086 0.034 0.028875 -0.081 0.034 -0.028875 -0.081 0.034 0.028875 -0.086 0.046 -0.028875 0.086 0.046 0.028875 0.086 0.046 -0.028875 0.081 0.054 -0.028875 0.081 0.046 0.028875 0.081 0.054 0.028875 0.086 0.054 -0.028875 0.086 0.054 0.028875 0.081 0.046 -0.028875 -0.081 0.046 0.028875 -0.081 0.046 -0.028875 -0.086 0.054 -0.028875 -0.086 0.046 0.028875 -0.086 0.054 0.028875 -0.081 0.054 -0.028875 -0.081 0.054 0.028875 -0.086 0.066 -0.028875 0.086 0.066 0.028875 0.086 0.066 -0.028875 0.081 0.074 -0.028875 0.081 0.066 0.028875 0.081 0.074 0.028875 0.086 0.074 -0.028875 0.086 0.074 0.028875 0.081 0.066 -0.028875 -0.081 0.066 0.028875 -0.081 0.066 -0.028875 -0.086 0.074 -0.028875 -0.086 0.066 0.028875 -0.086 0.074 0.028875 -0.081 0.074 -0.028875 -0.081 0.074 0.028875 -0.086 0.086 -0.028875 0.086 0.086 0.028875 0.086 0.086 -0.028875 0.081 0.094 -0.028875 0.081 0.086 0.028875 0.081 0.094 0.028875 0.086 0.094 -0.028875 0.086 0.094 0.028875 0.081 0.086 -0.028875 -0.081 0.086 0.028875 -0.081 0.086 -0.028875 -0.086 0.094 -0.028875 -0.086 0.086 0.028875 -0.086 0.094 0.028875 -0.081 0.094 -0.028875 -0.081 0.094 0.028875 -0.086 0.106 -0.028875 0.086 0.106 0.028875 0.086 0.106 -0.028875 0.081 0.114 -0.028875 0.081 0.106 0.028875 0.081 0.114 0.028875 0.086 0.114 -0.028875 0.086 0.114 0.028875 0.081 0.106 -0.028875 -0.081 0.106 0.028875 -0.081 0.106 -0.028875 -0.086 0.114 -0.028875 -0.086 0.106 0.028875 -0.086 0.114 0.028875 -0.081 0.114 -0.028875 -0.081 0.114 0.028875 -0.086 0.126 -0.028875 0.086 0.126 0.028875 0.086 0.126 -0.028875 0.081 0.134 -0.028875 0.081 0.126 0.028875 0.081 0.134 0.028875 0.086 0.134 -0.028875 0.086 0.134 0.028875 0.081 0.126 -0.028875 -0.081 0.126 0.028875 -0.081 0.126 -0.028875 -0.086 0.134 -0.028875 -0.086 0.126 0.028875 -0.086 0.134 0.028875 -0.081 0.134 -0.028875 -0.081 0.134 0.028875 -0.086 0.146 -0.028875 0.086 0.146 0.028875 0.086 0.146 -0.028875 0.081 0.154 -0.028875 0.081 0.146 0.028875 0.081 0.154 0.028875 0.086 0.154 -0.028875 0.086 0.154 0.028875 0.081 0.146 -0.028875 -0.081 0.146 0.028875 -0.081 0.146 -0.028875 -0.086 0.154 -0.028875 -0.086 0.146 0.028875 -0.086 0.154 0.028875 -0.081 0.154 -0.028875 -0.081 0.154 0.028875 -0.086 0.166 -0.028875 0.086 0.166 0.028875 0.086 0.166 -0.028875 0.081 0.174 -0.028875 0.081 0.166 0.028875 0.081 0.174 0.028875 0.086 0.174 -0.028875 0.086 0.174 0.028875 0.081 0.166 -0.028875 -0.081 0.166 0.028875 -0.081 0.166 -0.028875 -0.086 0.174 -0.028875 -0.086 0.166 0.028875 -0.086 0.174 0.028875 -0.081 0.174 -0.028875 -0.081 0.174 0.028875 -0.086</float_array>
          <technique_common>
            <accessor count="428" source="#verts-array-array" stride="3">
              <param type="float" name="X" />
              <param type="float" name="Y" />
              <param type="float" name="Z" />
            </accessor>
          </technique_common>
        </source>
        <source id="normals-array">
          <float_array count="1284" id="normals-array-array">-0.2343525 -0.6737636 0.7008006 -0.2343525 0.6737636 0.7008006 -0.5773503 -0.5773503 -0.5773503 0.5773503 -0.5773503 -0.5773503 -0.5773503 0.5773503 -0.5773503 0.2343525 0.6737636 0.7008006 0.2343525 -0.6737636 0.7008006 0.5773503 0.5773503 -0.5773503 -0.5773503 -0.5773503 0.5773503 -0.5773503 0.5773503 0.5773503 -0.2343525 -0.6737636 -0.7008006 0.2343525 -0.6737636 -0.7008006 -0.2343525 0.6737636 -0.7008006 0.5773503 0.5773503 0.5773503 0.5773503 -0.5773503 0.5773503 0.2343525 0.6737636 -0.7008006 0.7278875 0.6856966 -7.269649e-18 0 1 -5.227187e-17 0.7139015 0.6856964 0.1420038 0.7278875 -0.6856966 0 0.7139015 -0.6856964 0.1420038 4.90434e-34 -1 5.227187e-17 0.6724805 0.6856964 0.2785506 0.6724805 -0.6856964 0.2785506 0.6052164 0.6856966 0.4043926 0.6052164 -0.6856966 0.4043926 0.5146943 0.6856964 0.5146943 0.5146943 -0.6856964 0.5146943 0.4043927 0.6856964 0.6052165 0.4043927 -0.6856964 0.6052165 0.2785505 0.6856965 0.6724804 0.2785505 -0.6856965 0.6724804 0.1420038 0.6856964 0.7139015 0.1420038 -0.6856964 0.7139015 -0.1420038 0.6856964 0.7139015 -0.1420038 -0.6856964 0.7139015 -0.2785505 0.6856965 0.6724805 -0.2785505 -0.6856965 0.6724805 -0.4043927 0.6856965 0.6052164 -0.4043927 -0.6856965 0.6052164 -0.5146943 0.6856965 0.5146943 -0.5146943 -0.6856965 0.5146943 -0.6052164 0.6856965 0.4043927 -0.6052164 -0.6856965 0.4043927 -0.6724805 0.6856965 0.2785505 -0.6724805 -0.6856965 0.2785505 -0.7139015 0.6856964 0.1420038 -0.7139015 -0.6856964 0.1420038 -0.7278876 0.6856965 1.292382e-17 -0.7278876 -0.6856965 -6.461911e-18 -0.7139015 0.6856964 -0.1420038 -0.7139015 -0.6856964 -0.1420038 -0.6724805 0.6856965 -0.2785505 -0.6724805 -0.6856965 -0.2785505 -0.6052164 0.6856965 -0.4043927 -0.6052164 -0.6856965 -0.4043927 -0.5146943 0.6856965 -0.5146943 -0.5146943 -0.6856965 -0.5146943 -0.4043927 0.6856965 -0.6052164 -0.4043927 -0.6856965 -0.6052164 -0.2785505 0.6856965 -0.6724805 -0.2785505 -0.6856965 -0.6724805 -0.1420038 0.6856964 -0.7139015 -0.1420038 -0.6856964 -0.7139015 0.1420038 0.6856964 -0.7139015 0.1420038 -0.6856964 -0.7139015 0.2785505 0.6856965 -0.6724804 0.2785505 -0.6856965 -0.6724804 0.4043927 0.6856964 -0.6052165 0.4043927 -0.6856964 -0.6052165 0.5146943 0.6856964 -0.5146943 0.5146943 -0.6856964 -0.5146943 0.6052164 0.6856966 -0.4043926 0.6052164 -0.6856966 -0.4043926 0.6724805 0.6856964 -0.2785506 0.6724805 -0.6856964 -0.2785506 0.7139015 0.6856964 -0.1420038 0.7139015 -0.6856964 -0.1420038 0.7278876 0.6856965 -1.211608e-17 2.45217e-34 1 -5.227187e-17 0.7139015 0.6856964 0.1420038 0.7278876 -0.6856965 1.292382e-17 0.7139015 -0.6856964 0.1420038 4.90434e-34 -1 5.227187e-17 0.6724805 0.6856965 0.2785505 0.6724805 -0.6856965 0.2785505 0.6052164 0.6856965 0.4043927 0.6052164 -0.6856965 0.4043927 0.5146943 0.6856965 0.5146943 0.5146943 -0.6856965 0.5146943 0.4043927 0.6856965 0.6052164 0.4043927 -0.6856965 0.6052164 0.2785505 0.6856965 0.6724805 0.2785505 -0.6856965 0.6724805 0.1420038 0.6856964 0.7139015 0.1420038 -0.6856964 0.7139015 -0.1420038 0.6856964 0.7139015 -0.1420038 -0.6856964 0.7139015 -0.2785505 0.6856965 0.6724804 -0.2785505 -0.6856965 0.6724804 -0.4043927 0.6856964 0.6052165 -0.4043927 -0.6856964 0.6052165 -0.5146943 0.6856964 0.5146943 -0.5146943 -0.6856964 0.5146943 -0.6052164 0.6856966 0.4043926 -0.6052164 -0.6856966 0.4043926 -0.6724805 0.6856964 0.2785506 -0.6724805 -0.6856964 0.2785506 -0.7139015 0.6856964 0.1420038 -0.7139015 -0.6856964 0.1420038 -0.7278875 0.6856966 6.46191e-18 -0.7278875 -0.6856966 0 -0.7139015 0.6856964 -0.1420038 -0.7139015 -0.6856964 -0.1420038 -0.6724805 0.6856964 -0.2785506 -0.6724805 -0.6856964 -0.2785506 -0.6052164 0.6856966 -0.4043926 -0.6052164 -0.6856966 -0.4043926 -0.5146943 0.6856964 -0.5146943 -0.5146943 -0.6856964 -0.5146943 -0.4043927 0.6856964 -0.6052165 -0.4043927 -0.6856964 -0.6052165 -0.2785505 0.6856965 -0.6724804 -0.2785505 -0.6856965 -0.6724804 -0.1420038 0.6856964 -0.7139015 -0.1420038 -0.6856964 -0.7139015 0.1420038 0.6856964 -0.7139015 0.1420038 -0.6856964 -0.7139015 0.2785505 0.6856965 -0.6724805 0.2785505 -0.6856965 -0.6724805 0.4043927 0.6856965 -0.6052164 0.4043927 -0.6856965 -0.6052164 0.5146943 0.6856965 -0.5146943 0.5146943 -0.6856965 -0.5146943 0.6052164 0.6856965 -0.4043927 0.6052164 -0.6856965 -0.4043927 0.6724805 0.6856965 -0.2785505 0.6724805 -0.6856965 -0.2785505 0.7139015 0.6856964 -0.1420038 0.7139015 -0.6856964 -0.1420038 -0.5773503 -0.5773503 0.5773503 -0.5773503 0.5773503 0.5773503 -0.5773503 -0.5773503 -0.5773503 0.5773503 -0.5773503 -0.5773503 -0.5773503 0.5773503 -0.5773503 0.5773503 0.5773503 0.5773503 0.5773503 -0.5773503 0.5773503 0.5773503 0.5773503 -0.5773503 -0.5773503 -0.5773503 0.5773503 -0.5773503 0.5773503 0.5773503 -0.5773503 -0.5773503 -0.5773503 0.5773503 -0.5773503 -0.5773503 -0.5773503 0.5773503 -0.5773503 0.5773503 0.5773503 0.5773503 0.5773503 -0.5773503 0.5773503 0.5773503 0.5773503 -0.5773503 -0.5773503 -0.5773503 0.5773503 -0.5773503 0.5773503 0.5773503 -0.5773503 -0.5773503 -0.5773503 0.5773503 -0.5773503 -0.5773503 -0.5773503 0.5773503 -0.5773503 0.5773503 0.5773503 0.5773503 0.5773503 -0.5773503 0.5773503 0.5773503 0.5773503 -0.5773503 -0.5773503 -0.5773503 0.5773503 -0.5773503 0.5773503 0.5773503 -0.5773503 -0.5773503 -0.5773503 0.5773503 -0.5773503 -0.5773503 -0.5773503 0.5773503 -0.5773503 0.5773503 0.5773503 0.5773503 0.5773503 -0.5773503 0.5773503 0.5773503 0.5773503 -0.5773503 -0.5773503 -0.5773503 0.5773503 -0.5773503 0.5773503 0.5773503 -0.5773503 -0.5773503 -0.5773503 0.5773503 -0.5773503 -0.5773503 -0.5773503 0.5773503 -0.5773503 0.5773503 0.5773503 0.5773503 0.5773503 -0.5773503 0.5773503 0.5773503 0.5773503 -0.5773503 -0.5773503 -0.5773503 0.5773503 -0.5773503 0.5773503 0.5773503 -0.5773503 -0.5773503 -0.5773503 0.5773503 -0.5773503 -0.5773503 -0.5773503 0.5773503 -0.5773503 0.5773503 0.5773503 0.5773503 0.5773503 -0.5773503 0.5773503 0.5773503 0.5773503 -0.5773503 -0.5773503 -0.5773503 0.5773503 -0.5773503 0.5773503 0.5773503 -0.5773503 -0.5773503 -0.5773503 0.5773503 -0.5773503 -0.5773503 -0.5773503 0.5773503 -0.5773503 0.5773503 0.5773503 0.5773503 0.5773503 -0.5773503 0.5773503 0.5773503 0.5773503 -0.5773503 -0.5773503 -0.5773503 0.5773503 -0.5773503 0.5773503 0.5773503 -0.5773503 -0.5773503 -0.5773503 0.5773503 -0.5773503 -0.5773503 -0.5773503 0.5773503 -0.5773503 0.5773503 0.5773503 0.5773503 0.5773503 -0.5773503 0.5773503 0.5773503 0.5773503 -0.5773503 -0.5773503 -0.5773503 0.5773503 -0.5773503 0.5773503 0.5773503 -0.5773503 -0.5773503 -0.5773503 0.5773503 -0.5773503 -0.5773503 -0.5773503 0.5773503 -0.5773503 0.5773503 0.5773503 0.5773503 0.5773503 -0.5773503 0.5773503 0.5773503 0.5773503 -0.5773503 -0.5773503 -0.5773503 0.5773503 -0.5773503 0.5773503 0.5773503 -0.5773503 -0.5773503 -0.5773503 0.5773503 -0.5773503 -0.5773503 -0.5773503 0.5773503 -0.5773503 0.5773503 0.5773503 0.5773503 0.5773503 -0.5773503 0.5773503 0.5773503 0.5773503 -0.5773503 -0.5773503 -0.5773503 0.5773503 -0.5773503 0.5773503 0.5773503 -0.5773503 -0.5773503 -0.5773503 0.5773503 -0.5773503 -0.5773503 -0.5773503 0.5773503 -0.5773503 0.5773503 0.5773503 0.5773503 0.5773503 -0.5773503 0.5773503 0.5773503 0.5773503 -0.5773503 -0.5773503 -0.5773503 0.5773503 -0.5773503 0.5773503 0.5773503 -0.5773503 -0.5773503 -0.5773503 0.5773503 -0.5773503 -0.5773503 -0.5773503 0.5773503 -0.5773503 0.5773503 0.5773503 0.5773503 0.5773503 -0.5773503 0.5773503 0.5773503 0.5773503 -0.5773503 -0.5773503 -0.5773503 0.5773503 -0.5773503 0.5773503 0.5773503 -0.5773503 -0.5773503 -0.5773503 0.5773503 -0.5773503 -0.5773503 -0.5773503 0.5773503 -0.5773503 0.5773503 0.5773503 0.5773503 0.5773503 -0.5773503 0.5773503 0.5773503 0.5773503 -0.5773503 -0.5773503 -0.5773503 0.5773503 -0.5773503 0.5773503 0.5773503 -0.5773503 -0.5773503 -0.5773503 0.5773503 -0.5773503 -0.5773503 -0.5773503 0.5773503 -0.5773503 0.5773503 0.5773503 0.5773503 0.5773503 -0.5773503 0.5773503 0.5773503 0.5773503 -0.5773503 -0.5773503 -0.5773503 0.5773503 -0.5773503 0.5773503 0.5773503 -0.5773503 -0.5773503 -0.5773503 0.5773503 -0.5773503 -0.5773503 -0.5773503 0.5773503 -0.5773503 0.5773503 0.5773503 0.5773503 0.5773503 -0.5773503 0.5773503 0.5773503 0.5773503 -0.5773503 -0.5773503 -0.5773503 0.5773503 -0.5773503 0.5773503 0.5773503 -0.5773503 -0.5773503 -0.5773503 0.5773503 -0.5773503 -0.5773503 -0.5773503 0.5773503 -0.5773503 0.5773503 0.5773503 0.5773503 0.5773503 -0.5773503 0.5773503 0.5773503 0.5773503 -0.5773503 -0.5773503 -0.5773503 0.5773503 -0.5773503 0.5773503 0.5773503 -0.5773503 -0.5773503 -0.5773503 0.5773503 -0.5773503 -0.5773503 -0.5773503 0.5773503 -0.5773503 0.5773503 0.5773503 0.5773503 0.5773503 -0.5773503 0.5773503 0.5773503 0.5773503 -0.5773503 -0.5773503 -0.5773503 0.5773503 -0.5773503 0.5773503 0.5773503 -0.5773503 -0.5773503 -0.5773503 0.5773503 -0.5773503 -0.5773503 -0.5773503 0.5773503 -0.5773503 0.5773503 0.5773503 0.5773503 0.5773503 -0.5773503 0.5773503 0.5773503 0.5773503 -0.5773503 -0.5773503 -0.5773503 0.5773503 -0.5773503 0.5773503 0.5773503 -0.5773503 -0.5773503 -0.5773503 0.5773503 -0.5773503 -0.5773503 -0.5773503 0.5773503 -0.5773503 0.5773503 0.5773503 0.5773503 0.5773503 -0.5773503 0.5773503 0.5773503 0.5773503 -0.5773503 -0.5773503 -0.5773503 0.5773503 -0.5773503 0.5773503 0.5773503 -0.5773503 -0.5773503 -0.5773503 0.5773503 -0.5773503 -0.5773503 -0.5773503 0.5773503 -0.5773503 0.5773503 0.5773503 0.5773503 0.5773503 -0.5773503 0.5773503 0.5773503 0.5773503 -0.5773503 -0.5773503 -0.5773503 0.5773503 -0.5773503 0.5773503 0.5773503 -0.5773503 -0.5773503 -0.5773503 0.5773503 -0.5773503 -0.5773503 -0.5773503 0.5773503 -0.5773503 0.5773503 0.5773503 0.5773503 0.5773503 -0.5773503 0.5773503 0.5773503 0.5773503 -0.5773503 -0.5773503 -0.5773503 0.5773503 -0.5773503 0.5773503 0.5773503 -0.5773503 -0.5773503 -0.5773503 0.5773503 -0.5773503 -0.5773503 -0.5773503 0.5773503 -0.5773503 0.5773503 0.5773503 0.5773503 0.5773503 -0.5773503 0.5773503 0.5773503 0.5773503 -0.5773503 -0.5773503 -0.5773503 0.5773503 -0.5773503 0.5773503 0.5773503 -0.5773503 -0.5773503 -0.5773503 0.5773503 -0.5773503 -0.5773503 -0.5773503 0.5773503 -0.5773503 0.5773503 0.5773503 0.5773503 0.5773503 -0.5773503 0.5773503 0.5773503 0.5773503 -0.5773503 -0.5773503 -0.5773503 0.5773503 -0.5773503 0.5773503 0.5773503 -0.5773503 -0.5773503 -0.5773503 0.5773503 -0.5773503 -0.5773503 -0.5773503 0.5773503 -0.5773503 0.5773503 0.5773503 0.5773503 0.5773503 -0.5773503 0.5773503 0.5773503 0.5773503 -0.5773503 -0.5773503 -0.5773503 0.5773503 -0.5773503 0.5773503 0.5773503 -0.5773503 -0.5773503 -0.5773503 0.5773503 -0.5773503 -0.5773503 -0.5773503 0.5773503 -0.5773503 0.5773503 0.5773503 0.5773503 0.5773503 -0.5773503 0.5773503 0.5773503 0.5773503 -0.5773503 -0.5773503 -0.5773503 0.5773503 -0.5773503 0.5773503 0.5773503 -0.5773503 -0.5773503 -0.5773503 0.5773503 -0.5773503 -0.5773503 -0.5773503 0.5773503 -0.5773503 0.5773503 0.5773503 0.5773503 0.5773503 -0.5773503 0.5773503 0.5773503 0.5773503 -0.5773503 -0.5773503 -0.5773503 0.5773503 -0.5773503 0.5773503 0.5773503 -0.5773503 -0.5773503 -0.5773503 0.5773503 -0.5773503 -0.5773503 -0.5773503 0.5773503 -0.5773503 0.5773503 0.5773503 0.5773503 0.5773503 -0.5773503 0.5773503 0.5773503 0.5773503 -0.5773503 -0.5773503 -0.5773503 0.5773503 -0.5773503 0.5773503 0.5773503 -0.5773503 -0.5773503 -0.5773503 0.5773503 -0.5773503 -0.5773503 -0.5773503 0.5773503 -0.5773503 0.5773503 0.5773503 0.5773503 0.5773503 -0.5773503 0.5773503 0.5773503 0.5773503 -0.5773503 -0.5773503 -0.5773503 0.5773503 -0.5773503 0.5773503 0.5773503 -0.5773503 -0.5773503 -0.5773503 0.5773503 -0.5773503 -0.5773503 -0.5773503 0.5773503 -0.5773503 0.5773503 0.5773503 0.5773503 0.5773503 -0.5773503 0.5773503 0.5773503 0.5773503 -0.5773503 -0.5773503 -0.5773503 0.5773503 -0.5773503 0.5773503 0.5773503 -0.5773503 -0.5773503 -0.5773503 0.5773503 -0.5773503 -0.5773503 -0.5773503 0.5773503 -0.5773503 0.5773503 0.5773503 0.5773503 0.5773503 -0.5773503 0.5773503 0.5773503 0.5773503 -0.5773503 -0.5773503 -0.5773503 0.5773503 -0.5773503 0.5773503 0.5773503 -0.5773503 -0.5773503 -0.5773503 0.5773503 -0.5773503 -0.5773503 -0.5773503 0.5773503 -0.5773503 0.5773503 0.5773503 0.5773503 0.5773503 -0.5773503 0.5773503 0.5773503 0.5773503 -0.5773503 -0.5773503 -0.5773503 0.5773503 -0.5773503 0.5773503 0.5773503 -0.5773503 -0.5773503 -0.5773503 0.5773503 -0.5773503 -0.5773503 -0.5773503 0.5773503 -0.5773503 0.5773503 0.5773503 0.5773503 0.5773503 -0.5773503 0.5773503 0.5773503 0.5773503 -0.5773503 -0.5773503 -0.5773503 0.5773503 -0.5773503 0.5773503 0.5773503 -0.5773503 -0.5773503 -0.5773503 0.5773503 -0.5773503 -0.5773503 -0.5773503 0.5773503 -0.5773503 0.5773503 0.5773503 0.5773503 0.5773503 -0.5773503 0.5773503 0.5773503 0.5773503 -0.5773503 -0.5773503 -0.5773503 0.5773503 -0.5773503 0.5773503 0.5773503 -0.5773503 -0.5773503 -0.5773503 0.5773503 -0.5773503 -0.5773503 -0.5773503 0.5773503 -0.5773503 0.5773503 0.5773503 0.5773503 0.5773503 -0.5773503 0.5773503 0.5773503 0.5773503 -0.5773503 -0.5773503 -0.5773503 0.5773503 -0.5773503 0.5773503 0.5773503 -0.5773503 -0.5773503 -0.5773503 0.5773503 -0.5773503 -0.5773503 -0.5773503 0.5773503 -0.5773503 0.5773503 0.5773503 0.5773503 0.5773503 -0.5773503 0.5773503 0.5773503 0.5773503 -0.5773503 -0.5773503 -0.5773503 0.5773503 -0.5773503 0.5773503 0.5773503 -0.5773503 -0.5773503 -0.5773503 0.5773503 -0.5773503 -0.5773503 -0.5773503 0.5773503 -0.5773503 0.5773503 0.5773503 0.5773503 0.5773503 -0.5773503 0.5773503 0.5773503 0.5773503 -0.5773503</float_array>
          <technique_common>
            <accessor count="428" source="#normals-array-array" stride="3">
              <param type="float" name="X" />
              <param type="float" name="Y" />
              <param type="float" name="Z" />
            </accessor>
          </technique_common>
        </source>
        <vertices id="verts-array-vertices">
          <input semantic="POSITION" source="#verts-array" />
        </vertices>
        <triangles count="712" material="material0">
          <input offset="0" semantic="VERTEX" source="#verts-array-vertices" />
          <input offset="1" semantic="NORMAL" source="#normals-array" />
          <p>0 0 1 1 2 2 3 3 0 0 2 2 2 2 1 1 4 4 4 4 3 3 2 2 0 0 5 5 1 1 6 6 0 0 3 3 6 6 5 5 0 0 1 1 5 5 4 4 7 7 3 3 4 4 4 4 5 5 7 7 7 7 6 6 3 3 5 5 6 6 7 7 8 8 9 9 10 10 11 11 8 8 10 10 10 10 9 9 12 12 12 12 11 11 10 10 8 8 13 13 9 9 14 14 8 8 11 11 14 14 13 13 8 8 9 9 13 13 12 12 15 15 11 11 12 12 12 12 13 13 15 15 15 15 14 14 11 11 13 13 14 14 15 15 16 16 17 17 18 18 16 16 18 18 19 19 19 19 18 18 20 20 19 19 20 20 21 21 18 18 17 17 22 22 18 18 22 22 20 20 20 20 22 22 23 23 20 20 23 23 21 21 22 22 17 17 24 24 22 22 24 24 23 23 23 23 24 24 25 25 23 23 25 25 21 21 24 24 17 17 26 26 24 24 26 26 25 25 25 25 26 26 27 27 25 25 27 27 21 21 26 26 17 17 28 28 26 26 28 28 27 27 27 27 28 28 29 29 27 27 29 29 21 21 28 28 17 17 30 30 28 28 30 30 29 29 29 29 30 30 31 31 29 29 31 31 21 21 30 30 17 17 32 32 30 30 32 32 31 31 31 31 32 32 33 33 31 31 33 33 21 21 32 32 17 17 5 5 32 32 5 5 33 33 33 33 5 5 6 6 33 33 6 6 21 21 5 5 17 17 34 34 5 5 34 34 6 6 6 6 34 34 35 35 6 6 35 35 21 21 34 34 17 17 36 36 34 34 36 36 35 35 35 35 36 36 37 37 35 35 37 37 21 21 36 36 17 17 38 38 36 36 38 38 37 37 37 37 38 38 39 39 37 37 39 39 21 21 38 38 17 17 40 40 38 38 40 40 39 39 39 39 40 40 41 41 39 39 41 41 21 21 40 40 17 17 42 42 40 40 42 42 41 41 41 41 42 42 43 43 41 41 43 43 21 21 42 42 17 17 44 44 42 42 44 44 43 43 43 43 44 44 45 45 43 43 45 45 21 21 44 44 17 17 46 46 44 44 46 46 45 45 45 45 46 46 47 47 45 45 47 47 21 21 46 46 17 17 48 48 46 46 48 48 47 47 47 47 48 48 49 49 47 47 49 49 21 21 48 48 17 17 50 50 48 48 50 50 49 49 49 49 50 50 51 51 49 49 51 51 21 21 50 50 17 17 52 52 50 50 52 52 51 51 51 51 52 52 53 53 51 51 53 53 21 21 52 52 17 17 54 54 52 52 54 54 53 53 53 53 54 54 55 55 53 53 55 55 21 21 54 54 17 17 56 56 54 54 56 56 55 55 55 55 56 56 57 57 55 55 57 57 21 21 56 56 17 17 58 58 56 56 58 58 57 57 57 57 58 58 59 59 57 57 59 59 21 21 58 58 17 17 60 60 58 58 60 60 59 59 59 59 60 60 61 61 59 59 61 61 21 21 60 60 17 17 62 62 60 60 62 62 61 61 61 61 62 62 63 63 61 61 63 63 21 21 62 62 17 17 15 15 62 62 15 15 63 63 63 63 15 15 11 11 63 63 11 11 21 21 15 15 17 17 64 64 15 15 64 64 11 11 11 11 64 64 65 65 11 11 65 65 21 21 64 64 17 17 66 66 64 64 66 66 65 65 65 65 66 66 67 67 65 65 67 67 21 21 66 66 17 17 68 68 66 66 68 68 67 67 67 67 68 68 69 69 67 67 69 69 21 21 68 68 17 17 70 70 68 68 70 70 69 69 69 69 70 70 71 71 69 69 71 71 21 21 70 70 17 17 72 72 70 70 72 72 71 71 71 71 72 72 73 73 71 71 73 73 21 21 72 72 17 17 74 74 72 72 74 74 73 73 73 73 74 74 75 75 73 73 75 75 21 21 74 74 17 17 76 76 74 74 76 76 75 75 75 75 76 76 77 77 75 75 77 77 21 21 76 76 17 17 16 16 76 76 16 16 77 77 77 77 16 16 19 19 77 77 19 19 21 21 78 78 79 79 80 80 78 78 80 80 81 81 81 81 80 80 82 82 81 81 82 82 83 83 80 80 79 79 84 84 80 80 84 84 82 82 82 82 84 84 85 85 82 82 85 85 83 83 84 84 79 79 86 86 84 84 86 86 85 85 85 85 86 86 87 87 85 85 87 87 83 83 86 86 79 79 88 88 86 86 88 88 87 87 87 87 88 88 89 89 87 87 89 89 83 83 88 88 79 79 90 90 88 88 90 90 89 89 89 89 90 90 91 91 89 89 91 91 83 83 90 90 79 79 92 92 90 90 92 92 91 91 91 91 92 92 93 93 91 91 93 93 83 83 92 92 79 79 94 94 92 92 94 94 93 93 93 93 94 94 95 95 93 93 95 95 83 83 94 94 79 79 1 1 94 94 1 1 95 95 95 95 1 1 0 0 95 95 0 0 83 83 1 1 79 79 96 96 1 1 96 96 0 0 0 0 96 96 97 97 0 0 97 97 83 83 96 96 79 79 98 98 96 96 98 98 97 97 97 97 98 98 99 99 97 97 99 99 83 83 98 98 79 79 100 100 98 98 100 100 99 99 99 99 100 100 101 101 99 99 101 101 83 83 100 100 79 79 102 102 100 100 102 102 101 101 101 101 102 102 103 103 101 101 103 103 83 83 102 102 79 79 104 104 102 102 104 104 103 103 103 103 104 104 105 105 103 103 105 105 83 83 104 104 79 79 106 106 104 104 106 106 105 105 105 105 106 106 107 107 105 105 107 107 83 83 106 106 79 79 108 108 106 106 108 108 107 107 107 107 108 108 109 109 107 107 109 109 83 83 108 108 79 79 110 110 108 108 110 110 109 109 109 109 110 110 111 111 109 109 111 111 83 83 110 110 79 79 112 112 110 110 112 112 111 111 111 111 112 112 113 113 111 111 113 113 83 83 112 112 79 79 114 114 112 112 114 114 113 113 113 113 114 114 115 115 113 113 115 115 83 83 114 114 79 79 116 116 114 114 116 116 115 115 115 115 116 116 117 117 115 115 117 117 83 83 116 116 79 79 118 118 116 116 118 118 117 117 117 117 118 118 119 119 117 117 119 119 83 83 118 118 79 79 120 120 118 118 120 120 119 119 119 119 120 120 121 121 119 119 121 121 83 83 120 120 79 79 122 122 120 120 122 122 121 121 121 121 122 122 123 123 121 121 123 123 83 83 122 122 79 79 124 124 122 122 124 124 123 123 123 123 124 124 125 125 123 123 125 125 83 83 124 124 79 79 12 12 124 124 12 12 125 125 125 125 12 12 10 10 125 125 10 10 83 83 12 12 79 79 126 126 12 12 126 126 10 10 10 10 126 126 127 127 10 10 127 127 83 83 126 126 79 79 128 128 126 126 128 128 127 127 127 127 128 128 129 129 127 127 129 129 83 83 128 128 79 79 130 130 128 128 130 130 129 129 129 129 130 130 131 131 129 129 131 131 83 83 130 130 79 79 132 132 130 130 132 132 131 131 131 131 132 132 133 133 131 131 133 133 83 83 132 132 79 79 134 134 132 132 134 134 133 133 133 133 134 134 135 135 133 133 135 135 83 83 134 134 79 79 136 136 134 134 136 136 135 135 135 135 136 136 137 137 135 135 137 137 83 83 136 136 79 79 138 138 136 136 138 138 137 137 137 137 138 138 139 139 137 137 139 139 83 83 138 138 79 79 78 78 138 138 78 78 139 139 139 139 78 78 81 81 139 139 81 81 83 83 140 140 141 141 142 142 143 143 140 140 142 142 142 142 141 141 144 144 144 144 143 143 142 142 140 140 145 145 141 141 146 146 140 140 143 143 146 146 145 145 140 140 141 141 145 145 144 144 147 147 143 143 144 144 144 144 145 145 147 147 147 147 146 146 143 143 145 145 146 146 147 147 148 148 149 149 150 150 151 151 148 148 150 150 150 150 149 149 152 152 152 152 151 151 150 150 148 148 153 153 149 149 154 154 148 148 151 151 154 154 153 153 148 148 149 149 153 153 152 152 155 155 151 151 152 152 152 152 153 153 155 155 155 155 154 154 151 151 153 153 154 154 155 155 156 156 157 157 158 158 159 159 156 156 158 158 158 158 157 157 160 160 160 160 159 159 158 158 156 156 161 161 157 157 162 162 156 156 159 159 162 162 161 161 156 156 157 157 161 161 160 160 163 163 159 159 160 160 160 160 161 161 163 163 163 163 162 162 159 159 161 161 162 162 163 163 164 164 165 165 166 166 167 167 164 164 166 166 166 166 165 165 168 168 168 168 167 167 166 166 164 164 169 169 165 165 170 170 164 164 167 167 170 170 169 169 164 164 165 165 169 169 168 168 171 171 167 167 168 168 168 168 169 169 171 171 171 171 170 170 167 167 169 169 170 170 171 171 172 172 173 173 174 174 175 175 172 172 174 174 174 174 173 173 176 176 176 176 175 175 174 174 172 172 177 177 173 173 178 178 172 172 175 175 178 178 177 177 172 172 173 173 177 177 176 176 179 179 175 175 176 176 176 176 177 177 179 179 179 179 178 178 175 175 177 177 178 178 179 179 180 180 181 181 182 182 183 183 180 180 182 182 182 182 181 181 184 184 184 184 183 183 182 182 180 180 185 185 181 181 186 186 180 180 183 183 186 186 185 185 180 180 181 181 185 185 184 184 187 187 183 183 184 184 184 184 185 185 187 187 187 187 186 186 183 183 185 185 186 186 187 187 188 188 189 189 190 190 191 191 188 188 190 190 190 190 189 189 192 192 192 192 191 191 190 190 188 188 193 193 189 189 194 194 188 188 191 191 194 194 193 193 188 188 189 189 193 193 192 192 195 195 191 191 192 192 192 192 193 193 195 195 195 195 194 194 191 191 193 193 194 194 195 195 196 196 197 197 198 198 199 199 196 196 198 198 198 198 197 197 200 200 200 200 199 199 198 198 196 196 201 201 197 197 202 202 196 196 199 199 202 202 201 201 196 196 197 197 201 201 200 200 203 203 199 199 200 200 200 200 201 201 203 203 203 203 202 202 199 199 201 201 202 202 203 203 204 204 205 205 206 206 207 207 204 204 206 206 206 206 205 205 208 208 208 208 207 207 206 206 204 204 209 209 205 205 210 210 204 204 207 207 210 210 209 209 204 204 205 205 209 209 208 208 211 211 207 207 208 208 208 208 209 209 211 211 211 211 210 210 207 207 209 209 210 210 211 211 212 212 213 213 214 214 215 215 212 212 214 214 214 214 213 213 216 216 216 216 215 215 214 214 212 212 217 217 213 213 218 218 212 212 215 215 218 218 217 217 212 212 213 213 217 217 216 216 219 219 215 215 216 216 216 216 217 217 219 219 219 219 218 218 215 215 217 217 218 218 219 219 220 220 221 221 222 222 223 223 220 220 222 222 222 222 221 221 224 224 224 224 223 223 222 222 220 220 225 225 221 221 226 226 220 220 223 223 226 226 225 225 220 220 221 221 225 225 224 224 227 227 223 223 224 224 224 224 225 225 227 227 227 227 226 226 223 223 225 225 226 226 227 227 228 228 229 229 230 230 231 231 228 228 230 230 230 230 229 229 232 232 232 232 231 231 230 230 228 228 233 233 229 229 234 234 228 228 231 231 234 234 233 233 228 228 229 229 233 233 232 232 235 235 231 231 232 232 232 232 233 233 235 235 235 235 234 234 231 231 233 233 234 234 235 235 236 236 237 237 238 238 239 239 236 236 238 238 238 238 237 237 240 240 240 240 239 239 238 238 236 236 241 241 237 237 242 242 236 236 239 239 242 242 241 241 236 236 237 237 241 241 240 240 243 243 239 239 240 240 240 240 241 241 243 243 243 243 242 242 239 239 241 241 242 242 243 243 244 244 245 245 246 246 247 247 244 244 246 246 246 246 245 245 248 248 248 248 247 247 246 246 244 244 249 249 245 245 250 250 244 244 247 247 250 250 249 249 244 244 245 245 249 249 248 248 251 251 247 247 248 248 248 248 249 249 251 251 251 251 250 250 247 247 249 249 250 250 251 251 252 252 253 253 254 254 255 255 252 252 254 254 254 254 253 253 256 256 256 256 255 255 254 254 252 252 257 257 253 253 258 258 252 252 255 255 258 258 257 257 252 252 253 253 257 257 256 256 259 259 255 255 256 256 256 256 257 257 259 259 259 259 258 258 255 255 257 257 258 258 259 259 260 260 261 261 262 262 263 263 260 260 262 262 262 262 261 261 264 264 264 264 263 263 262 262 260 260 265 265 261 261 266 266 260 260 263 263 266 266 265 265 260 260 261 261 265 265 264 264 267 267 263 263 264 264 264 264 265 265 267 267 267 267 266 266 263 263 265 265 266 266 267 267 268 268 269 269 270 270 271 271 268 268 270 270 270 270 269 269 272 272 272 272 271 271 270 270 268 268 273 273 269 269 274 274 268 268 271 271 274 274 273 273 268 268 269 269 273 273 272 272 275 275 271 271 272 272 272 272 273 273 275 275 275 275 274 274 271 271 273 273 274 274 275 275 276 276 277 277 278 278 279 279 276 276 278 278 278 278 277 277 280 280 280 280 279 279 278 278 276 276 281 281 277 277 282 282 276 276 279 279 282 282 281 281 276 276 277 277 281 281 280 280 283 283 279 279 280 280 280 280 281 281 283 283 283 283 282 282 279 279 281 281 282 282 283 283 284 284 285 285 286 286 287 287 284 284 286 286 286 286 285 285 288 288 288 288 287 287 286 286 284 284 289 289 285 285 290 290 284 284 287 287 290 290 289 289 284 284 285 285 289 289 288 288 291 291 287 287 288 288 288 288 289 289 291 291 291 291 290 290 287 287 289 289 290 290 291 291 292 292 293 293 294 294 295 295 292 292 294 294 294 294 293 293 296 296 296 296 295 295 294 294 292 292 297 297 293 293 298 298 292 292 295 295 298 298 297 297 292 292 293 293 297 297 296 296 299 299 295 295 296 296 296 296 297 297 299 299 299 299 298 298 295 295 297 297 298 298 299 299 300 300 301 301 302 302 303 303 300 300 302 302 302 302 301 301 304 304 304 304 303 303 302 302 300 300 305 305 301 301 306 306 300 300 303 303 306 306 305 305 300 300 301 301 305 305 304 304 307 307 303 303 304 304 304 304 305 305 307 307 307 307 306 306 303 303 305 305 306 306 307 307 308 308 309 309 310 310 311 311 308 308 310 310 310 310 309 309 312 312 312 312 311 311 310 310 308 308 313 313 309 309 314 314 308 308 311 311 314 314 313 313 308 308 309 309 313 313 312 312 315 315 311 311 312 312 312 312 313 313 315 315 315 315 314 314 311 311 313 313 314 314 315 315 316 316 317 317 318 318 319 319 316 316 318 318 318 318 317 317 320 320 320 320 319 319 318 318 316 316 321 321 317 317 322 322 316 316 319 319 322 322 321 321 316 316 317 317 321 321 320 320 323 323 319 319 320 320 320 320 321 321 323 323 323 323 322 322 319 319 321 321 322 322 323 323 324 324 325 325 326 326 327 327 324 324 326 326 326 326 325 325 328 328 328 328 327 327 326 326 324 324 329 329 325 325 330 330 324 324 327 327 330 330 329 329 324 324 325 325 329 329 328 328 331 331 327 327 328 328 328 328 329 329 331 331 331 331 330 330 327 327 329 329 330 330 331 331 332 332 333 333 334 334 335 335 332 332 334 334 334 334 333 333 336 336 336 336 335 335 334 334 332 332 337 337 333 333 338 338 332 332 335 335 338 338 337 337 332 332 333 333 337 337 336 336 339 339 335 335 336 336 336 336 337 337 339 339 339 339 338 338 335 335 337 337 338 338 339 339 340 340 341 341 342 342 343 343 340 340 342 342 342 342 341 341 344 344 344 344 343 343 342 342 340 340 345 345 341 341 346 346 340 340 343 343 346 346 345 345 340 340 341 341 345 345 344 344 347 347 343 343 344 344 344 344 345 345 347 347 347 347 346 346 343 343 345 345 346 346 347 347 348 348 349 349 350 350 351 351 348 348 350 350 350 350 349 349 352 352 352 352 351 351 350 350 348 348 353 353 349 349 354 354 348 348 351 351 354 354 353 353 348 348 349 349 353 353 352 352 355 355 351 351 352 352 352 352 353 353 355 355 355 355 354 354 351 351 353 353 354 354 355 355 356 356 357 357 358 358 359 359 356 356 358 358 358 358 357 357 360 360 360 360 359 359 358 358 356 356 361 361 357 357 362 362 356 356 359 359 362 362 361 361 356 356 357 357 361 361 360 360 363 363 359 359 360 360 360 360 361 361 363 363 363 363 362 362 359 359 361 361 362 362 363 363 364 364 365 365 366 366 367 367 364 364 366 366 366 366 365 365 368 368 368 368 367 367 366 366 364 364 369 369 365 365 370 370 364 364 367 367 370 370 369 369 364 364 365 365 369 369 368 368 371 371 367 367 368 368 368 368 369 369 371 371 371 371 370 370 367 367 369 369 370 370 371 371 372 372 373 373 374 374 375 375 372 372 374 374 374 374 373 373 376 376 376 376 375 375 374 374 372 372 377 377 373 373 378 378 372 372 375 375 378 378 377 377 372 372 373 373 377 377 376 376 379 379 375 375 376 376 376 376 377 377 379 379 379 379 378 378 375 375 377 377 378 378 379 379 380 380 381 381 382 382 383 383 380 380 382 382 382 382 381 381 384 384 384 384 383 383 382 382 380 380 385 385 381 381 386 386 380 380 383 383 386 386 385 385 380 380 381 381 385 385 384 384 387 387 383 383 384 384 384 384 385 385 387 387 387 387 386 386 383 383 385 385 386 386 387 387 388 388 389 389 390 390 391 391 388 388 390 390 390 390 389 389 392 392 392 392 391 391 390 390 388 388 393 393 389 389 394 394 388 388 391 391 394 394 393 393 388 388 389 389 393 393 392 392 395 395 391 391 392 392 392 392 393 393 395 395 395 395 394 394 391 391 393 393 394 394 395 395 396 396 397 397 398 398 399 399 396 396 398 398 398 398 397 397 400 400 400 400 399 399 398 398 396 396 401 401 397 397 402 402 396 396 399 399 402 402 401 401 396 396 397 397 401 401 400 400 403 403 399 399 400 400 400 400 401 401 403 403 403 403 402 402 399 399 401 401 402 402 403 403 404 404 405 405 406 406 407 407 404 404 406 406 406 406 405 405 408 408 408 408 407 407 406 406 404 404 409 409 405 405 410 410 404 404 407 407 410 410 409 409 404 404 405 405 409 409 408 408 411 411 407 407 408 408 408 408 409 409 411 411 411 411 410 410 407 407 409 409 410 410 411 411 412 412 413 413 414 414 415 415 412 412 414 414 414 414 413 413 416 416 416 416 415 415 414 414 412 412 417 417 413 413 418 418 412 412 415 415 418 418 417 417 412 412 413 413 417 417 416 416 419 419 415 415 416 416 416 416 417 417 419 419 419 419 418 418 415 415 417 417 418 418 419 419 420 420 421 421 422 422 423 423 420 420 422 422 422 422 421 421 424 424 424 424 423 423 422 422 420 420 425 425 421 421 426 426 420 420 423 423 426 426 425 425 420 420 421 421 425 425 424 424 427 427 423 423 424 424 424 424 425 425 427 427 427 427 426 426 423 423 425 425 426 426 427 427</p>
        </triangles>
      </mesh>
    </geometry>
  </library_geometries>
  <library_materials>
    <material id="fbfdd402753e47bdb526aadcdc706e39" name="defaultmaterial">
      <instance_effect url="#82305fe2a10c4968a9e0b1a944394518" />
    </material>
  </library_materials>
  <library_visual_scenes>
    <visual_scene id="scene">
      <node id="node0" name="node0">
        <instance_geometry url="#4f4360ca64ab49fdb6ce9fde516da2bb">
          <bind_material>
            <technique_common>
              <instance_material symbol="material0" target="#fbfdd402753e47bdb526aadcdc706e39" />
            </technique_common>
          </bind_material>
        </instance_geometry>
      </node>
    </visual_scene>
  </library_visual_scenes>
  <scene>
    <instance_visual_scene url="#scene" />
  </scene>
</COLLADA>
