# https://github.com/mikedh/trimesh
v -0.25000000 -0.17000000 0.06000000
v -0.25000000 0.17000000 0.06000000
v -0.25000000 -0.17000000 -0.06000000
v 0.25000000 -0.17000000 -0.06000000
v -0.25000000 0.17000000 -0.06000000
v 0.25000000 0.17000000 0.06000000
v 0.25000000 -0.17000000 0.06000000
v 0.25000000 0.17000000 -0.06000000
v 0.15000001 -0.16150001 0.03600000
v 0.15000001 0.16150001 0.03600000
v 0.15000001 -0.16150001 -0.06000000
v 0.25000000 -0.16150001 -0.06000000
v 0.15000001 0.16150001 -0.06000000
v 0.25000000 0.16150001 0.03600000
v 0.25000000 -0.16150001 0.03600000
v 0.25000000 0.16150001 -0.06000000
v -0.20000000 0.17000000 0.02000000
v -0.20000000 0.19000000 0.02000000
v -0.20000000 0.17000000 -0.02000000
v 0.20000000 0.17000000 -0.02000000
v -0.20000000 0.19000000 -0.02000000
v 0.20000000 0.19000000 0.02000000
v 0.20000000 0.17000000 0.02000000
v 0.20000000 0.19000000 -0.02000000
v -0.20000000 -0.19000000 0.02000000
v -0.20000000 -0.17000000 0.02000000
v -0.20000000 -0.19000000 -0.02000000
v 0.20000000 -0.19000000 -0.02000000
v -0.20000000 -0.17000000 -0.02000000
v 0.20000000 -0.17000000 0.02000000
v 0.20000000 -0.19000000 0.02000000
v 0.20000000 -0.17000000 -0.02000000
v -0.20000000 -0.14000000 0.07000000
v -0.20000000 0.14000000 0.07000000
v -0.20000000 -0.14000000 0.06000000
v 0.20000000 -0.14000000 0.06000000
v -0.20000000 0.14000000 0.06000000
v 0.20000000 0.14000000 0.07000000
v 0.20000000 -0.14000000 0.07000000
v 0.20000000 0.14000000 0.06000000
vn -0.57735027 -0.57735027 0.57735027
vn -0.57735027 0.57735027 0.57735027
vn -0.57735027 -0.57735027 -0.57735027
vn 0.57735027 -0.57735027 -0.57735027
vn -0.57735027 0.57735027 -0.57735027
vn 0.57735027 0.57735027 0.57735027
vn 0.57735027 -0.57735027 0.57735027
vn 0.57735027 0.57735027 -0.57735027
vn -0.57735027 -0.57735027 0.57735027
vn -0.57735027 0.57735027 0.57735027
vn -0.57735027 -0.57735027 -0.57735027
vn 0.57735027 -0.57735027 -0.57735027
vn -0.57735027 0.57735027 -0.57735027
vn 0.57735027 0.57735027 0.57735027
vn 0.57735027 -0.57735027 0.57735027
vn 0.57735027 0.57735027 -0.57735027
vn -0.57735027 -0.57735027 0.57735027
vn -0.57735027 0.57735027 0.57735027
vn -0.57735027 -0.57735027 -0.57735027
vn 0.57735027 -0.57735027 -0.57735027
vn -0.57735027 0.57735027 -0.57735027
vn 0.57735027 0.57735027 0.57735027
vn 0.57735027 -0.57735027 0.57735027
vn 0.57735027 0.57735027 -0.57735027
vn -0.57735027 -0.57735027 0.57735027
vn -0.57735027 0.57735027 0.57735027
vn -0.57735027 -0.57735027 -0.57735027
vn 0.57735027 -0.57735027 -0.57735027
vn -0.57735027 0.57735027 -0.57735027
vn 0.57735027 0.57735027 0.57735027
vn 0.57735027 -0.57735027 0.57735027
vn 0.57735027 0.57735027 -0.57735027
vn -0.57735027 -0.57735027 0.57735027
vn -0.57735027 0.57735027 0.57735027
vn -0.57735027 -0.57735027 -0.57735027
vn 0.57735027 -0.57735027 -0.57735027
vn -0.57735027 0.57735027 -0.57735027
vn 0.57735027 0.57735027 0.57735027
vn 0.57735027 -0.57735027 0.57735027
vn 0.57735027 0.57735027 -0.57735027
f 1//1 2//2 3//3
f 4//4 1//1 3//3
f 3//3 2//2 5//5
f 5//5 4//4 3//3
f 1//1 6//6 2//2
f 7//7 1//1 4//4
f 7//7 6//6 1//1
f 2//2 6//6 5//5
f 8//8 4//4 5//5
f 5//5 6//6 8//8
f 8//8 7//7 4//4
f 6//6 7//7 8//8
f 9//9 10//10 11//11
f 12//12 9//9 11//11
f 11//11 10//10 13//13
f 13//13 12//12 11//11
f 9//9 14//14 10//10
f 15//15 9//9 12//12
f 15//15 14//14 9//9
f 10//10 14//14 13//13
f 16//16 12//12 13//13
f 13//13 14//14 16//16
f 16//16 15//15 12//12
f 14//14 15//15 16//16
f 17//17 18//18 19//19
f 20//20 17//17 19//19
f 19//19 18//18 21//21
f 21//21 20//20 19//19
f 17//17 22//22 18//18
f 23//23 17//17 20//20
f 23//23 22//22 17//17
f 18//18 22//22 21//21
f 24//24 20//20 21//21
f 21//21 22//22 24//24
f 24//24 23//23 20//20
f 22//22 23//23 24//24
f 25//25 26//26 27//27
f 28//28 25//25 27//27
f 27//27 26//26 29//29
f 29//29 28//28 27//27
f 25//25 30//30 26//26
f 31//31 25//25 28//28
f 31//31 30//30 25//25
f 26//26 30//30 29//29
f 32//32 28//28 29//29
f 29//29 30//30 32//32
f 32//32 31//31 28//28
f 30//30 31//31 32//32
f 33//33 34//34 35//35
f 36//36 33//33 35//35
f 35//35 34//34 37//37
f 37//37 36//36 35//35
f 33//33 38//38 34//34
f 39//39 33//33 36//36
f 39//39 38//38 33//33
f 34//34 38//38 37//37
f 40//40 36//36 37//37
f 37//37 38//38 40//40
f 40//40 39//39 36//36
f 38//38 39//39 40//40

