<COLLADA xmlns="http://www.collada.org/2005/11/COLLADASchema" version="1.4.1">
  <asset>
    <created>2026-09-03T21:36:14.798100</created>
    <modified>2026-09-03T21:36:14.798104</modified>
    <up_axis>Y_UP</up_axis>
  </asset>
  <library_effects>
    <effect id="55f03c963c5b49908bbc87d4834351e2" name="55f03c963c5b49908bbc87d4834351e2">
      <profile_COMMON>
        <technique sid="common">
          <phong>
            <emission>
              <color>0.0 0.0 0.0 1.0</color>
            </emission>
            <ambient>
              <color>0.0 0.0 0.0 1.0</color>
            </ambient>
            <diffuse>
              <color>0.0 0.0 0.0 1.0</color>
            </diffuse>
            <specular>
              <color>0.0 0.0 0.0 1.0</color>
            </specular>
            <shininess>
              <float>0.0</float>
            </shininess>
            <reflective>
              <color>0.0 0.0 0.0 1.0</color>
            </reflective>
            <reflectivity>
              <float>0.0</float>
            </reflectivity>
            <transparent>
              <color>0.0 0.0 0.0 1.0</color>
            </transparent>
            <transparency>
              <float>1.0</float>
            </transparency>
          </phong>
        </technique>
        <extra>
          <technique profile="GOOGLEEARTH">
            <double_sided>0</double_sided>
          </technique>
        </extra>
      </profile_COMMON>
    </effect>
  </library_effects>
  <library_geometries>
    <geometry id="cc5a0be275584188a6385648242d329b" name="e4b1094cb2af4eca9f87687b5e204f85">
      <mesh>
        <source id="verts-array">
          <float_array count="120" id="verts-array-array">-0.25 -0.17 0.06 -0.25 0.17 0.06 -0.25 -0.17 -0.06 0.25 -0.17 -0.06 -0.25 0.17 -0.06 0.25 0.17 0.06 0.25 -0.17 0.06 0.25 0.17 -0.06 0.15 -0.1615 0.036 0.15 0.1615 0.036 0.15 -0.1615 -0.06 0.25 -0.1615 -0.06 0.15 0.1615 -0.06 0.25 0.1615 0.036 0.25 -0.1615 0.036 0.25 0.1615 -0.06 -0.2 0.17 0.02 -0.2 0.19 0.02 -0.2 0.17 -0.02 0.2 0.17 -0.02 -0.2 0.19 -0.02 0.2 0.19 0.02 0.2 0.17 0.02 0.2 0.19 -0.02 -0.2 -0.19 0.02 -0.2 -0.17 0.02 -0.2 -0.19 -0.02 0.2 -0.19 -0.02 -0.2 -0.17 -0.02 0.2 -0.17 0.02 0.2 -0.19 0.02 0.2 -0.17 -0.02 -0.2 -0.14 0.07 -0.2 0.14 0.07 -0.2 -0.14 0.06 0.2 -0.14 0.06 -0.2 0.14 0.06 0.2 0.14 0.07 0.2 -0.14 0.07 0.2 0.14 0.06</float_array>
          <technique_common>
            <accessor count="40" source="#verts-array-array" stride="3">
              <param type="float" name="X" />
              <param type="float" name="Y" />
              <param type="float" name="Z" />
            </accessor>
          </technique_common>
        </source>
        <source id="normals-array">
          <float_array count="120" id="normals-array-array">-0.5773503 -0.5773503 0.5773503 -0.5773503 0.5773503 0.5773503 -0.5773503 -0.5773503 -0.5773503 0.5773503 -0.5773503 -0.5773503 -0.5773503 0.5773503 -0.5773503 0.5773503 0.5773503 0.5773503 0.5773503 -0.5773503 0.5773503 0.5773503 0.5773503 -0.5773503 -0.5773503 -0.5773503 0.5773503 -0.5773503 0.5773503 0.5773503 -0.5773503 -0.5773503 -0.5773503 0.5773503 -0.5773503 -0.5773503 -0.5773503 0.5773503 -0.5773503 0.5773503 0.5773503 0.5773503 0.5773503 -0.5773503 0.5773503 0.5773503 0.5773503 -0.5773503 -0.5773503 -0.5773503 0.5773503 -0.5773503 0.5773503 0.5773503 -0.5773503 -0.5773503 -0.5773503 0.5773503 -0.5773503 -0.5773503 -0.5773503 0.5773503 -0.5773503 0.5773503 0.5773503 0.5773503 0.5773503 -0.5773503 0.5773503 0.5773503 0.5773503 -0.5773503 -0.5773503 -0.5773503 0.5773503 -0.5773503 0.5773503 0.5773503 -0.5773503 -0.5773503 -0.5773503 0.5773503 -0.5773503 -0.5773503 -0.5773503 0.5773503 -0.5773503 0.5773503 0.5773503 0.5773503 0.5773503 -0.5773503 0.5773503 0.5773503 0.5773503 -0.5773503 -0.5773503 -0.5773503 0.5773503 -0.5773503 0.5773503 0.5773503 -0.5773503 -0.5773503 -0.5773503 0.5773503 -0.5773503 -0.5773503 -0.5773503 0.5773503 -0.5773503 0.5773503 0.5773503 0.5773503 0.5773503 -0.5773503 0.5773503 0.5773503 0.5773503 -0.5773503</float_array>
          <technique_common>
            <accessor count="40" source="#normals-array-array" stride="3">
              <param type="float" name="X" />
              <param type="float" name="Y" />
              <param type="float" name="Z" />
            </accessor>
          </technique_common>
        </source>
        <vertices id="verts-array-vertices">
          <input semantic="POSITION" source="#verts-array" />
        </vertices>
        <triangles count="60" material="material0">
          <input offset="0" semantic="VERTEX" source="#verts-array-vertices" />
          <input offset="1" semantic="NORMAL" source="#normals-array" />
          <p>0 0 1 1 2 2 3 3 0 0 2 2 2 2 1 1 4 4 4 4 3 3 2 2 0 0 5 5 1 1 6 6 0 0 3 3 6 6 5 5 0 0 1 1 5 5 4 4 7 7 3 3 4 4 4 4 5 5 7 7 7 7 6 6 3 3 5 5 6 6 7 7 8 8 9 9 10 10 11 11 8 8 10 10 10 10 9 9 12 12 12 12 11 11 10 10 8 8 13 13 9 9 14 14 8 8 11 11 14 14 13 13 8 8 9 9 13 13 12 12 15 15 11 11 12 12 12 12 13 13 15 15 15 15 14 14 11 11 13 13 14 14 15 15 16 16 17 17 18 18 19 19 16 16 18 18 18 18 17 17 20 20 20 20 19 19 18 18 16 16 21 21 17 17 22 22 16 16 19 19 22 22 21 21 16 16 17 17 21 21 20 20 23 23 19 19 20 20 20 20 21 21 23 23 23 23 22 22 19 19 21 21 22 22 23 23 24 24 25 25 26 26 27 27 24 24 26 26 26 26 25 25 28 28 28 28 27 27 26 26 24 24 29 29 25 25 30 30 24 24 27 27 30 30 29 29 24 24 25 25 29 29 28 28 31 31 27 27 28 28 28 28 29 29 31 31 31 31 30 30 27 27 29 29 30 30 31 31 32 32 33 33 34 34 35 35 32 32 34 34 34 34 33 33 36 36 36 36 35 35 34 34 32 32 37 37 33 33 38 38 32 32 35 35 38 38 37 37 32 32 33 33 37 37 36 36 39 39 35 35 36 36 36 36 37 37 39 39 39 39 38 38 35 35 37 37 38 38 39 39</p>
        </triangles>
      </mesh>
    </geometry>
  </library_geometries>
  <library_materials>
    <material id="124b0cd5afd44ab98644d46613907dc1" name="defaultmaterial">
      <instance_effect url="#55f03c963c5b49908bbc87d4834351e2" />
    </material>
  </library_materials>
  <library_visual_scenes>
    <visual_scene id="scene">
      <node id="node0" name="node0">
        <instance_geometry url="#cc5a0be275584188a6385648242d329b">
          <bind_material>
            <technique_common>
              <instance_material symbol="material0" target="#124b0cd5afd44ab98644d46613907dc1" />
            </technique_common>
          </bind_material>
        </instance_geometry>
      </node>
    </visual_scene>
  </library_visual_scenes>
  <scene>
    <instance_visual_scene url="#scene" />
  </scene>
</COLLADA>
